<svg version="1.1" xmlns="http://www.w3.org/2000/svg" viewBox="0 0 1728.5553995768228 1444.9159991552037" width="1728.5553995768228" height="1444.9159991552037" filter="invert(93%) hue-rotate(180deg)">
  <!-- svg-source:excalidraw -->
  
  <defs>
    <style class="style-fonts">
      @font-face {
        font-family: "Virgil";
        src: url("https://excalidraw.com/Virgil.woff2");
      }
      @font-face {
        font-family: "Cascadia";
        src: url("https://excalidraw.com/Cascadia.woff2");
      }
    </style>
  </defs>
  <rect x="0" y="0" width="1728.5553995768228" height="1444.9159991552037" fill="#ffffff"></rect><g stroke-linecap="round" transform="translate(125.74680098276178 79.15566168891064) rotate(0 67.60000610351562 79.99998474121094)"><path d="M32 0 M32 0 C56.28 0.78, 84.31 1.18, 103.2 0 M32 0 C60.83 -1.13, 86.96 -0.75, 103.2 0 M103.2 0 C123.99 -0.87, 133.28 11.94, 135.2 32 M103.2 0 C124.26 0.81, 133.75 9.15, 135.2 32 M135.2 32 C133.44 67.69, 134.53 100.2, 135.2 128 M135.2 32 C135.15 58.76, 135.79 85.8, 135.2 128 M135.2 128 C136.15 148.35, 124.11 159.29, 103.2 160 M135.2 128 C137.17 150.18, 126.65 161.73, 103.2 160 M103.2 160 C76.33 159.21, 45.73 159.55, 32 160 M103.2 160 C83.55 160.55, 65.66 161.6, 32 160 M32 160 C9.7 158.13, -0.5 149.66, 0 128 M32 160 C11.81 158.71, -0.55 148.81, 0 128 M0 128 C-0.53 105.01, 1.84 84.97, 0 32 M0 128 C-0.15 107.84, 1.08 88.57, 0 32 M0 32 C-0.23 11.46, 11.25 0.13, 32 0 M0 32 C-1.38 11.29, 12.03 -2.12, 32 0" stroke="#000000" stroke-width="1" fill="none"></path></g><g transform="translate(154.3468070862774 145.55564032660595) rotate(0 38.3544921875 24)"><text x="0" y="0" font-family="Helvetica, Segoe UI Emoji" font-size="20px" fill="#000000" text-anchor="start" style="white-space: pre;" direction="ltr" dominant-baseline="text-before-edge">client</text><text x="0" y="24" font-family="Helvetica, Segoe UI Emoji" font-size="20px" fill="#000000" text-anchor="start" style="white-space: pre;" direction="ltr" dominant-baseline="text-before-edge">postman</text></g><g stroke-linecap="round"><g transform="translate(277.9515453839792 162.0976745265648) rotate(0 129.71558754057708 5.641582394423267)"><path d="M0.88 -0.09 C44.33 1.84, 216.3 10.38, 259.54 12.46 M-0.11 -1.18 C43.27 0.36, 215.26 8.94, 258.61 10.9" stroke="#000000" stroke-width="1" fill="none"></path></g><g transform="translate(277.9515453839792 162.0976745265648) rotate(0 129.71558754057708 5.641582394423267)"><path d="M229.82 19.87 C237.66 19.11, 243.52 15.3, 260.55 10.49 M230.54 20.37 C239.24 17.35, 248.02 13.6, 257.68 11.83" stroke="#000000" stroke-width="1" fill="none"></path></g><g transform="translate(277.9515453839792 162.0976745265648) rotate(0 129.71558754057708 5.641582394423267)"><path d="M230.8 -0.62 C238.59 2.88, 244.24 3.34, 260.55 10.49 M231.51 -0.13 C239.85 3.19, 248.33 5.76, 257.68 11.83" stroke="#000000" stroke-width="1" fill="none"></path></g></g><mask></mask><g stroke-linecap="round" transform="translate(569.3913322327618 10) rotate(0 262.31103515625 224.41112942165796)"><path d="M32 0 M32 0 C207.15 -1.99, 383.21 -1.23, 492.62 0 M32 0 C131.16 0.71, 230.94 0.75, 492.62 0 M492.62 0 C513.4 0.9, 524.77 11.16, 524.62 32 M492.62 0 C516.1 -1.07, 523.63 11.08, 524.62 32 M524.62 32 C526.14 161.91, 525.31 291.71, 524.62 416.82 M524.62 32 C525.36 178.13, 525.86 324.38, 524.62 416.82 M524.62 416.82 C526.19 436.36, 514.62 449.92, 492.62 448.82 M524.62 416.82 C526.9 438.56, 513.75 450.06, 492.62 448.82 M492.62 448.82 C388.26 449.02, 284.9 449.07, 32 448.82 M492.62 448.82 C363.6 450.22, 235.14 450.62, 32 448.82 M32 448.82 C8.78 448.6, -1.66 439.75, 0 416.82 M32 448.82 C12.5 451.05, -0.95 435.89, 0 416.82 M0 416.82 C-1.33 298.98, 0.09 180.62, 0 32 M0 416.82 C0.14 302.2, 0.39 186.33, 0 32 M0 32 C-1.24 9.22, 9.73 -1.17, 32 0 M0 32 C0.61 9.34, 11.49 -1.52, 32 0" stroke="#000000" stroke-width="1" fill="none"></path></g><g transform="translate(329.94681318979303 106.3556281195747) rotate(0 35.029296875 12)"><text x="0" y="0" font-family="Helvetica, Segoe UI Emoji" font-size="20px" fill="#000000" text-anchor="start" style="white-space: pre;" direction="ltr" dominant-baseline="text-before-edge">payload</text></g><g stroke-linecap="round" transform="translate(631.3465934632305 67.95566474066845) rotate(0 68.00003051757812 22)"><path d="M11 0 M11 0 C43.96 0.97, 77.99 -0.18, 125 0 M11 0 C53.23 -0.16, 93.56 -0.11, 125 0 M125 0 C131.78 0.83, 134.86 2.52, 136 11 M125 0 C133.02 1.94, 136.16 3.1, 136 11 M136 11 C136.97 21.4, 134.81 27.96, 136 33 M136 11 C136.36 16.07, 136.33 20.18, 136 33 M136 33 C135.8 42.12, 132.98 45.66, 125 44 M136 33 C136.88 40.44, 130.36 45.75, 125 44 M125 44 C86.55 45.36, 50.63 42.78, 11 44 M125 44 C93.1 44.48, 61.9 44.55, 11 44 M11 44 C2.92 45.71, 1.33 42.01, 0 33 M11 44 C1.59 45.22, 1.52 40.09, 0 33 M0 33 C0.81 26.7, -1.74 21.8, 0 11 M0 33 C-0.66 27.16, -0.54 19.16, 0 11 M0 11 C1.13 5.12, 3.1 -1.52, 11 0 M0 11 C0.94 4.36, 4.67 0.59, 11 0" stroke="#000000" stroke-width="1" fill="none"></path></g><g transform="translate(633.9466300843243 78.3556281195747) rotate(0 62.7978515625 12)"><text x="0" y="0" font-family="Helvetica, Segoe UI Emoji" font-size="20px" fill="#000000" text-anchor="start" style="white-space: pre;" direction="ltr" dominant-baseline="text-before-edge">express.json()</text></g><g stroke-linecap="round" transform="translate(625.3467019701751 199.7334493001299) rotate(0 68.00003051757812 22)"><path d="M11 0 M11 0 C37.82 -0.23, 63.81 1.32, 125 0 M11 0 C50.08 0.28, 89.5 -0.83, 125 0 M125 0 C132.47 0.92, 134.85 1.74, 136 11 M125 0 C132.46 0.08, 135.11 3.8, 136 11 M136 11 C136.22 17.75, 134.62 27.93, 136 33 M136 11 C135.24 17.77, 135.97 25.59, 136 33 M136 33 C136.05 39.49, 130.34 42.88, 125 44 M136 33 C136.14 40.62, 131.56 45.62, 125 44 M125 44 C96.85 44.16, 69.04 44.54, 11 44 M125 44 C85.33 43.92, 45.97 43.42, 11 44 M11 44 C3.53 45.32, -0.24 38.79, 0 33 M11 44 C4.23 45.38, -0.9 40.32, 0 33 M0 33 C1.85 28.16, -1.05 21.97, 0 11 M0 33 C0.6 24.38, -0.47 17.37, 0 11 M0 11 C1.86 4.23, 3.94 -1.82, 11 0 M0 11 C0.09 5.52, 5.21 1.16, 11 0" stroke="#000000" stroke-width="1" fill="none"></path></g><g transform="translate(683.2777574327257 211.24924432663738) rotate(0 27.7978515625 12)"><text x="0" y="0" font-family="Helvetica, Segoe UI Emoji" font-size="20px" fill="#000000" text-anchor="start" style="white-space: pre;" direction="ltr" dominant-baseline="text-before-edge">logger</text></g><g stroke-linecap="round" transform="translate(609.4800705682653 361.82236395941845) rotate(0 85.60000610351562 17.199981689453125)"><path d="M8.6 0 M8.6 0 C65.81 2.6, 122.45 0.15, 162.6 0 M8.6 0 C47.39 -1.72, 85.9 -1.17, 162.6 0 M162.6 0 C169.12 0.66, 169.58 4.41, 171.2 8.6 M162.6 0 C168.82 2.24, 169.16 4.29, 171.2 8.6 M171.2 8.6 C171.13 14.05, 169.52 22.68, 171.2 25.8 M171.2 8.6 C170.6 12.43, 171.7 16.75, 171.2 25.8 M171.2 25.8 C170.58 29.72, 169.86 32.47, 162.6 34.4 M171.2 25.8 C172.38 29.56, 170.4 32.64, 162.6 34.4 M162.6 34.4 C123.28 35.65, 87.17 33.98, 8.6 34.4 M162.6 34.4 C125.77 32.75, 87.22 32.19, 8.6 34.4 M8.6 34.4 C0.89 36.21, 1.85 30.17, 0 25.8 M8.6 34.4 C3.4 36.36, 1.34 31.71, 0 25.8 M0 25.8 C-0.43 21.32, -0.12 17.53, 0 8.6 M0 25.8 C0.84 19.24, 0.54 14.03, 0 8.6 M0 8.6 C0.49 1.82, 3.15 -0.63, 8.6 0 M0 8.6 C-1.02 1.46, 0.99 1.22, 8.6 0" stroke="#000000" stroke-width="1" fill="none"></path></g><g transform="translate(636.149412609281 367.0223456488716) rotate(0 58.9306640625 12)"><text x="58.9306640625" y="0" font-family="Helvetica, Segoe UI Emoji" font-size="20px" fill="#000000" text-anchor="middle" style="white-space: pre;" direction="ltr" dominant-baseline="text-before-edge">route handler</text></g><g stroke-linecap="round"><g transform="translate(685.7468009827618 27.15564643012158) rotate(0 0.9329262527059541 21.338872058047173)"><path d="M-0.44 -0.27 C0.02 6.82, 1.96 35.54, 2.31 43.08 M1.52 -1.46 C1.84 5.7, 0.81 36.71, 1.23 44.13" stroke="#000000" stroke-width="1" fill="none"></path></g><g transform="translate(685.7468009827618 27.15564643012158) rotate(0 0.9329262527059541 21.338872058047173)"><path d="M-6.87 23.03 C-5.85 27.36, -0.72 32.34, 0.83 45.11 M-6.64 23.23 C-4.53 31.4, -0.71 37.38, 0.7 43.29" stroke="#000000" stroke-width="1" fill="none"></path></g><g transform="translate(685.7468009827618 27.15564643012158) rotate(0 0.9329262527059541 21.338872058047173)"><path d="M8.21 22.95 C5.27 27.24, 6.45 32.25, 0.83 45.11 M8.44 23.15 C5.11 31.37, 3.5 37.38, 0.7 43.29" stroke="#000000" stroke-width="1" fill="none"></path></g></g><mask></mask><g stroke-linecap="round"><g transform="translate(677.7862475858054 113.55564032660595) rotate(0 1.7211665186961795 121.6689837654958)"><path d="M-0.9 0.36 C-0.09 40.61, 3.26 202.05, 4.35 242.7 M0.82 -0.5 C1.49 40.4, 2.44 203.37, 3.18 243.84" stroke="#000000" stroke-width="1" fill="none"></path></g><g transform="translate(677.7862475858054 113.55564032660595) rotate(0 1.7211665186961795 121.6689837654958)"><path d="M-6.8 215.07 C-5.71 224.33, -0.47 231.25, 2.42 244.37 M-7.16 216.49 C-4.79 225.67, -0.64 235.89, 3 244.27" stroke="#000000" stroke-width="1" fill="none"></path></g><g transform="translate(677.7862475858054 113.55564032660595) rotate(0 1.7211665186961795 121.6689837654958)"><path d="M13.72 214.84 C9.61 224, 9.65 230.98, 2.42 244.37 M13.36 216.26 C8.76 225.38, 5.94 235.68, 3 244.27" stroke="#000000" stroke-width="1" fill="none"></path></g></g><mask></mask><g transform="translate(701.7468009827618 43.3556281195747) rotate(0 14.453125 12)"><text x="0" y="0" font-family="Helvetica, Segoe UI Emoji" font-size="20px" fill="#000000" text-anchor="start" style="white-space: pre;" direction="ltr" dominant-baseline="text-before-edge">req</text></g><g transform="translate(693.7468009827618 141.3556281195747) rotate(0 73.9306640625 12)"><text x="0" y="0" font-family="Helvetica, Segoe UI Emoji" font-size="20px" fill="#000000" text-anchor="start" style="white-space: pre;" direction="ltr" dominant-baseline="text-before-edge">modified request</text></g><g stroke-linecap="round"><g transform="translate(614.635744125123 239.83567777034386) rotate(0 -171.39601583226175 -17.617326700792773)"><path d="M-1.14 -0.15 C-58.14 -6.05, -285.64 -29.55, -342.92 -35.09 M0.46 -1.27 C-56.51 -7.05, -286.12 -28.17, -343.25 -33.82" stroke="#000000" stroke-width="1" fill="none"></path></g><g transform="translate(614.635744125123 239.83567777034386) rotate(0 -171.39601583226175 -17.617326700792773)"><path d="M-314.46 -39.41 C-321.48 -41.23, -325.11 -36.71, -341.62 -33.14 M-314.99 -42.16 C-323.6 -39.16, -334.66 -36.23, -342.83 -34.19" stroke="#000000" stroke-width="1" fill="none"></path></g><g transform="translate(614.635744125123 239.83567777034386) rotate(0 -171.39601583226175 -17.617326700792773)"><path d="M-316.4 -18.99 C-323.05 -25.31, -326.25 -25.33, -341.62 -33.14 M-316.93 -21.74 C-324.86 -25.98, -335.23 -30.3, -342.83 -34.19" stroke="#000000" stroke-width="1" fill="none"></path></g></g><mask></mask><g transform="translate(363.3023633200014 183.02230834960938) rotate(0 41.1376953125 12)"><text x="0" y="0" font-family="Helvetica, Segoe UI Emoji" font-size="20px" fill="#000000" text-anchor="start" style="white-space: pre;" direction="ltr" dominant-baseline="text-before-edge">response</text></g><g transform="translate(781.7468009827618 73.3556281195747) rotate(0 51.1328125 12)"><text x="0" y="0" font-family="Helvetica, Segoe UI Emoji" font-size="20px" fill="#000000" text-anchor="start" style="white-space: pre;" direction="ltr" dominant-baseline="text-before-edge">middleware</text></g><g transform="translate(780.1665920681423 210.80484057229705) rotate(0 109.52148437499994 24)"><text x="0" y="0" font-family="Helvetica, Segoe UI Emoji" font-size="20px" fill="#000000" text-anchor="start" style="white-space: pre;" direction="ltr" dominant-baseline="text-before-edge">log the request and pass</text><text x="0" y="24" font-family="Helvetica, Segoe UI Emoji" font-size="20px" fill="#000000" text-anchor="start" style="white-space: pre;" direction="ltr" dominant-baseline="text-before-edge">to the next handler</text></g><g stroke-linecap="round"><g transform="translate(939.2221747504342 754.772417218689) rotate(0 123.80037871788511 -3.9107120482995015)"><path d="M1.05 -0.84 C42.4 -2.07, 206.42 -6.2, 247.46 -7.15 M0.14 1.34 C41.35 -0.3, 205.22 -7.53, 246.23 -9.16" stroke="#000000" stroke-width="1" fill="none"></path></g><g transform="translate(939.2221747504342 754.772417218689) rotate(0 123.80037871788511 -3.9107120482995015)"><path d="M217.1 1.38 C225.59 -1.89, 233.37 -4.44, 245.14 -9.51 M218.23 2.51 C224.1 -0.49, 230.91 -3.06, 246.59 -9.29" stroke="#000000" stroke-width="1" fill="none"></path></g><g transform="translate(939.2221747504342 754.772417218689) rotate(0 123.80037871788511 -3.9107120482995015)"><path d="M216.24 -19.12 C224.98 -17.39, 232.97 -14.94, 245.14 -9.51 M217.37 -18 C223.59 -16.71, 230.58 -15.02, 246.59 -9.29" stroke="#000000" stroke-width="1" fill="none"></path></g></g><mask></mask><g stroke-linecap="round"><g transform="translate(1192.0293642536908 672.5071323212437) rotate(0 -0.35753516678619235 79.42318136201561)"><path d="M0.43 -0.89 C0.5 25.44, 0.05 131.77, 0.09 158.29 M-0.81 1.25 C-0.91 27.75, -1.25 133.37, -1.12 159.74" stroke="#000000" stroke-width="1" fill="none"></path></g></g><mask></mask><g stroke-linecap="round"><g transform="translate(1287.22809443199 673.2546418597949) rotate(0 1.0115272780661826 79.55514303833093)"><path d="M0.83 0.21 C0.99 26.41, 0.04 131.95, -0.12 158.36 M-0.19 -0.73 C0.46 26.17, 1.78 133.04, 2.21 159.84" stroke="#000000" stroke-width="1" fill="none"></path></g></g><mask></mask><g stroke-linecap="round" transform="translate(1190.8333672417539 659.415934729197) rotate(0 47.969103956219556 16.36398639367735)"><path d="M40.68 0.76 C49.51 0.08, 62.01 0.75, 70.42 2.31 C78.82 3.87, 86.96 7.23, 91.13 10.11 C95.3 12.99, 97.02 16.66, 95.41 19.6 C93.8 22.53, 88.12 25.4, 81.47 27.72 C74.82 30.04, 64.84 33.04, 55.53 33.54 C46.22 34.05, 33.95 32.43, 25.61 30.75 C17.26 29.07, 9.71 26.39, 5.47 23.47 C1.22 20.56, -1.41 16.31, 0.14 13.24 C1.69 10.17, 6.04 7.42, 14.76 5.07 C23.47 2.72, 44.51 -0.07, 52.44 -0.87 C60.38 -1.67, 62.38 -0.24, 62.38 0.27 M38.22 -0.26 C47.01 -0.92, 61.03 -0.12, 69.73 1.19 C78.42 2.49, 86.24 4.42, 90.37 7.55 C94.5 10.67, 96 16.68, 94.49 19.95 C92.98 23.22, 87.47 24.86, 81.31 27.16 C75.15 29.47, 66.38 33.09, 57.51 33.76 C48.64 34.44, 36.62 32.63, 28.08 31.19 C19.55 29.74, 11.12 27.98, 6.32 25.12 C1.53 22.27, -1.74 17.25, -0.7 14.05 C0.34 10.85, 5.92 8.03, 12.55 5.92 C19.18 3.82, 34.53 2.37, 39.08 1.43 C43.63 0.5, 39.78 0.23, 39.86 0.33" stroke="#000000" stroke-width="1" fill="none"></path></g><g stroke-linecap="round" transform="translate(1192.833421495226 812.5270577082551) rotate(0 47.969103956219556 16.36398639367735)"><path d="M68.67 2.56 C76.74 3.83, 85.95 7.05, 90.4 9.82 C94.84 12.58, 96.64 16.3, 95.34 19.16 C94.05 22.03, 89.29 24.77, 82.65 27.02 C76.01 29.26, 64.89 31.93, 55.53 32.66 C46.17 33.39, 34.96 33, 26.5 31.38 C18.03 29.76, 8.98 25.97, 4.73 22.94 C0.48 19.91, -0.51 16.22, 0.97 13.2 C2.45 10.19, 7.25 7.09, 13.64 4.85 C20.03 2.62, 29.65 0.28, 39.32 -0.2 C48.99 -0.69, 66.28 1.48, 71.65 1.95 C77.01 2.42, 72.1 2.41, 71.51 2.63 M64.84 0.35 C73.32 1.23, 81.27 5.71, 86.58 8.22 C91.89 10.72, 96.75 12.5, 96.69 15.38 C96.63 18.26, 91.99 22.78, 86.2 25.51 C80.41 28.24, 70.83 30.68, 61.96 31.76 C53.09 32.83, 41.7 33.04, 32.96 31.94 C24.22 30.84, 15.23 27.72, 9.51 25.15 C3.8 22.58, -1.32 19.7, -1.34 16.54 C-1.36 13.38, 3.66 8.7, 9.42 6.2 C15.18 3.7, 24.28 2.62, 33.22 1.53 C42.15 0.44, 57.97 -0.18, 63.02 -0.34 C68.07 -0.51, 63.8 0.09, 63.53 0.56" stroke="#000000" stroke-width="1" fill="none"></path></g><g transform="translate(1188.3888414171006 860.7492646716887) rotate(0 44.4677734375 12)"><text x="0" y="0" font-family="Helvetica, Segoe UI Emoji" font-size="20px" fill="#000000" text-anchor="start" style="white-space: pre;" direction="ltr" dominant-baseline="text-before-edge">MongoDB</text></g><g stroke-linecap="round"><g transform="translate(1191.722174750434 780.304827008928) rotate(0 -130.20587397937982 5.035406982098948)"><path d="M0.31 -0.48 C-43.15 1.15, -217.41 8.79, -260.73 10.61 M-0.98 -1.78 C-44.1 -0.07, -215.4 9.67, -258.63 11.85" stroke="#000000" stroke-width="1" fill="none"></path></g><g transform="translate(1191.722174750434 780.304827008928) rotate(0 -130.20587397937982 5.035406982098948)"><path d="M-231.83 -1.86 C-240.3 3.71, -249.04 7.15, -259.22 12.92 M-230.67 0.49 C-239.39 4.27, -246.87 6.81, -257.82 10.93" stroke="#000000" stroke-width="1" fill="none"></path></g><g transform="translate(1191.722174750434 780.304827008928) rotate(0 -130.20587397937982 5.035406982098948)"><path d="M-230.73 18.63 C-239.67 17.96, -248.75 15.16, -259.22 12.92 M-229.57 20.98 C-238.69 18.51, -246.51 14.8, -257.82 10.93" stroke="#000000" stroke-width="1" fill="none"></path></g></g><mask></mask><g stroke-linecap="round" transform="translate(10 601.6381739056292) rotate(0 97.33332316080731 143.11111450195312)"><path d="M32 0 M32 0 C60.15 -1.7, 90.87 -1.72, 162.67 0 M32 0 C79.31 -0.33, 125.5 -1.41, 162.67 0 M162.67 0 C182.44 -1.54, 195.76 11.15, 194.67 32 M162.67 0 C183.04 0.83, 192.69 12.83, 194.67 32 M194.67 32 C196.75 97.26, 196.1 163.22, 194.67 254.22 M194.67 32 C195.81 87.79, 196.12 143.15, 194.67 254.22 M194.67 254.22 C194.83 276.39, 182.79 287.41, 162.67 286.22 M194.67 254.22 C194.35 274.67, 185.56 287.92, 162.67 286.22 M162.67 286.22 C111.57 283.44, 63.53 286.75, 32 286.22 M162.67 286.22 C136.25 286.7, 108.53 285.36, 32 286.22 M32 286.22 C10.4 287.49, -1.04 273.75, 0 254.22 M32 286.22 C11.61 285.12, -1.08 277.3, 0 254.22 M0 254.22 C-1.99 199.31, -2.78 142.58, 0 32 M0 254.22 C0.82 193.55, 1.62 134.94, 0 32 M0 32 C-0.75 12.21, 10.36 1.36, 32 0 M0 32 C1.58 9.79, 10.71 -0.66, 32 0" stroke="#000000" stroke-width="1" fill="none"></path></g><g transform="translate(49.999983045789975 680.9715343656985) rotate(0 25.56640625 12)"><text x="0" y="0" font-family="Helvetica, Segoe UI Emoji" font-size="20px" fill="#000000" text-anchor="start" style="white-space: pre;" direction="ltr" dominant-baseline="text-before-edge">Client</text></g><g stroke-linecap="round"><g transform="translate(218.8888888888889 689.0158483785458) rotate(0 70.0715753378378 -1.648177441775033)"><path d="M-0.12 -0.37 C23.31 -0.64, 116.06 -0.89, 139.55 -1.31 M-1.65 -1.62 C22.24 -2.23, 118.14 -2.87, 141.79 -2.92" stroke="#000000" stroke-width="1" fill="none"></path></g><g transform="translate(218.8888888888889 689.0158483785458) rotate(0 70.0715753378378 -1.648177441775033)"><path d="M113.03 5.99 C121.29 5.9, 124.62 1.77, 143.59 -4.69 M114.34 7.82 C121.71 4.85, 128.34 1.91, 142.54 -3.16" stroke="#000000" stroke-width="1" fill="none"></path></g><g transform="translate(218.8888888888889 689.0158483785458) rotate(0 70.0715753378378 -1.648177441775033)"><path d="M112.93 -14.53 C121.26 -10.23, 124.61 -9.95, 143.59 -4.69 M114.23 -12.7 C121.6 -10.24, 128.26 -7.75, 142.54 -3.16" stroke="#000000" stroke-width="1" fill="none"></path></g></g><mask></mask><g stroke-linecap="round"><g transform="translate(335.33338758680566 758.6511755769657) rotate(0 -61.132459237983795 2.8043292852769355)"><path d="M0.74 0.3 C-19.5 1.45, -101.61 5.44, -122.27 6.2 M-0.33 -0.59 C-20.61 0.27, -102.36 3.33, -123.01 4.4" stroke="#000000" stroke-width="1" fill="none"></path></g><g transform="translate(335.33338758680566 758.6511755769657) rotate(0 -61.132459237983795 2.8043292852769355)"><path d="M-94.8 -6.41 C-100.71 -5.15, -109.32 -2.65, -123.23 2.76 M-94.86 -6.84 C-103.58 -3.93, -111.14 -0.25, -123.39 4.24" stroke="#000000" stroke-width="1" fill="none"></path></g><g transform="translate(335.33338758680566 758.6511755769657) rotate(0 -61.132459237983795 2.8043292852769355)"><path d="M-93.9 14.09 C-99.9 10.64, -108.71 8.42, -123.23 2.76 M-93.96 13.67 C-102.83 10.6, -110.64 8.32, -123.39 4.24" stroke="#000000" stroke-width="1" fill="none"></path></g></g><mask></mask><g transform="translate(397.88889567057305 630.527011931888) rotate(0 73.91113281250003 96)"><text x="0" y="0" font-family="Helvetica, Segoe UI Emoji" font-size="20px" fill="#000000" text-anchor="start" style="white-space: pre;" direction="ltr" dominant-baseline="text-before-edge">index</text><text x="0" y="24" font-family="Helvetica, Segoe UI Emoji" font-size="20px" fill="#000000" text-anchor="start" style="white-space: pre;" direction="ltr" dominant-baseline="text-before-edge"></text><text x="0" y="48" font-family="Helvetica, Segoe UI Emoji" font-size="20px" fill="#000000" text-anchor="start" style="white-space: pre;" direction="ltr" dominant-baseline="text-before-edge">middlewares</text><text x="0" y="72" font-family="Helvetica, Segoe UI Emoji" font-size="20px" fill="#000000" text-anchor="start" style="white-space: pre;" direction="ltr" dominant-baseline="text-before-edge">    express.json()</text><text x="0" y="96" font-family="Helvetica, Segoe UI Emoji" font-size="20px" fill="#000000" text-anchor="start" style="white-space: pre;" direction="ltr" dominant-baseline="text-before-edge">    logger</text><text x="0" y="120" font-family="Helvetica, Segoe UI Emoji" font-size="20px" fill="#000000" text-anchor="start" style="white-space: pre;" direction="ltr" dominant-baseline="text-before-edge">    router</text><text x="0" y="144" font-family="Helvetica, Segoe UI Emoji" font-size="20px" fill="#000000" text-anchor="start" style="white-space: pre;" direction="ltr" dominant-baseline="text-before-edge">    errorHandler</text><text x="0" y="168" font-family="Helvetica, Segoe UI Emoji" font-size="20px" fill="#000000" text-anchor="start" style="white-space: pre;" direction="ltr" dominant-baseline="text-before-edge"></text></g><g stroke-linecap="round" transform="translate(373.0000135633683 605.1936752077127) rotate(0 95.5555725097656 111.11111111111131)"><path d="M32 0 M32 0 C71.01 1.14, 105.06 -0.05, 159.11 0 M32 0 C75.72 0.81, 120.87 0.85, 159.11 0 M159.11 0 C180.7 0.72, 190.92 12.6, 191.11 32 M159.11 0 C182.04 1.6, 189.15 8.57, 191.11 32 M191.11 32 C192.17 63.85, 191.68 97.77, 191.11 190.22 M191.11 32 C191.99 77.87, 192.73 124.97, 191.11 190.22 M191.11 190.22 C190.64 210.6, 181.29 224.02, 159.11 222.22 M191.11 190.22 C192.28 209.82, 181.93 220.76, 159.11 222.22 M159.11 222.22 C125.32 221.87, 90.68 223.17, 32 222.22 M159.11 222.22 C133.44 223.3, 107.31 223.68, 32 222.22 M32 222.22 C9.18 220.39, 1.77 211.91, 0 190.22 M32 222.22 C11.67 223.21, 0.43 209.74, 0 190.22 M0 190.22 C-1.41 146.97, 1.34 105.68, 0 32 M0 190.22 C1.66 139.83, 1.31 90.94, 0 32 M0 32 C0.12 11.61, 11.4 0.19, 32 0 M0 32 C-0.64 10.31, 10.07 2.2, 32 0" stroke="#000000" stroke-width="1" fill="none"></path></g><g stroke-linecap="round"><g transform="translate(487.66665988498266 759.8603723919573) rotate(0 103.5470077679006 -0.22361907051413255)"><path d="M1.14 0.22 C35.05 0.47, 170.55 0.58, 204.57 0.66 M0.28 -0.71 C34.46 -0.73, 172.8 -1.02, 206.82 -1.11" stroke="#000000" stroke-width="1" fill="none"></path></g><g transform="translate(487.66665988498266 759.8603723919573) rotate(0 103.5470077679006 -0.22361907051413255)"><path d="M179.01 7.75 C190.91 4.54, 202.1 1.71, 205.88 0.15 M177.75 9.99 C188.22 5.11, 199.43 1.23, 207.74 -0.73" stroke="#000000" stroke-width="1" fill="none"></path></g><g transform="translate(487.66665988498266 759.8603723919573) rotate(0 103.5470077679006 -0.22361907051413255)"><path d="M178.97 -12.77 C190.73 -7.91, 201.94 -2.67, 205.88 0.15 M177.7 -10.53 C188.07 -7.89, 199.29 -4.26, 207.74 -0.73" stroke="#000000" stroke-width="1" fill="none"></path></g></g><mask></mask><g stroke-linecap="round" transform="translate(705.4444376627604 580.3047931005076) rotate(0 139.55556233723962 198.66667853461377)"><path d="M32 0 M32 0 C87.22 -0.39, 143.99 -1.45, 247.11 0 M32 0 C104.72 0.06, 176.66 0.52, 247.11 0 M247.11 0 C268.62 1.67, 279.97 12.37, 279.11 32 M247.11 0 C270.2 -0.2, 280.11 10.38, 279.11 32 M279.11 32 C277.46 128.64, 277.36 227.99, 279.11 365.33 M279.11 32 C281.13 120.31, 280.36 207.58, 279.11 365.33 M279.11 365.33 C277.55 384.75, 266.48 397.75, 247.11 397.33 M279.11 365.33 C280.92 386.02, 268.08 398.9, 247.11 397.33 M247.11 397.33 C187.99 396.18, 132.44 395.05, 32 397.33 M247.11 397.33 C167.96 397.42, 86.47 398.92, 32 397.33 M32 397.33 C11.63 395.37, -1.97 386.89, 0 365.33 M32 397.33 C9.69 395.43, -2 386.37, 0 365.33 M0 365.33 C0.21 267.78, -1.8 171.37, 0 32 M0 365.33 C1.36 269.31, 1.52 172.52, 0 32 M0 32 C0.78 10.95, 11.78 -0.43, 32 0 M0 32 C-1.31 10.2, 9.13 -0.64, 32 0" stroke="#000000" stroke-width="1" fill="none"></path></g><g transform="translate(737.8888956705729 604.9714563763323) rotate(0 112.8271484375 12)"><text x="0" y="0" font-family="Helvetica, Segoe UI Emoji" font-size="20px" fill="#000000" text-anchor="start" style="white-space: pre;" direction="ltr" dominant-baseline="text-before-edge">controller - business logic</text></g><g stroke-linecap="round" transform="translate(745.4444376627604 700.3048100547176) rotate(0 92.4444580078125 71.99998643663207)"><path d="M32 0 M32 0 C76.06 -0.84, 124.35 -0.41, 152.89 0 M32 0 C60.98 1.95, 91.99 0.09, 152.89 0 M152.89 0 C175.38 0.84, 186.05 11.17, 184.89 32 M152.89 0 C172.83 -0.03, 183.02 8.51, 184.89 32 M184.89 32 C185.26 63.23, 187.21 94.76, 184.89 112 M184.89 32 C185.63 49.71, 184.9 67.57, 184.89 112 M184.89 112 C184.28 133.4, 173.93 144.17, 152.89 144 M184.89 112 C186.42 135.51, 176.11 143.39, 152.89 144 M152.89 144 C105.95 144.67, 58.54 145.29, 32 144 M152.89 144 C112.66 144.65, 72.7 144.44, 32 144 M32 144 C9.96 143.85, 1.23 134.84, 0 112 M32 144 C11.44 145, -0.65 131.27, 0 112 M0 112 C-0.07 83.95, 0.75 55.29, 0 32 M0 112 C1.41 92.24, 0.45 71.45, 0 32 M0 32 C0.67 10.29, 11.54 1.53, 32 0 M0 32 C0.48 11.14, 11.75 1.34, 32 0" stroke="#000000" stroke-width="1" fill="none"></path></g><g transform="translate(773.4444512261285 729.4159008207766) rotate(0 27.236328125 12)"><text x="0" y="0" font-family="Helvetica, Segoe UI Emoji" font-size="20px" fill="#000000" text-anchor="start" style="white-space: pre;" direction="ltr" dominant-baseline="text-before-edge">Model</text></g><g stroke-linecap="round"><g transform="translate(796.1111450195312 632.7492341541101) rotate(0 3.3750816966924617 33.10255857553034)"><path d="M-0.27 -0.06 C1.08 10.9, 5.91 54.91, 7.02 65.8 M1.8 -1.14 C3.15 10.03, 5.84 56.1, 6.48 67.35" stroke="#000000" stroke-width="1" fill="none"></path></g><g transform="translate(796.1111450195312 632.7492341541101) rotate(0 3.3750816966924617 33.10255857553034)"><path d="M-5.52 41.13 C-2.88 45.81, -1.24 49.47, 6.72 67.8 M-5.24 40.61 C-1.01 50.71, 4.04 61.51, 7.29 68.25" stroke="#000000" stroke-width="1" fill="none"></path></g><g transform="translate(796.1111450195312 632.7492341541101) rotate(0 3.3750816966924617 33.10255857553034)"><path d="M14.96 39.93 C13.31 44.81, 10.67 48.72, 6.72 67.8 M15.24 39.4 C11.48 50.17, 8.54 61.44, 7.29 68.25" stroke="#000000" stroke-width="1" fill="none"></path></g></g><mask></mask><g stroke-linecap="round"><g transform="translate(858.394115025781 686.9714767213845) rotate(0 -0.05348606735793737 -22.08776793371021)"><path d="M1.1 -0.21 C0.86 -7.16, -0.1 -35.35, -0.48 -42.43 M0.22 -1.37 C-0.23 -8.56, -0.83 -36.76, -1.21 -43.96" stroke="#000000" stroke-width="1" fill="none"></path></g><g transform="translate(858.394115025781 686.9714767213845) rotate(0 -0.05348606735793737 -22.08776793371021)"><path d="M6.61 -23.08 C5.84 -31.85, 2.31 -38.99, 0.23 -45.22 M6.53 -24.08 C4.83 -30.13, 2.05 -34.35, -0.56 -43.72" stroke="#000000" stroke-width="1" fill="none"></path></g><g transform="translate(858.394115025781 686.9714767213845) rotate(0 -0.05348606735793737 -22.08776793371021)"><path d="M-8.28 -22.55 C-3.36 -31.66, -1.21 -39, 0.23 -45.22 M-8.36 -23.55 C-5.99 -29.71, -4.68 -34.08, -0.56 -43.72" stroke="#000000" stroke-width="1" fill="none"></path></g></g><mask></mask><g stroke-linecap="round"><g transform="translate(687.72220187717 781.7478894423693) rotate(0 -100.83573694220843 -5.970186073764353)"><path d="M0.3 -0.29 C-33.49 -1.81, -168.59 -8.38, -201.97 -10.11 M-1 -1.48 C-34.51 -3.23, -166.62 -9.78, -199.83 -11.65" stroke="#000000" stroke-width="1" fill="none"></path></g><g transform="translate(687.72220187717 781.7478894423693) rotate(0 -100.83573694220843 -5.970186073764353)"><path d="M-171.61 -22.23 C-179.86 -15.63, -191.33 -12.22, -200.13 -9.86 M-172.03 -20.06 C-178.72 -18.18, -186.4 -14.68, -198.85 -12.63" stroke="#000000" stroke-width="1" fill="none"></path></g><g transform="translate(687.72220187717 781.7478894423693) rotate(0 -100.83573694220843 -5.970186073764353)"><path d="M-172.69 -1.73 C-180.38 -2.63, -191.45 -6.73, -200.13 -9.86 M-173.11 0.43 C-179.53 -3.12, -186.92 -5.05, -198.85 -12.63" stroke="#000000" stroke-width="1" fill="none"></path></g></g><mask></mask><g stroke-linecap="round" transform="translate(340.4444376627605 535.8603825644832) rotate(0 365.33331976996527 268.00002204047314)"><path d="M32 0 M32 0 C171.78 1.5, 312.63 1.19, 698.67 0 M32 0 C295.12 -0.3, 558.57 -0.45, 698.67 0 M698.67 0 C719.04 0.72, 728.78 12.04, 730.67 32 M698.67 0 C720.16 -2.01, 729.58 11.79, 730.67 32 M730.67 32 C729.76 129.2, 730.7 224.71, 730.67 504 M730.67 32 C729.55 161.48, 729.25 291.04, 730.67 504 M730.67 504 C730.93 526.64, 719.59 535.52, 698.67 536 M730.67 504 C729.36 524.27, 721.49 537.02, 698.67 536 M698.67 536 C524.02 537.67, 351.53 537.76, 32 536 M698.67 536 C482.92 535.89, 266.55 536.12, 32 536 M32 536 C11.57 535.22, -0.17 525.12, 0 504 M32 536 C9.07 536.07, 0.39 524.95, 0 504 M0 504 C1.65 335.49, 0.7 166.96, 0 32 M0 504 C1.36 337.83, 1.02 171.28, 0 32 M0 32 C-0.7 12.42, 12.29 1.04, 32 0 M0 32 C-0.55 11.6, 9.03 -1.46, 32 0" stroke="#000000" stroke-width="1" fill="none"></path></g><g transform="translate(409.3333265516493 560.0826081775476) rotate(0 27.783203125 12)"><text x="0" y="0" font-family="Helvetica, Segoe UI Emoji" font-size="20px" fill="#000000" text-anchor="start" style="white-space: pre;" direction="ltr" dominant-baseline="text-before-edge">server</text></g><g transform="translate(773.8333129882811 771.5270560128379) rotate(0 28.88671875 12)"><text x="0" y="0" font-family="Helvetica, Segoe UI Emoji" font-size="20px" fill="#000000" text-anchor="start" style="white-space: pre;" direction="ltr" dominant-baseline="text-before-edge">CRUD</text></g><g transform="translate(1179.111090766059 550.9715004572786) rotate(0 41.1474609375 12)"><text x="0" y="0" font-family="Helvetica, Segoe UI Emoji" font-size="20px" fill="#000000" text-anchor="start" style="white-space: pre;" direction="ltr" dominant-baseline="text-before-edge">database</text></g><g stroke-linecap="round" transform="translate(277.3888821072047 1109.4714428129732) rotate(0 190.22221883138013 136.444481743707)"><path d="M32 0 M32 0 C148.37 0.75, 265.01 2.27, 348.44 0 M32 0 C130.79 -0.4, 231.26 -0.89, 348.44 0 M348.44 0 C370.44 -1.28, 380.77 10.66, 380.44 32 M348.44 0 C367.68 -1.34, 380.31 12.82, 380.44 32 M380.44 32 C382.08 116.82, 381.3 198.15, 380.44 240.89 M380.44 32 C381.41 114.11, 380.59 196.97, 380.44 240.89 M380.44 240.89 C382.2 261.53, 370.79 274.14, 348.44 272.89 M380.44 240.89 C382.21 263.8, 369.9 274.87, 348.44 272.89 M348.44 272.89 C249.52 272.17, 149.28 272.29, 32 272.89 M348.44 272.89 C277.73 272.5, 207.21 272.53, 32 272.89 M32 272.89 C8.8 273.15, -1.81 263.21, 0 240.89 M32 272.89 C8.5 271.9, 0.52 261.73, 0 240.89 M0 240.89 C-1.67 195.74, 0.77 150.46, 0 32 M0 240.89 C-0.52 181.28, -0.34 120.96, 0 32 M0 32 C-1.08 9.8, 10.98 -0.53, 32 0 M0 32 C0.7 10.96, 9.19 0.59, 32 0" stroke="#000000" stroke-width="1" fill="none"></path></g><g transform="translate(318.7777370876734 1149.5826115684113) rotate(0 128.41308593750003 12)"><text x="0" y="0" font-family="Helvetica, Segoe UI Emoji" font-size="20px" fill="#000000" text-anchor="start" style="white-space: pre;" direction="ltr" dominant-baseline="text-before-edge">login post {userId, password}</text></g><g transform="translate(316.5555487738713 1234.0270560128556) rotate(0 29.4677734375 12)"><text x="0" y="0" font-family="Helvetica, Segoe UI Emoji" font-size="20px" fill="#000000" text-anchor="start" style="white-space: pre;" direction="ltr" dominant-baseline="text-before-edge">signup</text></g><g transform="translate(316.333312988281 1191.8048337906207) rotate(0 115.078125 12)"><text x="0" y="0" font-family="Helvetica, Segoe UI Emoji" font-size="20px" fill="#000000" text-anchor="start" style="white-space: pre;" direction="ltr" dominant-baseline="text-before-edge">login GET {header:token} </text></g><g transform="translate(384.7777642144095 1235.360402909544) rotate(0 27.22656250000003 12)"><text x="0" y="0" font-family="Helvetica, Segoe UI Emoji" font-size="20px" fill="#000000" text-anchor="start" style="white-space: pre;" direction="ltr" dominant-baseline="text-before-edge">POST</text></g><g transform="translate(454.5555623372394 1233.3603825644923) rotate(0 47.255859375 12)"><text x="0" y="0" font-family="Helvetica, Segoe UI Emoji" font-size="20px" fill="#000000" text-anchor="start" style="white-space: pre;" direction="ltr" dominant-baseline="text-before-edge">{userData}</text></g><g stroke-linecap="round"><g transform="translate(586.111145019531 1163.3603486560714) rotate(0 101.87594280367091 0.6667466065416647)"><path d="M-1 -0.48 C33.24 0.09, 170.42 2.56, 204.76 3.12 M0.67 -1.78 C34.84 -1.55, 169.99 0.22, 203.97 1.23" stroke="#000000" stroke-width="1" fill="none"></path></g><g transform="translate(586.111145019531 1163.3603486560714) rotate(0 101.87594280367091 0.6667466065416647)"><path d="M174.77 11.44 C183.2 9.8, 189.64 7.33, 203.87 2.42 M176.28 11.19 C182.51 9.23, 188.54 6.97, 204.53 2" stroke="#000000" stroke-width="1" fill="none"></path></g><g transform="translate(586.111145019531 1163.3603486560714) rotate(0 101.87594280367091 0.6667466065416647)"><path d="M175.19 -9.08 C183.46 -5.77, 189.8 -3.29, 203.87 2.42 M176.69 -9.33 C182.96 -6.38, 188.89 -3.72, 204.53 2" stroke="#000000" stroke-width="1" fill="none"></path></g></g><mask></mask><g stroke-linecap="round" transform="translate(810.1111178927949 1093.9715140206558) rotate(0 160.88887532552081 154.22224256727418)"><path d="M32 0 M32 0 C135.79 -0.57, 238.56 0.64, 289.78 0 M32 0 C111.08 0.94, 191.39 0.83, 289.78 0 M289.78 0 C312.71 -1.09, 320.59 9.64, 321.78 32 M289.78 0 C309.27 1.96, 320.51 10.55, 321.78 32 M321.78 32 C321.2 84.78, 323.22 134.9, 321.78 276.44 M321.78 32 C322.65 126.9, 321.25 219.6, 321.78 276.44 M321.78 276.44 C320.36 298.53, 313.06 306.56, 289.78 308.44 M321.78 276.44 C321.52 298.84, 309.85 306.28, 289.78 308.44 M289.78 308.44 C216 308.45, 143.74 307.88, 32 308.44 M289.78 308.44 C221.27 306.8, 153.9 307.14, 32 308.44 M32 308.44 C10.38 306.52, 1.68 299.61, 0 276.44 M32 308.44 C8.89 308.87, 0.64 299.36, 0 276.44 M0 276.44 C2.96 226.48, 0.52 173.49, 0 32 M0 276.44 C-1.23 187.91, -2.1 98.97, 0 32 M0 32 C1.51 10.63, 9.77 -0.43, 32 0 M0 32 C1.44 9.17, 12.41 -1.82, 32 0" stroke="#000000" stroke-width="1" fill="none"></path></g><g transform="translate(847.4444240993922 1113.7492782350655) rotate(0 131.1669921875 108)"><text x="0" y="0" font-family="Helvetica, Segoe UI Emoji" font-size="20px" fill="#000000" text-anchor="start" style="white-space: pre;" direction="ltr" dominant-baseline="text-before-edge">Login API</text><text x="0" y="24" font-family="Helvetica, Segoe UI Emoji" font-size="20px" fill="#000000" text-anchor="start" style="white-space: pre;" direction="ltr" dominant-baseline="text-before-edge">    1. check if user exists in db</text><text x="0" y="48" font-family="Helvetica, Segoe UI Emoji" font-size="20px" fill="#000000" text-anchor="start" style="white-space: pre;" direction="ltr" dominant-baseline="text-before-edge">        invalid userId, 404</text><text x="0" y="72" font-family="Helvetica, Segoe UI Emoji" font-size="20px" fill="#000000" text-anchor="start" style="white-space: pre;" direction="ltr" dominant-baseline="text-before-edge">    2. validate password</text><text x="0" y="96" font-family="Helvetica, Segoe UI Emoji" font-size="20px" fill="#000000" text-anchor="start" style="white-space: pre;" direction="ltr" dominant-baseline="text-before-edge">        incorrect pwd, 401</text><text x="0" y="120" font-family="Helvetica, Segoe UI Emoji" font-size="20px" fill="#000000" text-anchor="start" style="white-space: pre;" direction="ltr" dominant-baseline="text-before-edge">   </text><text x="0" y="144" font-family="Helvetica, Segoe UI Emoji" font-size="20px" fill="#000000" text-anchor="start" style="white-space: pre;" direction="ltr" dominant-baseline="text-before-edge">    login user is successful,</text><text x="0" y="168" font-family="Helvetica, Segoe UI Emoji" font-size="20px" fill="#000000" text-anchor="start" style="white-space: pre;" direction="ltr" dominant-baseline="text-before-edge">    send the userData back to </text><text x="0" y="192" font-family="Helvetica, Segoe UI Emoji" font-size="20px" fill="#000000" text-anchor="start" style="white-space: pre;" direction="ltr" dominant-baseline="text-before-edge">    client</text></g><g stroke-linecap="round" transform="translate(1170.111117892795 1093.5826183500826) rotate(0 274.2221408420139 170.66669040256056)"><path d="M32 0 M32 0 C150.27 -0.98, 267.21 -1.53, 516.44 0 M32 0 C195.94 -2.22, 360.07 -1.54, 516.44 0 M516.44 0 C538.25 1.01, 549.04 10.83, 548.44 32 M516.44 0 C539.71 1.02, 548.99 8.81, 548.44 32 M548.44 32 C550.96 141.14, 548.32 250.89, 548.44 309.33 M548.44 32 C548.36 118.03, 547.52 204.71, 548.44 309.33 M548.44 309.33 C550.3 331.76, 536.41 343.05, 516.44 341.33 M548.44 309.33 C546.36 330.46, 539.88 339.61, 516.44 341.33 M516.44 341.33 C342.2 341.48, 169.88 342.64, 32 341.33 M516.44 341.33 C365.5 339.58, 214.85 339.33, 32 341.33 M32 341.33 C10.54 340.89, -1.34 332.12, 0 309.33 M32 341.33 C11.89 341.96, 0.37 328.87, 0 309.33 M0 309.33 C-0.93 252.66, -1.87 195.18, 0 32 M0 309.33 C0.36 215.39, 0.02 119.65, 0 32 M0 32 C0.35 10.73, 12 1.14, 32 0 M0 32 C-1.25 10.44, 12.56 -1.42, 32 0" stroke="#000000" stroke-width="1" fill="none"></path></g><g transform="translate(1206.3333129882808 1124.0270560128433) rotate(0 241.7919921875 60)"><text x="0" y="0" font-family="Helvetica, Segoe UI Emoji" font-size="20px" fill="#000000" text-anchor="start" style="white-space: pre;" direction="ltr" dominant-baseline="text-before-edge">Signup API</text><text x="0" y="24" font-family="Helvetica, Segoe UI Emoji" font-size="20px" fill="#000000" text-anchor="start" style="white-space: pre;" direction="ltr" dominant-baseline="text-before-edge">    1. check if user id exists in db</text><text x="0" y="48" font-family="Helvetica, Segoe UI Emoji" font-size="20px" fill="#000000" text-anchor="start" style="white-space: pre;" direction="ltr" dominant-baseline="text-before-edge">        403, userId already exists.</text><text x="0" y="72" font-family="Helvetica, Segoe UI Emoji" font-size="20px" fill="#000000" text-anchor="start" style="white-space: pre;" direction="ltr" dominant-baseline="text-before-edge">    2. validate the data</text><text x="0" y="96" font-family="Helvetica, Segoe UI Emoji" font-size="20px" fill="#000000" text-anchor="start" style="white-space: pre;" direction="ltr" dominant-baseline="text-before-edge">        user account created, send the success message</text></g></svg>