<svg version="1.1" xmlns="http://www.w3.org/2000/svg" viewBox="0 0 1822.4598747132316 1663.576989552329" width="1822.4598747132316" height="1663.576989552329" filter="invert(93%) hue-rotate(180deg)">
  <!-- svg-source:excalidraw -->
  
  <defs>
    <style class="style-fonts">
      @font-face {
        font-family: "Virgil";
        src: url("https://excalidraw.com/Virgil.woff2");
      }
      @font-face {
        font-family: "Cascadia";
        src: url("https://excalidraw.com/Cascadia.woff2");
      }
    </style>
  </defs>
  <rect x="0" y="0" width="1822.4598747132316" height="1663.576989552329" fill="#ffffff"></rect><g stroke-linecap="round" transform="translate(199.2170712695102 550.7013122549301) rotate(0 329.71990405640327 245.2168103944216)"><path d="M-0.1 -0.09 C239.92 -0.76, 479.21 -1.52, 660.01 0.21 M-0.12 -0.27 C190.55 -1.5, 382.1 -1.46, 659.83 0.04 M659.73 0.76 C657.78 136.89, 658.78 274.14, 659.54 489.6 M659.79 0.08 C658.06 142.83, 658.59 286.21, 659.37 490.77 M659.16 489.79 C412.76 491.69, 166.3 491.99, -0.62 490.89 M659.08 490.59 C481.3 490.02, 302.65 489.49, 0.34 490.72 M-0.29 491.01 C-1.07 368.31, -0.81 247.71, -0.05 0.01 M-0.39 490.35 C0.37 310.07, 0.77 129.36, 0.04 -0.18" stroke="#000000" stroke-width="1" fill="none"></path></g><g transform="translate(216.59150759096116 578.7931055456027) rotate(0 295.5289001464844 108.00000000000011)"><text x="0" y="0" font-family="Helvetica, Segoe UI Emoji" font-size="20.497327016397307px" fill="#000000" text-anchor="start" style="white-space: pre;" direction="ltr" dominant-baseline="text-before-edge">Rest API </text><text x="0" y="24" font-family="Helvetica, Segoe UI Emoji" font-size="20.497327016397307px" fill="#000000" text-anchor="start" style="white-space: pre;" direction="ltr" dominant-baseline="text-before-edge"></text><text x="0" y="48" font-family="Helvetica, Segoe UI Emoji" font-size="20.497327016397307px" fill="#000000" text-anchor="start" style="white-space: pre;" direction="ltr" dominant-baseline="text-before-edge">HTTP Verbs</text><text x="0" y="72" font-family="Helvetica, Segoe UI Emoji" font-size="20.497327016397307px" fill="#000000" text-anchor="start" style="white-space: pre;" direction="ltr" dominant-baseline="text-before-edge"></text><text x="0" y="96" font-family="Helvetica, Segoe UI Emoji" font-size="20.497327016397307px" fill="#000000" text-anchor="start" style="white-space: pre;" direction="ltr" dominant-baseline="text-before-edge">GET -   Used to get a resource from server</text><text x="0" y="120" font-family="Helvetica, Segoe UI Emoji" font-size="20.497327016397307px" fill="#000000" text-anchor="start" style="white-space: pre;" direction="ltr" dominant-baseline="text-before-edge">POST - For creating a resource on server/ sending data to server</text><text x="0" y="144" font-family="Helvetica, Segoe UI Emoji" font-size="20.497327016397307px" fill="#000000" text-anchor="start" style="white-space: pre;" direction="ltr" dominant-baseline="text-before-edge">PUT -    Update a resource on server, </text><text x="0" y="168" font-family="Helvetica, Segoe UI Emoji" font-size="20.497327016397307px" fill="#000000" text-anchor="start" style="white-space: pre;" direction="ltr" dominant-baseline="text-before-edge">PATCH - Used for partial Update. </text><text x="0" y="192" font-family="Helvetica, Segoe UI Emoji" font-size="20.497327016397307px" fill="#000000" text-anchor="start" style="white-space: pre;" direction="ltr" dominant-baseline="text-before-edge">DELETE - Delete a resource from server</text></g><g transform="translate(273.5635124085441 29.950057983398438) rotate(0 148.3935546875 12)"><text x="0" y="0" font-family="Helvetica, Segoe UI Emoji" font-size="20px" fill="#000000" text-anchor="start" style="white-space: pre;" direction="ltr" dominant-baseline="text-before-edge">Node - runtime environment for js</text></g><g stroke-linecap="round" transform="translate(176.76352461557536 262.5) rotate(0 49.19999694824219 74.00001525878906)"><path d="M24.6 0 M24.6 0 C40.03 -1.14, 53.15 1.66, 73.8 0 M24.6 0 C33.99 -0.23, 43.67 1.18, 73.8 0 M73.8 0 C89.07 -0.19, 100.24 7.14, 98.4 24.6 M73.8 0 C88.73 1.25, 98.58 7.94, 98.4 24.6 M98.4 24.6 C100.01 57.92, 97.43 89.11, 98.4 123.4 M98.4 24.6 C98.49 52.29, 99.19 80.05, 98.4 123.4 M98.4 123.4 C96.93 139.88, 89.2 146.25, 73.8 148 M98.4 123.4 C96.17 140.91, 92.47 146.88, 73.8 148 M73.8 148 C56.44 147.18, 37.17 146.42, 24.6 148 M73.8 148 C57.85 148.1, 41.32 148.46, 24.6 148 M24.6 148 C7.8 147.42, 1.29 141.28, 0 123.4 M24.6 148 C7.95 149.97, -0.32 141.43, 0 123.4 M0 123.4 C-1.07 103.47, -0.25 81.54, 0 24.6 M0 123.4 C-0.98 91.58, -1.12 59.73, 0 24.6 M0 24.6 C1.38 6.42, 8.37 -1.28, 24.6 0 M0 24.6 C2.06 9.19, 8.18 1.94, 24.6 0" stroke="#000000" stroke-width="1" fill="none"></path></g><g transform="translate(204.29848250131755 324.50001525878906) rotate(0 21.6650390625 12)"><text x="21.6650390625" y="0" font-family="Helvetica, Segoe UI Emoji" font-size="20px" fill="#000000" text-anchor="middle" style="white-space: pre;" direction="ltr" dominant-baseline="text-before-edge">GFG</text></g><g transform="translate(521.563512408544 262.9000244140625) rotate(0 43.916015625 84)"><text x="0" y="0" font-family="Helvetica, Segoe UI Emoji" font-size="20px" fill="#000000" text-anchor="start" style="white-space: pre;" direction="ltr" dominant-baseline="text-before-edge">Google</text><text x="0" y="24" font-family="Helvetica, Segoe UI Emoji" font-size="20px" fill="#000000" text-anchor="start" style="white-space: pre;" direction="ltr" dominant-baseline="text-before-edge"></text><text x="0" y="48" font-family="Helvetica, Segoe UI Emoji" font-size="20px" fill="#000000" text-anchor="start" style="white-space: pre;" direction="ltr" dominant-baseline="text-before-edge">Linkedin</text><text x="0" y="72" font-family="Helvetica, Segoe UI Emoji" font-size="20px" fill="#000000" text-anchor="start" style="white-space: pre;" direction="ltr" dominant-baseline="text-before-edge"></text><text x="0" y="96" font-family="Helvetica, Segoe UI Emoji" font-size="20px" fill="#000000" text-anchor="start" style="white-space: pre;" direction="ltr" dominant-baseline="text-before-edge">Github</text><text x="0" y="120" font-family="Helvetica, Segoe UI Emoji" font-size="20px" fill="#000000" text-anchor="start" style="white-space: pre;" direction="ltr" dominant-baseline="text-before-edge"></text><text x="0" y="144" font-family="Helvetica, Segoe UI Emoji" font-size="20px" fill="#000000" text-anchor="start" style="white-space: pre;" direction="ltr" dominant-baseline="text-before-edge">Facebook</text></g><g stroke-linecap="round"><g transform="translate(288.76349409799724 305.4633842873757) rotate(0 107.35237931162118 2.5180139243976782)"><path d="M-1.06 -0.94 C34.76 -0.31, 179.46 3.56, 215.77 4.82 M0.58 1.18 C36.15 2.46, 178.72 5.37, 214.7 5.98" stroke="#000000" stroke-width="1" fill="none"></path></g><g transform="translate(288.76349409799724 305.4633842873757) rotate(0 107.35237931162118 2.5180139243976782)"><path d="M184.75 15.31 C195.48 13.72, 208.95 9.33, 215.18 4.79 M186.88 15.97 C193.15 13.76, 199.39 10.95, 214.12 5.47" stroke="#000000" stroke-width="1" fill="none"></path></g><g transform="translate(288.76349409799724 305.4633842873757) rotate(0 107.35237931162118 2.5180139243976782)"><path d="M185.14 -5.21 C195.91 0.77, 209.24 3.95, 215.18 4.79 M187.27 -4.55 C193.61 -1.85, 199.75 0.23, 214.12 5.47" stroke="#000000" stroke-width="1" fill="none"></path></g></g><mask></mask><g transform="translate(323.563481890966 269.29998779296875) rotate(0 58.3740234375 12)"><text x="0" y="0" font-family="Helvetica, Segoe UI Emoji" font-size="20px" fill="#000000" text-anchor="start" style="white-space: pre;" direction="ltr" dominant-baseline="text-before-edge">loginRequest</text></g><g stroke-linecap="round"><g transform="translate(491.9635368226066 340.1000061035156) rotate(0 -100.53244088271168 0.6711606997615718)"><path d="M0.81 0.36 C-32.68 0.46, -167.2 0.77, -200.89 0.81 M-0.22 -0.49 C-33.88 -0.3, -168.2 1.53, -201.88 1.83" stroke="#000000" stroke-width="1" fill="none"></path></g><g transform="translate(491.9635368226066 340.1000061035156) rotate(0 -100.53244088271168 0.6711606997615718)"><path d="M-173.2 -8.89 C-183.97 -6.15, -192.87 -2.16, -203.62 0.83 M-173.62 -8.75 C-183.8 -6.02, -193.26 -1.48, -201.86 0.9" stroke="#000000" stroke-width="1" fill="none"></path></g><g transform="translate(491.9635368226066 340.1000061035156) rotate(0 -100.53244088271168 0.6711606997615718)"><path d="M-172.96 11.63 C-183.85 8.12, -192.82 5.84, -203.62 0.83 M-173.38 11.77 C-183.72 7.51, -193.26 5.06, -201.86 0.9" stroke="#000000" stroke-width="1" fill="none"></path></g></g><mask></mask><g transform="translate(325.5635124085441 361.70001220703125) rotate(0 50.595703125 12)"><text x="0" y="0" font-family="Helvetica, Segoe UI Emoji" font-size="20px" fill="#000000" text-anchor="start" style="white-space: pre;" direction="ltr" dominant-baseline="text-before-edge">response {}</text></g><g transform="translate(255.9635368226066 171.10000610351562) rotate(0 52.4755859375 12)"><text x="0" y="0" font-family="Helvetica, Segoe UI Emoji" font-size="20px" fill="#000000" text-anchor="start" style="white-space: pre;" direction="ltr" dominant-baseline="text-before-edge">REST API's</text></g><g stroke-linecap="round" transform="translate(767.1134391663566 25.200042724609375) rotate(0 73.5999755859375 34.400001525878906)"><path d="M17.2 0 M17.2 0 C60.9 -0.89, 104.02 -1.33, 130 0 M17.2 0 C47.05 1.54, 76.21 1.28, 130 0 M130 0 C140.25 1.5, 147.8 4.83, 147.2 17.2 M130 0 C142.3 -0.55, 148.21 3.7, 147.2 17.2 M147.2 17.2 C146.6 27.36, 148.93 40.31, 147.2 51.6 M147.2 17.2 C148.25 28.07, 147.32 40.33, 147.2 51.6 M147.2 51.6 C148.47 61.41, 140.93 70.3, 130 68.8 M147.2 51.6 C147.59 63.45, 140.58 70.6, 130 68.8 M130 68.8 C87.34 69.8, 42.93 67.26, 17.2 68.8 M130 68.8 C99.62 69.13, 69.64 68.93, 17.2 68.8 M17.2 68.8 C7.44 66.98, -1.44 61.25, 0 51.6 M17.2 68.8 C3.45 69.72, -0.29 64.53, 0 51.6 M0 51.6 C1.41 37.53, 1.75 26.17, 0 17.2 M0 51.6 C0.13 41.13, 0.71 31.05, 0 17.2 M0 17.2 C1.57 3.95, 7.29 -1.94, 17.2 0 M0 17.2 C2.1 4.92, 7.11 -1.26, 17.2 0" stroke="#000000" stroke-width="1" fill="none"></path></g><g transform="translate(791.9134879944816 49.600006103515625) rotate(0 24.4677734375 12)"><text x="0" y="0" font-family="Helvetica, Segoe UI Emoji" font-size="20px" fill="#000000" text-anchor="start" style="white-space: pre;" direction="ltr" dominant-baseline="text-before-edge">Login</text></g><g stroke-linecap="round" transform="translate(771.1135002015128 111.60000610351562) rotate(0 92 30.400009155273438)"><path d="M15.2 0 M15.2 0 C73.2 1.54, 129.47 -1, 168.8 0 M15.2 0 C56.89 -1.64, 98.98 -1.84, 168.8 0 M168.8 0 C180.64 -1.82, 182.56 3.25, 184 15.2 M168.8 0 C176.65 0.92, 183.71 6.53, 184 15.2 M184 15.2 C185.11 26.47, 185.45 40.45, 184 45.6 M184 15.2 C183.67 23.87, 184.25 32.94, 184 45.6 M184 45.6 C185.57 53.95, 180.49 58.86, 168.8 60.8 M184 45.6 C186.1 54.92, 180.31 59.54, 168.8 60.8 M168.8 60.8 C114.88 61.03, 61.54 60.2, 15.2 60.8 M168.8 60.8 C107.75 60.75, 47.97 60.37, 15.2 60.8 M15.2 60.8 C3.15 61.36, 0.57 53.91, 0 45.6 M15.2 60.8 C6.33 62.58, 0.37 54.19, 0 45.6 M0 45.6 C0 34.07, 0.27 23.34, 0 15.2 M0 45.6 C0.39 34.65, -0.03 26.27, 0 15.2 M0 15.2 C0.42 5.04, 5.55 -0.5, 15.2 0 M0 15.2 C-1.59 5.6, 5.18 -1, 15.2 0" stroke="#000000" stroke-width="1" fill="none"></path></g><g stroke-linecap="round" transform="translate(774.7135368226066 199.20001220703125) rotate(0 92 30.400009155273438)"><path d="M15.2 0 M15.2 0 C63.82 0.35, 116.18 3.01, 168.8 0 M15.2 0 C66.21 0.88, 116.1 0.9, 168.8 0 M168.8 0 C178.77 1.68, 185.62 6.11, 184 15.2 M168.8 0 C177.85 0.82, 182.08 6.72, 184 15.2 M184 15.2 C185.58 25.11, 184.79 33, 184 45.6 M184 15.2 C183.24 23.22, 184 31.46, 184 45.6 M184 45.6 C184.08 55.51, 176.94 61, 168.8 60.8 M184 45.6 C184.89 56, 180.89 58.88, 168.8 60.8 M168.8 60.8 C115.55 63.55, 67.96 61.44, 15.2 60.8 M168.8 60.8 C136 58.79, 104.02 59.62, 15.2 60.8 M15.2 60.8 C5.7 62.05, 0.59 53.92, 0 45.6 M15.2 60.8 C3.49 60.32, 2.2 54.5, 0 45.6 M0 45.6 C-0.7 34.1, -0.59 24.59, 0 15.2 M0 45.6 C0.17 33.76, -0.3 22.37, 0 15.2 M0 15.2 C-1.82 6.45, 6.8 0.46, 15.2 0 M0 15.2 C-1.27 5.28, 6.74 -1.94, 15.2 0" stroke="#000000" stroke-width="1" fill="none"></path></g><g transform="translate(791.9134879944816 141.60000610351562) rotate(0 71.1474609375 12)"><text x="0" y="0" font-family="Helvetica, Segoe UI Emoji" font-size="20px" fill="#000000" text-anchor="start" style="white-space: pre;" direction="ltr" dominant-baseline="text-before-edge">search products</text></g><g transform="translate(792.9134879944816 230.60000610351562) rotate(0 58.349609375 12)"><text x="0" y="0" font-family="Helvetica, Segoe UI Emoji" font-size="20px" fill="#000000" text-anchor="start" style="white-space: pre;" direction="ltr" dominant-baseline="text-before-edge">orderConfirm</text></g><g stroke-linecap="round" transform="translate(772.7134757874503 292.4000549316406) rotate(0 99.5999755859375 36.80000305175781)"><path d="M18.4 0 M18.4 0 C67.63 0.18, 122.22 -0.74, 180.8 0 M18.4 0 C57.29 -1.03, 97.93 -2.08, 180.8 0 M180.8 0 C194.69 -1.5, 200.13 8.02, 199.2 18.4 M180.8 0 C194.63 -0.97, 197.81 6.11, 199.2 18.4 M199.2 18.4 C201.13 30.82, 198.28 43.72, 199.2 55.2 M199.2 18.4 C199.77 32.51, 199.33 46.98, 199.2 55.2 M199.2 55.2 C199.98 67.08, 193.34 74.1, 180.8 73.6 M199.2 55.2 C198.31 66.65, 195.08 71.9, 180.8 73.6 M180.8 73.6 C136.56 73.05, 89.86 74.33, 18.4 73.6 M180.8 73.6 C126.25 74.38, 71.76 73.81, 18.4 73.6 M18.4 73.6 C7.88 73.51, -0.1 66.93, 0 55.2 M18.4 73.6 C7.17 73.87, -1.84 67.89, 0 55.2 M0 55.2 C0.86 40.52, 0.66 29.11, 0 18.4 M0 55.2 C-0.79 42.52, -1.26 31.76, 0 18.4 M0 18.4 C1.48 4.99, 7.56 1.66, 18.4 0 M0 18.4 C-1.76 4.45, 7.28 2.28, 18.4 0" stroke="#000000" stroke-width="1" fill="none"></path></g><g transform="translate(826.9134879944816 320.6000061035156) rotate(0 44.4677734375 12)"><text x="0" y="0" font-family="Helvetica, Segoe UI Emoji" font-size="20px" fill="#000000" text-anchor="start" style="white-space: pre;" direction="ltr" dominant-baseline="text-before-edge">adService</text></g><g stroke-linecap="round"><g transform="translate(959.9134879944816 88.4000244140625) rotate(0 -2.742990167466928 -34.79594187019859)"><path d="M-0.71 -0.92 C-1.57 -12.76, -4.56 -59.39, -5.36 -70.8 M1.12 1.21 C0.07 -10.48, -5.91 -57.41, -6.61 -69.48" stroke="#000000" stroke-width="1" fill="none"></path></g><g transform="translate(959.9134879944816 88.4000244140625) rotate(0 -2.742990167466928 -34.79594187019859)"><path d="M4.78 -43.34 C1.91 -51.44, 0.57 -56.9, -7.82 -68.54 M5.33 -43.22 C2.17 -48.74, -1.14 -57.02, -7.23 -69.27" stroke="#000000" stroke-width="1" fill="none"></path></g><g transform="translate(959.9134879944816 88.4000244140625) rotate(0 -2.742990167466928 -34.79594187019859)"><path d="M-15.64 -41.37 C-12.7 -49.91, -8.22 -55.93, -7.82 -68.54 M-15.09 -41.24 C-12.85 -47.29, -10.74 -56.09, -7.23 -69.27" stroke="#000000" stroke-width="1" fill="none"></path></g></g><mask></mask><g stroke-linecap="round"><g transform="translate(998.313512408544 154) rotate(0 -1.389179195463612 -20.024323025592594)"><path d="M1 0.85 C0.56 -5.74, -3.02 -32.53, -3.78 -39.2 M0.07 0.25 C0.13 -6.71, -0.61 -34.01, -1.37 -40.9" stroke="#000000" stroke-width="1" fill="none"></path></g><g transform="translate(998.313512408544 154) rotate(0 -1.389179195463612 -20.024323025592594)"><path d="M8.06 -23.47 C6.3 -26.79, 4.75 -28.36, -1.61 -42.15 M6.12 -22.04 C4.25 -27.1, 3.38 -31.23, -0.71 -41.53" stroke="#000000" stroke-width="1" fill="none"></path></g><g transform="translate(998.313512408544 154) rotate(0 -1.389179195463612 -20.024323025592594)"><path d="M-5.64 -22.62 C-4.6 -26.23, -3.36 -27.97, -1.61 -42.15 M-7.58 -21.19 C-6.21 -26.46, -3.83 -30.79, -0.71 -41.53" stroke="#000000" stroke-width="1" fill="none"></path></g></g><mask></mask><g stroke-linecap="round"><g transform="translate(991.1135002015128 252.4000244140625) rotate(0 0.722126378179496 -23.78658492608463)"><path d="M-0.3 0.54 C-0.26 -7.08, 0.71 -38.36, 0.77 -46.41 M1.74 -0.22 C1.57 -8.11, -0.33 -40.37, -0.2 -48.12" stroke="#000000" stroke-width="1" fill="none"></path></g><g transform="translate(991.1135002015128 252.4000244140625) rotate(0 0.722126378179496 -23.78658492608463)"><path d="M9.37 -26.22 C6.91 -35.04, 1.71 -41.22, 0.71 -48.65 M8.26 -26.94 C4.99 -34.13, 2.67 -42.66, 0.23 -47.15" stroke="#000000" stroke-width="1" fill="none"></path></g><g transform="translate(991.1135002015128 252.4000244140625) rotate(0 0.722126378179496 -23.78658492608463)"><path d="M-6.77 -25.78 C-3.64 -34.71, -3.26 -41.04, 0.71 -48.65 M-7.88 -26.51 C-4.94 -33.99, -1.04 -42.69, 0.23 -47.15" stroke="#000000" stroke-width="1" fill="none"></path></g></g><mask></mask><g stroke-linecap="round"><g transform="translate(998.313512408544 326.0000305175781) rotate(0 23.45092216449325 -0.7511457016552185)"><path d="M1 0.54 C8.66 0.44, 39.28 -0.11, 46.83 -0.23 M0.07 -0.22 C7.46 -0.71, 37.58 -1.72, 45.69 -2.05" stroke="#000000" stroke-width="1" fill="none"></path></g></g><mask></mask><g stroke-linecap="round" transform="translate(1225.513463580419 13.20001220703125) rotate(0 2.4000244140625 1.5999984741210938)"><path d="M0.8 0 M0.8 0 C1.9 0.19, 2.44 0.13, 4 0 M0.8 0 C1.29 0.14, 2.24 0.02, 4 0 M4 0 C5.66 0.27, 4.69 0.8, 4.8 0.8 M4 0 C5.07 0.17, 3.3 0.6, 4.8 0.8 M4.8 0.8 C4.86 1.28, 4.75 1.64, 4.8 2.4 M4.8 0.8 C4.83 1.37, 4.82 1.82, 4.8 2.4 M4.8 2.4 C5.81 2.55, 3.36 1.77, 4 3.2 M4.8 2.4 C4.15 3.79, 6.75 4.54, 4 3.2 M4 3.2 C2.74 3.02, 1.75 3.05, 0.8 3.2 M4 3.2 C3.44 3.22, 2.77 3.2, 0.8 3.2 M0.8 3.2 C-0.51 2.87, 0.75 2.7, 0 2.4 M0.8 3.2 C0.43 4.61, 1.14 2.61, 0 2.4 M0 2.4 C-0.09 1.98, 0.1 1.64, 0 0.8 M0 2.4 C-0.05 1.75, -0.04 1.11, 0 0.8 M0 0.8 C0.08 -0.76, 1.97 -0.91, 0.8 0 M0 0.8 C0.09 -0.6, 0.92 -1.72, 0.8 0" stroke="#000000" stroke-width="1" fill="none"></path></g><g stroke-linecap="round" transform="translate(1150.313512408544 10) rotate(0 122.4000244140625 122.39999389648438)"><path d="M32 0 M32 0 C99.6 -1.32, 166.67 -0.37, 212.8 0 M32 0 C69.01 -1.13, 106.13 -1.75, 212.8 0 M212.8 0 C234.67 0.46, 244.95 9.36, 244.8 32 M212.8 0 C234.47 -0.94, 245.66 9.03, 244.8 32 M244.8 32 C245.66 92.78, 246.5 150.79, 244.8 212.8 M244.8 32 C245.04 91.44, 245.39 149.29, 244.8 212.8 M244.8 212.8 C243.37 233.57, 234.87 246.73, 212.8 244.8 M244.8 212.8 C246.14 236.34, 236.16 243.44, 212.8 244.8 M212.8 244.8 C157.57 244.51, 105.52 248.06, 32 244.8 M212.8 244.8 C147.65 245.28, 82.72 246.05, 32 244.8 M32 244.8 C10.43 244.94, 1.23 235.12, 0 212.8 M32 244.8 C10.34 243.85, -2.29 231.93, 0 212.8 M0 212.8 C0.89 171.8, -1.64 126.63, 0 32 M0 212.8 C0.12 174.08, 0.37 136.13, 0 32 M0 32 C-0.91 10.74, 9.92 0.57, 32 0 M0 32 C-1.72 11.3, 9.78 0.79, 32 0" stroke="#000000" stroke-width="1" fill="none"></path></g><g transform="translate(1206.9134879944816 67.60000610351562) rotate(0 39.462890625 24)"><text x="0" y="0" font-family="Helvetica, Segoe UI Emoji" font-size="20px" fill="#000000" text-anchor="start" style="white-space: pre;" direction="ltr" dominant-baseline="text-before-edge">Amazon </text><text x="0" y="24" font-family="Helvetica, Segoe UI Emoji" font-size="20px" fill="#000000" text-anchor="start" style="white-space: pre;" direction="ltr" dominant-baseline="text-before-edge">app</text></g><g stroke-linecap="round" transform="translate(1588.113561236669 573.4000091552734) rotate(0 92 102.4000015258789)"><path d="M32 0 M32 0 C77.54 -0.1, 125.06 1.51, 152 0 M32 0 C60.44 -0.33, 87.48 0.64, 152 0 M152 0 C171.66 -0.43, 182.33 9.16, 184 32 M152 0 C171.22 -1.13, 183.27 10.79, 184 32 M184 32 C183.43 84.23, 183.78 134.02, 184 172.8 M184 32 C182.86 83.53, 183.29 133.17, 184 172.8 M184 172.8 C183.97 194.27, 173.99 204.35, 152 204.8 M184 172.8 C184.06 195.3, 175.59 202.93, 152 204.8 M152 204.8 C115.71 203.78, 83.62 205.12, 32 204.8 M152 204.8 C116.99 203.73, 81.22 204.71, 32 204.8 M32 204.8 C12.35 203.61, 1.69 192.82, 0 172.8 M32 204.8 C8.79 202.92, -1.1 195.62, 0 172.8 M0 172.8 C1.26 129.2, -0.58 84.82, 0 32 M0 172.8 C-1.76 131.24, -0.72 90.48, 0 32 M0 32 C0.47 10.64, 11.79 1.71, 32 0 M0 32 C1.45 11.29, 11.76 0.32, 32 0" stroke="#000000" stroke-width="1" fill="none"></path></g><g transform="translate(1602.3133903382316 610.3999938964844) rotate(0 105.0732421875 72)"><text x="0" y="0" font-family="Helvetica, Segoe UI Emoji" font-size="20px" fill="#000000" text-anchor="start" style="white-space: pre;" direction="ltr" dominant-baseline="text-before-edge">{</text><text x="0" y="24" font-family="Helvetica, Segoe UI Emoji" font-size="20px" fill="#000000" text-anchor="start" style="white-space: pre;" direction="ltr" dominant-baseline="text-before-edge">    name:nikhil</text><text x="0" y="48" font-family="Helvetica, Segoe UI Emoji" font-size="20px" fill="#000000" text-anchor="start" style="white-space: pre;" direction="ltr" dominant-baseline="text-before-edge">    id:101</text><text x="0" y="72" font-family="Helvetica, Segoe UI Emoji" font-size="20px" fill="#000000" text-anchor="start" style="white-space: pre;" direction="ltr" dominant-baseline="text-before-edge">    password:123</text><text x="0" y="96" font-family="Helvetica, Segoe UI Emoji" font-size="20px" fill="#000000" text-anchor="start" style="white-space: pre;" direction="ltr" dominant-baseline="text-before-edge">    lastLogin:18-03-2023</text><text x="0" y="120" font-family="Helvetica, Segoe UI Emoji" font-size="20px" fill="#000000" text-anchor="start" style="white-space: pre;" direction="ltr" dominant-baseline="text-before-edge">}</text></g><g stroke-linecap="round" transform="translate(1453.313512408544 1017.8000183105469) rotate(0 92 102.4000015258789)"><path d="M32 0 M32 0 C63.68 2.17, 95.78 1.43, 152 0 M32 0 C64.4 -0.04, 96.35 -0.04, 152 0 M152 0 C172.1 -0.1, 185.49 9.29, 184 32 M152 0 C171.69 2.21, 184.64 9.03, 184 32 M184 32 C185.63 84.86, 185.41 140.17, 184 172.8 M184 32 C183.45 74.83, 183.47 117.08, 184 172.8 M184 172.8 C182.95 193.6, 173.83 202.86, 152 204.8 M184 172.8 C181.77 194.37, 172.21 203.25, 152 204.8 M152 204.8 C124.89 203.82, 97.09 204.64, 32 204.8 M152 204.8 C113.08 203.11, 75.98 203.48, 32 204.8 M32 204.8 C8.94 203.73, 1.69 195.2, 0 172.8 M32 204.8 C8.41 204.84, -1.9 196.28, 0 172.8 M0 172.8 C-1.28 117.54, -1.21 62.65, 0 32 M0 172.8 C-1.62 137.02, -1.92 102.3, 0 32 M0 32 C0.8 11.95, 11.2 1.08, 32 0 M0 32 C-0.35 9.6, 10.27 -0.22, 32 0" stroke="#000000" stroke-width="1" fill="none"></path></g><g transform="translate(1467.5133415101066 1054.8000030517578) rotate(0 105.0732421875 72)"><text x="0" y="0" font-family="Helvetica, Segoe UI Emoji" font-size="20px" fill="#000000" text-anchor="start" style="white-space: pre;" direction="ltr" dominant-baseline="text-before-edge">{</text><text x="0" y="24" font-family="Helvetica, Segoe UI Emoji" font-size="20px" fill="#000000" text-anchor="start" style="white-space: pre;" direction="ltr" dominant-baseline="text-before-edge">    name:nikhil</text><text x="0" y="48" font-family="Helvetica, Segoe UI Emoji" font-size="20px" fill="#000000" text-anchor="start" style="white-space: pre;" direction="ltr" dominant-baseline="text-before-edge">    id:101</text><text x="0" y="72" font-family="Helvetica, Segoe UI Emoji" font-size="20px" fill="#000000" text-anchor="start" style="white-space: pre;" direction="ltr" dominant-baseline="text-before-edge">    password:abcd</text><text x="0" y="96" font-family="Helvetica, Segoe UI Emoji" font-size="20px" fill="#000000" text-anchor="start" style="white-space: pre;" direction="ltr" dominant-baseline="text-before-edge">    lastLogin:18-03-2023</text><text x="0" y="120" font-family="Helvetica, Segoe UI Emoji" font-size="20px" fill="#000000" text-anchor="start" style="white-space: pre;" direction="ltr" dominant-baseline="text-before-edge">}</text></g><g stroke-linecap="round" transform="translate(1474.913610064794 789.0000610351562) rotate(0 92 102.4000015258789)"><path d="M32 0 M32 0 C80.83 1.33, 124.09 -1.94, 152 0 M32 0 C79.75 0.32, 128.42 -0.91, 152 0 M152 0 C172.75 1.33, 185.26 11.69, 184 32 M152 0 C171.24 -2.15, 181.77 9.99, 184 32 M184 32 C185.22 74.83, 181.91 120.8, 184 172.8 M184 32 C183.54 76.74, 182.81 119.68, 184 172.8 M184 172.8 C184.68 196.03, 172.72 205.22, 152 204.8 M184 172.8 C186.09 192.31, 174.92 202.79, 152 204.8 M152 204.8 C122.01 206.61, 94.21 206.69, 32 204.8 M152 204.8 C121.68 206.53, 89.84 205.87, 32 204.8 M32 204.8 C12.44 202.95, -1.77 192.48, 0 172.8 M32 204.8 C12.87 206.64, 1.12 194.92, 0 172.8 M0 172.8 C-0.67 141.29, -2.35 108.32, 0 32 M0 172.8 C-0.76 142.73, -1.74 111.96, 0 32 M0 32 C-1.22 10.42, 12.5 0.64, 32 0 M0 32 C0.22 10.65, 8.37 -0.41, 32 0" stroke="#000000" stroke-width="1" fill="none"></path></g><g transform="translate(1025.113561236669 778.7999877929688) rotate(0 97.8173828125 60)"><text x="0" y="0" font-family="Helvetica, Segoe UI Emoji" font-size="20px" fill="#000000" text-anchor="start" style="white-space: pre;" direction="ltr" dominant-baseline="text-before-edge">{</text><text x="0" y="24" font-family="Helvetica, Segoe UI Emoji" font-size="20px" fill="#000000" text-anchor="start" style="white-space: pre;" direction="ltr" dominant-baseline="text-before-edge">    name:nikhil sharma</text><text x="0" y="48" font-family="Helvetica, Segoe UI Emoji" font-size="20px" fill="#000000" text-anchor="start" style="white-space: pre;" direction="ltr" dominant-baseline="text-before-edge">    id:102</text><text x="0" y="72" font-family="Helvetica, Segoe UI Emoji" font-size="20px" fill="#000000" text-anchor="start" style="white-space: pre;" direction="ltr" dominant-baseline="text-before-edge">    password:abcd</text><text x="0" y="96" font-family="Helvetica, Segoe UI Emoji" font-size="20px" fill="#000000" text-anchor="start" style="white-space: pre;" direction="ltr" dominant-baseline="text-before-edge">}</text></g><g transform="translate(1493.5135856507316 840.8000183105469) rotate(0 74.9769058227539 45)"><text x="0" y="0" font-family="Helvetica, Segoe UI Emoji" font-size="15.333333333333329px" fill="#000000" text-anchor="start" style="white-space: pre;" direction="ltr" dominant-baseline="text-before-edge">{</text><text x="0" y="18" font-family="Helvetica, Segoe UI Emoji" font-size="15.333333333333329px" fill="#000000" text-anchor="start" style="white-space: pre;" direction="ltr" dominant-baseline="text-before-edge">    name:nikhil sharma</text><text x="0" y="36" font-family="Helvetica, Segoe UI Emoji" font-size="15.333333333333329px" fill="#000000" text-anchor="start" style="white-space: pre;" direction="ltr" dominant-baseline="text-before-edge">    id:102</text><text x="0" y="54" font-family="Helvetica, Segoe UI Emoji" font-size="15.333333333333329px" fill="#000000" text-anchor="start" style="white-space: pre;" direction="ltr" dominant-baseline="text-before-edge">    password:abcd</text><text x="0" y="72" font-family="Helvetica, Segoe UI Emoji" font-size="15.333333333333329px" fill="#000000" text-anchor="start" style="white-space: pre;" direction="ltr" dominant-baseline="text-before-edge">}</text></g><g transform="translate(944.4635368226066 816.6000061035156) rotate(0 31.9482421875 12)"><text x="0" y="0" font-family="Helvetica, Segoe UI Emoji" font-size="20px" fill="#000000" text-anchor="start" style="white-space: pre;" direction="ltr" dominant-baseline="text-before-edge">PUT -&gt;</text></g><g transform="translate(994.8635002015128 1042.6000061035156) rotate(0 78.3740234375 36)"><text x="0" y="0" font-family="Helvetica, Segoe UI Emoji" font-size="20px" fill="#000000" text-anchor="start" style="white-space: pre;" direction="ltr" dominant-baseline="text-before-edge">patch -&gt;{</text><text x="0" y="24" font-family="Helvetica, Segoe UI Emoji" font-size="20px" fill="#000000" text-anchor="start" style="white-space: pre;" direction="ltr" dominant-baseline="text-before-edge">    password:abcd</text><text x="0" y="48" font-family="Helvetica, Segoe UI Emoji" font-size="20px" fill="#000000" text-anchor="start" style="white-space: pre;" direction="ltr" dominant-baseline="text-before-edge">}</text></g><g stroke-linecap="round" transform="translate(171.9134879944816 1239.1500396728516) rotate(0 67.60000610351562 79.99998474121094)"><path d="M32 0 M32 0 C56.28 0.78, 84.31 1.18, 103.2 0 M32 0 C60.83 -1.13, 86.96 -0.75, 103.2 0 M103.2 0 C123.99 -0.87, 133.28 11.94, 135.2 32 M103.2 0 C124.26 0.81, 133.75 9.15, 135.2 32 M135.2 32 C133.44 67.69, 134.53 100.2, 135.2 128 M135.2 32 C135.15 58.76, 135.79 85.8, 135.2 128 M135.2 128 C136.15 148.35, 124.11 159.29, 103.2 160 M135.2 128 C137.17 150.18, 126.65 161.73, 103.2 160 M103.2 160 C76.33 159.21, 45.73 159.55, 32 160 M103.2 160 C83.55 160.55, 65.66 161.6, 32 160 M32 160 C9.7 158.13, -0.5 149.66, 0 128 M32 160 C11.81 158.71, -0.55 148.81, 0 128 M0 128 C-0.53 105.01, 1.84 84.97, 0 32 M0 128 C-0.15 107.84, 1.08 88.57, 0 32 M0 32 C-0.23 11.46, 11.25 0.13, 32 0 M0 32 C-1.38 11.29, 12.03 -2.12, 32 0" stroke="#000000" stroke-width="1" fill="none"></path></g><g transform="translate(200.51349409799724 1305.5500183105469) rotate(0 38.3544921875 24)"><text x="0" y="0" font-family="Helvetica, Segoe UI Emoji" font-size="20px" fill="#000000" text-anchor="start" style="white-space: pre;" direction="ltr" dominant-baseline="text-before-edge">client</text><text x="0" y="24" font-family="Helvetica, Segoe UI Emoji" font-size="20px" fill="#000000" text-anchor="start" style="white-space: pre;" direction="ltr" dominant-baseline="text-before-edge">postman</text></g><g stroke-linecap="round"><g transform="translate(317.2352362818883 1313.5261596139308) rotate(0 126.99868153190562 -7.820211909177715)"><path d="M0.88 -0.09 C43.42 -2.57, 211.77 -11.67, 254.11 -14 M-0.11 -1.18 C42.37 -4.05, 210.74 -13.11, 253.18 -15.55" stroke="#000000" stroke-width="1" fill="none"></path></g><g transform="translate(317.2352362818883 1313.5261596139308) rotate(0 126.99868153190562 -7.820211909177715)"><path d="M225.46 -3.68 C233.05 -5.04, 238.69 -9.45, 255.12 -15.97 M226.17 -3.18 C234.56 -7.09, 243 -11.75, 252.24 -14.63" stroke="#000000" stroke-width="1" fill="none"></path></g><g transform="translate(317.2352362818883 1313.5261596139308) rotate(0 126.99868153190562 -7.820211909177715)"><path d="M224.32 -24.17 C232.3 -21.28, 238.17 -21.43, 255.12 -15.97 M225.03 -23.67 C233.7 -21.26, 242.5 -19.59, 252.24 -14.63" stroke="#000000" stroke-width="1" fill="none"></path></g></g><mask></mask><g stroke-linecap="round" transform="translate(603.113561236669 1181.5499267578125) rotate(0 187.199951171875 133.30001831054688)"><path d="M32 0 M32 0 C149.58 -2.08, 268.56 -0.91, 342.4 0 M32 0 C98.58 0.83, 166.11 0.88, 342.4 0 M342.4 0 C363.17 0.9, 374.54 11.16, 374.4 32 M342.4 0 C365.88 -1.07, 373.41 11.08, 374.4 32 M374.4 32 C375.73 99.96, 374.46 167.77, 374.4 234.6 M374.4 32 C374.88 108.75, 375.64 185.69, 374.4 234.6 M374.4 234.6 C375.97 254.14, 364.4 267.7, 342.4 266.6 M374.4 234.6 C376.68 256.34, 363.53 267.83, 342.4 266.6 M342.4 266.6 C271.59 267.11, 202.33 267.19, 32 266.6 M342.4 266.6 C255.23 267.86, 168.91 268.48, 32 266.6 M32 266.6 C8.78 266.38, -1.66 257.52, 0 234.6 M32 266.6 C12.5 268.82, -0.95 253.66, 0 234.6 M0 234.6 C-1.45 173.15, 0.69 110.92, 0 32 M0 234.6 C0 174.73, 0.38 112.97, 0 32 M0 32 C-1.24 9.22, 9.73 -1.17, 32 0 M0 32 C0.61 9.34, 11.49 -1.52, 32 0" stroke="#000000" stroke-width="1" fill="none"></path></g><g transform="translate(376.11350020151286 1266.3500061035156) rotate(0 35.029296875 12)"><text x="0" y="0" font-family="Helvetica, Segoe UI Emoji" font-size="20px" fill="#000000" text-anchor="start" style="white-space: pre;" direction="ltr" dominant-baseline="text-before-edge">payload</text></g><g stroke-linecap="round" transform="translate(677.5132804749503 1227.9500427246094) rotate(0 68.00003051757812 22)"><path d="M11 0 M11 0 C43.96 0.97, 77.99 -0.18, 125 0 M11 0 C53.23 -0.16, 93.56 -0.11, 125 0 M125 0 C131.78 0.83, 134.86 2.52, 136 11 M125 0 C133.02 1.94, 136.16 3.1, 136 11 M136 11 C136.97 21.4, 134.81 27.96, 136 33 M136 11 C136.36 16.07, 136.33 20.18, 136 33 M136 33 C135.8 42.12, 132.98 45.66, 125 44 M136 33 C136.88 40.44, 130.36 45.75, 125 44 M125 44 C86.55 45.36, 50.63 42.78, 11 44 M125 44 C93.1 44.48, 61.9 44.55, 11 44 M11 44 C2.92 45.71, 1.33 42.01, 0 33 M11 44 C1.59 45.22, 1.52 40.09, 0 33 M0 33 C0.81 26.7, -1.74 21.8, 0 11 M0 33 C-0.66 27.16, -0.54 19.16, 0 11 M0 11 C1.13 5.12, 3.1 -1.52, 11 0 M0 11 C0.94 4.36, 4.67 0.59, 11 0" stroke="#000000" stroke-width="1" fill="none"></path></g><g transform="translate(680.113317096044 1238.3500061035156) rotate(0 62.7978515625 12)"><text x="0" y="0" font-family="Helvetica, Segoe UI Emoji" font-size="20px" fill="#000000" text-anchor="start" style="white-space: pre;" direction="ltr" dominant-baseline="text-before-edge">express.json()</text></g><g stroke-linecap="round" transform="translate(658.3134513733878 1383.1500549316406) rotate(0 85.60000610351562 17.199981689453125)"><path d="M8.6 0 M8.6 0 C65.81 2.6, 122.45 0.15, 162.6 0 M8.6 0 C47.39 -1.72, 85.9 -1.17, 162.6 0 M162.6 0 C169.12 0.66, 169.58 4.41, 171.2 8.6 M162.6 0 C168.82 2.24, 169.16 4.29, 171.2 8.6 M171.2 8.6 C171.13 14.05, 169.52 22.68, 171.2 25.8 M171.2 8.6 C170.6 12.43, 171.7 16.75, 171.2 25.8 M171.2 25.8 C170.58 29.72, 169.86 32.47, 162.6 34.4 M171.2 25.8 C172.38 29.56, 170.4 32.64, 162.6 34.4 M162.6 34.4 C123.28 35.65, 87.17 33.98, 8.6 34.4 M162.6 34.4 C125.77 32.75, 87.22 32.19, 8.6 34.4 M8.6 34.4 C0.89 36.21, 1.85 30.17, 0 25.8 M8.6 34.4 C3.4 36.36, 1.34 31.71, 0 25.8 M0 25.8 C-0.43 21.32, -0.12 17.53, 0 8.6 M0 25.8 C0.84 19.24, 0.54 14.03, 0 8.6 M0 8.6 C0.49 1.82, 3.15 -0.63, 8.6 0 M0 8.6 C-1.02 1.46, 0.99 1.22, 8.6 0" stroke="#000000" stroke-width="1" fill="none"></path></g><g transform="translate(671.6429496644034 1388.3500366210938) rotate(0 72.2705078125 12)"><text x="72.2705078125" y="0" font-family="Helvetica, Segoe UI Emoji" font-size="20px" fill="#000000" text-anchor="middle" style="white-space: pre;" direction="ltr" dominant-baseline="text-before-edge">post req handler</text></g><g stroke-linecap="round"><g transform="translate(731.9134879944816 1187.1500244140625) rotate(0 0.9329262527059541 21.338872058047173)"><path d="M-0.44 -0.27 C0.02 6.82, 1.96 35.54, 2.31 43.08 M1.52 -1.46 C1.84 5.7, 0.81 36.71, 1.23 44.13" stroke="#000000" stroke-width="1" fill="none"></path></g><g transform="translate(731.9134879944816 1187.1500244140625) rotate(0 0.9329262527059541 21.338872058047173)"><path d="M-6.87 23.03 C-5.85 27.36, -0.72 32.34, 0.83 45.11 M-6.64 23.23 C-4.53 31.4, -0.71 37.38, 0.7 43.29" stroke="#000000" stroke-width="1" fill="none"></path></g><g transform="translate(731.9134879944816 1187.1500244140625) rotate(0 0.9329262527059541 21.338872058047173)"><path d="M8.21 22.95 C5.27 27.24, 6.45 32.25, 0.83 45.11 M8.44 23.15 C5.11 31.37, 3.5 37.38, 0.7 43.29" stroke="#000000" stroke-width="1" fill="none"></path></g></g><mask></mask><g stroke-linecap="round"><g transform="translate(724.7220929541852 1273.5500183105469) rotate(0 2.234220155276489 52.33564025963642)"><path d="M-0.9 0.36 C0.08 17.5, 4.12 86.5, 5.37 104.03 M0.82 -0.5 C1.66 17.28, 3.3 87.81, 4.21 105.17" stroke="#000000" stroke-width="1" fill="none"></path></g><g transform="translate(724.7220929541852 1273.5500183105469) rotate(0 2.234220155276489 52.33564025963642)"><path d="M-6.46 76.67 C-5.2 85.87, 0.22 92.72, 3.45 105.7 M-6.82 78.09 C-4.21 87.19, 0.17 97.31, 4.03 105.6" stroke="#000000" stroke-width="1" fill="none"></path></g><g transform="translate(724.7220929541852 1273.5500183105469) rotate(0 2.234220155276489 52.33564025963642)"><path d="M14.05 75.93 C10.11 85.17, 10.34 92.2, 3.45 105.7 M13.68 77.35 C9.32 86.57, 6.74 96.94, 4.03 105.6" stroke="#000000" stroke-width="1" fill="none"></path></g></g><mask></mask><g transform="translate(747.9134879944816 1203.3500061035156) rotate(0 14.453125 12)"><text x="0" y="0" font-family="Helvetica, Segoe UI Emoji" font-size="20px" fill="#000000" text-anchor="start" style="white-space: pre;" direction="ltr" dominant-baseline="text-before-edge">req</text></g><g transform="translate(739.9134879944816 1301.3500061035156) rotate(0 73.9306640625 12)"><text x="0" y="0" font-family="Helvetica, Segoe UI Emoji" font-size="20px" fill="#000000" text-anchor="start" style="white-space: pre;" direction="ltr" dominant-baseline="text-before-edge">modified request</text></g><g stroke-linecap="round"><g transform="translate(659.9134879944816 1398.9500122070312) rotate(0 -170.95154426108115 -17.27130513823363)"><path d="M-1.14 -0.15 C-57.99 -5.94, -284.89 -28.97, -342.03 -34.4 M0.46 -1.27 C-56.36 -6.93, -285.38 -27.6, -342.36 -33.12" stroke="#000000" stroke-width="1" fill="none"></path></g><g transform="translate(659.9134879944816 1398.9500122070312) rotate(0 -170.95154426108115 -17.27130513823363)"><path d="M-313.59 -38.77 C-320.6 -40.57, -324.22 -36.05, -340.73 -32.45 M-314.11 -41.52 C-322.72 -38.5, -333.78 -35.55, -341.94 -33.5" stroke="#000000" stroke-width="1" fill="none"></path></g><g transform="translate(659.9134879944816 1398.9500122070312) rotate(0 -170.95154426108115 -17.27130513823363)"><path d="M-315.49 -18.34 C-322.14 -24.66, -325.34 -24.66, -340.73 -32.45 M-316.02 -21.09 C-323.96 -25.32, -334.34 -29.62, -341.94 -33.5" stroke="#000000" stroke-width="1" fill="none"></path></g></g><mask></mask><g transform="translate(409.46905033172123 1343.0166863335503) rotate(0 41.1376953125 12)"><text x="0" y="0" font-family="Helvetica, Segoe UI Emoji" font-size="20px" fill="#000000" text-anchor="start" style="white-space: pre;" direction="ltr" dominant-baseline="text-before-edge">response</text></g><g transform="translate(827.9134879944816 1233.3500061035156) rotate(0 51.1328125 12)"><text x="0" y="0" font-family="Helvetica, Segoe UI Emoji" font-size="20px" fill="#000000" text-anchor="start" style="white-space: pre;" direction="ltr" dominant-baseline="text-before-edge">middleware</text></g><g transform="translate(119.83342488606797 1542.9103228856634) rotate(0 440.4995422363281 21)"><text x="0" y="0" font-family="Helvetica, Segoe UI Emoji" font-size="35.617365423863035px" fill="#000000" text-anchor="start" style="white-space: pre;" direction="ltr" dominant-baseline="text-before-edge">localhost:4000/signup/101?createdAt=123&amp;name=nikhil</text></g><g transform="translate(28.500077989366645 1547.577003115698) rotate(0 44.538543701171875 21)"><text x="0" y="0" font-family="Helvetica, Segoe UI Emoji" font-size="35.617365423863035px" fill="#000000" text-anchor="start" style="white-space: pre;" direction="ltr" dominant-baseline="text-before-edge">http://</text></g><g stroke-linecap="round"><g transform="translate(123.05553860134557 1591.3547741117904) rotate(0 67.33476302548263 -0.6645265674062557)"><path d="M0.95 -1.04 C23.53 -1.01, 112.14 -0.57, 134.67 -0.77 M0 1.03 C22.44 0.82, 110.84 -2, 133.5 -2.36" stroke="#000000" stroke-width="1" fill="none"></path></g></g><mask></mask><g transform="translate(138.16665649414068 1618.688114226808) rotate(0 43.916015625 12)"><text x="0" y="0" font-family="Helvetica, Segoe UI Emoji" font-size="20px" fill="#000000" text-anchor="start" style="white-space: pre;" direction="ltr" dominant-baseline="text-before-edge">hostname</text></g><g stroke-linecap="round"><g transform="translate(278.6111280653216 1541.5770098973808) rotate(0 31.679431242026453 0.6295967201970143)"><path d="M-0.66 1.15 C9.79 1.06, 51.22 -0.03, 61.62 0.07 M1.19 0.72 C12.14 0.7, 54.09 1.31, 64.02 1.18" stroke="#000000" stroke-width="1" fill="none"></path></g></g><mask></mask><g transform="translate(280.38887871636314 1520.9103364490302) rotate(0 20.009765625 12)"><text x="0" y="0" font-family="Helvetica, Segoe UI Emoji" font-size="20px" fill="#000000" text-anchor="start" style="white-space: pre;" direction="ltr" dominant-baseline="text-before-edge"> port</text></g><g stroke-linecap="round"><g transform="translate(363.0555725097659 1603.799232119603) rotate(0 51.27672734526553 -0.4653619628365959)"><path d="M-1.08 -0.61 C15.92 -0.74, 84.19 -0.78, 101.37 -0.63 M0.56 1.69 C17.98 1.16, 86.88 -2.1, 103.63 -2.62" stroke="#000000" stroke-width="1" fill="none"></path></g></g><mask></mask><g transform="translate(375.94443427191845 1625.3547808934745) rotate(0 19.462890625 12)"><text x="0" y="0" font-family="Helvetica, Segoe UI Emoji" font-size="20px" fill="#000000" text-anchor="start" style="white-space: pre;" direction="ltr" dominant-baseline="text-before-edge">path</text></g><g transform="translate(489.27776760525177 1523.1325586712524) rotate(0 58.916015625 12)"><text x="0" y="0" font-family="Helvetica, Segoe UI Emoji" font-size="20px" fill="#000000" text-anchor="start" style="white-space: pre;" direction="ltr" dominant-baseline="text-before-edge">route params</text></g><g stroke-linecap="round"><g transform="translate(560.3888787163628 1586.0214543418251) rotate(0 221.97986059252446 0.053062814715531204)"><path d="M0.14 -0.64 C74.38 -0.8, 370.91 0.01, 445.21 0.08 M-1.25 1.64 C72.85 1.68, 369.73 -0.9, 444.19 -1.54" stroke="#000000" stroke-width="1" fill="none"></path></g></g><mask></mask><g transform="translate(627.0555453830295 1605.3547808934745) rotate(0 56.1376953125 12)"><text x="0" y="0" font-family="Helvetica, Segoe UI Emoji" font-size="20px" fill="#000000" text-anchor="start" style="white-space: pre;" direction="ltr" dominant-baseline="text-before-edge">query param</text></g><g stroke-linecap="round"><g transform="translate(22.4444580078125 1598.4658784412177) rotate(0 44.038476686554745 -2.907602312995323)"><path d="M-0.88 -0.29 C13.61 -1.35, 71.84 -4.81, 86.85 -5.52 M0.85 -1.49 C15.7 -2.51, 74.26 -4.25, 88.96 -4.55" stroke="#000000" stroke-width="1" fill="none"></path></g></g><mask></mask><g transform="translate(10 1629.576989552329) rotate(0 35.576171875 12)"><text x="0" y="0" font-family="Helvetica, Segoe UI Emoji" font-size="20px" fill="#000000" text-anchor="start" style="white-space: pre;" direction="ltr" dominant-baseline="text-before-edge">protocol</text></g><g transform="translate(325.5555555555564 1487.9103228856643) rotate(0 45.5859375 12)"><text x="0" y="0" font-family="Helvetica, Segoe UI Emoji" font-size="20px" fill="#000000" text-anchor="start" style="white-space: pre;" direction="ltr" dominant-baseline="text-before-edge">/signup/:id</text></g></svg>