<svg version="1.1" xmlns="http://www.w3.org/2000/svg" viewBox="0 0 1014.9851805306548 1325.7401088385677" width="1014.9851805306548" height="1325.7401088385677" filter="invert(93%) hue-rotate(180deg)">
  <!-- svg-source:excalidraw -->
  
  <defs>
    <style class="style-fonts">
      @font-face {
        font-family: "Virgil";
        src: url("https://excalidraw.com/Virgil.woff2");
      }
      @font-face {
        font-family: "Cascadia";
        src: url("https://excalidraw.com/Cascadia.woff2");
      }
    </style>
  </defs>
  <rect x="0" y="0" width="1014.9851805306548" height="1325.7401088385677" fill="#ffffff"></rect><g transform="translate(270.7994435773144 10) rotate(0 119.5 83)"><text x="0" y="14.444444444444443" font-family="Helvetica, Segoe UI Emoji" font-size="16px" fill="#000000" text-anchor="start" style="white-space: pre;" direction="ltr">Connecting the html page with JS</text><text x="0" y="32.888888888888886" font-family="Helvetica, Segoe UI Emoji" font-size="16px" fill="#000000" text-anchor="start" style="white-space: pre;" direction="ltr"></text><text x="0" y="51.33333333333333" font-family="Helvetica, Segoe UI Emoji" font-size="16px" fill="#000000" text-anchor="start" style="white-space: pre;" direction="ltr"></text><text x="0" y="69.77777777777777" font-family="Helvetica, Segoe UI Emoji" font-size="16px" fill="#000000" text-anchor="start" style="white-space: pre;" direction="ltr">dynamically Typed, language</text><text x="0" y="88.22222222222221" font-family="Helvetica, Segoe UI Emoji" font-size="16px" fill="#000000" text-anchor="start" style="white-space: pre;" direction="ltr"></text><text x="0" y="106.66666666666666" font-family="Helvetica, Segoe UI Emoji" font-size="16px" fill="#000000" text-anchor="start" style="white-space: pre;" direction="ltr"></text><text x="0" y="125.11111111111109" font-family="Helvetica, Segoe UI Emoji" font-size="16px" fill="#000000" text-anchor="start" style="white-space: pre;" direction="ltr">script-tag -&gt; </text><text x="0" y="143.55555555555554" font-family="Helvetica, Segoe UI Emoji" font-size="16px" fill="#000000" text-anchor="start" style="white-space: pre;" direction="ltr"></text><text x="0" y="162" font-family="Helvetica, Segoe UI Emoji" font-size="16px" fill="#000000" text-anchor="start" style="white-space: pre;" direction="ltr"></text></g><g transform="translate(178.94106214125372 167.3697557709288) rotate(0 71.5 9)"><text x="0" y="14" font-family="Helvetica, Segoe UI Emoji" font-size="16px" fill="#000000" text-anchor="start" style="white-space: pre;" direction="ltr">js is render blocking</text></g><g stroke-linecap="round" transform="translate(775.6952888674823 244.3625505295813) rotate(0 114.64494583158626 19.226176017281432)"><path d="M0.4 5.64 C0.4 5.64, 0.4 5.64, 0.4 5.64 M0.4 5.64 C0.4 5.64, 0.4 5.64, 0.4 5.64 M0.13 12.04 C2.66 7.6, 6.91 6.51, 9.97 0.72 M0.13 12.04 C4.63 7.68, 7.99 3.14, 9.97 0.72 M0.53 17.68 C8.16 12.44, 13.56 2.58, 15.62 0.33 M0.53 17.68 C4.24 13.29, 6.68 8.45, 15.62 0.33 M0.27 24.08 C4.68 18.58, 13.74 10.52, 20.6 0.69 M0.27 24.08 C4.02 18.79, 9.03 15.3, 20.6 0.69 M0.66 29.73 C8.02 19.45, 16.31 11.82, 26.25 0.29 M0.66 29.73 C7.44 22.63, 12.14 15.47, 26.25 0.29 M2.37 33.86 C12.43 22.06, 21.92 9.78, 31.23 0.65 M2.37 33.86 C11.44 23.3, 22.55 11.94, 31.23 0.65 M4.08 37.99 C12.76 31.42, 18.67 21.55, 36.88 0.26 M4.08 37.99 C13.4 26.17, 24.13 15.66, 36.88 0.26 M8.41 39.11 C19.58 22.55, 36.44 7.31, 41.87 0.62 M8.41 39.11 C19.94 24.83, 30.9 12.21, 41.87 0.62 M12.08 40.98 C19.89 33.87, 26.34 25.05, 47.51 0.22 M12.08 40.98 C22.88 29.06, 34.21 15.85, 47.51 0.22 M17.72 40.58 C28.11 27.81, 38.43 17.16, 52.5 0.58 M17.72 40.58 C29.04 25.3, 42.16 10.98, 52.5 0.58 M22.71 40.94 C34.89 28.33, 44.94 15.98, 58.14 0.19 M22.71 40.94 C33.62 28.94, 43.26 15.9, 58.14 0.19 M28.35 40.55 C39.09 29.58, 45.6 21.54, 63.13 0.55 M28.35 40.55 C40.99 26.71, 53.61 12.84, 63.13 0.55 M33.34 40.91 C43.45 30.71, 47.97 20.22, 68.77 0.15 M33.34 40.91 C41.8 31.61, 50.13 23.06, 68.77 0.15 M38.98 40.51 C53.79 25.72, 67.94 9.64, 73.76 0.51 M38.98 40.51 C48.19 29.93, 58.83 17.46, 73.76 0.51 M43.97 40.87 C54.38 28.89, 60.19 20.82, 79.4 0.12 M43.97 40.87 C58.08 24.81, 71.36 11.27, 79.4 0.12 M49.61 40.48 C62.12 25.59, 76.62 7.6, 84.39 0.48 M49.61 40.48 C62.26 25.9, 76.37 9.29, 84.39 0.48 M54.6 40.84 C65.75 24.61, 79.74 11.99, 89.37 0.84 M54.6 40.84 C65.23 29.9, 74.8 17.01, 89.37 0.84 M60.24 40.44 C74.41 24.84, 88.13 8.7, 95.02 0.44 M60.24 40.44 C68.79 29.05, 78.15 18.35, 95.02 0.44 M65.23 40.8 C74.75 27.54, 85 16.12, 100 0.81 M65.23 40.8 C76.58 26.63, 89.55 12.02, 100 0.81 M70.87 40.41 C85.37 24.2, 95.36 12.22, 105.65 0.41 M70.87 40.41 C78.06 31.46, 84.89 22.48, 105.65 0.41 M75.86 40.77 C86.74 29.98, 94.42 19.66, 110.63 0.77 M75.86 40.77 C87.11 27.4, 100.41 13.79, 110.63 0.77 M80.85 41.13 C90.97 30.55, 99.58 20.24, 116.28 0.38 M80.85 41.13 C88.52 30.75, 97 20.97, 116.28 0.38 M86.49 40.74 C96.15 28.7, 108.18 18.22, 121.26 0.74 M86.49 40.74 C95.54 30.48, 104.87 19.5, 121.26 0.74 M91.48 41.1 C102.14 25.43, 114.52 14.92, 126.91 0.34 M91.48 41.1 C103.05 28.37, 113.1 15.58, 126.91 0.34 M97.12 40.7 C108.47 31.19, 117.06 19, 131.89 0.7 M97.12 40.7 C108.07 27.83, 120.63 14.18, 131.89 0.7 M102.11 41.06 C109.01 32.01, 119.52 24.59, 137.54 0.31 M102.11 41.06 C112.52 29.2, 122.46 19.21, 137.54 0.31 M107.75 40.67 C114.39 29.58, 123.47 22.73, 142.52 0.67 M107.75 40.67 C116.95 31.64, 124.35 21.17, 142.52 0.67 M112.74 41.03 C125.01 26.61, 140.31 7.23, 148.17 0.27 M112.74 41.03 C125.26 27.66, 136.06 14.41, 148.17 0.27 M118.38 40.63 C129.01 26.05, 144.68 13.05, 153.15 0.63 M118.38 40.63 C127.05 31.72, 133.9 21.59, 153.15 0.63 M123.37 40.99 C137.92 27.4, 148.55 12.3, 158.8 0.24 M123.37 40.99 C137.36 26.53, 149.8 10.38, 158.8 0.24 M129.01 40.6 C138.16 30.7, 150.31 18.42, 163.78 0.6 M129.01 40.6 C135.85 32.78, 143.63 23.58, 163.78 0.6 M134 40.96 C141.69 30.34, 150.3 23.44, 169.43 0.2 M134 40.96 C143.3 30.33, 152.19 20.25, 169.43 0.2 M139.64 40.56 C149.19 28.4, 159.85 18.9, 174.41 0.56 M139.64 40.56 C148.69 29.86, 158.48 17.72, 174.41 0.56 M144.63 40.92 C159.13 26.93, 170.59 8.52, 180.06 0.17 M144.63 40.92 C155.58 27.46, 167.25 14.77, 180.06 0.17 M150.27 40.53 C158.35 29.33, 170.23 16.77, 185.04 0.53 M150.27 40.53 C156.76 33.62, 165.06 24.34, 185.04 0.53 M155.26 40.89 C170.44 24.21, 182.48 8.45, 190.69 0.13 M155.26 40.89 C164.7 31.1, 171.97 22.08, 190.69 0.13 M160.9 40.49 C171.09 25.01, 186.06 12.54, 195.67 0.49 M160.9 40.49 C172.64 27.52, 184.02 14.71, 195.67 0.49 M165.89 40.85 C174.76 30.22, 182.98 21.84, 200.66 0.85 M165.89 40.85 C174.24 31.74, 181.78 23.58, 200.66 0.85 M171.53 40.46 C180.97 28.33, 192.55 16.9, 206.3 0.46 M171.53 40.46 C180.4 30.77, 189.44 19.96, 206.3 0.46 M176.52 40.82 C187.78 29.1, 196.23 19.53, 211.29 0.82 M176.52 40.82 C188.93 24.54, 203.79 11.1, 211.29 0.82 M182.16 40.43 C192.09 29.47, 198.92 18.79, 216.93 0.43 M182.16 40.43 C194.89 25.46, 207.73 12.23, 216.93 0.43 M187.15 40.79 C196.1 31.82, 205.45 21.14, 221.26 1.54 M187.15 40.79 C200.16 26.39, 211.56 13.07, 221.26 1.54 M192.79 40.39 C202.26 29.33, 211.01 19.32, 225.6 2.66 M192.79 40.39 C202.67 29.97, 212.42 18.71, 225.6 2.66 M197.78 40.75 C207.45 31.39, 216.55 17.55, 228.61 5.28 M197.78 40.75 C208.5 29.2, 216.76 19.26, 228.61 5.28 M202.77 41.11 C211.65 29.43, 224.59 17.09, 231.63 7.9 M202.77 41.11 C210.08 30.35, 219.97 21.8, 231.63 7.9 M208.41 40.72 C218.21 30.31, 227.72 18.55, 232.03 13.55 M208.41 40.72 C216.13 31.34, 224.78 22.24, 232.03 13.55 M213.4 41.08 C217.14 38.02, 222.23 32.44, 231.77 19.94 M213.4 41.08 C218.2 36.45, 223.06 30.24, 231.77 19.94 M220.35 39.17 C222.13 37.99, 223.51 33.29, 229.54 28.61 M220.35 39.17 C222.54 36.95, 224.37 33.81, 229.54 28.61" stroke="#868e96" stroke-width="0.5" fill="none"></path><path d="M9.61 0 M9.61 0 C74.18 0.58, 139.83 -0.57, 219.68 0 M9.61 0 C55.81 -1.91, 100.39 -1.14, 219.68 0 M219.68 0 C224.97 -0.57, 228.57 5.05, 229.29 9.61 M219.68 0 C227.67 -1.58, 228.75 3.73, 229.29 9.61 M229.29 9.61 C229.02 17.01, 230.67 23.17, 229.29 28.84 M229.29 9.61 C229.17 14.09, 229.14 19.88, 229.29 28.84 M229.29 28.84 C230.73 35.49, 226.95 36.81, 219.68 38.45 M229.29 28.84 C228.13 34.79, 223.85 36.68, 219.68 38.45 M219.68 38.45 C156.28 41.15, 91.58 41.12, 9.61 38.45 M219.68 38.45 C177.76 38.35, 135.83 38.67, 9.61 38.45 M9.61 38.45 C4.87 37.09, -1.03 37.03, 0 28.84 M9.61 38.45 C1.02 39.88, 1.21 36.9, 0 28.84 M0 28.84 C-0.75 23.05, 0.22 13.72, 0 9.61 M0 28.84 C-0.49 23.3, 0.61 18.93, 0 9.61 M0 9.61 C-0.65 2.85, 5.13 -1.23, 9.61 0 M0 9.61 C-2.07 2.31, 5.3 1.69, 9.61 0" stroke="#000000" stroke-width="1" fill="none"></path></g><g stroke-linecap="round" transform="translate(581.3282380887201 393.21828130089807) rotate(0 114.64494583158626 19.226176017281432)"><path d="M0.4 5.64 C0.4 5.64, 0.4 5.64, 0.4 5.64 M0.4 5.64 C0.4 5.64, 0.4 5.64, 0.4 5.64 M0.13 12.04 C1.95 7.87, 5.81 6.68, 9.97 0.72 M0.13 12.04 C2.21 9.15, 5.09 6.95, 9.97 0.72 M0.53 17.68 C4.55 14.68, 7.32 11.97, 15.62 0.33 M0.53 17.68 C4.85 12.35, 8.85 6.89, 15.62 0.33 M0.27 24.08 C4.85 17.67, 11.78 14.28, 20.6 0.69 M0.27 24.08 C7.14 15.67, 14.83 7.44, 20.6 0.69 M0.66 29.73 C8.48 23.71, 15.4 15.66, 26.25 0.29 M0.66 29.73 C6.8 22.04, 14.62 13.52, 26.25 0.29 M2.37 33.86 C10.6 26.6, 19.26 14.52, 31.23 0.65 M2.37 33.86 C9.54 25.11, 18.3 16.23, 31.23 0.65 M4.08 37.99 C18.2 22.11, 28.18 8.72, 36.88 0.26 M4.08 37.99 C10.38 30.16, 17.71 21.51, 36.88 0.26 M8.41 39.11 C17.74 28.98, 27.43 18.78, 41.87 0.62 M8.41 39.11 C16.73 30.48, 23.25 21.49, 41.87 0.62 M12.08 40.98 C26.9 26.99, 41.07 7.82, 47.51 0.22 M12.08 40.98 C24.77 26.56, 37.27 13.34, 47.51 0.22 M17.72 40.58 C26.48 30.79, 32.11 21.9, 52.5 0.58 M17.72 40.58 C30.87 24.15, 44.39 9.81, 52.5 0.58 M22.71 40.94 C35.47 26.93, 46.22 10.34, 58.14 0.19 M22.71 40.94 C33.2 28.17, 44.4 15.59, 58.14 0.19 M28.35 40.55 C37.48 29.65, 45.18 22.56, 63.13 0.55 M28.35 40.55 C37.08 32.1, 44.38 22.02, 63.13 0.55 M33.34 40.91 C41.63 29.59, 53.69 15.83, 68.77 0.15 M33.34 40.91 C45.67 26.21, 59.52 11.3, 68.77 0.15 M38.98 40.51 C47.95 27.7, 61.83 17.01, 73.76 0.51 M38.98 40.51 C50.46 26.24, 61.49 13.4, 73.76 0.51 M43.97 40.87 C56.34 27.92, 68.28 11.1, 79.4 0.12 M43.97 40.87 C51.97 32.3, 58.8 23.13, 79.4 0.12 M49.61 40.48 C59.67 25.61, 73.51 13.35, 84.39 0.48 M49.61 40.48 C56.78 30.25, 65.87 21.51, 84.39 0.48 M54.6 40.84 C64.8 30.14, 70.18 19.65, 89.37 0.84 M54.6 40.84 C66.06 26.73, 78.5 14.15, 89.37 0.84 M60.24 40.44 C68.9 28.43, 77.16 20.9, 95.02 0.44 M60.24 40.44 C73.05 25.42, 85.99 9.61, 95.02 0.44 M65.23 40.8 C76.83 28.1, 88.38 12.44, 100 0.81 M65.23 40.8 C75 29.11, 84.99 16.85, 100 0.81 M70.87 40.41 C76.64 32.23, 84.34 24.88, 105.65 0.41 M70.87 40.41 C81.72 25.99, 94.18 14.05, 105.65 0.41 M75.86 40.77 C90.85 25.26, 102.34 9.78, 110.63 0.77 M75.86 40.77 C82.48 33.23, 89.61 24.34, 110.63 0.77 M80.85 41.13 C93.16 25.22, 107.13 11.27, 116.28 0.38 M80.85 41.13 C93.47 25.62, 107.39 10.46, 116.28 0.38 M86.49 40.74 C96.31 32.05, 101.3 23.57, 121.26 0.74 M86.49 40.74 C96.89 28.16, 106.28 16.98, 121.26 0.74 M91.48 41.1 C102.83 29.21, 113.07 17.35, 126.91 0.34 M91.48 41.1 C102.36 26.81, 113.53 14.28, 126.91 0.34 M97.12 40.7 C107.4 30.32, 119.53 18.01, 131.89 0.7 M97.12 40.7 C107.63 29.36, 117.79 15.66, 131.89 0.7 M102.11 41.06 C114.65 30.32, 122.97 16.7, 137.54 0.31 M102.11 41.06 C113.64 27.68, 124.74 15.79, 137.54 0.31 M107.75 40.67 C118.07 29.87, 125.77 18.13, 142.52 0.67 M107.75 40.67 C117.58 29.81, 127.15 18.92, 142.52 0.67 M112.74 41.03 C125.58 27.35, 141.39 8.71, 148.17 0.27 M112.74 41.03 C127.43 25.51, 142.01 8.83, 148.17 0.27 M118.38 40.63 C127.26 31.95, 135.09 21.25, 153.15 0.63 M118.38 40.63 C126.55 29.44, 136.02 20.35, 153.15 0.63 M123.37 40.99 C133.77 32.9, 138.86 19.77, 158.8 0.24 M123.37 40.99 C136.32 26.76, 147.99 12.77, 158.8 0.24 M129.01 40.6 C141.5 29.74, 148.64 17.52, 163.78 0.6 M129.01 40.6 C139.28 27.85, 150.77 15.35, 163.78 0.6 M134 40.96 C149.04 23.39, 160.95 8.3, 169.43 0.2 M134 40.96 C142.32 30.48, 153.11 19.43, 169.43 0.2 M139.64 40.56 C148.45 29.04, 158.31 22.59, 174.41 0.56 M139.64 40.56 C150.5 28.19, 160.56 16.99, 174.41 0.56 M144.63 40.92 C157.14 27.63, 168.73 10.75, 180.06 0.17 M144.63 40.92 C157.69 27.31, 169.43 12.31, 180.06 0.17 M150.27 40.53 C158.91 31.13, 167.46 20.45, 185.04 0.53 M150.27 40.53 C162.39 26.51, 174.74 13.38, 185.04 0.53 M155.26 40.89 C166.04 24.97, 181.74 10.47, 190.69 0.13 M155.26 40.89 C168.16 24.54, 182.45 9.97, 190.69 0.13 M160.9 40.49 C172.54 29.2, 180.88 15.89, 195.67 0.49 M160.9 40.49 C173.14 26.59, 185.44 12.47, 195.67 0.49 M165.89 40.85 C178.13 26.11, 189.62 15.47, 200.66 0.85 M165.89 40.85 C179.72 25.06, 194.16 8.79, 200.66 0.85 M171.53 40.46 C181.7 30.49, 191.53 16.6, 206.3 0.46 M171.53 40.46 C182.25 28.31, 193.89 16.45, 206.3 0.46 M176.52 40.82 C188.59 26.06, 202.46 14.14, 211.29 0.82 M176.52 40.82 C190.4 26.58, 203.56 11.27, 211.29 0.82 M182.16 40.43 C189.51 32.25, 197.63 25.2, 216.93 0.43 M182.16 40.43 C194.7 25.3, 207.49 11.34, 216.93 0.43 M187.15 40.79 C195.35 29.73, 204.27 22.62, 221.26 1.54 M187.15 40.79 C195.71 30.76, 204.51 21.01, 221.26 1.54 M192.79 40.39 C200.69 32.88, 205.02 22.75, 225.6 2.66 M192.79 40.39 C203.51 28.75, 212.95 17.6, 225.6 2.66 M197.78 40.75 C206.81 27.56, 218.05 15.89, 228.61 5.28 M197.78 40.75 C204.81 32.2, 210.72 24.67, 228.61 5.28 M202.77 41.11 C211.55 28.81, 222.09 17.87, 231.63 7.9 M202.77 41.11 C213.45 29.17, 222.69 18.74, 231.63 7.9 M208.41 40.72 C214.03 32.96, 220.68 27.52, 232.03 13.55 M208.41 40.72 C213.57 34.75, 219.59 26.67, 232.03 13.55 M213.4 41.08 C220.33 35.68, 222.37 29.39, 231.77 19.94 M213.4 41.08 C220.5 32.95, 227.27 27.36, 231.77 19.94 M220.35 39.17 C221.73 36.32, 225.82 33.92, 229.54 28.61 M220.35 39.17 C222.02 36.67, 224.07 34.61, 229.54 28.61" stroke="#868e96" stroke-width="0.5" fill="none"></path><path d="M9.61 0 M9.61 0 C68.11 1.47, 125.82 0.53, 219.68 0 M9.61 0 C82.14 -2.09, 154.57 -1.26, 219.68 0 M219.68 0 C227.56 1.42, 229.69 3.86, 229.29 9.61 M219.68 0 C226.88 1.17, 229.35 3.72, 229.29 9.61 M229.29 9.61 C227.54 16.84, 229.03 21.68, 229.29 28.84 M229.29 9.61 C229.52 16.49, 229.08 22.46, 229.29 28.84 M229.29 28.84 C231.04 34.76, 226.15 39.52, 219.68 38.45 M229.29 28.84 C227.98 34.4, 226.05 38, 219.68 38.45 M219.68 38.45 C136.79 37.37, 55.84 36.09, 9.61 38.45 M219.68 38.45 C148.96 36.59, 78.32 36.43, 9.61 38.45 M9.61 38.45 C4.52 36.86, -1.1 35.43, 0 28.84 M9.61 38.45 C4.31 38.24, 1.54 35.79, 0 28.84 M0 28.84 C-0.75 23.53, -1.23 22, 0 9.61 M0 28.84 C-0.76 22.69, -0.75 15.96, 0 9.61 M0 9.61 C-1.38 1.53, 1.36 1.62, 9.61 0 M0 9.61 C1.92 4.4, 1.92 -0.51, 9.61 0" stroke="#000000" stroke-width="1" fill="none"></path></g><g stroke-linecap="round" transform="translate(145.47327828357288 242.90752066656296) rotate(0 114.64494583158626 19.226176017281432)"><path d="M0.4 5.64 C0.4 5.64, 0.4 5.64, 0.4 5.64 M0.4 5.64 C0.4 5.64, 0.4 5.64, 0.4 5.64 M0.13 12.04 C2.66 9.2, 8.29 3.83, 9.97 0.72 M0.13 12.04 C3.31 9.07, 5.63 6.34, 9.97 0.72 M0.53 17.68 C6.64 9.7, 11.57 2.29, 15.62 0.33 M0.53 17.68 C6.01 11.82, 11.83 3.49, 15.62 0.33 M0.27 24.08 C3.31 18.59, 8.82 14.17, 20.6 0.69 M0.27 24.08 C4.83 18.24, 9.41 13.23, 20.6 0.69 M0.66 29.73 C9.2 19.02, 20.47 8.27, 26.25 0.29 M0.66 29.73 C10.55 18.36, 19.53 7.72, 26.25 0.29 M2.37 33.86 C10.15 24.71, 20.5 16.15, 31.23 0.65 M2.37 33.86 C14.48 20.39, 23.85 9.6, 31.23 0.65 M4.08 37.99 C15.06 25.66, 27.45 11.45, 36.88 0.26 M4.08 37.99 C15.52 23.11, 28.38 10.27, 36.88 0.26 M8.41 39.11 C20.12 25.73, 35.49 9.47, 41.87 0.62 M8.41 39.11 C18.94 26.04, 30.53 14.54, 41.87 0.62 M12.08 40.98 C25.29 23.62, 40.23 11.78, 47.51 0.22 M12.08 40.98 C20.89 29.84, 30.61 18.92, 47.51 0.22 M17.72 40.58 C24.46 29.94, 33.42 20.35, 52.5 0.58 M17.72 40.58 C25.51 31.37, 34.37 21.71, 52.5 0.58 M22.71 40.94 C28.68 32.91, 38.31 24.13, 58.14 0.19 M22.71 40.94 C34.35 28.02, 43.6 15.92, 58.14 0.19 M28.35 40.55 C40.64 24.89, 54.49 11.08, 63.13 0.55 M28.35 40.55 C40.46 27.91, 50.35 14.49, 63.13 0.55 M33.34 40.91 C43.91 29.86, 51.61 19.7, 68.77 0.15 M33.34 40.91 C39.35 32.47, 48.65 23.19, 68.77 0.15 M38.98 40.51 C48.23 30.29, 58.18 16.45, 73.76 0.51 M38.98 40.51 C47.06 30.57, 54.8 22.32, 73.76 0.51 M43.97 40.87 C56.62 25.69, 69.82 11, 79.4 0.12 M43.97 40.87 C53.07 31.18, 63.38 20.62, 79.4 0.12 M49.61 40.48 C59.28 30.27, 67.21 21.21, 84.39 0.48 M49.61 40.48 C62.98 24.22, 77.6 9.25, 84.39 0.48 M54.6 40.84 C63.74 28.82, 69.67 20.9, 89.37 0.84 M54.6 40.84 C63.51 31.65, 72.11 20.29, 89.37 0.84 M60.24 40.44 C66.72 31.01, 77.75 20.98, 95.02 0.44 M60.24 40.44 C70.07 29.37, 79.79 17.09, 95.02 0.44 M65.23 40.8 C77.53 28.36, 90.98 12.74, 100 0.81 M65.23 40.8 C75.33 28.87, 84.69 19.12, 100 0.81 M70.87 40.41 C79.9 26.61, 92.83 16.23, 105.65 0.41 M70.87 40.41 C78.51 32.73, 86.33 23.98, 105.65 0.41 M75.86 40.77 C81.93 33.36, 92.63 23.65, 110.63 0.77 M75.86 40.77 C89.11 26.83, 102.62 11.78, 110.63 0.77 M80.85 41.13 C89.41 31.17, 101.44 20.05, 116.28 0.38 M80.85 41.13 C89.58 30.5, 100.28 17.44, 116.28 0.38 M86.49 40.74 C95.53 30.19, 103.15 20.66, 121.26 0.74 M86.49 40.74 C97.87 28.1, 107.36 17.45, 121.26 0.74 M91.48 41.1 C104.18 29.78, 111.82 14.01, 126.91 0.34 M91.48 41.1 C99 30.97, 108.4 21.9, 126.91 0.34 M97.12 40.7 C108.69 27.7, 119.98 10.12, 131.89 0.7 M97.12 40.7 C109.18 27.59, 120.03 13.79, 131.89 0.7 M102.11 41.06 C111 29.17, 123.06 17.69, 137.54 0.31 M102.11 41.06 C111.14 30.78, 118.41 21.53, 137.54 0.31 M107.75 40.67 C114.81 31.61, 120.62 24.18, 142.52 0.67 M107.75 40.67 C117.92 29.9, 125.48 20.25, 142.52 0.67 M112.74 41.03 C123.83 27.46, 138.87 10.9, 148.17 0.27 M112.74 41.03 C122.82 30.44, 133.02 18.75, 148.17 0.27 M118.38 40.63 C128.85 31.36, 134.93 19.56, 153.15 0.63 M118.38 40.63 C126.54 31.09, 134.29 23.87, 153.15 0.63 M123.37 40.99 C135.15 26.37, 146.7 14.26, 158.8 0.24 M123.37 40.99 C136.15 26.05, 148.03 11.73, 158.8 0.24 M129.01 40.6 C141.01 30.16, 150.15 15.61, 163.78 0.6 M129.01 40.6 C136.77 31.59, 144.59 22.2, 163.78 0.6 M134 40.96 C140.9 30.1, 151.15 23.52, 169.43 0.2 M134 40.96 C145.92 29.47, 156.58 16.62, 169.43 0.2 M139.64 40.56 C148.83 27.42, 159.8 16.78, 174.41 0.56 M139.64 40.56 C148.74 28.7, 157.26 19.78, 174.41 0.56 M144.63 40.92 C154.39 30.68, 160.71 19.05, 180.06 0.17 M144.63 40.92 C158.41 26.45, 171.29 11.27, 180.06 0.17 M150.27 40.53 C164.92 25.02, 178.46 10.84, 185.04 0.53 M150.27 40.53 C157.88 32.07, 164.68 23.61, 185.04 0.53 M155.26 40.89 C165.63 27.81, 172.92 17.95, 190.69 0.13 M155.26 40.89 C162.02 33.49, 169.36 24.89, 190.69 0.13 M160.9 40.49 C170.54 29.05, 182.35 14.68, 195.67 0.49 M160.9 40.49 C170.37 30.23, 180.23 17.72, 195.67 0.49 M165.89 40.85 C177.66 26.01, 192.67 11.22, 200.66 0.85 M165.89 40.85 C177.43 28.94, 188.21 14.21, 200.66 0.85 M171.53 40.46 C180.96 32.78, 186.65 25.21, 206.3 0.46 M171.53 40.46 C184.65 25.29, 198.86 9.82, 206.3 0.46 M176.52 40.82 C189.43 25.74, 201.87 13.95, 211.29 0.82 M176.52 40.82 C185.48 32.11, 192.47 21.05, 211.29 0.82 M182.16 40.43 C193.17 28.96, 203.22 15.72, 216.93 0.43 M182.16 40.43 C195.28 23.7, 209.92 8.1, 216.93 0.43 M187.15 40.79 C193.72 29.63, 204.99 21.15, 221.26 1.54 M187.15 40.79 C196.52 29.07, 205.36 18.64, 221.26 1.54 M192.79 40.39 C201.24 29.57, 214.51 16.28, 225.6 2.66 M192.79 40.39 C202.04 30.13, 210.69 19.72, 225.6 2.66 M197.78 40.75 C206.45 28.27, 215.65 17.11, 228.61 5.28 M197.78 40.75 C204.16 32.8, 210.27 25.23, 228.61 5.28 M202.77 41.11 C209.84 32.25, 215.61 26.16, 231.63 7.9 M202.77 41.11 C211.52 31.8, 219.73 20.15, 231.63 7.9 M208.41 40.72 C217.15 31.52, 223.12 21.78, 232.03 13.55 M208.41 40.72 C212.71 35.39, 218.82 28.46, 232.03 13.55 M213.4 41.08 C218.09 32.7, 225.91 28.28, 231.77 19.94 M213.4 41.08 C219.41 34.38, 225.83 26.92, 231.77 19.94 M220.35 39.17 C224.26 34.63, 226.26 30.82, 229.54 28.61 M220.35 39.17 C222.98 35.71, 225.81 33.09, 229.54 28.61" stroke="#868e96" stroke-width="0.5" fill="none"></path><path d="M9.61 0 M9.61 0 C92.61 0.65, 176.73 0.99, 219.68 0 M9.61 0 C66.72 -0.73, 122.9 -0.59, 219.68 0 M219.68 0 C227.69 0.19, 231.04 2.79, 229.29 9.61 M219.68 0 C228.31 -0.41, 229.38 2.37, 229.29 9.61 M229.29 9.61 C230.99 16.91, 229.77 21.55, 229.29 28.84 M229.29 9.61 C228.39 16.95, 228.94 23.71, 229.29 28.84 M229.29 28.84 C227.81 33.64, 225.33 37.01, 219.68 38.45 M229.29 28.84 C229.34 36.47, 228.2 37.86, 219.68 38.45 M219.68 38.45 C169.14 40.42, 121.5 38.26, 9.61 38.45 M219.68 38.45 C151.56 36.38, 85.24 36.35, 9.61 38.45 M9.61 38.45 C3.54 36.87, 1.67 36.06, 0 28.84 M9.61 38.45 C2.73 37.62, 2.23 35.48, 0 28.84 M0 28.84 C-0.31 20.64, 0.68 14.69, 0 9.61 M0 28.84 C-0.03 23.4, 0.27 17.08, 0 9.61 M0 9.61 C-1.62 1.37, 2.22 1.77, 9.61 0 M0 9.61 C-0.12 1.6, 2.76 -2.3, 9.61 0" stroke="#000000" stroke-width="1" fill="none"></path></g><g stroke-linecap="round" transform="translate(377.61150238030973 240.77128492324528) rotate(0 98.62312342928135 21.71844652386676)"><path d="M2.89 2.51 C2.89 2.51, 2.89 2.51, 2.89 2.51 M2.89 2.51 C2.89 2.51, 2.89 2.51, 2.89 2.51 M0.66 11.17 C3.13 8.67, 3.78 7.35, 10.5 -0.15 M0.66 11.17 C4.09 7.41, 8.24 2.37, 10.5 -0.15 M0.4 17.57 C3.54 13.8, 9.62 8.06, 13.52 2.48 M0.4 17.57 C5.82 11.62, 9.92 6.95, 13.52 2.48 M0.79 23.22 C7.95 14.07, 15.61 8.45, 19.16 2.08 M0.79 23.22 C3.77 18.72, 7.58 14.01, 19.16 2.08 M1.19 28.86 C5.79 21.4, 10.12 16.56, 24.15 2.44 M1.19 28.86 C7.8 23, 12.39 14.82, 24.15 2.44 M0.93 35.26 C8.79 27.34, 13.19 19.19, 29.14 2.8 M0.93 35.26 C9.13 26.02, 15.97 17.47, 29.14 2.8 M2.63 39.39 C14.92 29.42, 21.47 17.51, 34.78 2.41 M2.63 39.39 C10.81 29.94, 18.75 22.13, 34.78 2.41 M5.65 42.01 C17.69 27.93, 27.39 14.16, 39.77 2.77 M5.65 42.01 C14.44 29.97, 25.79 18.27, 39.77 2.77 M8.67 44.64 C16.01 35.03, 23.09 26.85, 45.41 2.37 M8.67 44.64 C17.76 34.08, 27.44 23.24, 45.41 2.37 M13.66 45 C24.32 32.03, 32.66 21.96, 50.4 2.73 M13.66 45 C26.16 31.62, 36.51 18.58, 50.4 2.73 M19.3 44.6 C27.54 33.83, 34.01 25.68, 56.04 2.34 M19.3 44.6 C31.07 29.66, 43.35 16.23, 56.04 2.34 M24.29 44.96 C32.64 37.5, 38.93 25.38, 61.03 2.7 M24.29 44.96 C36.25 31.16, 46.32 18.75, 61.03 2.7 M29.93 44.57 C39.42 34.85, 47.48 27.45, 66.67 2.31 M29.93 44.57 C37.26 33.87, 46.91 25.5, 66.67 2.31 M34.92 44.93 C46.78 30.38, 60.4 14.36, 71.66 2.67 M34.92 44.93 C50.16 28.69, 63.37 11.8, 71.66 2.67 M39.91 45.29 C51.83 28.11, 67.9 12.64, 77.3 2.27 M39.91 45.29 C48.41 35.99, 57.9 25.55, 77.3 2.27 M45.55 44.9 C53.26 34.43, 65.86 24.25, 82.29 2.63 M45.55 44.9 C58.66 29.41, 71.39 15.13, 82.29 2.63 M50.54 45.26 C59.03 33.39, 69.54 23.08, 87.28 2.99 M50.54 45.26 C64.21 29.01, 77.8 13.51, 87.28 2.99 M56.18 44.86 C66.94 32.53, 76.97 21.03, 92.92 2.6 M56.18 44.86 C71.4 29.28, 86.03 12.1, 92.92 2.6 M61.17 45.22 C68.96 36.02, 78.04 27.71, 97.91 2.96 M61.17 45.22 C74.46 29.2, 86.42 15.5, 97.91 2.96 M66.81 44.83 C79.53 26.41, 95.99 11.24, 103.55 2.56 M66.81 44.83 C81.18 29.44, 93.11 13.72, 103.55 2.56 M71.8 45.19 C82.8 35.46, 91.37 24.69, 108.54 2.92 M71.8 45.19 C83.54 32.15, 94.31 18.56, 108.54 2.92 M77.44 44.79 C89.49 28.62, 103.75 14.07, 114.18 2.53 M77.44 44.79 C88.04 31.77, 99.42 19.31, 114.18 2.53 M82.43 45.15 C92.88 35.11, 98.37 25.41, 119.17 2.89 M82.43 45.15 C96.78 28.24, 111.12 12.13, 119.17 2.89 M87.41 45.51 C97.06 36.38, 104.78 29.53, 124.81 2.49 M87.41 45.51 C100.58 31.46, 112.17 18.88, 124.81 2.49 M93.06 45.12 C104.75 30.78, 118.61 13.78, 129.8 2.85 M93.06 45.12 C106.35 29.78, 120.71 12.32, 129.8 2.85 M98.04 45.48 C112.44 29.22, 122.89 17.04, 134.78 3.21 M98.04 45.48 C109.62 32.54, 121.02 20.69, 134.78 3.21 M103.69 45.08 C116.43 29.2, 128.88 15.12, 140.43 2.82 M103.69 45.08 C113.38 33.78, 123.24 23.29, 140.43 2.82 M108.67 45.44 C116.57 33.73, 127.18 21.21, 145.41 3.18 M108.67 45.44 C117.16 35.63, 127.72 23.77, 145.41 3.18 M114.32 45.05 C123.79 36.01, 129.3 25.79, 151.06 2.78 M114.32 45.05 C124.2 31.41, 135.51 18.73, 151.06 2.78 M119.3 45.41 C134.83 30.28, 150.48 12.09, 156.04 3.14 M119.3 45.41 C130.5 33.33, 140.27 19.65, 156.04 3.14 M124.95 45.01 C138.21 28.92, 149.69 14.88, 161.69 2.75 M124.95 45.01 C136.63 30.84, 151.08 16.03, 161.69 2.75 M129.93 45.37 C142.05 35.28, 152.98 22.75, 166.67 3.11 M129.93 45.37 C139.77 33.37, 150.62 23.26, 166.67 3.11 M135.58 44.98 C144.02 34.54, 154.19 23.22, 172.32 2.72 M135.58 44.98 C146.6 32.88, 157.71 21.04, 172.32 2.72 M140.56 45.34 C147.72 35.51, 158.05 28.12, 177.3 3.08 M140.56 45.34 C153.97 30.1, 166.74 15.25, 177.3 3.08 M145.55 45.7 C153.76 34.01, 163.54 25.3, 182.95 2.68 M145.55 45.7 C155.43 33.78, 166.06 24.2, 182.95 2.68 M151.19 45.3 C164.07 30.36, 178.89 13.04, 187.93 3.04 M151.19 45.3 C161.03 33.69, 171.12 21.07, 187.93 3.04 M156.18 45.66 C167.68 29.19, 181.88 14.74, 193.58 2.65 M156.18 45.66 C163.14 37.24, 171.66 28.33, 193.58 2.65 M161.82 45.27 C171.52 36.58, 177.58 26.86, 196.59 5.27 M161.82 45.27 C171.43 34.34, 180.69 23.52, 196.59 5.27 M166.81 45.63 C176.77 32.49, 189.94 19.08, 198.96 8.65 M166.81 45.63 C176.5 35.84, 185.3 23.43, 198.96 8.65 M172.45 45.24 C179.65 36.05, 188.28 28.18, 199.35 14.29 M172.45 45.24 C180.44 36.73, 189.35 27.26, 199.35 14.29 M177.44 45.6 C183.33 37.95, 188.96 32.65, 199.09 20.69 M177.44 45.6 C184.54 37.75, 191.89 29.22, 199.09 20.69 M183.08 45.2 C186.52 42.18, 189.88 34.16, 199.49 26.33 M183.08 45.2 C188.05 41.16, 191.57 34.66, 199.49 26.33 M188.07 45.56 C193.22 42.18, 195.22 36.58, 199.22 32.73 M188.07 45.56 C191.63 41.84, 195.52 36.77, 199.22 32.73" stroke="#fa5252" stroke-width="0.5" fill="none"></path><path d="M10.86 0 M10.86 0 C49.21 -1.44, 90.32 -0.51, 186.39 0 M10.86 0 C74.79 -2.36, 139.49 -1.8, 186.39 0 M186.39 0 C193.24 1.85, 197.01 3.92, 197.25 10.86 M186.39 0 C193.52 1.08, 194.95 1.76, 197.25 10.86 M197.25 10.86 C197.03 13.99, 196.75 17.9, 197.25 32.58 M197.25 10.86 C196.28 19.18, 196.82 27.1, 197.25 32.58 M197.25 32.58 C199.09 40.89, 193.56 43.83, 186.39 43.44 M197.25 32.58 C199.02 41.15, 193.83 45.43, 186.39 43.44 M186.39 43.44 C117.09 43.66, 46.77 42.88, 10.86 43.44 M186.39 43.44 C121.46 44.79, 58.51 43.95, 10.86 43.44 M10.86 43.44 C4.38 45.02, -1.31 38.36, 0 32.58 M10.86 43.44 C5.18 44.53, -0.09 38.45, 0 32.58 M0 32.58 C-1.16 26.72, -0.17 18.62, 0 10.86 M0 32.58 C-0.58 26.35, -0.29 20.07, 0 10.86 M0 10.86 C0.55 4.26, 3.26 1.43, 10.86 0 M0 10.86 C1.98 2.52, 5.65 -1.14, 10.86 0" stroke="#000000" stroke-width="1" fill="none"></path></g><g stroke-linecap="round" transform="translate(577.7369453186727 242.93841147651028) rotate(0 98.62312342928135 21.71844652386676)"><path d="M2.89 2.51 C2.89 2.51, 2.89 2.51, 2.89 2.51 M2.89 2.51 C2.89 2.51, 2.89 2.51, 2.89 2.51 M0.66 11.17 C4.05 8.93, 7.88 3.21, 10.5 -0.15 M0.66 11.17 C3.84 7.05, 7.6 3.41, 10.5 -0.15 M0.4 17.57 C3.26 12.46, 9.33 10.14, 13.52 2.48 M0.4 17.57 C3.32 14.21, 5.27 10.66, 13.52 2.48 M0.79 23.22 C8.6 15.69, 12.73 10.05, 19.16 2.08 M0.79 23.22 C5.25 19.62, 9.43 14.72, 19.16 2.08 M1.19 28.86 C6.84 22.77, 13.38 13.24, 24.15 2.44 M1.19 28.86 C9.99 18.88, 18.62 9.16, 24.15 2.44 M0.93 35.26 C7.68 25.94, 14.42 18.78, 29.14 2.8 M0.93 35.26 C6.59 28.56, 13.42 21.8, 29.14 2.8 M2.63 39.39 C11.54 31.02, 15.26 24.01, 34.78 2.41 M2.63 39.39 C13 28.58, 22.08 18.45, 34.78 2.41 M5.65 42.01 C17.39 28.58, 33.78 12.39, 39.77 2.77 M5.65 42.01 C15.87 30.98, 26.3 18.82, 39.77 2.77 M8.67 44.64 C20.75 28.41, 36.26 11.02, 45.41 2.37 M8.67 44.64 C17.08 35.27, 25.78 24.5, 45.41 2.37 M13.66 45 C20.93 34.52, 32.16 26.61, 50.4 2.73 M13.66 45 C24.27 33.1, 33.87 22.04, 50.4 2.73 M19.3 44.6 C30.31 31.73, 38.6 19.75, 56.04 2.34 M19.3 44.6 C30.32 30.74, 44.24 17.43, 56.04 2.34 M24.29 44.96 C38.81 29.59, 51.68 10.99, 61.03 2.7 M24.29 44.96 C32.28 37.22, 38.91 27.08, 61.03 2.7 M29.93 44.57 C39.44 35.73, 48.57 24.35, 66.67 2.31 M29.93 44.57 C38.95 33.38, 50.02 22.67, 66.67 2.31 M34.92 44.93 C49.68 26.66, 65.22 11.12, 71.66 2.67 M34.92 44.93 C46.49 31.62, 58.78 17.67, 71.66 2.67 M39.91 45.29 C49.7 36.96, 58.18 23.57, 77.3 2.27 M39.91 45.29 C47.75 35.79, 55.15 28.2, 77.3 2.27 M45.55 44.9 C56.31 34.29, 66.13 21.17, 82.29 2.63 M45.55 44.9 C57.87 29.88, 70.17 17.18, 82.29 2.63 M50.54 45.26 C61.66 33.32, 68.91 23, 87.28 2.99 M50.54 45.26 C60.59 32.35, 72.35 20.74, 87.28 2.99 M56.18 44.86 C64.64 32.65, 77.66 23.47, 92.92 2.6 M56.18 44.86 C68.92 31, 79.83 17.54, 92.92 2.6 M61.17 45.22 C73.39 28.28, 87.68 13.55, 97.91 2.96 M61.17 45.22 C74.27 29.41, 88.89 14.75, 97.91 2.96 M66.81 44.83 C76.82 35.85, 83.29 27.81, 103.55 2.56 M66.81 44.83 C75.56 36, 82.38 25.25, 103.55 2.56 M71.8 45.19 C86.4 31.9, 95.94 14.71, 108.54 2.92 M71.8 45.19 C86.52 28.2, 99.87 12.08, 108.54 2.92 M77.44 44.79 C85.38 37.25, 91.56 27.78, 114.18 2.53 M77.44 44.79 C92.11 29.84, 105.33 13.91, 114.18 2.53 M82.43 45.15 C93.71 32.51, 105.17 16.38, 119.17 2.89 M82.43 45.15 C90.34 36.45, 97.93 27.21, 119.17 2.89 M87.41 45.51 C96.39 38.83, 104.08 26.51, 124.81 2.49 M87.41 45.51 C100.76 29.92, 112.72 17.18, 124.81 2.49 M93.06 45.12 C98.91 35.97, 109.09 27.32, 129.8 2.85 M93.06 45.12 C103.06 33.49, 112.23 23.18, 129.8 2.85 M98.04 45.48 C110.02 33.24, 118.69 18.98, 134.78 3.21 M98.04 45.48 C109.07 32.08, 120.88 18.92, 134.78 3.21 M103.69 45.08 C113.97 33.45, 127.55 17.45, 140.43 2.82 M103.69 45.08 C114.26 33.2, 124.25 21.2, 140.43 2.82 M108.67 45.44 C119.21 30.62, 130.84 18.23, 145.41 3.18 M108.67 45.44 C120.83 32.18, 132.19 18, 145.41 3.18 M114.32 45.05 C122.52 37.53, 129.71 28.75, 151.06 2.78 M114.32 45.05 C124.49 33.72, 135.3 22.18, 151.06 2.78 M119.3 45.41 C134.67 28.83, 147.27 9.77, 156.04 3.14 M119.3 45.41 C132.47 28.48, 146.56 12.77, 156.04 3.14 M124.95 45.01 C135.3 30.65, 148.24 20.03, 161.69 2.75 M124.95 45.01 C133.48 34.16, 143.95 22.29, 161.69 2.75 M129.93 45.37 C137.85 35.24, 146.25 26.41, 166.67 3.11 M129.93 45.37 C143.5 31.21, 155.71 15.84, 166.67 3.11 M135.58 44.98 C150.9 28.22, 164.66 13.28, 172.32 2.72 M135.58 44.98 C146.57 31.82, 155.87 19.72, 172.32 2.72 M140.56 45.34 C148.01 34.38, 156.61 25.34, 177.3 3.08 M140.56 45.34 C152.21 32.79, 163.21 21.63, 177.3 3.08 M145.55 45.7 C160.33 31.57, 172.19 16.93, 182.95 2.68 M145.55 45.7 C160.14 28.7, 174.2 11.4, 182.95 2.68 M151.19 45.3 C162.38 31.71, 177.82 14.63, 187.93 3.04 M151.19 45.3 C162.54 31.94, 176.16 16.95, 187.93 3.04 M156.18 45.66 C164.22 34.06, 175.25 24.7, 193.58 2.65 M156.18 45.66 C167.52 31.85, 178.93 18.98, 193.58 2.65 M161.82 45.27 C169.96 36.68, 180.65 24.39, 196.59 5.27 M161.82 45.27 C176.27 30.34, 189.14 14.94, 196.59 5.27 M166.81 45.63 C179.03 30.79, 191.58 17.43, 198.96 8.65 M166.81 45.63 C175.82 34.33, 185.47 23.73, 198.96 8.65 M172.45 45.24 C178.34 35.4, 186.24 25.7, 199.35 14.29 M172.45 45.24 C183.63 34.08, 194.23 22.15, 199.35 14.29 M177.44 45.6 C181.89 40.17, 188.04 34.71, 199.09 20.69 M177.44 45.6 C184.56 37.78, 191.21 29.34, 199.09 20.69 M183.08 45.2 C187.28 39.04, 189.32 36.42, 199.49 26.33 M183.08 45.2 C187.82 38.39, 192.77 33.17, 199.49 26.33 M188.07 45.56 C190.08 42.51, 193.83 39.34, 199.22 32.73 M188.07 45.56 C190.96 41.81, 194.4 38.22, 199.22 32.73" stroke="#7950f2" stroke-width="0.5" fill="none"></path><path d="M10.86 0 M10.86 0 C60.95 0.31, 113.76 0.6, 186.39 0 M10.86 0 C68.12 0.34, 126.02 2.07, 186.39 0 M186.39 0 C192.32 1.2, 196.84 5.23, 197.25 10.86 M186.39 0 C194.61 0.4, 195.75 1.32, 197.25 10.86 M197.25 10.86 C196.88 20.42, 198.35 27.62, 197.25 32.58 M197.25 10.86 C196.53 16.95, 197.2 21.07, 197.25 32.58 M197.25 32.58 C198.21 41.13, 192.55 42.03, 186.39 43.44 M197.25 32.58 C195.18 40.13, 194.08 44.84, 186.39 43.44 M186.39 43.44 C138.65 45.49, 90.87 44.08, 10.86 43.44 M186.39 43.44 C132.24 44.51, 79.76 44.2, 10.86 43.44 M10.86 43.44 C3.81 43.22, 0.04 38.85, 0 32.58 M10.86 43.44 C4.54 44.21, 1.5 39.82, 0 32.58 M0 32.58 C-0.12 27.48, -0.76 17.99, 0 10.86 M0 32.58 C1.07 25.47, -0.24 19.8, 0 10.86 M0 10.86 C1.48 3.2, 1.73 -1.98, 10.86 0 M0 10.86 C0.54 3.81, 4.24 -0.18, 10.86 0" stroke="#000000" stroke-width="1" fill="none"></path></g><g transform="translate(163.6313228473398 296.4343539882602) rotate(0 43.5 9)"><text x="0" y="14" font-family="Helvetica, Segoe UI Emoji" font-size="16px" fill="#000000" text-anchor="start" style="white-space: pre;" direction="ltr">    rendering</text></g><g transform="translate(808.8070922893176 297.8893838512786) rotate(0 69.5 9)"><text x="0" y="14" font-family="Helvetica, Segoe UI Emoji" font-size="16px" fill="#000000" text-anchor="start" style="white-space: pre;" direction="ltr">continue  rendering</text></g><g transform="translate(382.5960433934806 214.54510890596384) rotate(0 33.5 9)"><text x="0" y="14" font-family="Helvetica, Segoe UI Emoji" font-size="16px" fill="#000000" text-anchor="start" style="white-space: pre;" direction="ltr">script tag</text></g><g transform="translate(384.3762443735304 288.4234495780356) rotate(0 80.5 9)"><text x="0" y="14" font-family="Helvetica, Segoe UI Emoji" font-size="16px" fill="#000000" text-anchor="start" style="white-space: pre;" direction="ltr">downloading the script</text></g><g transform="translate(594.4399600194215 289.3135500680605) rotate(0 56.5 9)"><text x="0" y="14" font-family="Helvetica, Segoe UI Emoji" font-size="16px" fill="#000000" text-anchor="start" style="white-space: pre;" direction="ltr">executing script</text></g><g transform="translate(71.95097237476875 207.42430498576414) rotate(0 60 9)"><text x="0" y="14" font-family="Helvetica, Segoe UI Emoji" font-size="16px" fill="#000000" text-anchor="start" style="white-space: pre;" direction="ltr">&lt;script&gt;&lt;/script&gt;</text></g><g stroke-linecap="round" transform="translate(149.0645982173312 394.6115023803104) rotate(0 114.64494583158626 19.226176017281432)"><path d="M0.4 5.64 C0.4 5.64, 0.4 5.64, 0.4 5.64 M0.4 5.64 C0.4 5.64, 0.4 5.64, 0.4 5.64 M0.13 12.04 C3.75 9.02, 3.67 7.83, 9.97 0.72 M0.13 12.04 C4.13 7.65, 7.12 4.57, 9.97 0.72 M0.53 17.68 C5.53 12.9, 7.42 8.75, 15.62 0.33 M0.53 17.68 C5.88 12.03, 12.13 5.07, 15.62 0.33 M0.27 24.08 C3.14 19.69, 8.59 13.8, 20.6 0.69 M0.27 24.08 C8.24 15.33, 15.27 4.86, 20.6 0.69 M0.66 29.73 C6.03 21.98, 11.07 15.25, 26.25 0.29 M0.66 29.73 C8.89 19.87, 18.6 9.46, 26.25 0.29 M2.37 33.86 C13.91 22.38, 26 7.98, 31.23 0.65 M2.37 33.86 C13.37 20.9, 24.36 7.41, 31.23 0.65 M4.08 37.99 C12.78 26.08, 22.71 18.37, 36.88 0.26 M4.08 37.99 C13.48 25.27, 25.01 14.74, 36.88 0.26 M8.41 39.11 C19.71 26.78, 27.41 17.42, 41.87 0.62 M8.41 39.11 C18.8 27.53, 27.82 16.04, 41.87 0.62 M12.08 40.98 C22.9 29.06, 33.64 19.68, 47.51 0.22 M12.08 40.98 C20.68 31.62, 30.2 20.71, 47.51 0.22 M17.72 40.58 C28.64 26.09, 41.86 11.93, 52.5 0.58 M17.72 40.58 C25.85 31.45, 32.73 22.97, 52.5 0.58 M22.71 40.94 C28.53 30.29, 36.76 21.66, 58.14 0.19 M22.71 40.94 C29.94 32.6, 38.86 23.69, 58.14 0.19 M28.35 40.55 C41.43 23.35, 57.26 7.87, 63.13 0.55 M28.35 40.55 C43.18 25.17, 56.05 9.27, 63.13 0.55 M33.34 40.91 C40.87 32.81, 46.51 22.65, 68.77 0.15 M33.34 40.91 C43.9 29.03, 52.57 17.33, 68.77 0.15 M38.98 40.51 C50.22 28.6, 58.46 18.56, 73.76 0.51 M38.98 40.51 C52.6 25.33, 64.82 10.89, 73.76 0.51 M43.97 40.87 C53.18 29.43, 62.43 20.76, 79.4 0.12 M43.97 40.87 C55.21 26.38, 67.06 12.82, 79.4 0.12 M49.61 40.48 C63.1 26.2, 77.99 9.26, 84.39 0.48 M49.61 40.48 C58.95 30.29, 66.09 21.78, 84.39 0.48 M54.6 40.84 C65.74 28.3, 77.63 14.87, 89.37 0.84 M54.6 40.84 C66.08 27.86, 75.39 15.23, 89.37 0.84 M60.24 40.44 C70.44 28.79, 82.15 14.6, 95.02 0.44 M60.24 40.44 C74.22 24.44, 88.44 7.82, 95.02 0.44 M65.23 40.8 C76.46 28.08, 87.24 14.76, 100 0.81 M65.23 40.8 C76.92 27.14, 88.48 13.08, 100 0.81 M70.87 40.41 C79.79 29.1, 89.48 18.45, 105.65 0.41 M70.87 40.41 C85.39 25.55, 98.16 8.14, 105.65 0.41 M75.86 40.77 C83.3 32.54, 91.62 25.11, 110.63 0.77 M75.86 40.77 C84.02 32.8, 90.51 22.51, 110.63 0.77 M80.85 41.13 C91.02 29.18, 103.39 14.86, 116.28 0.38 M80.85 41.13 C91.09 27.97, 102.73 16.08, 116.28 0.38 M86.49 40.74 C96.95 28.4, 105.73 18.43, 121.26 0.74 M86.49 40.74 C97.68 25.87, 110.72 11.72, 121.26 0.74 M91.48 41.1 C99.45 29.12, 109.41 17.81, 126.91 0.34 M91.48 41.1 C101.51 28.61, 114.07 16.12, 126.91 0.34 M97.12 40.7 C104.84 30.23, 111.2 24.23, 131.89 0.7 M97.12 40.7 C110.47 25.5, 122.81 10.9, 131.89 0.7 M102.11 41.06 C115.26 25.77, 129.88 10.24, 137.54 0.31 M102.11 41.06 C115.37 27.21, 126.78 12.74, 137.54 0.31 M107.75 40.67 C120.08 27.01, 134.93 11.58, 142.52 0.67 M107.75 40.67 C119.81 26.14, 131.18 13.42, 142.52 0.67 M112.74 41.03 C121.92 30.84, 130.2 19.85, 148.17 0.27 M112.74 41.03 C122.16 29.99, 132.38 19.11, 148.17 0.27 M118.38 40.63 C124.76 32.28, 135.78 23.2, 153.15 0.63 M118.38 40.63 C130.81 27.05, 143.89 11.35, 153.15 0.63 M123.37 40.99 C131.62 29.55, 143.17 20.25, 158.8 0.24 M123.37 40.99 C132.31 28.85, 142.01 19.75, 158.8 0.24 M129.01 40.6 C141.36 24.1, 154.51 11.45, 163.78 0.6 M129.01 40.6 C141.72 27.51, 153.23 12.6, 163.78 0.6 M134 40.96 C144.53 31, 151.53 18.57, 169.43 0.2 M134 40.96 C141.55 32.07, 149.48 21.61, 169.43 0.2 M139.64 40.56 C152.82 25.59, 164.3 10.89, 174.41 0.56 M139.64 40.56 C148.13 31.57, 156.74 21.81, 174.41 0.56 M144.63 40.92 C157.94 27.63, 168.55 10.18, 180.06 0.17 M144.63 40.92 C152.33 32.5, 158.79 23.97, 180.06 0.17 M150.27 40.53 C158.37 29.77, 167.35 23.12, 185.04 0.53 M150.27 40.53 C159.08 30.63, 166.36 22.78, 185.04 0.53 M155.26 40.89 C168.09 24.9, 182.6 8.78, 190.69 0.13 M155.26 40.89 C168.52 26.92, 180.97 11.88, 190.69 0.13 M160.9 40.49 C173.56 28.13, 186.82 13.3, 195.67 0.49 M160.9 40.49 C172.36 28.17, 183.83 15.29, 195.67 0.49 M165.89 40.85 C173.8 29.85, 186.78 18.9, 200.66 0.85 M165.89 40.85 C179.94 25.54, 193 10.27, 200.66 0.85 M171.53 40.46 C184.56 23.97, 199.42 7.56, 206.3 0.46 M171.53 40.46 C182.91 27.1, 195.04 14.41, 206.3 0.46 M176.52 40.82 C189.1 26.88, 199.26 14.75, 211.29 0.82 M176.52 40.82 C185.82 28.85, 196.73 17.09, 211.29 0.82 M182.16 40.43 C189.28 31.04, 199.32 23.59, 216.93 0.43 M182.16 40.43 C193.96 26.31, 205.09 13.09, 216.93 0.43 M187.15 40.79 C200 25.63, 210.63 14.01, 221.26 1.54 M187.15 40.79 C195.79 30.39, 204.84 20.35, 221.26 1.54 M192.79 40.39 C201.1 29.74, 215.18 15.57, 225.6 2.66 M192.79 40.39 C199.46 32, 206.43 23.92, 225.6 2.66 M197.78 40.75 C205.74 31.11, 215.07 22.7, 228.61 5.28 M197.78 40.75 C209.07 28.95, 217.73 17.59, 228.61 5.28 M202.77 41.11 C213.91 26.11, 227.26 16.26, 231.63 7.9 M202.77 41.11 C210.59 32.47, 220.58 21.52, 231.63 7.9 M208.41 40.72 C214.89 32.48, 220.71 24.79, 232.03 13.55 M208.41 40.72 C216.86 31.03, 223.79 21.48, 232.03 13.55 M213.4 41.08 C221.04 34.41, 228.31 24.53, 231.77 19.94 M213.4 41.08 C219.37 34.84, 224.3 28.04, 231.77 19.94 M220.35 39.17 C221.82 37.8, 224.71 34.22, 229.54 28.61 M220.35 39.17 C222.54 36.38, 223.88 34.59, 229.54 28.61" stroke="#868e96" stroke-width="0.5" fill="none"></path><path d="M9.61 0 M9.61 0 C58.66 0.54, 106.5 -2.05, 219.68 0 M9.61 0 C59.79 -0.32, 111.13 1.03, 219.68 0 M219.68 0 C226.81 0.28, 228.71 1.49, 229.29 9.61 M219.68 0 C226.12 -1.66, 227.27 0.96, 229.29 9.61 M229.29 9.61 C230.97 15.55, 229.34 22.83, 229.29 28.84 M229.29 9.61 C228.56 15.02, 228.77 19.81, 229.29 28.84 M229.29 28.84 C231 35.36, 224.7 36.59, 219.68 38.45 M229.29 28.84 C229.33 36.74, 224.73 36.92, 219.68 38.45 M219.68 38.45 C145.37 36.44, 67.79 36.21, 9.61 38.45 M219.68 38.45 C165.33 37.65, 111.52 36.97, 9.61 38.45 M9.61 38.45 C2.75 38.9, -0.24 34.87, 0 28.84 M9.61 38.45 C1.65 38.09, 0.42 37.21, 0 28.84 M0 28.84 C-0.17 21.71, -1.62 16.09, 0 9.61 M0 28.84 C0.16 21.26, 0.59 15.2, 0 9.61 M0 9.61 C0.7 4.69, 4.55 1.75, 9.61 0 M0 9.61 C2.02 1.06, 2.63 -0.43, 9.61 0" stroke="#000000" stroke-width="1" fill="none"></path></g><g stroke-linecap="round" transform="translate(163.33706970396656 571.9503945050028) rotate(0 216.4724364576996 19.226176017281432)"><path d="M0.4 5.64 C0.4 5.64, 0.4 5.64, 0.4 5.64 M0.4 5.64 C0.4 5.64, 0.4 5.64, 0.4 5.64 M0.13 12.04 C4.58 8.76, 8.11 3.82, 9.97 0.72 M0.13 12.04 C3.21 7.87, 7.2 4.6, 9.97 0.72 M0.53 17.68 C6.02 9.88, 8.84 7.44, 15.62 0.33 M0.53 17.68 C3.94 13.6, 7.33 9.19, 15.62 0.33 M0.27 24.08 C9.11 13.58, 15.82 5.3, 20.6 0.69 M0.27 24.08 C6.26 16.72, 12.92 9.17, 20.6 0.69 M0.66 29.73 C7.46 24.19, 15.06 14.11, 26.25 0.29 M0.66 29.73 C7.44 21.53, 15.02 12.65, 26.25 0.29 M2.37 33.86 C12.15 25.03, 20.18 12, 31.23 0.65 M2.37 33.86 C8.7 27.1, 13.62 21.02, 31.23 0.65 M4.08 37.99 C13.65 27.99, 22.08 19.78, 36.88 0.26 M4.08 37.99 C15.34 24.55, 28.06 10.23, 36.88 0.26 M8.41 39.11 C19.99 22.81, 32.25 9.22, 41.87 0.62 M8.41 39.11 C20.84 25.32, 32.63 10.25, 41.87 0.62 M12.08 40.98 C20.73 31.38, 29.36 19.16, 47.51 0.22 M12.08 40.98 C24.52 26.31, 35.64 12.54, 47.51 0.22 M17.72 40.58 C26.92 29.72, 37.08 18, 52.5 0.58 M17.72 40.58 C28.79 27.78, 39.77 14.24, 52.5 0.58 M22.71 40.94 C31.64 30.13, 40.14 19.15, 58.14 0.19 M22.71 40.94 C34.89 27.07, 45.04 13.97, 58.14 0.19 M28.35 40.55 C38.28 29.33, 45.24 22.65, 63.13 0.55 M28.35 40.55 C39.46 27.45, 50.48 16.21, 63.13 0.55 M33.34 40.91 C47.88 26.34, 58.94 13.56, 68.77 0.15 M33.34 40.91 C41.02 32.65, 48.76 25.15, 68.77 0.15 M38.98 40.51 C47.21 32.68, 56.16 23.84, 73.76 0.51 M38.98 40.51 C48.09 29.69, 57.38 18.72, 73.76 0.51 M43.97 40.87 C52.82 32.3, 60.51 24.72, 79.4 0.12 M43.97 40.87 C57.18 24.65, 71.73 9.11, 79.4 0.12 M49.61 40.48 C63.42 25.04, 75.04 14.13, 84.39 0.48 M49.61 40.48 C61.44 26.91, 75.06 11.89, 84.39 0.48 M54.6 40.84 C67.05 23.52, 83.21 10.86, 89.37 0.84 M54.6 40.84 C60.45 33.81, 68.59 24.85, 89.37 0.84 M60.24 40.44 C70.7 27.48, 86.04 11.05, 95.02 0.44 M60.24 40.44 C70.84 27.67, 82.72 13.79, 95.02 0.44 M65.23 40.8 C77.8 27.51, 88.64 11.31, 100 0.81 M65.23 40.8 C75.43 28.05, 87.86 15.06, 100 0.81 M70.87 40.41 C76.63 32.94, 86.81 25.09, 105.65 0.41 M70.87 40.41 C84.45 25.21, 98.31 9.08, 105.65 0.41 M75.86 40.77 C87.55 27.03, 100.4 10.09, 110.63 0.77 M75.86 40.77 C86.71 27.83, 98.9 13.83, 110.63 0.77 M80.85 41.13 C93.46 25.99, 104.56 15.27, 116.28 0.38 M80.85 41.13 C93.01 26.64, 106.67 11.92, 116.28 0.38 M86.49 40.74 C98.87 29.49, 106.67 16.87, 121.26 0.74 M86.49 40.74 C98.79 27.29, 110.64 12.57, 121.26 0.74 M91.48 41.1 C101.35 28.81, 112.67 16.09, 126.91 0.34 M91.48 41.1 C103.96 27.12, 115.48 13.19, 126.91 0.34 M97.12 40.7 C105.83 31.05, 117.36 19.2, 131.89 0.7 M97.12 40.7 C104.5 31.35, 111.82 23.27, 131.89 0.7 M102.11 41.06 C109.82 33.71, 119.2 20.6, 137.54 0.31 M102.11 41.06 C114.46 25.82, 126.98 12.76, 137.54 0.31 M107.75 40.67 C121.18 26.09, 135.3 7.95, 142.52 0.67 M107.75 40.67 C119.52 28.36, 129.44 15.28, 142.52 0.67 M112.74 41.03 C125.59 26.65, 135.1 16.63, 148.17 0.27 M112.74 41.03 C125.97 26.96, 138.35 11.84, 148.17 0.27 M118.38 40.63 C124.54 31.86, 132.61 21.99, 153.15 0.63 M118.38 40.63 C129.92 25.94, 142.51 11.08, 153.15 0.63 M123.37 40.99 C130.99 31.3, 140.47 19.28, 158.8 0.24 M123.37 40.99 C133.22 29.48, 142.05 18.21, 158.8 0.24 M129.01 40.6 C140.21 29.68, 151.1 13.41, 163.78 0.6 M129.01 40.6 C141.32 25.27, 154.01 12.56, 163.78 0.6 M134 40.96 C147.99 25.25, 159.06 10.23, 169.43 0.2 M134 40.96 C144.99 29.55, 153.66 16.57, 169.43 0.2 M139.64 40.56 C148.62 30.39, 157.23 20.92, 174.41 0.56 M139.64 40.56 C150.15 29.47, 160.22 17.47, 174.41 0.56 M144.63 40.92 C157.37 24.98, 170.95 11.61, 180.06 0.17 M144.63 40.92 C152.03 33, 158.54 25.46, 180.06 0.17 M150.27 40.53 C160.99 27.68, 171.32 15.21, 185.04 0.53 M150.27 40.53 C159.44 31.75, 165.49 21.5, 185.04 0.53 M155.26 40.89 C161.37 32.77, 171.57 24.27, 190.69 0.13 M155.26 40.89 C162.54 32.09, 171.69 23.38, 190.69 0.13 M160.9 40.49 C167.92 29.98, 178.48 22.83, 195.67 0.49 M160.9 40.49 C173.6 24.74, 188.98 9.63, 195.67 0.49 M165.89 40.85 C176.31 29.16, 183.15 20.4, 200.66 0.85 M165.89 40.85 C173.38 31.6, 180.44 23.68, 200.66 0.85 M171.53 40.46 C183.84 27.33, 195.78 13.08, 206.3 0.46 M171.53 40.46 C183.82 27.16, 194.28 14.82, 206.3 0.46 M176.52 40.82 C188.92 29.75, 200.37 16.19, 211.29 0.82 M176.52 40.82 C185.78 29, 196 19.64, 211.29 0.82 M182.16 40.43 C194.03 28.52, 205.58 15.13, 216.93 0.43 M182.16 40.43 C192.72 27.67, 202.75 15.83, 216.93 0.43 M187.15 40.79 C192.83 34.33, 199.28 25.53, 221.92 0.79 M187.15 40.79 C198.1 29.78, 207.24 18.99, 221.92 0.79 M192.79 40.39 C201.19 31.79, 207.77 20.72, 227.56 0.39 M192.79 40.39 C203.62 26.5, 215.97 12.87, 227.56 0.39 M197.78 40.75 C210.71 27.04, 220.67 15.64, 232.55 0.75 M197.78 40.75 C212.7 24.6, 226.11 8.27, 232.55 0.75 M202.77 41.11 C210.41 30.89, 216.06 26.07, 238.19 0.36 M202.77 41.11 C215.82 27.62, 226.23 13.54, 238.19 0.36 M208.41 40.72 C223 25.78, 234.09 8.6, 243.18 0.72 M208.41 40.72 C222.94 24.19, 235.66 10.03, 243.18 0.72 M213.4 41.08 C221.68 31.94, 225.98 25.35, 248.82 0.32 M213.4 41.08 C226.14 26.95, 240.13 11.94, 248.82 0.32 M219.04 40.68 C225.92 29.69, 234.55 20.86, 253.81 0.68 M219.04 40.68 C228.44 30, 236.11 21.39, 253.81 0.68 M224.03 41.04 C238.65 24.72, 251.4 8.95, 259.45 0.29 M224.03 41.04 C231.79 32.15, 238.75 25.27, 259.45 0.29 M229.67 40.65 C243.74 24.32, 256.78 12.42, 264.44 0.65 M229.67 40.65 C243.65 24.91, 256.4 8.77, 264.44 0.65 M234.66 41.01 C248.51 29.21, 258.69 15.15, 270.08 0.25 M234.66 41.01 C246.79 26.59, 260.54 11.99, 270.08 0.25 M240.3 40.61 C253.19 27.09, 263.93 12.24, 275.07 0.61 M240.3 40.61 C250.35 29.18, 260 17.84, 275.07 0.61 M245.29 40.97 C253.05 30.98, 261.25 20.49, 280.71 0.22 M245.29 40.97 C256.89 29.1, 266.67 16.71, 280.71 0.22 M250.93 40.58 C258.27 28.61, 270.04 19.66, 285.7 0.58 M250.93 40.58 C263.6 24.4, 278.42 9.5, 285.7 0.58 M255.92 40.94 C268.78 26.37, 281.58 9.37, 291.34 0.18 M255.92 40.94 C269.62 25.27, 282.03 11.97, 291.34 0.18 M261.56 40.54 C272.59 27.88, 285.53 11.46, 296.33 0.54 M261.56 40.54 C268.99 31.03, 276.92 23.38, 296.33 0.54 M266.55 40.9 C279.5 25.03, 295.39 9.11, 301.97 0.15 M266.55 40.9 C274.89 30.55, 285.05 20.58, 301.97 0.15 M272.19 40.51 C283.05 25.1, 294.96 10.8, 306.96 0.51 M272.19 40.51 C284.61 26.79, 295.96 14.23, 306.96 0.51 M277.18 40.87 C288.28 27.83, 302.19 14.99, 312.6 0.12 M277.18 40.87 C285.03 33.48, 292.3 23.85, 312.6 0.12 M282.82 40.47 C291.54 29.71, 303.58 19.17, 317.59 0.48 M282.82 40.47 C292.66 30.17, 301.39 19.48, 317.59 0.48 M287.81 40.83 C298.49 27.27, 308.79 15.34, 322.58 0.84 M287.81 40.83 C300.5 26.14, 312.69 10.9, 322.58 0.84 M293.45 40.44 C306.9 24.19, 321.34 8.25, 328.22 0.44 M293.45 40.44 C300.35 32.47, 308.83 23.21, 328.22 0.44 M298.44 40.8 C307.46 29.39, 315.84 20.46, 333.21 0.8 M298.44 40.8 C304.94 32.46, 314.32 24.13, 333.21 0.8 M304.08 40.41 C314.7 26.87, 324.79 14.68, 338.85 0.41 M304.08 40.41 C310.81 30.93, 318.9 23.33, 338.85 0.41 M309.07 40.77 C320.12 30.44, 329.21 16.74, 343.84 0.77 M309.07 40.77 C322.54 25.36, 335.72 11.21, 343.84 0.77 M314.05 41.13 C326.59 25.79, 340.42 13.68, 349.48 0.37 M314.05 41.13 C324.04 28.78, 335.27 15.39, 349.48 0.37 M319.7 40.73 C328.81 33.31, 334.72 22.08, 354.47 0.73 M319.7 40.73 C332.52 25.05, 344.27 10.84, 354.47 0.73 M324.68 41.09 C337.61 25.22, 350.29 10.57, 360.11 0.34 M324.68 41.09 C337.41 25.67, 351.38 11.88, 360.11 0.34 M330.33 40.7 C344.1 28.27, 356.53 10.85, 365.1 0.7 M330.33 40.7 C340.17 31.21, 348.83 19.05, 365.1 0.7 M335.31 41.06 C347.82 28.27, 360.86 13.99, 370.74 0.3 M335.31 41.06 C346.03 29.1, 356.92 16.5, 370.74 0.3 M340.96 40.66 C354.6 25.17, 367.31 10.18, 375.73 0.66 M340.96 40.66 C349.77 31.48, 358.68 19.71, 375.73 0.66 M345.94 41.02 C358.47 27.09, 373.39 10.78, 381.37 0.27 M345.94 41.02 C353.59 32.53, 363.02 22.78, 381.37 0.27 M351.59 40.63 C360.16 29.95, 368.14 20.38, 386.36 0.63 M351.59 40.63 C360.69 28.93, 369.72 20.01, 386.36 0.63 M356.57 40.99 C365.44 31.35, 372.41 22.74, 392 0.23 M356.57 40.99 C367.89 28.08, 380.95 14.76, 392 0.23 M362.22 40.59 C371.89 30.04, 384.57 16.38, 396.99 0.59 M362.22 40.59 C373.67 27.42, 386.73 13.77, 396.99 0.59 M367.2 40.95 C379.51 28.7, 389.36 14.28, 402.63 0.2 M367.2 40.95 C379.85 25.57, 394.95 10.35, 402.63 0.2 M372.85 40.56 C385.92 28.46, 396.5 13.82, 407.62 0.56 M372.85 40.56 C383.33 28.75, 391.87 18.68, 407.62 0.56 M377.83 40.92 C387.1 31.91, 393.76 24.66, 413.26 0.16 M377.83 40.92 C384.99 32.93, 393.81 23.4, 413.26 0.16 M383.48 40.52 C393.05 31.6, 400.8 20.85, 418.25 0.52 M383.48 40.52 C395.21 26.89, 407.58 12.41, 418.25 0.52 M388.47 40.88 C403.07 26.83, 414.69 10.74, 423.89 0.13 M388.47 40.88 C396.94 30.88, 405.7 19.98, 423.89 0.13 M394.11 40.49 C399.46 31.51, 407.78 24.56, 428.22 1.25 M394.11 40.49 C402.22 30.63, 409.2 21.56, 428.22 1.25 M399.1 40.85 C408.36 30.98, 413.83 23.8, 431.24 3.87 M399.1 40.85 C412.2 26.88, 423.13 12.64, 431.24 3.87 M404.74 40.46 C413.57 29.88, 423.03 16.15, 434.26 6.49 M404.74 40.46 C411.26 31.79, 419.61 22.39, 434.26 6.49 M409.73 40.82 C418.45 31.02, 425.49 24.82, 434 12.89 M409.73 40.82 C418.13 32.79, 425.95 22.58, 434 12.89 M415.37 40.42 C420.19 34.2, 426.62 25, 434.39 18.53 M415.37 40.42 C421.07 33.39, 427.57 26.99, 434.39 18.53 M420.36 40.78 C424.39 35.08, 425.46 33.91, 434.13 24.93 M420.36 40.78 C426.15 34.09, 429.84 29.66, 434.13 24.93 M426 40.39 C428.63 37.47, 429.55 34.22, 434.53 30.58 M426 40.39 C428.5 37.68, 429.34 35.32, 434.53 30.58" stroke="#868e96" stroke-width="0.5" fill="none"></path><path d="M9.61 0 M9.61 0 C164.66 -2.54, 318.84 -2.78, 423.33 0 M9.61 0 C133.71 0.18, 258.53 0.13, 423.33 0 M423.33 0 C429.76 1.64, 433.9 2, 432.94 9.61 M423.33 0 C431.45 2.25, 432.15 4.81, 432.94 9.61 M432.94 9.61 C434.52 12.36, 431.73 17.02, 432.94 28.84 M432.94 9.61 C433.8 14.18, 433.6 18.36, 432.94 28.84 M432.94 28.84 C432.92 34.74, 430.78 38.17, 423.33 38.45 M432.94 28.84 C434.45 36.3, 429.05 40.49, 423.33 38.45 M423.33 38.45 C327.59 40.32, 234.39 40.09, 9.61 38.45 M423.33 38.45 C282 40.13, 139.48 40.1, 9.61 38.45 M9.61 38.45 C3.31 37.46, -0.25 33.72, 0 28.84 M9.61 38.45 C2.05 40.2, -0.54 34.2, 0 28.84 M0 28.84 C1.09 26.66, -0.52 20.74, 0 9.61 M0 28.84 C-0.43 21.11, -0.15 13.81, 0 9.61 M0 9.61 C-1.68 4.29, 3.94 1.01, 9.61 0 M0 9.61 C-0.75 4.78, 4.38 1.45, 9.61 0" stroke="#000000" stroke-width="1" fill="none"></path></g><g stroke-linecap="round" transform="translate(380.5216164337685 392.5061031195178) rotate(0 98.62312342928135 21.71844652386676)"><path d="M2.89 2.51 C2.89 2.51, 2.89 2.51, 2.89 2.51 M2.89 2.51 C2.89 2.51, 2.89 2.51, 2.89 2.51 M0.66 11.17 C3.08 8.2, 8.16 2.54, 10.5 -0.15 M0.66 11.17 C4.34 7.47, 7.12 2.51, 10.5 -0.15 M0.4 17.57 C3.83 12.36, 8.38 11.05, 13.52 2.48 M0.4 17.57 C4.22 13.88, 6.92 10, 13.52 2.48 M0.79 23.22 C5.88 16.97, 12.88 11.31, 19.16 2.08 M0.79 23.22 C5.59 15.66, 11.46 9.32, 19.16 2.08 M1.19 28.86 C9.73 16.76, 20.21 8.41, 24.15 2.44 M1.19 28.86 C6.59 23.02, 13.48 16.48, 24.15 2.44 M0.93 35.26 C10.39 25.58, 19.34 17.64, 29.14 2.8 M0.93 35.26 C9.18 24.94, 17.11 16.79, 29.14 2.8 M2.63 39.39 C16.3 26.2, 26.47 13.19, 34.78 2.41 M2.63 39.39 C15.74 26.08, 27.21 10.99, 34.78 2.41 M5.65 42.01 C15.44 30.62, 27.48 16.85, 39.77 2.77 M5.65 42.01 C14.41 31.02, 24.11 19.9, 39.77 2.77 M8.67 44.64 C22 32.57, 31.66 18.77, 45.41 2.37 M8.67 44.64 C18.47 33.9, 27.79 23.87, 45.41 2.37 M13.66 45 C22.84 34.16, 33.41 20.6, 50.4 2.73 M13.66 45 C22.22 34.56, 31.5 23.39, 50.4 2.73 M19.3 44.6 C30.77 29.13, 42.24 18.97, 56.04 2.34 M19.3 44.6 C32.85 30.73, 45.6 14.92, 56.04 2.34 M24.29 44.96 C37.4 30.8, 50.39 17.74, 61.03 2.7 M24.29 44.96 C33.47 34.24, 42.23 21.89, 61.03 2.7 M29.93 44.57 C41.15 28.33, 55.89 14.45, 66.67 2.31 M29.93 44.57 C38.83 32.71, 49.45 21.5, 66.67 2.31 M34.92 44.93 C43.47 35.03, 52.16 25.99, 71.66 2.67 M34.92 44.93 C47.23 30.67, 59.88 15.37, 71.66 2.67 M39.91 45.29 C52.29 32.34, 64.5 18.6, 77.3 2.27 M39.91 45.29 C53.74 28.78, 69.83 11.74, 77.3 2.27 M45.55 44.9 C59.73 29.73, 70.8 12.16, 82.29 2.63 M45.55 44.9 C59.62 28.63, 75.02 11.03, 82.29 2.63 M50.54 45.26 C58.52 36.3, 68.84 23.61, 87.28 2.99 M50.54 45.26 C62.34 29.84, 75.97 16.23, 87.28 2.99 M56.18 44.86 C69.76 28.85, 84.73 13, 92.92 2.6 M56.18 44.86 C68.6 30.24, 80.11 17.23, 92.92 2.6 M61.17 45.22 C71.57 32.33, 82.72 22.01, 97.91 2.96 M61.17 45.22 C74.32 29.43, 87.91 15.17, 97.91 2.96 M66.81 44.83 C75.2 35.04, 87.89 22.15, 103.55 2.56 M66.81 44.83 C75.94 32.52, 84.8 22.61, 103.55 2.56 M71.8 45.19 C84.86 32.65, 92.68 17.19, 108.54 2.92 M71.8 45.19 C84.15 28.89, 98.51 14.23, 108.54 2.92 M77.44 44.79 C89.88 30.29, 100.57 17.21, 114.18 2.53 M77.44 44.79 C92.13 28.59, 105.48 13.71, 114.18 2.53 M82.43 45.15 C94.14 31.91, 106.22 19.58, 119.17 2.89 M82.43 45.15 C97.52 27.77, 111.78 12.56, 119.17 2.89 M87.41 45.51 C94.71 35.1, 103.05 28.55, 124.81 2.49 M87.41 45.51 C98.75 33.89, 107.82 22.33, 124.81 2.49 M93.06 45.12 C99.53 37.71, 110.37 25.82, 129.8 2.85 M93.06 45.12 C102.12 34.09, 112.78 24.27, 129.8 2.85 M98.04 45.48 C106.89 36.53, 116.22 25.45, 134.78 3.21 M98.04 45.48 C110.99 30.19, 125.79 13.45, 134.78 3.21 M103.69 45.08 C114.63 34.37, 123.42 21.71, 140.43 2.82 M103.69 45.08 C112.17 34.93, 121.45 25.21, 140.43 2.82 M108.67 45.44 C121.47 29.92, 131.69 18.53, 145.41 3.18 M108.67 45.44 C120.52 32.67, 131.57 17.86, 145.41 3.18 M114.32 45.05 C130.06 29.82, 144.53 10.38, 151.06 2.78 M114.32 45.05 C122.52 35.03, 130.07 25.85, 151.06 2.78 M119.3 45.41 C128.76 36.49, 135.28 26.44, 156.04 3.14 M119.3 45.41 C133.73 29.91, 149.41 12.97, 156.04 3.14 M124.95 45.01 C135.85 33.35, 147.99 18.11, 161.69 2.75 M124.95 45.01 C136.66 30.62, 148.59 17.26, 161.69 2.75 M129.93 45.37 C139.55 31.78, 150.26 21.67, 166.67 3.11 M129.93 45.37 C141 31.46, 153.72 18.21, 166.67 3.11 M135.58 44.98 C148.67 28.64, 163.29 13.04, 172.32 2.72 M135.58 44.98 C146.13 33.6, 156.68 21.14, 172.32 2.72 M140.56 45.34 C151.61 29.2, 163.66 17.07, 177.3 3.08 M140.56 45.34 C147.58 36.33, 154.51 27.29, 177.3 3.08 M145.55 45.7 C161.49 29.77, 173.54 12.07, 182.95 2.68 M145.55 45.7 C156.25 34, 168.39 19.77, 182.95 2.68 M151.19 45.3 C165.22 28.79, 179.16 12.7, 187.93 3.04 M151.19 45.3 C159.7 35.16, 168.81 25.4, 187.93 3.04 M156.18 45.66 C170.7 31.29, 182.32 13.9, 193.58 2.65 M156.18 45.66 C169.18 31.4, 181.07 16.1, 193.58 2.65 M161.82 45.27 C177.52 29.79, 191.31 13.83, 196.59 5.27 M161.82 45.27 C175.97 29.52, 189.93 13.85, 196.59 5.27 M166.81 45.63 C174.76 35.82, 181.96 31.05, 198.96 8.65 M166.81 45.63 C176.35 35.94, 184.71 24.83, 198.96 8.65 M172.45 45.24 C179.47 36.92, 188.16 28.47, 199.35 14.29 M172.45 45.24 C180.91 35.66, 188.51 25.2, 199.35 14.29 M177.44 45.6 C185.79 38.71, 192.01 29.57, 199.09 20.69 M177.44 45.6 C184.02 37.19, 191.91 30.35, 199.09 20.69 M183.08 45.2 C187.94 40.26, 193.22 34.11, 199.49 26.33 M183.08 45.2 C187.35 40.36, 190.52 37.61, 199.49 26.33 M188.07 45.56 C192.26 41.69, 192.11 40.97, 199.22 32.73 M188.07 45.56 C190.4 42.4, 192.59 39.26, 199.22 32.73" stroke="#7950f2" stroke-width="0.5" fill="none"></path><path d="M10.86 0 M10.86 0 C51.51 0.83, 91.3 -0.08, 186.39 0 M10.86 0 C47.39 0.65, 86.35 1.33, 186.39 0 M186.39 0 C194.16 -0.01, 195.51 5.49, 197.25 10.86 M186.39 0 C195.46 -0.19, 195.71 1.89, 197.25 10.86 M197.25 10.86 C196.54 15.53, 199.05 19.94, 197.25 32.58 M197.25 10.86 C197.28 17.46, 197.14 24.09, 197.25 32.58 M197.25 32.58 C198.02 39.34, 192.16 42.38, 186.39 43.44 M197.25 32.58 C199.15 41.56, 192.1 44.33, 186.39 43.44 M186.39 43.44 C122.52 43.69, 59.08 43.74, 10.86 43.44 M186.39 43.44 C126.5 43.91, 67.51 43.22, 10.86 43.44 M10.86 43.44 C4.97 43.8, -0.36 38, 0 32.58 M10.86 43.44 C1.69 42.73, 0.59 37.81, 0 32.58 M0 32.58 C1.04 28.12, 1.02 23.51, 0 10.86 M0 32.58 C-0.26 25.3, -0.45 17.65, 0 10.86 M0 10.86 C0.18 5.25, 4.35 0.28, 10.86 0 M0 10.86 C-0.67 1.64, 3.66 -1.66, 10.86 0" stroke="#000000" stroke-width="1" fill="none"></path></g><g transform="translate(143.01189858693454 441.72960130834326) rotate(0 43.5 9)"><text x="0" y="14" font-family="Helvetica, Segoe UI Emoji" font-size="16px" fill="#000000" text-anchor="start" style="white-space: pre;" direction="ltr">    rendering</text></g><g transform="translate(166.5414097370874 619.780644450705) rotate(0 43.5 9)"><text x="0" y="14" font-family="Helvetica, Segoe UI Emoji" font-size="16px" fill="#000000" text-anchor="start" style="white-space: pre;" direction="ltr">    rendering</text></g><g transform="translate(629.3937188774901 438.2000901581905) rotate(0 69.5 9)"><text x="0" y="14" font-family="Helvetica, Segoe UI Emoji" font-size="16px" fill="#000000" text-anchor="start" style="white-space: pre;" direction="ltr"> continue rendering</text></g><g transform="translate(386.1873633272389 366.2490906197113) rotate(0 33.5 9)"><text x="0" y="14" font-family="Helvetica, Segoe UI Emoji" font-size="16px" fill="#000000" text-anchor="start" style="white-space: pre;" direction="ltr">script tag</text></g><g stroke-linecap="round" transform="translate(596.3127519381792 570.5569289521895) rotate(0 98.62312342928135 21.71844652386676)"><path d="M2.89 2.51 C2.89 2.51, 2.89 2.51, 2.89 2.51 M2.89 2.51 C2.89 2.51, 2.89 2.51, 2.89 2.51 M0.66 11.17 C3.86 9.36, 5.41 5.33, 10.5 -0.15 M0.66 11.17 C3.02 8.52, 6.27 5.07, 10.5 -0.15 M0.4 17.57 C3.12 10.43, 11.19 5.22, 13.52 2.48 M0.4 17.57 C3.56 13.65, 6.39 10.65, 13.52 2.48 M0.79 23.22 C2.69 19.14, 6.8 14.99, 19.16 2.08 M0.79 23.22 C7.47 15.34, 13.98 8.4, 19.16 2.08 M1.19 28.86 C11.27 21.15, 16.8 9.1, 24.15 2.44 M1.19 28.86 C9.25 19.9, 16.62 10.36, 24.15 2.44 M0.93 35.26 C9.31 27.13, 13.49 16.57, 29.14 2.8 M0.93 35.26 C7.32 27.1, 14.36 20.31, 29.14 2.8 M2.63 39.39 C9.06 32.14, 17.31 25.96, 34.78 2.41 M2.63 39.39 C14.11 26.8, 24.7 15.75, 34.78 2.41 M5.65 42.01 C10.97 32.28, 19.06 27.39, 39.77 2.77 M5.65 42.01 C19.49 26.14, 32.06 11.76, 39.77 2.77 M8.67 44.64 C24.54 26.57, 37.86 12.04, 45.41 2.37 M8.67 44.64 C18.44 31.77, 29.09 19.93, 45.41 2.37 M13.66 45 C27.34 30.19, 40.18 12.94, 50.4 2.73 M13.66 45 C24.05 32.8, 33.72 20.65, 50.4 2.73 M19.3 44.6 C30.24 30.79, 41.06 19.32, 56.04 2.34 M19.3 44.6 C26.59 34.41, 34.59 25.7, 56.04 2.34 M24.29 44.96 C30.84 35.18, 41.94 26.39, 61.03 2.7 M24.29 44.96 C31.9 35.59, 41.4 26.64, 61.03 2.7 M29.93 44.57 C41.45 31.29, 54.73 16.03, 66.67 2.31 M29.93 44.57 C39.15 34.77, 49.07 22.67, 66.67 2.31 M34.92 44.93 C46.89 33.94, 57.83 19.61, 71.66 2.67 M34.92 44.93 C46.83 30.93, 58.58 17.4, 71.66 2.67 M39.91 45.29 C48.31 36.68, 57.73 27.59, 77.3 2.27 M39.91 45.29 C48.21 35.53, 57.27 25.43, 77.3 2.27 M45.55 44.9 C54.9 33.39, 68.8 20.15, 82.29 2.63 M45.55 44.9 C57.28 33.1, 67.51 20.62, 82.29 2.63 M50.54 45.26 C58.98 35.28, 72.09 19.64, 87.28 2.99 M50.54 45.26 C64.78 30.64, 77.05 15.92, 87.28 2.99 M56.18 44.86 C67.11 35.18, 74.62 22.45, 92.92 2.6 M56.18 44.86 C68.6 31.09, 79.86 17.83, 92.92 2.6 M61.17 45.22 C75.46 28.4, 86.93 15.62, 97.91 2.96 M61.17 45.22 C72.15 33.32, 82.92 19.49, 97.91 2.96 M66.81 44.83 C81.23 31.12, 95.29 15.67, 103.55 2.56 M66.81 44.83 C81.34 29.15, 94.95 12.4, 103.55 2.56 M71.8 45.19 C84.96 30.45, 94.97 17.45, 108.54 2.92 M71.8 45.19 C82.22 33.81, 91.57 22.21, 108.54 2.92 M77.44 44.79 C85.54 33.6, 98.04 23.51, 114.18 2.53 M77.44 44.79 C88.11 33.07, 98.59 21.72, 114.18 2.53 M82.43 45.15 C96.65 28.6, 109.47 16.08, 119.17 2.89 M82.43 45.15 C91.47 35.08, 99.2 25.42, 119.17 2.89 M87.41 45.51 C102.62 27.89, 117.37 13.5, 124.81 2.49 M87.41 45.51 C95.06 36.19, 102.81 25.78, 124.81 2.49 M93.06 45.12 C106.95 32.33, 118.58 14, 129.8 2.85 M93.06 45.12 C100.84 34.84, 109.94 25.03, 129.8 2.85 M98.04 45.48 C109.56 35.27, 115.28 25.14, 134.78 3.21 M98.04 45.48 C106.96 34.02, 118.11 23.89, 134.78 3.21 M103.69 45.08 C116.44 31.84, 125.7 19.23, 140.43 2.82 M103.69 45.08 C113.29 33.74, 122.06 24.23, 140.43 2.82 M108.67 45.44 C120.19 30.25, 136.11 16.25, 145.41 3.18 M108.67 45.44 C119.49 33.63, 129.26 20.46, 145.41 3.18 M114.32 45.05 C122.83 34.42, 130.33 25.68, 151.06 2.78 M114.32 45.05 C127.99 28.63, 141.54 12.27, 151.06 2.78 M119.3 45.41 C130.4 32.52, 139.22 21.81, 156.04 3.14 M119.3 45.41 C132.32 29.37, 145.54 15.5, 156.04 3.14 M124.95 45.01 C140.82 29.06, 151.39 13.37, 161.69 2.75 M124.95 45.01 C133.98 33.51, 145.66 22.71, 161.69 2.75 M129.93 45.37 C142.19 29.49, 155.08 15.46, 166.67 3.11 M129.93 45.37 C145.29 27.24, 159.04 11.01, 166.67 3.11 M135.58 44.98 C143.11 35.69, 151.41 27.83, 172.32 2.72 M135.58 44.98 C145.42 34.48, 154.32 23.72, 172.32 2.72 M140.56 45.34 C147.9 35.83, 157.83 24.49, 177.3 3.08 M140.56 45.34 C153.64 30.31, 167.06 16.11, 177.3 3.08 M145.55 45.7 C159.17 29.43, 173.08 11.6, 182.95 2.68 M145.55 45.7 C153.55 35.57, 160.09 26.46, 182.95 2.68 M151.19 45.3 C161.98 34.95, 172.44 20.18, 187.93 3.04 M151.19 45.3 C164.51 31.29, 177.9 15.22, 187.93 3.04 M156.18 45.66 C164.11 36.36, 175.49 27.14, 193.58 2.65 M156.18 45.66 C167.92 33.24, 180.34 18.31, 193.58 2.65 M161.82 45.27 C168.78 34.42, 178.67 24.86, 196.59 5.27 M161.82 45.27 C175.1 29.08, 189.66 14.36, 196.59 5.27 M166.81 45.63 C179.03 32.31, 190.14 21.51, 198.96 8.65 M166.81 45.63 C176.29 34.17, 186.71 23.64, 198.96 8.65 M172.45 45.24 C182.72 36.85, 190.49 25.03, 199.35 14.29 M172.45 45.24 C178.69 37.59, 187.37 28.59, 199.35 14.29 M177.44 45.6 C183.16 40.96, 187.47 33.85, 199.09 20.69 M177.44 45.6 C185.49 35.25, 194.44 25.55, 199.09 20.69 M183.08 45.2 C189.52 37.94, 193.53 34.01, 199.49 26.33 M183.08 45.2 C186.78 41.31, 190.63 36.61, 199.49 26.33 M188.07 45.56 C192.72 40.01, 195.27 37.01, 199.22 32.73 M188.07 45.56 C191.32 41.2, 194.95 37.47, 199.22 32.73" stroke="#7950f2" stroke-width="0.5" fill="none"></path><path d="M10.86 0 M10.86 0 C55.37 -1.62, 102.33 1.06, 186.39 0 M10.86 0 C53.3 -1.07, 95.35 -2.41, 186.39 0 M186.39 0 C194.1 1.95, 197.84 1.96, 197.25 10.86 M186.39 0 C192.6 1.99, 198.08 1.81, 197.25 10.86 M197.25 10.86 C196.04 14.65, 199.17 18.93, 197.25 32.58 M197.25 10.86 C196.59 16.42, 198.22 22.6, 197.25 32.58 M197.25 32.58 C198.42 41.42, 192.01 43.5, 186.39 43.44 M197.25 32.58 C198.52 37.72, 195.86 41.17, 186.39 43.44 M186.39 43.44 C123.35 43.1, 57.53 41.3, 10.86 43.44 M186.39 43.44 C138.91 44.31, 91.58 44.4, 10.86 43.44 M10.86 43.44 C2.68 41.57, -0.41 38.44, 0 32.58 M10.86 43.44 C2.33 43.24, 1.48 41.86, 0 32.58 M0 32.58 C1.43 26.95, 1.98 23.89, 0 10.86 M0 32.58 C-1.09 27.45, 0.59 22.15, 0 10.86 M0 10.86 C-0.94 5.05, 5.29 1.54, 10.86 0 M0 10.86 C1.19 2.75, 4.96 -1.58, 10.86 0" stroke="#000000" stroke-width="1" fill="none"></path></g><g stroke-linecap="round" transform="translate(253.7403669495866 441.6087430607208) rotate(0 64.39293188600334 14.180390957542386)"><path d="M1.89 1.64 C1.89 1.64, 1.89 1.64, 1.89 1.64 M1.89 1.64 C1.89 1.64, 1.89 1.64, 1.89 1.64 M1.63 8.04 C3.31 5.07, 6.21 3.86, 8.19 0.49 M1.63 8.04 C2.97 6.17, 5.18 3.7, 8.19 0.49 M1.36 14.44 C3.24 11.37, 5.69 9.3, 13.17 0.85 M1.36 14.44 C6.29 9.94, 10.03 4.44, 13.17 0.85 M1.76 20.08 C9.16 12.24, 15.06 6.35, 18.82 0.46 M1.76 20.08 C7.11 13.43, 10.75 7.86, 18.82 0.46 M2.15 25.72 C5.97 19.1, 10.79 14.42, 23.8 0.82 M2.15 25.72 C9.24 18.15, 15.78 12.13, 23.8 0.82 M5.17 28.35 C15.08 19.85, 22.06 10.82, 28.79 1.18 M5.17 28.35 C14.34 17.6, 22.98 6.53, 28.79 1.18 M10.16 28.71 C16.9 20.37, 27.8 8.52, 34.43 0.78 M10.16 28.71 C17.41 20.11, 26.81 9.96, 34.43 0.78 M15.15 29.07 C20.06 21.17, 27.94 15.44, 39.42 1.14 M15.15 29.07 C22.44 19.93, 29.83 11.68, 39.42 1.14 M20.79 28.67 C26.36 23.11, 34.45 13.81, 45.06 0.75 M20.79 28.67 C31.1 18.43, 39.89 7.72, 45.06 0.75 M25.78 29.03 C35.1 17.42, 44.78 7.37, 50.05 1.11 M25.78 29.03 C32.52 20.32, 39.93 12.28, 50.05 1.11 M31.42 28.64 C36.55 19.67, 43.67 10.86, 55.69 0.71 M31.42 28.64 C41.59 18.65, 51.16 7.9, 55.69 0.71 M36.41 29 C41.54 22.79, 48.36 16.55, 60.68 1.07 M36.41 29 C44.34 20.24, 51.78 10.89, 60.68 1.07 M42.05 28.6 C47.97 20.41, 51.78 15.75, 66.32 0.68 M42.05 28.6 C49.23 18.96, 56.61 10.95, 66.32 0.68 M47.04 28.96 C52.71 21.59, 60.32 14.17, 71.31 1.04 M47.04 28.96 C53.37 21.05, 60.41 13.38, 71.31 1.04 M52.68 28.57 C58.64 20.9, 67.36 13.04, 76.95 0.64 M52.68 28.57 C60.03 18.74, 68.26 11.31, 76.95 0.64 M57.67 28.93 C64.8 23.29, 69.24 14.58, 81.94 1 M57.67 28.93 C61.8 22.89, 67.55 18.04, 81.94 1 M63.31 28.53 C71.01 20.09, 77.84 14.06, 86.93 1.36 M63.31 28.53 C68.79 20.61, 74.57 14.38, 86.93 1.36 M68.3 28.89 C76.98 20.22, 83.1 13, 92.57 0.97 M68.3 28.89 C73.98 22.64, 79.04 15.47, 92.57 0.97 M73.28 29.25 C79.68 21.73, 85.48 14.94, 97.56 1.33 M73.28 29.25 C81.36 19.68, 89 10.54, 97.56 1.33 M78.93 28.86 C88.67 16.82, 99.09 9.14, 103.2 0.94 M78.93 28.86 C86.16 21.13, 90.86 13.01, 103.2 0.94 M83.91 29.22 C91.59 21.99, 100.04 9.46, 108.19 1.3 M83.91 29.22 C89.59 22.64, 92.92 18.03, 108.19 1.3 M89.56 28.83 C97.76 20.96, 103.59 11.39, 113.83 0.9 M89.56 28.83 C94.73 22.43, 101.12 14.81, 113.83 0.9 M94.54 29.19 C102.79 18.5, 113.38 8.08, 118.82 1.26 M94.54 29.19 C101.9 20.06, 109.9 10.25, 118.82 1.26 M100.19 28.79 C108.89 17.01, 118.31 6.37, 125.12 0.11 M100.19 28.79 C108.15 20.66, 116.12 10.45, 125.12 0.11 M105.17 29.15 C111.98 18.18, 123.34 11.56, 127.48 3.49 M105.17 29.15 C110 22.75, 115.46 17.9, 127.48 3.49 M110.82 28.76 C118.69 20.7, 126.41 13.17, 130.5 6.12 M110.82 28.76 C116.99 21.81, 122.46 16.58, 130.5 6.12 M115.8 29.12 C120.92 25.87, 124.35 20.56, 130.89 11.76 M115.8 29.12 C118.21 24.59, 122.51 20.92, 130.89 11.76 M121.45 28.72 C124.58 25.43, 127.13 20.19, 130.63 18.16 M121.45 28.72 C124.56 25.43, 127.76 21.67, 130.63 18.16" stroke="#fa5252" stroke-width="0.5" fill="none"></path><path d="M7.09 0 M7.09 0 C36.8 2.14, 65.47 2.33, 121.7 0 M7.09 0 C33.1 0.57, 57.26 0.15, 121.7 0 M121.7 0 C125.14 -1.55, 127.52 1.3, 128.79 7.09 M121.7 0 C127.59 0.34, 128.04 1.95, 128.79 7.09 M128.79 7.09 C128.15 14, 129.74 19.35, 128.79 21.27 M128.79 7.09 C128.69 11.61, 129.09 14.95, 128.79 21.27 M128.79 21.27 C129.35 26.62, 128.13 27.93, 121.7 28.36 M128.79 21.27 C128.31 25.19, 127.15 28.34, 121.7 28.36 M121.7 28.36 C79.17 26.34, 39.98 27.98, 7.09 28.36 M121.7 28.36 C89.96 28.46, 58.66 28.68, 7.09 28.36 M7.09 28.36 C2.45 28.53, -1.31 26.27, 0 21.27 M7.09 28.36 C1.09 29.81, -0.44 26.55, 0 21.27 M0 21.27 C0.77 16.21, 0.55 11.21, 0 7.09 M0 21.27 C-0.57 16.31, -0.58 11.14, 0 7.09 M0 7.09 C-0.77 1.92, 1.3 -1.57, 7.09 0 M0 7.09 C-2.2 4.48, 2.37 -1.8, 7.09 0" stroke="#000000" stroke-width="1" fill="none"></path></g><g transform="translate(258.157196951003 472.7217567855073) rotate(0 111.5 9)"><text x="0" y="14" font-family="Helvetica, Segoe UI Emoji" font-size="15.51040947203509px" fill="#000000" text-anchor="start" style="white-space: pre;" direction="ltr">downloading the script, parallely</text></g><g stroke-linecap="round" transform="translate(268.01283843622195 618.9476351854132) rotate(0 64.39293188600334 14.180390957542386)"><path d="M1.89 1.64 C1.89 1.64, 1.89 1.64, 1.89 1.64 M1.89 1.64 C1.89 1.64, 1.89 1.64, 1.89 1.64 M1.63 8.04 C4.05 5.48, 6.52 1.61, 8.19 0.49 M1.63 8.04 C4.33 5.32, 6.59 1.96, 8.19 0.49 M1.36 14.44 C2.96 11.68, 6.2 8.4, 13.17 0.85 M1.36 14.44 C4.01 10.72, 8.76 5.72, 13.17 0.85 M1.76 20.08 C8.2 15.41, 11.49 8.62, 18.82 0.46 M1.76 20.08 C5.99 15.04, 9.45 12.28, 18.82 0.46 M2.15 25.72 C11.99 14.77, 19.24 5.59, 23.8 0.82 M2.15 25.72 C8.99 17.36, 16.98 9.99, 23.8 0.82 M5.17 28.35 C11.4 18.4, 20.72 11, 28.79 1.18 M5.17 28.35 C9.15 23.13, 15.52 16.75, 28.79 1.18 M10.16 28.71 C18.16 19.71, 23.22 12.48, 34.43 0.78 M10.16 28.71 C15.08 22.38, 21.28 13.99, 34.43 0.78 M15.15 29.07 C22.03 23.6, 25.63 18.89, 39.42 1.14 M15.15 29.07 C21.07 24.17, 24.97 18.24, 39.42 1.14 M20.79 28.67 C26.04 21.58, 32.51 13.98, 45.06 0.75 M20.79 28.67 C27.54 22.32, 32.63 15.45, 45.06 0.75 M25.78 29.03 C34.72 19.19, 43.86 8.35, 50.05 1.11 M25.78 29.03 C32.69 22.35, 39.19 13.81, 50.05 1.11 M31.42 28.64 C35.89 19.98, 44.43 12.6, 55.69 0.71 M31.42 28.64 C35.79 23.14, 42.12 16.66, 55.69 0.71 M36.41 29 C41.64 21.97, 49.97 12.13, 60.68 1.07 M36.41 29 C43.74 19.87, 52.02 11.66, 60.68 1.07 M42.05 28.6 C48.29 18.68, 57.38 11.05, 66.32 0.68 M42.05 28.6 C51.12 17.95, 60.65 8, 66.32 0.68 M47.04 28.96 C56.26 17.75, 64.13 8.32, 71.31 1.04 M47.04 28.96 C51.67 23.09, 58.41 16.7, 71.31 1.04 M52.68 28.57 C60.01 19.98, 68.63 7.77, 76.95 0.64 M52.68 28.57 C60.65 19.46, 69.5 9.4, 76.95 0.64 M57.67 28.93 C66.73 17.13, 74.85 8.56, 81.94 1 M57.67 28.93 C66.48 18.57, 75.06 7.28, 81.94 1 M63.31 28.53 C73.5 16.83, 79.57 9.37, 86.93 1.36 M63.31 28.53 C70.4 20.6, 77.14 12.09, 86.93 1.36 M68.3 28.89 C78.37 17, 85.83 7.61, 92.57 0.97 M68.3 28.89 C76.27 21.45, 82.95 13.03, 92.57 0.97 M73.28 29.25 C78.32 23.92, 81.56 17.81, 97.56 1.33 M73.28 29.25 C82.06 20.54, 88.84 11.38, 97.56 1.33 M78.93 28.86 C89.73 17.77, 98.22 7.76, 103.2 0.94 M78.93 28.86 C89.03 18.37, 97.85 7.16, 103.2 0.94 M83.91 29.22 C90.13 21.02, 95.74 14.38, 108.19 1.3 M83.91 29.22 C91.42 20, 99.77 10.71, 108.19 1.3 M89.56 28.83 C96.52 21.36, 102.6 12.81, 113.83 0.9 M89.56 28.83 C96.36 20.6, 103.26 14.22, 113.83 0.9 M94.54 29.19 C98.69 21.88, 105.66 16.68, 118.82 1.26 M94.54 29.19 C102.68 20.72, 108.34 13.17, 118.82 1.26 M100.19 28.79 C104.12 23.9, 112.46 15.04, 125.12 0.11 M100.19 28.79 C109.63 18.12, 117.64 9.26, 125.12 0.11 M105.17 29.15 C112.69 20.32, 122.01 8.08, 127.48 3.49 M105.17 29.15 C109.94 22.81, 115.27 18.22, 127.48 3.49 M110.82 28.76 C116.69 22.88, 123.13 12.87, 130.5 6.12 M110.82 28.76 C116.26 23.13, 121.43 16.79, 130.5 6.12 M115.8 29.12 C119.2 22.57, 125.55 19.4, 130.89 11.76 M115.8 29.12 C119.74 25.96, 123.51 20.71, 130.89 11.76 M121.45 28.72 C123.93 25.43, 127.75 22.81, 130.63 18.16 M121.45 28.72 C124.13 26, 127.1 21.77, 130.63 18.16" stroke="#fa5252" stroke-width="0.5" fill="none"></path><path d="M7.09 0 M7.09 0 C40.29 0.89, 69.03 -0.96, 121.7 0 M7.09 0 C37.56 1.02, 67.63 1.01, 121.7 0 M121.7 0 C124.99 -0.29, 128.4 3.46, 128.79 7.09 M121.7 0 C125.31 0.29, 128.24 0.09, 128.79 7.09 M128.79 7.09 C129.63 11.67, 130.15 15.78, 128.79 21.27 M128.79 7.09 C129.1 9.91, 128.25 13.08, 128.79 21.27 M128.79 21.27 C130.33 27.37, 127.44 26.86, 121.7 28.36 M128.79 21.27 C130.09 24.9, 125.44 27.27, 121.7 28.36 M121.7 28.36 C89.39 28.78, 51.63 27.04, 7.09 28.36 M121.7 28.36 C91.65 29.52, 61.62 29.99, 7.09 28.36 M7.09 28.36 C2.07 27.52, -0.95 26.81, 0 21.27 M7.09 28.36 C2.75 29.64, -0.94 27.58, 0 21.27 M0 21.27 C-0.6 18, 0.57 13.51, 0 7.09 M0 21.27 C0.19 16.16, 0.71 11.53, 0 7.09 M0 7.09 C1.56 0.44, 2.74 -0.93, 7.09 0 M0 7.09 C0.07 1.04, 0.63 -2.1, 7.09 0" stroke="#000000" stroke-width="1" fill="none"></path></g><g transform="translate(272.4296684376384 650.0606489101997) rotate(0 111.5 9)"><text x="0" y="14" font-family="Helvetica, Segoe UI Emoji" font-size="15.51040947203509px" fill="#000000" text-anchor="start" style="white-space: pre;" direction="ltr">downloading the script, parallely</text></g><g transform="translate(415.0266409350163 444.57790657819714) rotate(0 56.5 9)"><text x="0" y="14" font-family="Helvetica, Segoe UI Emoji" font-size="16px" fill="#000000" text-anchor="start" style="white-space: pre;" direction="ltr">executing script</text></g><g transform="translate(609.4554733336731 627.6134364063073) rotate(0 142.5 9)"><text x="0" y="14" font-family="Helvetica, Segoe UI Emoji" font-size="16px" fill="#000000" text-anchor="start" style="white-space: pre;" direction="ltr">execute script after rendering is finished</text></g><g transform="translate(75.54229230852707 359.1282866995116) rotate(0 83.5 9)"><text x="0" y="14" font-family="Helvetica, Segoe UI Emoji" font-size="16px" fill="#000000" text-anchor="start" style="white-space: pre;" direction="ltr">&lt;script async&gt;&lt;/script&gt;</text></g><g transform="translate(89.81476379516243 536.467178824204) rotate(0 80.5 9)"><text x="0" y="14" font-family="Helvetica, Segoe UI Emoji" font-size="16px" fill="#000000" text-anchor="start" style="white-space: pre;" direction="ltr">&lt;script defer&gt;&lt;/script&gt;</text></g><g stroke-linecap="round"><g transform="translate(250.6386729109912 365.87489793076884) rotate(0 0.6929556882867018 58.2605437109446)"><path d="M0.94 0.74 C0.74 19.69, -0.4 95.82, -0.38 114.81 M-0.02 0.08 C0.07 19.77, 1.68 97.11, 1.76 116.44" stroke="#000000" stroke-width="1" fill="none"></path></g></g><mask></mask><g stroke-linecap="round"><g transform="translate(268.47157352143756 541.7896374205352) rotate(0 -0.1605164891643085 57.18653293030002)"><path d="M0.37 -1.09 C0.39 18.03, 0.65 94.9, 0.6 114.18 M-0.9 0.95 C-1.08 20.28, -0.38 96.32, -0.4 115.47" stroke="#000000" stroke-width="1" fill="none"></path></g></g><mask></mask><g stroke-linecap="round"><g transform="translate(374.54069915166156 192.12727141241203) rotate(0 1.8383466966964193 66.26445600600096)"><path d="M-0.82 0.91 C-0.17 22.54, 3.35 109.16, 4.49 130.78 M0.96 0.34 C1.34 22.07, 2.47 110.29, 3.29 132.19" stroke="#000000" stroke-width="1" fill="none"></path></g></g><mask></mask><g stroke-linecap="round"><g transform="translate(771.9124432760095 184.32526161191254) rotate(0 2.5668819738599495 65.22521817684742)"><path d="M0.26 -0.11 C1.1 22.01, 3.32 109.61, 4.01 131.66 M-1.07 -1.21 C0.24 20.65, 5.47 107.92, 6.2 129.87" stroke="#000000" stroke-width="1" fill="none"></path></g></g><mask></mask><g stroke-linecap="round"><g transform="translate(574.6970057362603 347.4225594780619) rotate(0 2.2533590417637015 64.70461220891298)"><path d="M0.13 -0.2 C1.27 21.39, 4.96 107.9, 5.76 129.85 M-1.26 -1.36 C-0.12 20.31, 4.32 108.98, 5.22 130.77" stroke="#000000" stroke-width="1" fill="none"></path></g></g><mask></mask><g transform="translate(252.0628391277735 367.33085258600977) rotate(0 33.5 9)"><text x="0" y="14" font-family="Helvetica, Segoe UI Emoji" font-size="16px" fill="#000000" text-anchor="start" style="white-space: pre;" direction="ltr">script tag</text></g><g transform="translate(273.45611453460845 542.5335361310958) rotate(0 33.5 9)"><text x="0" y="14" font-family="Helvetica, Segoe UI Emoji" font-size="16px" fill="#000000" text-anchor="start" style="white-space: pre;" direction="ltr">script tag</text></g><g transform="translate(10 580.3318889835004) rotate(0 71.5 18.5)"><text x="0" y="14.5" font-family="Helvetica, Segoe UI Emoji" font-size="16px" fill="#000000" text-anchor="start" style="white-space: pre;" direction="ltr">same as placing</text><text x="0" y="33" font-family="Helvetica, Segoe UI Emoji" font-size="16px" fill="#000000" text-anchor="start" style="white-space: pre;" direction="ltr">script after body tag</text></g><g transform="translate(261.6759135545583 859.3783926063252) rotate(0 14.5 9)"><text x="0" y="14" font-family="Helvetica, Segoe UI Emoji" font-size="16px" fill="#000000" text-anchor="start" style="white-space: pre;" direction="ltr">var </text></g><g stroke-linecap="round" transform="translate(318.28631015288806 860.1476891761508) rotate(0 124.97011694861806 110.01642599982756)"><path d="M32 0 M32 0 C103.43 3.05, 175.14 2.9, 217.94 0 M32 0 C98.93 2.27, 164.48 0.92, 217.94 0 M217.94 0 C238.49 -1.06, 251.49 11.75, 249.94 32 M217.94 0 C237.11 -0.96, 248.67 10.44, 249.94 32 M249.94 32 C251.98 79.73, 252.14 125.49, 249.94 188.03 M249.94 32 C249.06 84.82, 250.82 138.3, 249.94 188.03 M249.94 188.03 C251.12 208.43, 237.47 221.36, 217.94 220.03 M249.94 188.03 C251.07 207.97, 238.17 222.11, 217.94 220.03 M217.94 220.03 C178.84 219.37, 136.2 219.03, 32 220.03 M217.94 220.03 C156.58 219.8, 93.44 218.31, 32 220.03 M32 220.03 C10.73 220.25, 1.68 208.74, 0 188.03 M32 220.03 C8.68 222.02, 1.17 210.84, 0 188.03 M0 188.03 C-1.21 141.49, -1.28 94.77, 0 32 M0 188.03 C-0.28 155.18, -0.03 120.55, 0 32 M0 32 C0.09 10.34, 10.27 1.91, 32 0 M0 32 C0.42 9.19, 12.21 -0.43, 32 0" stroke="#000000" stroke-width="1" fill="none"></path></g><g transform="translate(346.2354601069296 872.7298999566997) rotate(0 78.5 9)"><text x="0" y="14" font-family="Helvetica, Segoe UI Emoji" font-size="16px" fill="#000000" text-anchor="start" style="white-space: pre;" direction="ltr">var name // undefined</text></g><g transform="translate(344.27725532710144 981.8562254665026) rotate(0 50 9)"><text x="0" y="14" font-family="Helvetica, Segoe UI Emoji" font-size="16px" fill="#000000" text-anchor="start" style="white-space: pre;" direction="ltr">name = "xyz";</text></g><g transform="translate(690.3791786295583 981.1750195862028) rotate(0 13 9)"><text x="0" y="14" font-family="Helvetica, Segoe UI Emoji" font-size="16px" fill="#000000" text-anchor="start" style="white-space: pre;" direction="ltr">xyz</text></g><g stroke-linecap="round" transform="translate(665.0694664993555 860.8597722845416) rotate(0 108.23622501977763 97.91104711181788)"><path d="M32 0 M32 0 C77.72 2.28, 123.23 0.62, 184.47 0 M32 0 C68.52 0.8, 106.68 1.28, 184.47 0 M184.47 0 C204.05 1.95, 214.69 12.02, 216.47 32 M184.47 0 C206.61 -0.6, 218.69 10.86, 216.47 32 M216.47 32 C219.16 79.06, 218.44 125.25, 216.47 163.82 M216.47 32 C215.55 82.67, 216.01 135.34, 216.47 163.82 M216.47 163.82 C216.19 184.06, 204.67 196.82, 184.47 195.82 M216.47 163.82 C217.22 184.16, 206.77 195.03, 184.47 195.82 M184.47 195.82 C123.62 194.21, 65.8 194.01, 32 195.82 M184.47 195.82 C135.31 196.55, 85.84 195.75, 32 195.82 M32 195.82 C9.76 196.34, -1.86 184.46, 0 163.82 M32 195.82 C12.93 193.52, 1.97 183.92, 0 163.82 M0 163.82 C2.27 131.59, -0.86 99.6, 0 32 M0 163.82 C1.59 111.49, 0.47 59.1, 0 32 M0 32 C1.95 10.85, 11.46 -1.31, 32 0 M0 32 C-0.94 9.42, 10.11 1.85, 32 0" stroke="#000000" stroke-width="1" fill="none"></path></g><g transform="translate(696.0449526867399 872.7298999566997) rotate(0 36 9)"><text x="0" y="14" font-family="Helvetica, Segoe UI Emoji" font-size="16px" fill="#000000" text-anchor="start" style="white-space: pre;" direction="ltr">undefined</text></g><g transform="translate(347.12556059695453 1013.365777380644) rotate(0 37 9)"><text x="0" y="14" font-family="Helvetica, Segoe UI Emoji" font-size="16px" fill="#000000" text-anchor="start" style="white-space: pre;" direction="ltr">log(name)</text></g><g transform="translate(690.70434974659 1011.5855764005937) rotate(0 13 9)"><text x="0" y="14" font-family="Helvetica, Segoe UI Emoji" font-size="16px" fill="#000000" text-anchor="start" style="white-space: pre;" direction="ltr">xyz</text></g><g transform="translate(342.67505814682977 1213.7401088385677) rotate(0 84 9)"><text x="0" y="14" font-family="Helvetica, Segoe UI Emoji" font-size="16px" fill="#000000" text-anchor="start" style="white-space: pre;" direction="ltr">// PascalCase - classes</text></g><g transform="translate(342.67505814682977 1241.7401088385677) rotate(0 107.5 9)"><text x="0" y="14" font-family="Helvetica, Segoe UI Emoji" font-size="16px" fill="#000000" text-anchor="start" style="white-space: pre;" direction="ltr">// camelCase - other variables</text></g><g transform="translate(342.67505814682977 1269.7401088385677) rotate(0 127.5 9)"><text x="0" y="14" font-family="Helvetica, Segoe UI Emoji" font-size="16px" fill="#000000" text-anchor="start" style="white-space: pre;" direction="ltr">// SNAKE_CASE const declarations</text></g><g transform="translate(342.67505814682977 1297.7401088385677) rotate(0 99 9)"><text x="0" y="14" font-family="Helvetica, Segoe UI Emoji" font-size="16px" fill="#000000" text-anchor="start" style="white-space: pre;" direction="ltr">// kebab-case used for CSS</text></g></svg>