<svg version="1.1" xmlns="http://www.w3.org/2000/svg" viewBox="0 0 1042.3499755859375 1833.598263122474" width="1042.3499755859375" height="1833.598263122474" filter="invert(93%) hue-rotate(180deg)">
  <!-- svg-source:excalidraw -->
  
  <defs>
    <style class="style-fonts">
      @font-face {
        font-family: "Virgil";
        src: url("https://excalidraw.com/Virgil.woff2");
      }
      @font-face {
        font-family: "Cascadia";
        src: url("https://excalidraw.com/Cascadia.woff2");
      }
    </style>
  </defs>
  <rect x="0" y="0" width="1042.3499755859375" height="1833.598263122474" fill="#ffffff"></rect><g stroke-linecap="round"><g transform="translate(452.93007375164837 10.877363130450249) rotate(0 -2.368726362959194 313.53019678814746)"><path d="M-0.41 -0.88 C-1.43 103.59, -5.61 522.08, -6.32 626.71 M1.58 1.28 C0.96 105.9, -2.93 523.48, -4.02 627.94" stroke="#000000" stroke-width="1" fill="none"></path></g></g><mask></mask><g transform="translate(119.51851851851859 48.419262833122275) rotate(0 21.11328125 11.5)"><text x="0" y="0" font-family="Helvetica, Segoe UI Emoji" font-size="20px" fill="#000000" text-anchor="start" style="white-space: pre;" direction="ltr" dominant-baseline="text-before-edge">CSR</text></g><g transform="translate(527.7391508468867 41.247966313814686) rotate(0 125.60546875 11.5)"><text x="0" y="0" font-family="Helvetica, Segoe UI Emoji" font-size="20px" fill="#000000" text-anchor="start" style="white-space: pre;" direction="ltr" dominant-baseline="text-before-edge">SSR (Server side rendering)</text></g><g transform="translate(49.55248157811815 112.6283965130358) rotate(0 195.21972656249997 93)"><text x="0" y="0" font-family="Helvetica, Segoe UI Emoji" font-size="20px" fill="#000000" text-anchor="start" style="white-space: pre;" direction="ltr" dominant-baseline="text-before-edge">1. we see a blank screen till the bundle is </text><text x="0" y="23.25" font-family="Helvetica, Segoe UI Emoji" font-size="20px" fill="#000000" text-anchor="start" style="white-space: pre;" direction="ltr" dominant-baseline="text-before-edge">    downloaded. HTML is empty</text><text x="0" y="46.5" font-family="Helvetica, Segoe UI Emoji" font-size="20px" fill="#000000" text-anchor="start" style="white-space: pre;" direction="ltr" dominant-baseline="text-before-edge">    until the js downloaded and parsed, we</text><text x="0" y="69.75" font-family="Helvetica, Segoe UI Emoji" font-size="20px" fill="#000000" text-anchor="start" style="white-space: pre;" direction="ltr" dominant-baseline="text-before-edge">wont see anything.</text><text x="0" y="93" font-family="Helvetica, Segoe UI Emoji" font-size="20px" fill="#000000" text-anchor="start" style="white-space: pre;" direction="ltr" dominant-baseline="text-before-edge">2. FCP (first contentful paint), takes a lot of</text><text x="0" y="116.25" font-family="Helvetica, Segoe UI Emoji" font-size="20px" fill="#000000" text-anchor="start" style="white-space: pre;" direction="ltr" dominant-baseline="text-before-edge">    time</text><text x="0" y="139.5" font-family="Helvetica, Segoe UI Emoji" font-size="20px" fill="#000000" text-anchor="start" style="white-space: pre;" direction="ltr" dominant-baseline="text-before-edge">3. TTI (Time to Interactivity) is same as FCP</text><text x="0" y="162.75" font-family="Helvetica, Segoe UI Emoji" font-size="20px" fill="#000000" text-anchor="start" style="white-space: pre;" direction="ltr" dominant-baseline="text-before-edge"> </text></g><g transform="translate(170.67080909875983 50.4185203541374) rotate(0 98.37890625 11.5)"><text x="0" y="0" font-family="Helvetica, Segoe UI Emoji" font-size="20px" fill="#000000" text-anchor="start" style="white-space: pre;" direction="ltr" dominant-baseline="text-before-edge">(Client side rendering)</text></g><g transform="translate(468.5397749354373 106.19121418744044) rotate(0 277.9248046875 23)"><text x="0" y="0" font-family="Helvetica, Segoe UI Emoji" font-size="20px" fill="#000000" text-anchor="start" style="white-space: pre;" direction="ltr" dominant-baseline="text-before-edge">Immediately we can start rendring or displaying content on the </text><text x="0" y="23" font-family="Helvetica, Segoe UI Emoji" font-size="20px" fill="#000000" text-anchor="start" style="white-space: pre;" direction="ltr" dominant-baseline="text-before-edge">screen</text></g><g transform="translate(468.5397749354373 162.14155253489298) rotate(0 168.955078125 11.5)"><text x="0" y="0" font-family="Helvetica, Segoe UI Emoji" font-size="20px" fill="#000000" text-anchor="start" style="white-space: pre;" direction="ltr" dominant-baseline="text-before-edge">FCP is quite fast as compared to CSR</text></g><g transform="translate(471.20407676150637 205.6584823606895) rotate(0 273.203125 23)"><text x="0" y="0" font-family="Helvetica, Segoe UI Emoji" font-size="20px" fill="#000000" text-anchor="start" style="white-space: pre;" direction="ltr" dominant-baseline="text-before-edge">TTI&gt;&gt;&gt;FCP as we have to wait for the js bundles to download</text><text x="0" y="23" font-family="Helvetica, Segoe UI Emoji" font-size="20px" fill="#000000" text-anchor="start" style="white-space: pre;" direction="ltr" dominant-baseline="text-before-edge">for page to become interactive</text></g><g transform="translate(52.37582428289653 294.29093936953177) rotate(0 166.19140625000003 11.5)"><text x="0" y="0" font-family="Helvetica, Segoe UI Emoji" font-size="20px" fill="#000000" text-anchor="start" style="white-space: pre;" direction="ltr" dominant-baseline="text-before-edge">4. its not SEO(serach engine) friendly</text></g><g transform="translate(466.23068082962834 294.82377805260194) rotate(0 71.689453125 11.5)"><text x="0" y="0" font-family="Helvetica, Segoe UI Emoji" font-size="20px" fill="#000000" text-anchor="start" style="white-space: pre;" direction="ltr" dominant-baseline="text-before-edge">its  SEO friendly</text></g><g transform="translate(469.0726136185074 345.2678817851074) rotate(0 247.35351562499994 46.5)"><text x="0" y="0" font-family="Helvetica, Segoe UI Emoji" font-size="20px" fill="#000000" text-anchor="start" style="white-space: pre;" direction="ltr" dominant-baseline="text-before-edge">hydration -&gt; html element -&gt; js budles or event handlers</text><text x="0" y="23.25" font-family="Helvetica, Segoe UI Emoji" font-size="20px" fill="#000000" text-anchor="start" style="white-space: pre;" direction="ltr" dominant-baseline="text-before-edge">are attached to the element , for making it interactive</text><text x="0" y="46.5" font-family="Helvetica, Segoe UI Emoji" font-size="20px" fill="#000000" text-anchor="start" style="white-space: pre;" direction="ltr" dominant-baseline="text-before-edge">this process is called as hydration.</text><text x="0" y="69.75" font-family="Helvetica, Segoe UI Emoji" font-size="20px" fill="#000000" text-anchor="start" style="white-space: pre;" direction="ltr" dominant-baseline="text-before-edge"></text></g><g transform="translate(473.86837858757576 436.2537999864396) rotate(0 76.68457031249994 11.5)"><text x="0" y="0" font-family="Helvetica, Segoe UI Emoji" font-size="20px" fill="#000000" text-anchor="start" style="white-space: pre;" direction="ltr" dominant-baseline="text-before-edge">HTML streaming </text></g><g stroke-linecap="round" transform="translate(231.06167759234086 745.6094637890562) rotate(0 95.5596173642104 48.31266769218519)"><path d="M24.16 0 M24.16 0 C69.34 2.64, 114.78 0.48, 166.96 0 M24.16 0 C67.88 -0.37, 111.53 -0.74, 166.96 0 M166.96 0 C181.41 0.25, 191.43 6.53, 191.12 24.16 M166.96 0 C182.35 -1.87, 193.3 9.78, 191.12 24.16 M191.12 24.16 C191.19 35.45, 190.44 42.4, 191.12 72.47 M191.12 24.16 C189.93 40.26, 191.13 55.24, 191.12 72.47 M191.12 72.47 C191.33 86.7, 182.08 95.63, 166.96 96.63 M191.12 72.47 C188.93 89.34, 182 96.25, 166.96 96.63 M166.96 96.63 C130.97 98.71, 96.65 94.86, 24.16 96.63 M166.96 96.63 C121.68 96.81, 75.31 96.22, 24.16 96.63 M24.16 96.63 C7.99 95.02, -0.35 87.5, 0 72.47 M24.16 96.63 C7.19 96.29, -2.18 90.61, 0 72.47 M0 72.47 C-0.41 62.85, -1.28 51.36, 0 24.16 M0 72.47 C0.38 55.73, -0.47 36.51, 0 24.16 M0 24.16 C-1.9 9.87, 9 1.15, 24.16 0 M0 24.16 C-0.92 9.21, 8.63 0.47, 24.16 0" stroke="#000000" stroke-width="1" fill="none"></path></g><g stroke-linecap="round" transform="translate(554.3836157023633 754.1885244972962) rotate(0 95.55961736421034 48.31266769218519)"><path d="M24.16 0 M24.16 0 C74.98 -0.45, 126.4 -0.89, 166.96 0 M24.16 0 C77.37 1.87, 128.52 0.44, 166.96 0 M166.96 0 C181.44 -0.7, 191.58 8.35, 191.12 24.16 M166.96 0 C185.23 1.42, 191.83 6.17, 191.12 24.16 M191.12 24.16 C192.06 38.79, 192.66 55.98, 191.12 72.47 M191.12 24.16 C190.08 42.63, 190.16 59.19, 191.12 72.47 M191.12 72.47 C190.9 90.55, 183.33 97.24, 166.96 96.63 M191.12 72.47 C191.92 88.19, 181.93 97.94, 166.96 96.63 M166.96 96.63 C126.67 94.51, 87.75 95.51, 24.16 96.63 M166.96 96.63 C110.82 96.31, 55.24 96.61, 24.16 96.63 M24.16 96.63 C6.83 95.8, 1.85 87.86, 0 72.47 M24.16 96.63 C8.95 96.88, -1.13 88.85, 0 72.47 M0 72.47 C0.66 61.73, -0.93 49.18, 0 24.16 M0 72.47 C-0.01 54.6, -0.67 34.85, 0 24.16 M0 24.16 C-0.14 9.44, 8.86 -0.53, 24.16 0 M0 24.16 C1.57 5.97, 8 -1.62, 24.16 0" stroke="#000000" stroke-width="1" fill="none"></path></g><g transform="translate(250.2446561605749 774.0872119061162) rotate(0 70.60546875 23)"><text x="0" y="0" font-family="Helvetica, Segoe UI Emoji" font-size="20px" fill="#000000" text-anchor="start" style="white-space: pre;" direction="ltr" dominant-baseline="text-before-edge">download entire</text><text x="0" y="23" font-family="Helvetica, Segoe UI Emoji" font-size="20px" fill="#000000" text-anchor="start" style="white-space: pre;" direction="ltr" dominant-baseline="text-before-edge">html</text></g><g stroke-linecap="round"><g transform="translate(430.70671068739875 795.3430978756808) rotate(0 56.73109247654128 1.5450511868175454)"><path d="M0.61 -0.99 C19.49 -0.46, 95.34 2.27, 114 3.14 M-0.53 1.1 C18.21 1.74, 94.9 3.35, 113.59 4.08" stroke="#000000" stroke-width="1" fill="none"></path></g><g transform="translate(430.70671068739875 795.3430978756808) rotate(0 56.73109247654128 1.5450511868175454)"><path d="M83.46 15.24 C93.49 9.32, 105.5 6.77, 114.33 3.46 M85.24 13.08 C92.65 11.33, 102.42 7.42, 112.79 3.7" stroke="#000000" stroke-width="1" fill="none"></path></g><g transform="translate(430.70671068739875 795.3430978756808) rotate(0 56.73109247654128 1.5450511868175454)"><path d="M84.05 -5.27 C93.86 -3.81, 105.66 1.02, 114.33 3.46 M85.83 -7.43 C93 -3.3, 102.6 -1.32, 112.79 3.7" stroke="#000000" stroke-width="1" fill="none"></path></g></g><mask></mask><g transform="translate(579.9076129472725 773.554427428405) rotate(0 71.7138671875 23)"><text x="0" y="0" font-family="Helvetica, Segoe UI Emoji" font-size="20px" fill="#000000" text-anchor="start" style="white-space: pre;" direction="ltr" dominant-baseline="text-before-edge">hydration of the </text><text x="0" y="23" font-family="Helvetica, Segoe UI Emoji" font-size="20px" fill="#000000" text-anchor="start" style="white-space: pre;" direction="ltr" dominant-baseline="text-before-edge">entire page</text></g><g transform="translate(57.127167959922645 338.4295233598018) rotate(0 131.5234375 11.5)"><text x="0" y="0" font-family="Helvetica, Segoe UI Emoji" font-size="20px" fill="#000000" text-anchor="start" style="white-space: pre;" direction="ltr" dominant-baseline="text-before-edge">5. for mWeb CSR is preferred</text></g><g transform="translate(525.2449771181324 73.10946651374138) rotate(0 137.8564453125 11.5)"><text x="0" y="0" font-family="Helvetica, Segoe UI Emoji" font-size="20px" fill="#000000" text-anchor="start" style="white-space: pre;" direction="ltr" dominant-baseline="text-before-edge">mostly suited for landing pages</text></g><g stroke-linecap="round" transform="translate(10 1068.848263122474) rotate(0 116.80000305175781 116.00000762939453)"><path d="M32 0 M32 0 C99.38 2.12, 162.92 3.32, 201.6 0 M32 0 C82.24 -0.69, 131.92 0.03, 201.6 0 M201.6 0 C221.36 0.22, 233.26 8.99, 233.6 32 M201.6 0 C224.38 0.13, 235.26 10.43, 233.6 32 M233.6 32 C233.34 64.84, 235.14 98.56, 233.6 200 M233.6 32 C234.8 72.13, 235.33 113.39, 233.6 200 M233.6 200 C232.53 220.06, 221.2 234, 201.6 232 M233.6 200 C234.48 222.3, 224.56 232.77, 201.6 232 M201.6 232 C165.1 232.21, 127.17 231.88, 32 232 M201.6 232 C153.51 232.56, 104.79 231.05, 32 232 M32 232 C8.87 231.14, 0.26 221.15, 0 200 M32 232 C9.07 232.31, -2.05 220.11, 0 200 M0 200 C-0.44 142.01, -0.63 89.63, 0 32 M0 200 C-0.22 148.38, -1.44 95.14, 0 32 M0 32 C-0.44 11.3, 12.65 0.13, 32 0 M0 32 C-0.86 12.83, 12.32 1.3, 32 0" stroke="#000000" stroke-width="1" fill="none"></path></g><g transform="translate(138 1143.848263122474) rotate(0 25.56640625 11.5)"><text x="0" y="0" font-family="Helvetica, Segoe UI Emoji" font-size="20px" fill="#000000" text-anchor="start" style="white-space: pre;" direction="ltr" dominant-baseline="text-before-edge">Client</text></g><g stroke-linecap="round" transform="translate(478.79998779296875 1034.4482692259896) rotate(0 161.20004272460943 150.39999389648438)"><path d="M32 0 M32 0 C99.19 0.01, 163.74 1.74, 290.4 0 M32 0 C102.21 1.97, 173.04 1.31, 290.4 0 M290.4 0 C312 -1.79, 321.33 11.35, 322.4 32 M290.4 0 C311.13 -1.17, 321.38 8.52, 322.4 32 M322.4 32 C325.41 89.29, 325.83 149.57, 322.4 268.8 M322.4 32 C321.16 96.98, 320.95 159.97, 322.4 268.8 M322.4 268.8 C324.28 291.57, 312.86 299.66, 290.4 300.8 M322.4 268.8 C322.19 288.72, 312.73 300.79, 290.4 300.8 M290.4 300.8 C207.94 298.38, 121.19 298.76, 32 300.8 M290.4 300.8 C219.88 301.4, 149.45 300.2, 32 300.8 M32 300.8 C10.1 300.3, -0.61 289.34, 0 268.8 M32 300.8 C10.86 300.86, 0.23 292.33, 0 268.8 M0 268.8 C-0.49 212.82, -0.54 158.29, 0 32 M0 268.8 C-0.77 202.7, -0.45 135.41, 0 32 M0 32 C-0.61 10.87, 10.54 -0.9, 32 0 M0 32 C0.36 9.39, 8.91 1.89, 32 0" stroke="#000000" stroke-width="1" fill="none"></path></g><g transform="translate(564 1126.848263122474) rotate(0 27.783203125000057 11.5)"><text x="0" y="0" font-family="Helvetica, Segoe UI Emoji" font-size="20px" fill="#000000" text-anchor="start" style="white-space: pre;" direction="ltr" dominant-baseline="text-before-edge">server</text></g><g stroke-linecap="round"><g transform="translate(253.20001220703125 1138.017780230404) rotate(0 108.1242615141627 -4.536862624952391)"><path d="M-0.91 0.98 C34.88 -0.58, 178.81 -8.53, 214.98 -10.06 M0.81 0.46 C36.95 -0.91, 181.39 -7.17, 217.16 -8.89" stroke="#000000" stroke-width="1" fill="none"></path></g><g transform="translate(253.20001220703125 1138.017780230404) rotate(0 108.1242615141627 -4.536862624952391)"><path d="M191.11 0.94 C197.09 -0.55, 209.01 -2.89, 216.68 -10.35 M189.75 2.74 C196.14 -1.2, 204.74 -2.92, 217.77 -9.1" stroke="#000000" stroke-width="1" fill="none"></path></g><g transform="translate(253.20001220703125 1138.017780230404) rotate(0 108.1242615141627 -4.536862624952391)"><path d="M190.18 -19.56 C196.34 -14.57, 208.55 -10.44, 216.68 -10.35 M188.82 -17.76 C195.36 -16.33, 204.2 -12.67, 217.77 -9.1" stroke="#000000" stroke-width="1" fill="none"></path></g></g><mask></mask><g transform="translate(297 1085.848263122474) rotate(0 23.90625 11.5)"><text x="0" y="0" font-family="Helvetica, Segoe UI Emoji" font-size="20px" fill="#000000" text-anchor="start" style="white-space: pre;" direction="ltr" dominant-baseline="text-before-edge">/login</text></g><g stroke-linecap="round"><g transform="translate(464.4000244140625 1192.3955995074018) rotate(0 -101.82533469295129 3.6801698271051464)"><path d="M-0.77 0.12 C-34.87 1.3, -170.6 5.57, -204.67 6.76 M1.02 -0.86 C-32.68 0.54, -168.32 7.23, -202.31 8.22" stroke="#000000" stroke-width="1" fill="none"></path></g><g transform="translate(464.4000244140625 1192.3955995074018) rotate(0 -101.82533469295129 3.6801698271051464)"><path d="M-174.36 -4.3 C-182.97 -2.02, -190.29 3.76, -201.03 10.2 M-174.21 -3.97 C-181.14 -0.28, -188.03 2.51, -203.14 8.35" stroke="#000000" stroke-width="1" fill="none"></path></g><g transform="translate(464.4000244140625 1192.3955995074018) rotate(0 -101.82533469295129 3.6801698271051464)"><path d="M-173.52 16.21 C-182.32 12.47, -189.89 12.25, -201.03 10.2 M-173.37 16.53 C-180.57 15.08, -187.67 12.72, -203.14 8.35" stroke="#000000" stroke-width="1" fill="none"></path></g></g><mask></mask><g transform="translate(310 1171.848263122474) rotate(0 40.576171875 11.5)"><text x="0" y="0" font-family="Helvetica, Segoe UI Emoji" font-size="20px" fill="#000000" text-anchor="start" style="white-space: pre;" direction="ltr" dominant-baseline="text-before-edge">userData</text></g><g stroke-linecap="round"><g transform="translate(242.79998779296875 1275.2482570189584) rotate(0 116.60426580272616 0.13608133830121005)"><path d="M-0.32 -0.96 C38.49 -0.83, 194.68 1.12, 233.52 1.23 M1.72 1.15 C40.38 0.87, 194.58 -0.56, 232.96 -0.66" stroke="#000000" stroke-width="1" fill="none"></path></g><g transform="translate(242.79998779296875 1275.2482570189584) rotate(0 116.60426580272616 0.13608133830121005)"><path d="M203.23 10.99 C215.51 6.07, 223.03 2.86, 233.14 0.7 M204.06 9.17 C212.38 6.57, 219.33 4.32, 233.59 -1.27" stroke="#000000" stroke-width="1" fill="none"></path></g><g transform="translate(242.79998779296875 1275.2482570189584) rotate(0 116.60426580272616 0.13608133830121005)"><path d="M203.1 -9.53 C215.51 -7.15, 223.07 -3.07, 233.14 0.7 M203.93 -11.35 C212.26 -8.95, 219.25 -6.2, 233.59 -1.27" stroke="#000000" stroke-width="1" fill="none"></path></g></g><mask></mask><g transform="translate(294.79998779296875 1244.0482448119271) rotate(0 27.79296875 11.5)"><text x="0" y="0" font-family="Helvetica, Segoe UI Emoji" font-size="20px" fill="#000000" text-anchor="start" style="white-space: pre;" direction="ltr" dominant-baseline="text-before-edge">user/1</text></g><g stroke-linecap="round"><g transform="translate(247.20001220703125 1309.2482570189584) rotate(0 115.66785992870109 0.10499406687836199)"><path d="M0.34 0.25 C39.22 0.14, 193.49 -0.3, 232.28 -0.16 M-0.94 -0.67 C37.82 -0.7, 192.15 0.34, 231.05 0.88" stroke="#000000" stroke-width="1" fill="none"></path></g><g transform="translate(247.20001220703125 1309.2482570189584) rotate(0 115.66785992870109 0.10499406687836199)"><path d="M203.18 9.99 C207.31 9.06, 215.59 7.67, 233.03 0.05 M202.82 11.02 C211.02 8.51, 219.97 4.49, 230.72 0.82" stroke="#000000" stroke-width="1" fill="none"></path></g><g transform="translate(247.20001220703125 1309.2482570189584) rotate(0 115.66785992870109 0.10499406687836199)"><path d="M203.38 -10.53 C207.55 -6.97, 215.79 -3.88, 233.03 0.05 M203.02 -9.5 C211.32 -5.8, 220.21 -3.61, 230.72 0.82" stroke="#000000" stroke-width="1" fill="none"></path></g></g><mask></mask><g transform="translate(299.20001220703125 1278.0482448119271) rotate(0 27.79296875 11.5)"><text x="0" y="0" font-family="Helvetica, Segoe UI Emoji" font-size="20px" fill="#000000" text-anchor="start" style="white-space: pre;" direction="ltr" dominant-baseline="text-before-edge">user/2</text></g><g stroke-linecap="round"><g transform="translate(241.20001220703125 1347.2482570189584) rotate(0 116.66985462436452 0.048026596750105455)"><path d="M-0.81 -0.06 C37.82 0.16, 193.11 1.14, 231.91 1.28 M0.96 -1.14 C39.96 -1.27, 195.23 -1.12, 234.15 -0.59" stroke="#000000" stroke-width="1" fill="none"></path></g><g transform="translate(241.20001220703125 1347.2482570189584) rotate(0 116.66985462436452 0.048026596750105455)"><path d="M205.79 8.01 C215.48 5.21, 223.38 5.39, 232.63 -2.53 M205.31 10.15 C217.25 5.23, 228.32 0.77, 234.36 -0.98" stroke="#000000" stroke-width="1" fill="none"></path></g><g transform="translate(241.20001220703125 1347.2482570189584) rotate(0 116.66985462436452 0.048026596750105455)"><path d="M205.92 -12.51 C215.55 -8.94, 223.41 -2.39, 232.63 -2.53 M205.44 -10.37 C217.32 -7.25, 228.35 -3.67, 234.36 -0.98" stroke="#000000" stroke-width="1" fill="none"></path></g></g><mask></mask><g transform="translate(293.20001220703125 1316.0482448119271) rotate(0 27.79296875 11.5)"><text x="0" y="0" font-family="Helvetica, Segoe UI Emoji" font-size="20px" fill="#000000" text-anchor="start" style="white-space: pre;" direction="ltr" dominant-baseline="text-before-edge">user/3</text></g><g stroke-linecap="round"><g transform="translate(237.60003662109375 1384.4482692259896) rotate(0 116.59740161981432 1.0151080021635153)"><path d="M0.08 0.3 C38.76 0.28, 193.54 0.85, 232.15 0.98 M-1.33 -0.59 C37.73 0.13, 195.29 2.08, 234.52 2.62" stroke="#000000" stroke-width="1" fill="none"></path></g><g transform="translate(237.60003662109375 1384.4482692259896) rotate(0 116.59740161981432 1.0151080021635153)"><path d="M206.7 11.43 C215.2 7.69, 224.22 6.12, 236.11 4.13 M205.78 12.22 C213.53 9.49, 220.28 7.51, 235.06 2.64" stroke="#000000" stroke-width="1" fill="none"></path></g><g transform="translate(237.60003662109375 1384.4482692259896) rotate(0 116.59740161981432 1.0151080021635153)"><path d="M206.97 -9.09 C215.57 -6.47, 224.51 -1.68, 236.11 4.13 M206.04 -8.3 C213.82 -5.75, 220.5 -2.45, 235.06 2.64" stroke="#000000" stroke-width="1" fill="none"></path></g></g><mask></mask><g transform="translate(289.60003662109375 1353.2482570189584) rotate(0 27.79296875 11.5)"><text x="0" y="0" font-family="Helvetica, Segoe UI Emoji" font-size="20px" fill="#000000" text-anchor="start" style="white-space: pre;" direction="ltr" dominant-baseline="text-before-edge">user/4</text></g><g stroke-linecap="round" transform="translate(28.350006103515625 1434.7982753295053) rotate(0 103.19999694824219 136)"><path d="M32 0 M32 0 C82.28 0.94, 130.44 0.66, 174.4 0 M32 0 C73.03 -0.6, 114.97 -0.08, 174.4 0 M174.4 0 C195.49 -1.45, 207.68 11.03, 206.4 32 M174.4 0 C196.74 1.45, 207.41 12.89, 206.4 32 M206.4 32 C207.26 88.38, 207.39 146.29, 206.4 240 M206.4 32 C208.8 86.93, 208.42 143.05, 206.4 240 M206.4 240 C206.04 261.82, 195.72 270.57, 174.4 272 M206.4 240 C208.31 259.85, 197.12 270.09, 174.4 272 M174.4 272 C128.09 273.37, 80.4 274.59, 32 272 M174.4 272 C142.79 271.64, 109.08 272.28, 32 272 M32 272 C11.13 273.47, -1.67 263.17, 0 240 M32 272 C11.72 270.53, -2.1 259.22, 0 240 M0 240 C0.57 165.32, 0.66 93.34, 0 32 M0 240 C0.67 177.48, 0.3 114.59, 0 32 M0 32 C-1.99 12.17, 9.7 0.42, 32 0 M0 32 C1.62 12.69, 12.56 2.26, 32 0" stroke="#000000" stroke-width="1" fill="none"></path></g><g transform="translate(75.75 1562.598263122474) rotate(0 40.0244140625 23)"><text x="0" y="0" font-family="Helvetica, Segoe UI Emoji" font-size="20px" fill="#000000" text-anchor="start" style="white-space: pre;" direction="ltr" dominant-baseline="text-before-edge">Frontend</text><text x="0" y="23" font-family="Helvetica, Segoe UI Emoji" font-size="20px" fill="#000000" text-anchor="start" style="white-space: pre;" direction="ltr" dominant-baseline="text-before-edge">React</text></g><g stroke-linecap="round" transform="translate(685.9500122070314 1405.9982570189584) rotate(0 173.19998168945312 208.8000030517578)"><path d="M32 0 M32 0 C138.16 -2.95, 241.53 -3.38, 314.4 0 M32 0 C131.52 1.41, 230.79 1.88, 314.4 0 M314.4 0 C335.76 -0.49, 347.46 11.17, 346.4 32 M314.4 0 C336.01 -0.38, 346 8.38, 346.4 32 M346.4 32 C346.2 165.78, 346.36 298.56, 346.4 385.6 M346.4 32 C344.97 116.73, 345.13 201.79, 346.4 385.6 M346.4 385.6 C346.51 408.28, 337.38 415.69, 314.4 417.6 M346.4 385.6 C344.3 409.2, 336.01 418.86, 314.4 417.6 M314.4 417.6 C230.83 419.1, 147.96 418.62, 32 417.6 M314.4 417.6 C232.2 415.88, 151.35 415.33, 32 417.6 M32 417.6 C12.51 419, -0.58 406.58, 0 385.6 M32 417.6 C9.43 417.36, 1.32 407.16, 0 385.6 M0 385.6 C2.58 280.83, 0.52 177.81, 0 32 M0 385.6 C0.11 312.85, -0.38 239.06, 0 32 M0 32 C1.14 9.29, 9.44 0.99, 32 0 M0 32 C1.43 9.33, 10.03 2.28, 32 0" stroke="#000000" stroke-width="1" fill="none"></path></g><g transform="translate(791.3499755859376 1557.1982997435678) rotate(0 44.4677734375 11.5)"><text x="0" y="0" font-family="Helvetica, Segoe UI Emoji" font-size="20px" fill="#000000" text-anchor="start" style="white-space: pre;" direction="ltr" dominant-baseline="text-before-edge">MongoDB</text></g><g stroke-linecap="round" transform="translate(414.75 1443.598263122474) rotate(0 102.00000000000006 131.20001220703125)"><path d="M32 0 M32 0 C75.64 -1.86, 116.14 -2.36, 172 0 M32 0 C72.51 -0.73, 112.26 0.82, 172 0 M172 0 C192.29 -1.28, 204.65 8.8, 204 32 M172 0 C193.58 -0.69, 205.25 11.61, 204 32 M204 32 C201.05 85.97, 203.41 143.64, 204 230.4 M204 32 C202.79 80.69, 203.96 127.94, 204 230.4 M204 230.4 C205.57 252.68, 192.14 261.44, 172 262.4 M204 230.4 C202.7 252.56, 195.54 261.38, 172 262.4 M172 262.4 C142.94 262.73, 111.8 263.86, 32 262.4 M172 262.4 C131.07 263.97, 90.34 262.88, 32 262.4 M32 262.4 C9.65 260.45, -1.65 250.9, 0 230.4 M32 262.4 C8.76 263.13, 1.85 253.56, 0 230.4 M0 230.4 C1.44 165, 1.64 98.39, 0 32 M0 230.4 C1.27 176.97, 0.41 126.14, 0 32 M0 32 C-0.18 8.85, 9.27 1.26, 32 0 M0 32 C-1.66 12.43, 11.43 1.56, 32 0" stroke="#000000" stroke-width="1" fill="none"></path></g><g transform="translate(471.75 1543.598263122474) rotate(0 36.123046875 23)"><text x="0" y="0" font-family="Helvetica, Segoe UI Emoji" font-size="20px" fill="#000000" text-anchor="start" style="white-space: pre;" direction="ltr" dominant-baseline="text-before-edge">Express</text><text x="0" y="23" font-family="Helvetica, Segoe UI Emoji" font-size="20px" fill="#000000" text-anchor="start" style="white-space: pre;" direction="ltr" dominant-baseline="text-before-edge">server</text></g><g stroke-linecap="round"><g transform="translate(328.35003662109375 1428.3982814330209) rotate(0 -1.0698992531839622 169.35094013639718)"><path d="M0.65 -0.32 C0.2 56.25, -1.8 283.47, -2.31 340.23 M-0.47 -1.53 C-1.03 54.65, -2.41 281.99, -2.79 338.65" stroke="#000000" stroke-width="1" fill="none"></path></g></g><mask></mask><g stroke-linecap="round" transform="translate(280.3500061035156 1497.1982692259896) rotate(0 51.19999694824219 74.00001525878906)"><path d="M25.6 0 M25.6 0 C40.77 -0.85, 58.7 -2.12, 76.8 0 M25.6 0 C38.07 1.37, 51.06 1.28, 76.8 0 M76.8 0 C92.13 0.56, 102.25 10.36, 102.4 25.6 M76.8 0 C95.05 -2.3, 104.46 9.62, 102.4 25.6 M102.4 25.6 C100.76 61.3, 101.44 94.85, 102.4 122.4 M102.4 25.6 C101.69 57.39, 101.47 90.84, 102.4 122.4 M102.4 122.4 C101.92 139.56, 93.84 147.12, 76.8 148 M102.4 122.4 C101.22 138.62, 93.71 150.29, 76.8 148 M76.8 148 C65.77 148.81, 51.83 146.58, 25.6 148 M76.8 148 C66.24 147.77, 55.25 147.64, 25.6 148 M25.6 148 C8.56 148.79, 0.76 138.65, 0 122.4 M25.6 148 C8.01 150.29, -2.05 139.67, 0 122.4 M0 122.4 C-1.08 97.72, -0.02 75.66, 0 25.6 M0 122.4 C0.27 95.1, -0.91 69.81, 0 25.6 M0 25.6 C-1.71 7.9, 8.36 -1.17, 25.6 0 M0 25.6 C0.56 7.5, 10.64 -1.85, 25.6 0" stroke="#000000" stroke-width="1" fill="none"></path></g><g transform="translate(292.75 1556.7982753295053) rotate(0 38.916015625 11.5)"><text x="0" y="0" font-family="Helvetica, Segoe UI Emoji" font-size="20px" fill="#000000" text-anchor="start" style="white-space: pre;" direction="ltr" dominant-baseline="text-before-edge">graphQL</text></g></svg>