<svg version="1.1" xmlns="http://www.w3.org/2000/svg" viewBox="0 0 862.3046128454205 2324.758009467385" width="862.3046128454205" height="2324.758009467385" filter="invert(93%) hue-rotate(180deg)">
  <!-- svg-source:excalidraw -->
  
  <defs>
    <style class="style-fonts">
      @font-face {
        font-family: "Virgil";
        src: url("https://excalidraw.com/Virgil.woff2");
      }
      @font-face {
        font-family: "Cascadia";
        src: url("https://excalidraw.com/Cascadia.woff2");
      }
    </style>
  </defs>
  <rect x="0" y="0" width="862.3046128454205" height="2324.758009467385" fill="#ffffff"></rect><g transform="translate(123.18234693825957 10) rotate(0 32.5 23)"><text x="0" y="19" font-family="Helvetica, Segoe UI Emoji" font-size="20px" fill="#000000" text-anchor="start" style="white-space: pre;" direction="ltr">MERN </text><text x="0" y="42" font-family="Helvetica, Segoe UI Emoji" font-size="20px" fill="#000000" text-anchor="start" style="white-space: pre;" direction="ltr"></text></g><g transform="translate(51.93251793264301 45.35840483074435) rotate(0 140 11.5)"><text x="0" y="18" font-family="Helvetica, Segoe UI Emoji" font-size="20px" fill="#000000" text-anchor="start" style="white-space: pre;" direction="ltr">MongoDB Express React Node</text></g><g stroke-linecap="round" transform="translate(10 160.92222942571811) rotate(0 119.75654137576515 98.0795650980607)"><path d="M32 0 M32 0 C75.46 -1.29, 116.33 1.68, 207.51 0 M32 0 C93.65 0.26, 154.7 1.13, 207.51 0 M207.51 0 C227.94 0.17, 240.31 8.71, 239.51 32 M207.51 0 C230.88 -0.52, 237.77 9.46, 239.51 32 M239.51 32 C238.74 64.77, 239.83 93.44, 239.51 164.16 M239.51 32 C239.7 70.41, 240.4 107.59, 239.51 164.16 M239.51 164.16 C239.41 186.73, 229.19 197.18, 207.51 196.16 M239.51 164.16 C240.22 184.25, 227.37 196.39, 207.51 196.16 M207.51 196.16 C160.2 195.85, 111.99 192.82, 32 196.16 M207.51 196.16 C168.77 194.91, 130.97 194.63, 32 196.16 M32 196.16 C9.37 196.74, -1.24 184.62, 0 164.16 M32 196.16 C9.48 197.7, -1.54 186.31, 0 164.16 M0 164.16 C1.89 114.11, -0.72 66.75, 0 32 M0 164.16 C-0.78 114.75, -0.9 63.82, 0 32 M0 32 C0.81 11.94, 9.03 0.69, 32 0 M0 32 C0.09 10.09, 11.18 -1.64, 32 0" stroke="#000000" stroke-width="1" fill="none"></path></g><g stroke-linecap="round" transform="translate(349.0640197790942 157.4185259518024) rotate(0 119.75654137576521 98.0795650980607)"><path d="M32 0 M32 0 C89.8 -0.49, 146.74 0.53, 207.51 0 M32 0 C94.26 0.56, 159.26 -0.1, 207.51 0 M207.51 0 C230.78 1.88, 239.09 12.54, 239.51 32 M207.51 0 C226.6 -1.23, 238.98 10.05, 239.51 32 M239.51 32 C239.89 67.64, 237.66 101.14, 239.51 164.16 M239.51 32 C240.33 79.72, 238.66 126.96, 239.51 164.16 M239.51 164.16 C241.33 187.4, 228.48 197.98, 207.51 196.16 M239.51 164.16 C238.56 185.77, 226.61 195.78, 207.51 196.16 M207.51 196.16 C152.16 197, 94.67 195.37, 32 196.16 M207.51 196.16 C168.18 194.84, 130.68 196.16, 32 196.16 M32 196.16 C11.26 196.99, -0.5 184.08, 0 164.16 M32 196.16 C10.74 197.39, 1.38 183.24, 0 164.16 M0 164.16 C-1 124.66, -2.48 87.34, 0 32 M0 164.16 C-0.88 113.8, -0.43 61.14, 0 32 M0 32 C-0.01 11, 10.99 -0.31, 32 0 M0 32 C-0.84 10.46, 11.6 -1.19, 32 0" stroke="#000000" stroke-width="1" fill="none"></path></g><g stroke-linecap="round" transform="translate(612.7915300938901 157.46844292463788) rotate(0 119.75654137576521 98.0795650980607)"><path d="M32 0 M32 0 C89.31 -0.64, 144.31 1.06, 207.51 0 M32 0 C89.17 -0.47, 144.54 0.86, 207.51 0 M207.51 0 C229.85 -1.6, 241.06 9.44, 239.51 32 M207.51 0 C230.42 -1.3, 238.85 9.71, 239.51 32 M239.51 32 C239.08 68.83, 238.41 107.41, 239.51 164.16 M239.51 32 C240.85 67.41, 240.45 104.6, 239.51 164.16 M239.51 164.16 C237.69 186.21, 230.24 194.79, 207.51 196.16 M239.51 164.16 C237.62 185.67, 228.77 197.09, 207.51 196.16 M207.51 196.16 C159.46 196.06, 108.39 194.67, 32 196.16 M207.51 196.16 C169.31 197.76, 132.39 197.6, 32 196.16 M32 196.16 C9.84 194.57, -0.84 187.34, 0 164.16 M32 196.16 C9.21 197.37, -0.09 183.6, 0 164.16 M0 164.16 C-2.27 132.28, -0.43 98.21, 0 32 M0 164.16 C1.26 117.12, 0.81 70.28, 0 32 M0 32 C-0.1 9.14, 12.12 1.92, 32 0 M0 32 C1.04 12.38, 11.37 0.17, 32 0" stroke="#000000" stroke-width="1" fill="none"></path></g><g transform="translate(59.03975882614486 208.6022213776232) rotate(0 26 23)"><text x="0" y="19" font-family="Helvetica, Segoe UI Emoji" font-size="20px" fill="#000000" text-anchor="start" style="white-space: pre;" direction="ltr">Client</text><text x="0" y="42" font-family="Helvetica, Segoe UI Emoji" font-size="20px" fill="#000000" text-anchor="start" style="white-space: pre;" direction="ltr">App</text></g><g transform="translate(409.4752826992351 200.12347639012523) rotate(0 45.5 46.5)"><text x="0" y="18.25" font-family="Helvetica, Segoe UI Emoji" font-size="20px" fill="#000000" text-anchor="start" style="white-space: pre;" direction="ltr">server</text><text x="0" y="41.5" font-family="Helvetica, Segoe UI Emoji" font-size="20px" fill="#000000" text-anchor="start" style="white-space: pre;" direction="ltr">REST API</text><text x="0" y="64.75" font-family="Helvetica, Segoe UI Emoji" font-size="20px" fill="#000000" text-anchor="start" style="white-space: pre;" direction="ltr"></text><text x="0" y="88" font-family="Helvetica, Segoe UI Emoji" font-size="20px" fill="#000000" text-anchor="start" style="white-space: pre;" direction="ltr">Express</text></g><g transform="translate(677.4671646620009 200.17339336296072) rotate(0 45.5 46.5)"><text x="0" y="18.25" font-family="Helvetica, Segoe UI Emoji" font-size="20px" fill="#000000" text-anchor="start" style="white-space: pre;" direction="ltr">Database</text><text x="0" y="41.5" font-family="Helvetica, Segoe UI Emoji" font-size="20px" fill="#000000" text-anchor="start" style="white-space: pre;" direction="ltr"></text><text x="0" y="64.75" font-family="Helvetica, Segoe UI Emoji" font-size="20px" fill="#000000" text-anchor="start" style="white-space: pre;" direction="ltr"></text><text x="0" y="88" font-family="Helvetica, Segoe UI Emoji" font-size="20px" fill="#000000" text-anchor="start" style="white-space: pre;" direction="ltr">MongoDB</text></g><g transform="translate(54.59775021262442 279.67435919395166) rotate(0 27 11.5)"><text x="0" y="18" font-family="Helvetica, Segoe UI Emoji" font-size="20px" fill="#000000" text-anchor="start" style="white-space: pre;" direction="ltr">React</text></g><g stroke-linecap="round"><g transform="translate(287.892048017095 87.71789222947041) rotate(0 0.8582506831070873 178.26760273630953)"><path d="M-0.56 0.76 C-0.11 60.11, 1.8 297.21, 2.28 356.43 M1.34 0.11 C1.68 59.05, 1.36 294.95, 1.41 354.49" stroke="#000000" stroke-width="1" fill="none"></path></g></g><mask></mask><g stroke-linecap="round" transform="translate(48.778702661791044 519.5699750583049) rotate(0 304.89945496492595 181.9446416311505)"><path d="M32 0 M32 0 C158.26 1.02, 283.67 0.34, 577.8 0 M32 0 C212.42 0.47, 393.41 0.26, 577.8 0 M577.8 0 C600.31 1.05, 609.07 11.57, 609.8 32 M577.8 0 C596.86 -0.61, 609.07 8.75, 609.8 32 M609.8 32 C608.34 110.77, 611.21 185.8, 609.8 331.89 M609.8 32 C610.62 104.8, 609.78 176.42, 609.8 331.89 M609.8 331.89 C608.51 354.4, 597.71 364.91, 577.8 363.89 M609.8 331.89 C607.93 354.76, 600.98 362.84, 577.8 363.89 M577.8 363.89 C433.48 365.46, 288.41 365.04, 32 363.89 M577.8 363.89 C391.5 365.52, 204.36 365.62, 32 363.89 M32 363.89 C10.21 363.87, 1.7 354.14, 0 331.89 M32 363.89 C11.07 364.44, -0.3 351.85, 0 331.89 M0 331.89 C-2.24 254.58, -2.83 174.11, 0 32 M0 331.89 C-0.63 230.67, -1.02 130.38, 0 32 M0 32 C1.53 10.34, 12.52 -1.31, 32 0 M0 32 C1.79 9.27, 9.34 1.3, 32 0" stroke="#000000" stroke-width="1" fill="none"></path></g><g stroke-linecap="round" transform="translate(70.10037111855843 540.1808652019845) rotate(0 293.8832925817034 24.51989296900706)"><path d="M12.26 0 M12.26 0 C225.95 -0.89, 440.42 -0.25, 575.51 0 M12.26 0 C192.94 -1.37, 373.02 -1.44, 575.51 0 M575.51 0 C582.77 -1.73, 585.79 3.21, 587.77 12.26 M575.51 0 C584.36 1.04, 589.32 2.42, 587.77 12.26 M587.77 12.26 C587.89 22.5, 589.58 27.59, 587.77 36.78 M587.77 12.26 C588.57 20.62, 588.51 29.96, 587.77 36.78 M587.77 36.78 C588.65 46.63, 584.42 47.46, 575.51 49.04 M587.77 36.78 C585.92 46.08, 585.93 48.66, 575.51 49.04 M575.51 49.04 C432.62 48.85, 289.48 48.63, 12.26 49.04 M575.51 49.04 C413.13 48.52, 251.08 49.1, 12.26 49.04 M12.26 49.04 C2.93 47.6, -0.22 43.63, 0 36.78 M12.26 49.04 C6.33 51.19, -2.06 46.87, 0 36.78 M0 36.78 C0.38 29.77, -1.2 19.54, 0 12.26 M0 36.78 C-0.89 31.13, 0.51 23.55, 0 12.26 M0 12.26 C-1.26 5.34, 4.34 0.1, 12.26 0 M0 12.26 C0.87 3.64, 3.01 -1.92, 12.26 0" stroke="#000000" stroke-width="1" fill="none"></path></g><g stroke-linecap="round" transform="translate(541.3086394184396 549.420264807602) rotate(0 50.461207004845335 14.925151652615796)"><path d="M7.46 0 M7.46 0 C41.07 -1.2, 71.86 0.52, 93.46 0 M7.46 0 C40.02 -0.26, 73.04 -0.13, 93.46 0 M93.46 0 C97.41 -0.59, 102.87 0.9, 100.92 7.46 M93.46 0 C97.73 -1.14, 102.81 2.75, 100.92 7.46 M100.92 7.46 C100.19 12.23, 100.38 16.48, 100.92 22.39 M100.92 7.46 C101.34 12.66, 100.29 17.38, 100.92 22.39 M100.92 22.39 C100.07 28.16, 100.16 27.92, 93.46 29.85 M100.92 22.39 C102.02 25.82, 99.53 30.28, 93.46 29.85 M93.46 29.85 C62.75 29.23, 31.83 31.81, 7.46 29.85 M93.46 29.85 C60.45 31.19, 24.9 31.06, 7.46 29.85 M7.46 29.85 C3.58 28.11, -0.3 28.08, 0 22.39 M7.46 29.85 C2.08 30.51, -1.58 26.89, 0 22.39 M0 22.39 C-1.23 18.76, -0.36 15.73, 0 7.46 M0 22.39 C-0.49 19.71, -0.23 15.44, 0 7.46 M0 7.46 C0.3 1.04, 1.09 0.17, 7.46 0 M0 7.46 C1.59 3.23, 4.45 1.04, 7.46 0" stroke="#000000" stroke-width="1" fill="none"></path></g><g stroke-linecap="round" transform="translate(96.39704042110463 558.6596508572852) rotate(0 37.31287235357223 9.594734538424063)"><path d="M4.8 0 M4.8 0 C32 1.5, 54.65 0.1, 69.83 0 M4.8 0 C25.96 -0.39, 48.13 -1.09, 69.83 0 M69.83 0 C72.38 -1.83, 75 0.94, 74.63 4.8 M69.83 0 C74.83 -1.99, 75.07 2.65, 74.63 4.8 M74.63 4.8 C73.95 7.23, 74 8.7, 74.63 14.39 M74.63 4.8 C75.1 7.97, 74.94 10.73, 74.63 14.39 M74.63 14.39 C76.11 17.77, 73.18 20.08, 69.83 19.19 M74.63 14.39 C76.33 17.77, 72.42 20.21, 69.83 19.19 M69.83 19.19 C57.95 18.29, 43.37 20.52, 4.8 19.19 M69.83 19.19 C45.75 19.24, 19.34 18.91, 4.8 19.19 M4.8 19.19 C1.39 20.61, 0.38 18.14, 0 14.39 M4.8 19.19 C3.37 20.82, -0.38 16.54, 0 14.39 M0 14.39 C-0.14 11.49, -0.07 7.51, 0 4.8 M0 14.39 C-0.02 11.96, -0.29 10.52, 0 4.8 M0 4.8 C1.61 1, 1.56 -0.48, 4.8 0 M0 4.8 C-2.12 1.65, 0.26 1.55, 4.8 0" stroke="#000000" stroke-width="1" fill="none"></path></g><g stroke-linecap="round" transform="translate(189.50153011574685 557.9489267679351) rotate(0 31.627093194705253 9.950096583099139)"><path d="M4.98 0 M4.98 0 C20.54 -0.55, 39.57 -0.26, 58.28 0 M4.98 0 C17.36 0.25, 28.59 0.83, 58.28 0 M58.28 0 C63.01 -0.33, 62.34 2.23, 63.25 4.98 M58.28 0 C63.72 -0.33, 63.13 2.28, 63.25 4.98 M63.25 4.98 C63.64 7.49, 63.25 10.31, 63.25 14.93 M63.25 4.98 C63.18 7.45, 63.2 9.48, 63.25 14.93 M63.25 14.93 C63.3 17.08, 62.94 19.33, 58.28 19.9 M63.25 14.93 C61.65 16.48, 62.16 19.83, 58.28 19.9 M58.28 19.9 C38.55 18.42, 15.3 20.94, 4.98 19.9 M58.28 19.9 C39.99 19.83, 19.8 19.47, 4.98 19.9 M4.98 19.9 C2.36 18.43, 1.87 19.14, 0 14.93 M4.98 19.9 C2.54 18.4, -0.36 18.52, 0 14.93 M0 14.93 C0.02 12.41, -0.03 9.52, 0 4.98 M0 14.93 C-0.25 11.31, 0.53 7.15, 0 4.98 M0 4.98 C-0.65 2.1, 3.48 -1.3, 4.98 0 M0 4.98 C-0.28 -0.58, -0.32 1.1, 4.98 0" stroke="#000000" stroke-width="1" fill="none"></path></g><g stroke-linecap="round" transform="translate(272.65593678322443 558.6596508572852) rotate(0 30.916369105355102 10.66081389448209)"><path d="M5.33 0 M5.33 0 C22.59 0.84, 42.85 2.16, 56.5 0 M5.33 0 C19.03 -0.96, 34.5 0.24, 56.5 0 M56.5 0 C60.23 -1.91, 62.75 2.66, 61.83 5.33 M56.5 0 C57.78 0.17, 62.64 0.08, 61.83 5.33 M61.83 5.33 C61.19 9.36, 62.01 13.01, 61.83 15.99 M61.83 5.33 C61.74 7.95, 61.43 11.08, 61.83 15.99 M61.83 15.99 C60.33 18.07, 58.74 21.99, 56.5 21.32 M61.83 15.99 C63.95 18.57, 59.31 21.83, 56.5 21.32 M56.5 21.32 C34.55 19.54, 17.45 23.07, 5.33 21.32 M56.5 21.32 C45.09 21.23, 32.74 20.51, 5.33 21.32 M5.33 21.32 C1.59 20.23, 1.82 18.34, 0 15.99 M5.33 21.32 C0.51 19.12, 2.01 20.56, 0 15.99 M0 15.99 C0.82 12.82, -0.9 7.07, 0 5.33 M0 15.99 C0.46 13.75, 0.43 10.93, 0 5.33 M0 5.33 C-1.13 2.06, 2.27 1.13, 5.33 0 M0 5.33 C2.08 3.58, 1.83 -0.96, 5.33 0" stroke="#000000" stroke-width="1" fill="none"></path></g><g stroke-linecap="round" transform="translate(367.18190176843586 558.6596508572852) rotate(0 47.973693026021465 9.95010336106634)"><path d="M4.98 0 M4.98 0 C39.13 2.1, 71.09 0.03, 90.97 0 M4.98 0 C23.31 -1.17, 40.19 -1.12, 90.97 0 M90.97 0 C94.37 0.54, 94.25 0.75, 95.95 4.98 M90.97 0 C94.08 -1.26, 98.04 0.27, 95.95 4.98 M95.95 4.98 C96.29 8.34, 95.07 8.96, 95.95 14.93 M95.95 4.98 C95.79 8.45, 95.78 12.15, 95.95 14.93 M95.95 14.93 C97.46 20.19, 95.68 21.59, 90.97 19.9 M95.95 14.93 C94.65 18.57, 94.85 21.2, 90.97 19.9 M90.97 19.9 C56.54 20.67, 23.83 18.45, 4.98 19.9 M90.97 19.9 C59.52 18.65, 28.22 19.29, 4.98 19.9 M4.98 19.9 C1.19 18.12, -1.63 20.02, 0 14.93 M4.98 19.9 C-0.31 21.32, 0.49 16.37, 0 14.93 M0 14.93 C0 11.63, -0.89 9.2, 0 4.98 M0 14.93 C-0.36 12.06, 0.08 8.36, 0 4.98 M0 4.98 C-1.14 0.47, 0.24 0.4, 4.98 0 M0 4.98 C-0.97 2, 1.06 -1.71, 4.98 0" stroke="#000000" stroke-width="1" fill="none"></path></g><g stroke-linecap="round" transform="translate(92.13269588500361 617.6495333783982) rotate(0 54.014827451596204 55.79161734106992)"><path d="M27.01 0 M27.01 0 C47.27 0.74, 69.26 -1.48, 81.02 0 M27.01 0 C46.02 -0.42, 65.19 0.22, 81.02 0 M81.02 0 C98.56 -1.78, 106.4 10.78, 108.03 27.01 M81.02 0 C97.06 1.42, 108.52 7.13, 108.03 27.01 M108.03 27.01 C108.18 45.47, 106.38 65.69, 108.03 84.58 M108.03 27.01 C107.63 44.92, 108.52 61.14, 108.03 84.58 M108.03 84.58 C106.89 101.39, 97.61 111.98, 81.02 111.58 M108.03 84.58 C107.06 102.93, 98.43 109.87, 81.02 111.58 M81.02 111.58 C61.49 112.83, 46.49 109.62, 27.01 111.58 M81.02 111.58 C66.4 111.53, 52.08 110.16, 27.01 111.58 M27.01 111.58 C10.85 112.56, 0.73 104.25, 0 84.58 M27.01 111.58 C10.8 112.06, -2.06 103.99, 0 84.58 M0 84.58 C1.11 65.47, 2.2 47.74, 0 27.01 M0 84.58 C-0.27 65.99, 0.69 46.97, 0 27.01 M0 27.01 C-0.97 9.16, 10.37 1.22, 27.01 0 M0 27.01 C-0.95 8.24, 9.51 -1.91, 27.01 0" stroke="#000000" stroke-width="1" fill="none"></path></g><g stroke-linecap="round" transform="translate(87.20750356458427 751.3149826879499) rotate(0 54.014827451596204 55.79161734106992)"><path d="M27.01 0 M27.01 0 C47.06 -0.89, 63.92 1.25, 81.02 0 M27.01 0 C39.61 -0.18, 51.2 -0.88, 81.02 0 M81.02 0 C97.35 0.31, 108.94 9.95, 108.03 27.01 M81.02 0 C97.39 0.1, 108.22 9.58, 108.03 27.01 M108.03 27.01 C108.99 41.98, 106.91 52.78, 108.03 84.58 M108.03 27.01 C107 44.86, 107.6 62.93, 108.03 84.58 M108.03 84.58 C107.6 101.31, 99.67 109.84, 81.02 111.58 M108.03 84.58 C106.45 100.49, 96.73 111.17, 81.02 111.58 M81.02 111.58 C69.32 110.49, 53.89 109.15, 27.01 111.58 M81.02 111.58 C62.2 111.08, 45.11 111.91, 27.01 111.58 M27.01 111.58 C10.1 112.58, 0.78 104.39, 0 84.58 M27.01 111.58 C10.35 111.17, -0.47 102.29, 0 84.58 M0 84.58 C0.63 72.79, 0.82 57.17, 0 27.01 M0 84.58 C-0.66 66.56, -0.54 49.96, 0 27.01 M0 27.01 C0.23 9.85, 8.56 0.67, 27.01 0 M0 27.01 C0.49 7.58, 9.17 0.36, 27.01 0" stroke="#000000" stroke-width="1" fill="none"></path></g><g stroke-linecap="round" transform="translate(232.19470266651012 617.6994503512337) rotate(0 54.014827451596204 55.79161734106992)"><path d="M27.01 0 M27.01 0 C48.66 0.68, 66.23 -0.12, 81.02 0 M27.01 0 C44.35 -0.22, 62.25 -0.82, 81.02 0 M81.02 0 C97.79 0.25, 108.72 8.64, 108.03 27.01 M81.02 0 C97.91 0.18, 109.61 10.41, 108.03 27.01 M108.03 27.01 C106.18 42.3, 109.6 54.97, 108.03 84.58 M108.03 27.01 C108.61 41.51, 107.4 56.68, 108.03 84.58 M108.03 84.58 C109.92 104.01, 100.12 110.35, 81.02 111.58 M108.03 84.58 C109.99 100.8, 100.79 112.35, 81.02 111.58 M81.02 111.58 C65.66 113.22, 49.51 112.56, 27.01 111.58 M81.02 111.58 C64.1 111.55, 45.38 112.61, 27.01 111.58 M27.01 111.58 C10.12 111.46, -0.47 104.51, 0 84.58 M27.01 111.58 C9.59 110.49, -0.87 102.58, 0 84.58 M0 84.58 C0.63 66.3, -1.39 48.87, 0 27.01 M0 84.58 C0.04 67.98, -1.35 50.73, 0 27.01 M0 27.01 C-0.04 8.86, 7.48 -0.36, 27.01 0 M0 27.01 C2.23 7.44, 9.11 0.04, 27.01 0" stroke="#000000" stroke-width="1" fill="none"></path></g><g stroke-linecap="round" transform="translate(227.26951034609078 751.3648996607853) rotate(0 54.014827451596204 55.79161734106992)"><path d="M27.01 0 M27.01 0 C44.12 -0.94, 64.25 -2.01, 81.02 0 M27.01 0 C39.73 0.26, 51.68 -1.3, 81.02 0 M81.02 0 C99.33 0.91, 108.98 7.58, 108.03 27.01 M81.02 0 C99.13 0.19, 108.61 7.48, 108.03 27.01 M108.03 27.01 C110.1 39.85, 107.44 54.32, 108.03 84.58 M108.03 27.01 C107.84 40.07, 108.29 52.94, 108.03 84.58 M108.03 84.58 C106.76 103.22, 97.28 110.21, 81.02 111.58 M108.03 84.58 C105.94 100.29, 98.61 110.42, 81.02 111.58 M81.02 111.58 C67.15 111.9, 52.56 112.85, 27.01 111.58 M81.02 111.58 C63.59 112.02, 47.69 111.86, 27.01 111.58 M27.01 111.58 C10 112.36, 1.81 103.76, 0 84.58 M27.01 111.58 C8.59 111.11, -0.29 101, 0 84.58 M0 84.58 C1.28 62.94, -1.01 38.69, 0 27.01 M0 84.58 C0.04 65.16, 1.19 46.58, 0 27.01 M0 27.01 C0.84 8.56, 9.68 0.42, 27.01 0 M0 27.01 C-1.43 9.17, 9.37 1.04, 27.01 0" stroke="#000000" stroke-width="1" fill="none"></path></g><g stroke-linecap="round" transform="translate(383.6282677657506 619.1707883909007) rotate(0 54.014827451596204 55.79161734106992)"><path d="M27.01 0 M27.01 0 C47.09 1.41, 68.08 1.24, 81.02 0 M27.01 0 C44.92 0.65, 63.87 0.4, 81.02 0 M81.02 0 C100.06 0.63, 109.62 9.63, 108.03 27.01 M81.02 0 C101.32 -0.47, 108.46 10.98, 108.03 27.01 M108.03 27.01 C109.93 48.01, 107.04 67.23, 108.03 84.58 M108.03 27.01 C108.17 44.51, 107.36 60.76, 108.03 84.58 M108.03 84.58 C106.31 102.39, 101.02 109.64, 81.02 111.58 M108.03 84.58 C109.43 102.85, 97.25 110.65, 81.02 111.58 M81.02 111.58 C64.57 113.11, 47.49 111.27, 27.01 111.58 M81.02 111.58 C64.21 112.6, 48.76 111.02, 27.01 111.58 M27.01 111.58 C7.49 112.94, 1.68 101.61, 0 84.58 M27.01 111.58 C8.55 111.28, -2 103.46, 0 84.58 M0 84.58 C-1.23 69.16, 1.62 57.67, 0 27.01 M0 84.58 C-1.29 71.06, -1.36 55.61, 0 27.01 M0 27.01 C1.15 9.51, 9.24 1.92, 27.01 0 M0 27.01 C2.15 8.46, 9.85 1.03, 27.01 0" stroke="#000000" stroke-width="1" fill="none"></path></g><g stroke-linecap="round" transform="translate(378.70307544533125 752.8362377004523) rotate(0 54.014827451596204 55.79161734106992)"><path d="M27.01 0 M27.01 0 C42.59 1.49, 57.69 -1.08, 81.02 0 M27.01 0 C46.67 -0.65, 64.03 0.11, 81.02 0 M81.02 0 C99.94 0.95, 106.6 9.09, 108.03 27.01 M81.02 0 C99.21 0.58, 106.51 7.53, 108.03 27.01 M108.03 27.01 C107.66 48.84, 108.53 71.55, 108.03 84.58 M108.03 27.01 C107.67 40.8, 107.47 52.58, 108.03 84.58 M108.03 84.58 C108.67 100.83, 97.65 109.77, 81.02 111.58 M108.03 84.58 C105.74 102.17, 97.87 110.33, 81.02 111.58 M81.02 111.58 C69.49 109.47, 59.06 111.61, 27.01 111.58 M81.02 111.58 C63.52 111.33, 45.15 111.7, 27.01 111.58 M27.01 111.58 C9.78 113.4, 1.18 102.22, 0 84.58 M27.01 111.58 C8.53 111.29, -1.58 104.88, 0 84.58 M0 84.58 C1.05 64.07, -0.18 45.7, 0 27.01 M0 84.58 C-0.08 71.11, 0.39 56.28, 0 27.01 M0 27.01 C-0.44 9.68, 9.42 -1.24, 27.01 0 M0 27.01 C0.17 9.37, 10.04 -1.6, 27.01 0" stroke="#000000" stroke-width="1" fill="none"></path></g><g stroke-linecap="round" transform="translate(525.8224332593732 617.7992571850359) rotate(0 54.01482745159626 55.79161734106992)"><path d="M27.01 0 M27.01 0 C39.53 2.45, 50.5 1.69, 81.02 0 M27.01 0 C43.82 0.15, 59.91 0.04, 81.02 0 M81.02 0 C100.96 -1.36, 108.13 9.04, 108.03 27.01 M81.02 0 C100.48 0.42, 106.86 11.12, 108.03 27.01 M108.03 27.01 C109 47.99, 106.67 65.23, 108.03 84.58 M108.03 27.01 C107.03 44, 107.12 59.54, 108.03 84.58 M108.03 84.58 C106.98 104.48, 100.86 110.48, 81.02 111.58 M108.03 84.58 C109.71 100.53, 97.02 112.91, 81.02 111.58 M81.02 111.58 C70.39 112.14, 60.65 113.77, 27.01 111.58 M81.02 111.58 C66.32 111.11, 51.28 111.03, 27.01 111.58 M27.01 111.58 C8.52 113.47, 0.88 100.96, 0 84.58 M27.01 111.58 C7.21 111.05, 0.79 102.05, 0 84.58 M0 84.58 C1.06 70.05, -1.06 54.33, 0 27.01 M0 84.58 C-0.45 70.42, 1.18 57.76, 0 27.01 M0 27.01 C1.18 7.48, 9.95 0.45, 27.01 0 M0 27.01 C1.29 7.03, 10.71 -1.27, 27.01 0" stroke="#000000" stroke-width="1" fill="none"></path></g><g stroke-linecap="round" transform="translate(520.8972409389538 751.4647064945875) rotate(0 54.014827451596204 55.79161734106992)"><path d="M27.01 0 M27.01 0 C47.98 -1.5, 65.13 1.17, 81.02 0 M27.01 0 C47.28 -1.23, 68.92 0.06, 81.02 0 M81.02 0 C99.98 -1.43, 108.12 9.16, 108.03 27.01 M81.02 0 C99.61 -1.52, 106.56 11.29, 108.03 27.01 M108.03 27.01 C107.29 48.21, 107 67.72, 108.03 84.58 M108.03 27.01 C108.84 40.55, 107.53 54.83, 108.03 84.58 M108.03 84.58 C106.28 101.21, 97.21 109.59, 81.02 111.58 M108.03 84.58 C107.61 101.42, 97.77 109.53, 81.02 111.58 M81.02 111.58 C58.06 112.32, 39.19 112.28, 27.01 111.58 M81.02 111.58 C67.7 112.52, 54.63 112.36, 27.01 111.58 M27.01 111.58 C10.82 112.76, -0.36 102.17, 0 84.58 M27.01 111.58 C8.71 110.01, 2.3 103.57, 0 84.58 M0 84.58 C-1.2 64.02, 0.18 42.11, 0 27.01 M0 84.58 C1.05 70.18, 0.57 55.34, 0 27.01 M0 27.01 C0.67 9.42, 7.76 0.15, 27.01 0 M0 27.01 C0.36 10.04, 7.4 -1.82, 27.01 0" stroke="#000000" stroke-width="1" fill="none"></path></g><g stroke-linecap="round" transform="translate(60.910915597645044 1016.4141191001522) rotate(0 209.66282011410232 24.51989296900706)"><path d="M12.26 0 M12.26 0 C133.69 1.03, 255.01 1.75, 407.07 0 M12.26 0 C112.28 -0.87, 213.21 -1, 407.07 0 M407.07 0 C414.9 0.34, 418.06 6.02, 419.33 12.26 M407.07 0 C416.7 -2.14, 420.65 5.28, 419.33 12.26 M419.33 12.26 C420.65 18.78, 420.46 28.01, 419.33 36.78 M419.33 12.26 C418.93 19.43, 419.78 25.96, 419.33 36.78 M419.33 36.78 C418.19 43.27, 416.48 50.24, 407.07 49.04 M419.33 36.78 C418.2 46.71, 414.84 48.26, 407.07 49.04 M407.07 49.04 C298.27 46.24, 190.05 46.03, 12.26 49.04 M407.07 49.04 C265.66 48.93, 123.73 48.65, 12.26 49.04 M12.26 49.04 C2.18 50.53, -0.82 44.83, 0 36.78 M12.26 49.04 C1.86 51.26, 1.81 43.59, 0 36.78 M0 36.78 C1.53 29.8, 1.54 19.62, 0 12.26 M0 36.78 C-0.07 29.01, 0.49 20.88, 0 12.26 M0 12.26 C0.4 3.22, 4.28 1.94, 12.26 0 M0 12.26 C0.62 3.07, 3.49 -2.14, 12.26 0" stroke="#000000" stroke-width="1" fill="none"></path></g><g stroke-linecap="round" transform="translate(87.20758490019125 1034.892904755453) rotate(0 37.31287235357223 9.594734538424063)"><path d="M4.8 0 M4.8 0 C22.21 1.53, 38.37 -1.6, 69.83 0 M4.8 0 C26.63 -0.19, 48.91 0.11, 69.83 0 M69.83 0 C71.76 1.93, 75.9 -0.26, 74.63 4.8 M69.83 0 C74.35 1.19, 74.28 1.36, 74.63 4.8 M74.63 4.8 C75.25 7.61, 74.61 8.34, 74.63 14.39 M74.63 4.8 C74.86 8.26, 74.33 11.87, 74.63 14.39 M74.63 14.39 C75.86 18.79, 72.05 20.71, 69.83 19.19 M74.63 14.39 C74.22 16.81, 72.44 20.63, 69.83 19.19 M69.83 19.19 C56.06 17.21, 43.98 19.03, 4.8 19.19 M69.83 19.19 C49.78 18.83, 30.75 19.99, 4.8 19.19 M4.8 19.19 C0.78 19.06, -1.94 19.52, 0 14.39 M4.8 19.19 C3.41 17.83, 1.03 17.49, 0 14.39 M0 14.39 C0.66 11.44, 0 8.02, 0 4.8 M0 14.39 C0.17 11.82, 0.12 9.84, 0 4.8 M0 4.8 C0.19 3.54, 2.14 -0.88, 4.8 0 M0 4.8 C-0.59 -0.54, 2.58 -1.99, 4.8 0" stroke="#000000" stroke-width="1" fill="none"></path></g><g stroke-linecap="round" transform="translate(180.31207459483346 1034.1821806661028) rotate(0 31.627093194705253 9.950096583099139)"><path d="M4.98 0 M4.98 0 C23.11 -0.95, 36.45 0.76, 58.28 0 M4.98 0 C15.76 -0.01, 26.99 -0.47, 58.28 0 M58.28 0 C63.53 1.27, 61.39 2.81, 63.25 4.98 M58.28 0 C62.79 -0.35, 63.01 -0.56, 63.25 4.98 M63.25 4.98 C64.12 8.54, 62.85 13.18, 63.25 14.93 M63.25 4.98 C62.97 7.38, 62.84 10.65, 63.25 14.93 M63.25 14.93 C64.45 17.26, 63.12 19.55, 58.28 19.9 M63.25 14.93 C62.47 17.66, 63.04 17.78, 58.28 19.9 M58.28 19.9 C42.38 20.99, 29.89 19.69, 4.98 19.9 M58.28 19.9 C42.03 18.42, 27.34 18.96, 4.98 19.9 M4.98 19.9 C1.53 17.96, 1.93 19.81, 0 14.93 M4.98 19.9 C0.3 20.93, -0.1 18.14, 0 14.93 M0 14.93 C-0.2 11.26, -0.81 6.71, 0 4.98 M0 14.93 C-0.4 12.29, -0.19 9.5, 0 4.98 M0 4.98 C1.94 2.2, 0.78 -0.52, 4.98 0 M0 4.98 C-2.14 2.64, -0.33 0.69, 4.98 0" stroke="#000000" stroke-width="1" fill="none"></path></g><g stroke-linecap="round" transform="translate(263.46648126231105 1034.892904755453) rotate(0 30.916369105355102 10.66081389448209)"><path d="M5.33 0 M5.33 0 C20.85 -1.9, 38.98 -2.33, 56.5 0 M5.33 0 C20.98 0.24, 36.32 1.03, 56.5 0 M56.5 0 C61.33 -1.86, 62.98 2.81, 61.83 5.33 M56.5 0 C59.71 -0.24, 59.62 3.33, 61.83 5.33 M61.83 5.33 C61.8 7.87, 62.85 10.91, 61.83 15.99 M61.83 5.33 C61.59 8.11, 62.22 12.11, 61.83 15.99 M61.83 15.99 C60.85 21.07, 59.71 20.64, 56.5 21.32 M61.83 15.99 C61.25 20.99, 57.93 20.6, 56.5 21.32 M56.5 21.32 C45.42 21.15, 31.87 20.86, 5.33 21.32 M56.5 21.32 C39.78 21.86, 24.56 21.05, 5.33 21.32 M5.33 21.32 C-0.16 23.25, 1.57 18.36, 0 15.99 M5.33 21.32 C2.81 21.22, -0.1 21.29, 0 15.99 M0 15.99 C-0.01 11.22, -0.87 7.76, 0 5.33 M0 15.99 C0.07 12.82, 0.02 10.62, 0 5.33 M0 5.33 C0.54 0.9, 1.26 -1.86, 5.33 0 M0 5.33 C0.98 -0.21, 2.47 1.46, 5.33 0" stroke="#000000" stroke-width="1" fill="none"></path></g><g stroke-linecap="round" transform="translate(357.9924462475225 1034.892904755453) rotate(0 47.973693026021465 9.95010336106634)"><path d="M4.98 0 M4.98 0 C30.07 1.2, 56.2 0.57, 90.97 0 M4.98 0 C28.31 -0.49, 52.27 0.78, 90.97 0 M90.97 0 C92.43 1.15, 96.98 1.36, 95.95 4.98 M90.97 0 C94.05 -2.22, 97.5 1.12, 95.95 4.98 M95.95 4.98 C95.66 9.43, 95.73 12.13, 95.95 14.93 M95.95 4.98 C95.47 8.81, 96.19 11.79, 95.95 14.93 M95.95 14.93 C97.47 17.89, 93.61 19.39, 90.97 19.9 M95.95 14.93 C97.39 16.12, 93.56 18.5, 90.97 19.9 M90.97 19.9 C66.54 20.26, 41.57 20.56, 4.98 19.9 M90.97 19.9 C74.4 18.67, 56.28 18.11, 4.98 19.9 M4.98 19.9 C3.59 21.47, -1.18 19.14, 0 14.93 M4.98 19.9 C1.56 19.8, 1.74 19.94, 0 14.93 M0 14.93 C-0.72 10.45, -0.24 7.2, 0 4.98 M0 14.93 C-0.13 11.68, 0.57 8.47, 0 4.98 M0 4.98 C-0.88 1.14, -0.2 0.85, 4.98 0 M0 4.98 C-1.99 2.35, 3.12 -1.02, 4.98 0" stroke="#000000" stroke-width="1" fill="none"></path></g><g stroke-linecap="round" transform="translate(82.94324036409023 1093.882787276566) rotate(0 54.014827451596204 55.79161734106992)"><path d="M27.01 0 M27.01 0 C48.53 -1.51, 68.61 -0.22, 81.02 0 M27.01 0 C41.86 0.87, 58.61 -1.02, 81.02 0 M81.02 0 C100.17 1.04, 107.73 8.79, 108.03 27.01 M81.02 0 C96.81 1.55, 107.5 10.34, 108.03 27.01 M108.03 27.01 C109.77 48.79, 108.04 72.89, 108.03 84.58 M108.03 27.01 C108.32 41.57, 107.21 55.71, 108.03 84.58 M108.03 84.58 C107.68 101.9, 98.52 112.84, 81.02 111.58 M108.03 84.58 C105.91 101.86, 97.63 111.28, 81.02 111.58 M81.02 111.58 C68.96 111.59, 57.34 109.67, 27.01 111.58 M81.02 111.58 C66.64 111.92, 52.11 112.95, 27.01 111.58 M27.01 111.58 C10.57 110.4, 0.9 102.49, 0 84.58 M27.01 111.58 C8.9 113.33, 1.69 104.34, 0 84.58 M0 84.58 C-1.51 67.52, -0.52 52.09, 0 27.01 M0 84.58 C-0.02 73.13, 0.16 59.31, 0 27.01 M0 27.01 C-0.52 7.14, 9.86 -1.73, 27.01 0 M0 27.01 C0.69 10.46, 7.98 0.05, 27.01 0" stroke="#000000" stroke-width="1" fill="none"></path></g><g stroke-linecap="round" transform="translate(78.01804804367089 1227.5482365861176) rotate(0 54.014827451596204 55.79161734106992)"><path d="M27.01 0 M27.01 0 C38.86 -0.04, 53.91 -0.49, 81.02 0 M27.01 0 C43.26 0.98, 56.65 0.92, 81.02 0 M81.02 0 C100.06 -0.3, 107.82 7.07, 108.03 27.01 M81.02 0 C100.58 -0.53, 109.37 11.05, 108.03 27.01 M108.03 27.01 C107.2 43.82, 108.9 59.38, 108.03 84.58 M108.03 27.01 C108.14 40.53, 108.31 54.86, 108.03 84.58 M108.03 84.58 C107.35 102.07, 100.28 109.74, 81.02 111.58 M108.03 84.58 C107.3 101.18, 98.73 109.76, 81.02 111.58 M81.02 111.58 C61.62 111.71, 40.36 110.72, 27.01 111.58 M81.02 111.58 C69.9 110.39, 59.87 112.15, 27.01 111.58 M27.01 111.58 C7.82 112.48, -0.09 102.49, 0 84.58 M27.01 111.58 C10.75 113.28, 1.76 102.3, 0 84.58 M0 84.58 C-0.07 66.42, 1.05 47.53, 0 27.01 M0 84.58 C1.22 66.42, -0.19 47.46, 0 27.01 M0 27.01 C-1.86 9.86, 7.28 0.6, 27.01 0 M0 27.01 C1.46 7.98, 9.05 -0.58, 27.01 0" stroke="#000000" stroke-width="1" fill="none"></path></g><g stroke-linecap="round" transform="translate(223.00524714559674 1093.9327042494015) rotate(0 54.014827451596204 55.79161734106992)"><path d="M27.01 0 M27.01 0 C39.43 -0.1, 51.22 0.17, 81.02 0 M27.01 0 C44.77 -1.45, 61.84 0, 81.02 0 M81.02 0 C98.72 -0.21, 106.1 10.35, 108.03 27.01 M81.02 0 C98.49 1.34, 110.08 8.8, 108.03 27.01 M108.03 27.01 C108.6 43.17, 107.4 56.03, 108.03 84.58 M108.03 27.01 C107.89 40.2, 108.21 51.52, 108.03 84.58 M108.03 84.58 C107.52 103.84, 97.18 110.95, 81.02 111.58 M108.03 84.58 C106.63 102.28, 97.2 112.92, 81.02 111.58 M81.02 111.58 C64.34 109.59, 46.51 109.66, 27.01 111.58 M81.02 111.58 C59.82 112.51, 41.34 110.96, 27.01 111.58 M27.01 111.58 C9.9 111.49, -0.09 104.1, 0 84.58 M27.01 111.58 C10.7 113.34, -0.28 102.74, 0 84.58 M0 84.58 C-0.06 72.17, -1.26 58.92, 0 27.01 M0 84.58 C0.22 69.36, -0.31 54.09, 0 27.01 M0 27.01 C0.85 7.28, 9.61 1.27, 27.01 0 M0 27.01 C-1.02 9.05, 8.43 1.57, 27.01 0" stroke="#000000" stroke-width="1" fill="none"></path></g><g stroke-linecap="round" transform="translate(218.0800548251774 1227.598153558953) rotate(0 54.014827451596204 55.79161734106992)"><path d="M27.01 0 M27.01 0 C44.79 -0.32, 63.45 0.29, 81.02 0 M27.01 0 C38.85 0.23, 53.07 -0.5, 81.02 0 M81.02 0 C98.82 -1.93, 109.38 8.54, 108.03 27.01 M81.02 0 C100.36 2.05, 107.83 8.13, 108.03 27.01 M108.03 27.01 C108.95 48.28, 106.72 70.16, 108.03 84.58 M108.03 27.01 C109.14 47.66, 108.03 68.41, 108.03 84.58 M108.03 84.58 C109.28 100.73, 98.4 110.37, 81.02 111.58 M108.03 84.58 C107.73 100.76, 100.36 111.86, 81.02 111.58 M81.02 111.58 C63.21 110.8, 47.45 113.12, 27.01 111.58 M81.02 111.58 C67.99 111.85, 52.44 111.51, 27.01 111.58 M27.01 111.58 C8.91 111.49, 1.52 104.05, 0 84.58 M27.01 111.58 C10.76 111.3, 0.16 100.89, 0 84.58 M0 84.58 C0.77 69.86, 0.55 57.65, 0 27.01 M0 84.58 C-1 66.49, -1.49 49.35, 0 27.01 M0 27.01 C-1.73 9.61, 10.27 -0.89, 27.01 0 M0 27.01 C0.05 8.43, 10.57 -0.07, 27.01 0" stroke="#000000" stroke-width="1" fill="none"></path></g><g stroke-linecap="round" transform="translate(365.9101773963729 1095.4040422890685) rotate(0 54.014827451596204 55.79161734106992)"><path d="M27.01 0 M27.01 0 C37.81 -0.17, 49.48 -1.1, 81.02 0 M27.01 0 C49 1.02, 69.69 0.4, 81.02 0 M81.02 0 C97.1 1.35, 107.57 10.16, 108.03 27.01 M81.02 0 C101.07 -0.2, 107.15 11.06, 108.03 27.01 M108.03 27.01 C106.9 41.39, 106.36 59.28, 108.03 84.58 M108.03 27.01 C107.57 47.38, 107.49 69.07, 108.03 84.58 M108.03 84.58 C106.18 101.95, 97.81 111.32, 81.02 111.58 M108.03 84.58 C106.21 103.92, 99.3 111.43, 81.02 111.58 M81.02 111.58 C64.15 109.14, 50.41 110.23, 27.01 111.58 M81.02 111.58 C65.95 111.51, 49.75 112.06, 27.01 111.58 M27.01 111.58 C8.91 113.1, 1.47 104.11, 0 84.58 M27.01 111.58 C8.72 111.75, -1.69 100.89, 0 84.58 M0 84.58 C-1.55 69.14, -0.73 53.09, 0 27.01 M0 84.58 C-0.41 60.78, 0.27 37.97, 0 27.01 M0 27.01 C0.6 10.27, 8.11 0.04, 27.01 0 M0 27.01 C-0.58 10.57, 8.93 -1.68, 27.01 0" stroke="#000000" stroke-width="1" fill="none"></path></g><g stroke-linecap="round" transform="translate(369.51361992441787 1229.06949159862) rotate(0 54.014827451596204 55.79161734106992)"><path d="M27.01 0 M27.01 0 C43.36 0.41, 59.12 2, 81.02 0 M27.01 0 C47.17 -0.46, 66.19 -1.27, 81.02 0 M81.02 0 C100.38 -0.46, 109.19 10.78, 108.03 27.01 M81.02 0 C98.82 -0.88, 110.09 8.3, 108.03 27.01 M108.03 27.01 C107.21 42.76, 109.58 63.07, 108.03 84.58 M108.03 27.01 C108.13 41.2, 109.1 54.97, 108.03 84.58 M108.03 84.58 C107.4 101.37, 98.76 110, 81.02 111.58 M108.03 84.58 C109.37 102.85, 98.87 111.52, 81.02 111.58 M81.02 111.58 C62.47 112.85, 46.92 111.23, 27.01 111.58 M81.02 111.58 C69.45 112.46, 59.02 111.96, 27.01 111.58 M27.01 111.58 C10.52 113.06, 1.53 102.33, 0 84.58 M27.01 111.58 C9.17 109.89, -1.69 102.01, 0 84.58 M0 84.58 C0.22 67.82, 0.01 54.74, 0 27.01 M0 84.58 C-0.68 66.17, -0.61 47.21, 0 27.01 M0 27.01 C1.27 8.11, 9.05 -0.5, 27.01 0 M0 27.01 C1.57 8.93, 7.32 -0.04, 27.01 0" stroke="#000000" stroke-width="1" fill="none"></path></g><g stroke-linecap="round" transform="translate(73.14285403169401 1392.535489911781) rotate(0 54.014827451596204 55.79161734106992)"><path d="M27.01 0 M27.01 0 C41.9 -1.18, 58.04 1.37, 81.02 0 M27.01 0 C38.04 -0.39, 48.41 0.4, 81.02 0 M81.02 0 C98.56 1.16, 109.81 8.82, 108.03 27.01 M81.02 0 C98.15 2.06, 107.33 9.07, 108.03 27.01 M108.03 27.01 C106.02 48.66, 108.9 66.86, 108.03 84.58 M108.03 27.01 C107.68 49.3, 107.01 70.01, 108.03 84.58 M108.03 84.58 C106.82 102.32, 97.44 112.75, 81.02 111.58 M108.03 84.58 C108.3 102.42, 98.96 111.77, 81.02 111.58 M81.02 111.58 C71.64 110.25, 59.15 109.13, 27.01 111.58 M81.02 111.58 C60.05 111.22, 38.14 112.02, 27.01 111.58 M27.01 111.58 C10.48 113.11, -0.25 102.72, 0 84.58 M27.01 111.58 C7.31 109.89, -0.57 102.03, 0 84.58 M0 84.58 C-0.38 65.69, 2.43 46.96, 0 27.01 M0 84.58 C0.58 68.97, 0.45 55.73, 0 27.01 M0 27.01 C-0.89 9.05, 8.5 1.36, 27.01 0 M0 27.01 C-0.07 7.32, 8.96 -2.18, 27.01 0" stroke="#000000" stroke-width="1" fill="none"></path></g><g stroke-linecap="round" transform="translate(228.12994468614397 1381.9245048765606) rotate(0 54.014827451596204 55.79161734106992)"><path d="M27.01 0 M27.01 0 C41.22 1.84, 59.25 -1.95, 81.02 0 M27.01 0 C46.21 -0.88, 66.29 -0.15, 81.02 0 M81.02 0 C100.19 1.78, 107.85 8.24, 108.03 27.01 M81.02 0 C101.08 -0.7, 108.1 10.26, 108.03 27.01 M108.03 27.01 C108.94 42.17, 106.72 56.47, 108.03 84.58 M108.03 27.01 C108.46 42.35, 107.52 58.92, 108.03 84.58 M108.03 84.58 C107.77 101, 100.19 111.82, 81.02 111.58 M108.03 84.58 C107.87 102.52, 99.21 109.31, 81.02 111.58 M81.02 111.58 C66.23 111.86, 51.14 113.92, 27.01 111.58 M81.02 111.58 C60.53 111.78, 40.88 112.56, 27.01 111.58 M27.01 111.58 C10.53 111.34, 0.14 101.11, 0 84.58 M27.01 111.58 C7.31 111.01, -0.55 103.3, 0 84.58 M0 84.58 C0.08 74.11, 0.43 58.87, 0 27.01 M0 84.58 C-0.33 69.09, 1.17 52.56, 0 27.01 M0 27.01 C0.04 8.5, 10.37 -0.06, 27.01 0 M0 27.01 C-1.68 8.96, 6.82 0.91, 27.01 0" stroke="#000000" stroke-width="1" fill="none"></path></g><g stroke-linecap="round" transform="translate(47.35725448309074 994.864896704999) rotate(0 222.45577238679851 266.5205235891974)"><path d="M32 0 M32 0 C154.08 1.35, 274.71 1.33, 412.91 0 M32 0 C182.16 -1.35, 332.79 -0.78, 412.91 0 M412.91 0 C435.16 -1.29, 445.06 9.82, 444.91 32 M412.91 0 C436.01 0.5, 443.77 11.98, 444.91 32 M444.91 32 C445.63 157.11, 444.1 283.28, 444.91 501.04 M444.91 32 C443.05 135.67, 442.8 239.49, 444.91 501.04 M444.91 501.04 C443.71 520.9, 434.59 531.41, 412.91 533.04 M444.91 501.04 C447.01 522.35, 432.38 532.72, 412.91 533.04 M412.91 533.04 C307.18 533.34, 200.22 533.92, 32 533.04 M412.91 533.04 C265.11 534.28, 116.75 533.43, 32 533.04 M32 533.04 C8.83 534.1, 1.56 521.34, 0 501.04 M32 533.04 C10.45 530.83, 0.54 522.77, 0 501.04 M0 501.04 C-0.2 335.86, -1.03 170.44, 0 32 M0 501.04 C-0.4 393.33, -1.01 285.42, 0 32 M0 32 C-0.93 9.19, 12.46 0.41, 32 0 M0 32 C0.61 12.27, 11.13 -1.38, 32 0" stroke="#000000" stroke-width="1" fill="none"></path></g><g stroke-linecap="round" transform="translate(590.3483711327158 1193.3338632465893) rotate(0 103.7653374789603 170.57311042528568)"><path d="M32 0 M32 0 C64.89 0.99, 96.43 -0.72, 175.53 0 M32 0 C64.92 0.36, 96.16 0.22, 175.53 0 M175.53 0 C196.81 -0.37, 208.82 11.99, 207.53 32 M175.53 0 C197.65 1.52, 208.21 9.33, 207.53 32 M207.53 32 C208.47 107.63, 209.04 182.75, 207.53 309.15 M207.53 32 C206.03 138.31, 205.68 243.62, 207.53 309.15 M207.53 309.15 C206.87 329.03, 197.19 341.43, 175.53 341.15 M207.53 309.15 C209.25 328.41, 197.33 343.39, 175.53 341.15 M175.53 341.15 C131.37 340.77, 88.41 341.32, 32 341.15 M175.53 341.15 C142.34 340.92, 109.89 340.67, 32 341.15 M32 341.15 C9.81 342.13, 1.92 330.47, 0 309.15 M32 341.15 C12.93 341.08, 1.99 330.64, 0 309.15 M0 309.15 C-1.89 219.36, -2.33 129.92, 0 32 M0 309.15 C0.07 250.62, 0.88 193.09, 0 32 M0 32 C-0.01 12.54, 11.44 0.58, 32 0 M0 32 C0.91 11.79, 9.75 1.36, 32 0" stroke="#000000" stroke-width="1" fill="none"></path></g><g stroke-linecap="round" transform="translate(605.9842739865505 1211.1018977006715) rotate(0 88.12946173699447 12.43761733989004)"><path d="M6.22 0 M6.22 0 C58.05 -0.95, 110.27 0.28, 170.04 0 M6.22 0 C50.43 1.25, 94.18 0.71, 170.04 0 M170.04 0 C175.95 -1.32, 175.4 3.06, 176.26 6.22 M170.04 0 C176.39 -0.02, 178.52 2, 176.26 6.22 M176.26 6.22 C177.27 10.27, 176.13 16.16, 176.26 18.66 M176.26 6.22 C176.24 9.33, 176.11 12.49, 176.26 18.66 M176.26 18.66 C177.56 24.13, 174.17 26.75, 170.04 24.88 M176.26 18.66 C177.14 23.47, 175.1 26, 170.04 24.88 M170.04 24.88 C126.01 27.64, 85.41 24.65, 6.22 24.88 M170.04 24.88 C109.77 24.17, 50.42 24.17, 6.22 24.88 M6.22 24.88 C3.27 24.56, 1.79 24.77, 0 18.66 M6.22 24.88 C-0.02 26.87, 0.68 21.6, 0 18.66 M0 18.66 C0.59 16.74, -0.37 13.88, 0 6.22 M0 18.66 C0.69 13.24, 0.2 9.27, 0 6.22 M0 6.22 C0.34 3.45, 0.25 0.44, 6.22 0 M0 6.22 C-1.78 3.46, 0.11 -0.85, 6.22 0" stroke="#000000" stroke-width="1" fill="none"></path></g><g stroke-linecap="round" transform="translate(623.041597907217 1218.2091114823043) rotate(0 16.346586275381583 3.908955379557028)"><path d="M1.95 0 M1.95 0 C14.29 -2.08, 24.42 0.33, 30.74 0 M1.95 0 C9.02 0.31, 17.02 -0.46, 30.74 0 M30.74 0 C33.75 1.91, 31.35 0.41, 32.69 1.95 M30.74 0 C34.29 -1.83, 33.13 2.3, 32.69 1.95 M32.69 1.95 C32.81 2.89, 32.95 4.1, 32.69 5.86 M32.69 1.95 C32.71 3.08, 32.86 3.95, 32.69 5.86 M32.69 5.86 C33.4 6.71, 32.53 6.57, 30.74 7.82 M32.69 5.86 C32.34 8.61, 32.13 9.2, 30.74 7.82 M30.74 7.82 C25.74 7.31, 17.34 9.57, 1.95 7.82 M30.74 7.82 C20.11 9.06, 9.76 8.11, 1.95 7.82 M1.95 7.82 C-0.93 9.78, -1.33 8.62, 0 5.86 M1.95 7.82 C-0.5 6.69, -0.09 5.5, 0 5.86 M0 5.86 C-0.28 4.72, 0.38 3.25, 0 1.95 M0 5.86 C-0.01 4.53, -0.02 3.44, 0 1.95 M0 1.95 C0.16 -0.86, 0.1 1.55, 1.95 0 M0 1.95 C1.13 -0.74, 0.47 1.21, 1.95 0" stroke="#000000" stroke-width="1" fill="none"></path></g><g stroke-linecap="round" transform="translate(681.3207292271109 1218.9198084597851) rotate(0 13.503689917980864 3.1982584020759077)"><path d="M1.6 0 M1.6 0 C9.59 -1.33, 17.9 -1.49, 25.41 0 M1.6 0 C7.78 0.28, 14.8 -0.56, 25.41 0 M25.41 0 C27.18 -0.45, 27.49 -0.72, 27.01 1.6 M25.41 0 C26.12 1.44, 27.1 1.91, 27.01 1.6 M27.01 1.6 C27.22 2.21, 26.89 3.27, 27.01 4.8 M27.01 1.6 C27.06 2.97, 27.16 4.04, 27.01 4.8 M27.01 4.8 C25.43 7.82, 25.14 7.85, 25.41 6.4 M27.01 4.8 C25.86 4.73, 26.38 4.73, 25.41 6.4 M25.41 6.4 C16.12 6.78, 11.83 5.68, 1.6 6.4 M25.41 6.4 C17.35 6.27, 9.44 7.3, 1.6 6.4 M1.6 6.4 C0.69 4.89, -0.55 7.42, 0 4.8 M1.6 6.4 C1.66 5, -0.18 7.08, 0 4.8 M0 4.8 C0.2 3.69, -0.02 2.93, 0 1.6 M0 4.8 C0.05 3.86, 0.05 2.85, 0 1.6 M0 1.6 C-1.88 -0.77, -0.18 -1.38, 1.6 0 M0 1.6 C-1.97 1.95, -1.07 -0.55, 1.6 0" stroke="#000000" stroke-width="1" fill="none"></path></g><g stroke-linecap="round" transform="translate(746.7071285523755 1218.9198084597851) rotate(0 14.21442756326553 5.6857656029326336)"><path d="M2.84 0 M2.84 0 C8.32 1.06, 12.08 -0.87, 25.59 0 M2.84 0 C10.37 0.88, 19.37 -0.02, 25.59 0 M25.59 0 C29.39 0.68, 30.36 2.86, 28.43 2.84 M25.59 0 C27.52 -1.82, 30.68 -0.58, 28.43 2.84 M28.43 2.84 C28.38 4.55, 28.52 6.53, 28.43 8.53 M28.43 2.84 C28.63 4, 28.47 5.19, 28.43 8.53 M28.43 8.53 C28.75 10.1, 27.14 11, 25.59 11.37 M28.43 8.53 C30.41 10.61, 25.75 10.74, 25.59 11.37 M25.59 11.37 C16.84 12.29, 7.45 10.11, 2.84 11.37 M25.59 11.37 C18.78 10.38, 12.42 10.52, 2.84 11.37 M2.84 11.37 C-0.04 11.7, 0.91 10.79, 0 8.53 M2.84 11.37 C2.08 9.21, -1.5 9.6, 0 8.53 M0 8.53 C-0.35 7.08, -0.21 6.39, 0 2.84 M0 8.53 C0.14 7.47, -0.17 5.96, 0 2.84 M0 2.84 C1.5 -0.21, 0.66 0.05, 2.84 0 M0 2.84 C1.69 3.07, 1.93 1.46, 2.84 0" stroke="#000000" stroke-width="1" fill="none"></path></g><g stroke-linecap="round"><g transform="translate(750.9713917528695 1222.4734153506015) rotate(0 10.518117607444083 -0.2895971332266072)"><path d="M-0.23 1.04 C3.61 0.8, 19.07 -1.48, 22.84 -1.61 M-1.8 0.53 C1.9 0.44, 18.06 -0.19, 21.94 -0.55" stroke="#000000" stroke-width="1" fill="none"></path></g></g><mask></mask><g stroke-linecap="round"><g transform="translate(751.6821565100231 1226.0270222414183) rotate(0 10.335731122803395 0.2494929518736626)"><path d="M-0.57 -0.67 C2.99 -0.67, 17.78 0.59, 21.24 0.68 M1.33 1.59 C4.73 1.19, 16.73 -1, 20.25 -1.09" stroke="#000000" stroke-width="1" fill="none"></path></g></g><mask></mask><g stroke-linecap="round" transform="translate(627.3059153314491 1262.4514928722856) rotate(0 62.898831122702745 28.073499859823187)"><path d="M14.04 0 M14.04 0 C39.31 -0.89, 68.7 0.13, 111.76 0 M14.04 0 C49.76 -0.13, 83.84 0.47, 111.76 0 M111.76 0 C122.59 1.85, 126.66 5.95, 125.8 14.04 M111.76 0 C121.9 1.74, 127.12 2.68, 125.8 14.04 M125.8 14.04 C124.17 20.82, 126.17 28.91, 125.8 42.11 M125.8 14.04 C126.41 21.07, 125.65 27.03, 125.8 42.11 M125.8 42.11 C124.25 50.1, 119.73 57.73, 111.76 56.15 M125.8 42.11 C126.66 51.06, 118.85 54.47, 111.76 56.15 M111.76 56.15 C75.29 56.56, 41.25 55.76, 14.04 56.15 M111.76 56.15 C76.05 55.16, 38.72 55.18, 14.04 56.15 M14.04 56.15 C6.1 56.14, 1.47 53.39, 0 42.11 M14.04 56.15 C4.03 54.46, 0.72 53.02, 0 42.11 M0 42.11 C-1.47 35.5, -0.44 25.75, 0 14.04 M0 42.11 C-1.01 36.19, 0.13 28.31, 0 14.04 M0 14.04 C-1.39 2.77, 6.06 -0.04, 14.04 0 M0 14.04 C1.69 6.13, 6.43 1.33, 14.04 0" stroke="#000000" stroke-width="1" fill="none"></path></g><g stroke-linecap="round" transform="translate(629.4879367926626 1349.209396291546) rotate(0 62.898831122702745 28.073499859823187)"><path d="M14.04 0 M14.04 0 C37.57 0.69, 59.71 2.62, 111.76 0 M14.04 0 C41.26 -0.51, 66.92 0.08, 111.76 0 M111.76 0 C119.59 1.24, 125.3 4.01, 125.8 14.04 M111.76 0 C119.72 1.58, 125.1 2.8, 125.8 14.04 M125.8 14.04 C124.5 22.8, 127.27 35.34, 125.8 42.11 M125.8 14.04 C126.55 24.01, 125.96 35.36, 125.8 42.11 M125.8 42.11 C125.19 51.29, 122.02 54.37, 111.76 56.15 M125.8 42.11 C123.52 50.75, 119.53 54.98, 111.76 56.15 M111.76 56.15 C75.89 57.04, 42.16 58.63, 14.04 56.15 M111.76 56.15 C91.54 57.46, 69.56 57.34, 14.04 56.15 M14.04 56.15 C3.26 55.39, -1.86 52.62, 0 42.11 M14.04 56.15 C5.63 56.46, 1.35 51.68, 0 42.11 M0 42.11 C-0.34 34.94, 1.66 25.99, 0 14.04 M0 42.11 C0.4 32.78, 0.23 23.83, 0 14.04 M0 14.04 C0.83 6.12, 6.47 -0.47, 14.04 0 M0 14.04 C1.79 6.97, 5.93 1.72, 14.04 0" stroke="#000000" stroke-width="1" fill="none"></path></g><g stroke-linecap="round" transform="translate(632.3807230110299 1427.4385835267353) rotate(0 62.898831122702745 28.073499859823187)"><path d="M14.04 0 M14.04 0 C32.64 1.93, 54.94 2.17, 111.76 0 M14.04 0 C42.22 -1.49, 67.97 0.2, 111.76 0 M111.76 0 C122.6 0.99, 125.24 5.43, 125.8 14.04 M111.76 0 C119.49 -0.87, 123.66 6.01, 125.8 14.04 M125.8 14.04 C126.02 23.43, 126.78 33.01, 125.8 42.11 M125.8 14.04 C126.03 22.46, 126.76 30.8, 125.8 42.11 M125.8 42.11 C127.06 51.3, 122.04 56.57, 111.76 56.15 M125.8 42.11 C126.75 53.12, 123.18 55.61, 111.76 56.15 M111.76 56.15 C76.35 57.6, 38.67 56.14, 14.04 56.15 M111.76 56.15 C86.47 57.33, 61.64 56.35, 14.04 56.15 M14.04 56.15 C4.04 57.03, -1.48 51.6, 0 42.11 M14.04 56.15 C4.02 57.2, -1.96 50.33, 0 42.11 M0 42.11 C-1.99 32.15, -1.58 24.88, 0 14.04 M0 42.11 C0.66 34.86, 0.82 30.01, 0 14.04 M0 14.04 C0.97 5.97, 6.66 -0.24, 14.04 0 M0 14.04 C-1.57 6.19, 2.77 -2.21, 14.04 0" stroke="#000000" stroke-width="1" fill="none"></path></g><g transform="translate(148.102004415362 1680.6838758983145) rotate(0 151 139)"><text x="0" y="19.166666666666668" font-family="Helvetica, Segoe UI Emoji" font-size="20px" fill="#000000" text-anchor="start" style="white-space: pre;" direction="ltr">                    git</text><text x="0" y="42.333333333333336" font-family="Helvetica, Segoe UI Emoji" font-size="20px" fill="#000000" text-anchor="start" style="white-space: pre;" direction="ltr"></text><text x="0" y="65.5" font-family="Helvetica, Segoe UI Emoji" font-size="20px" fill="#000000" text-anchor="start" style="white-space: pre;" direction="ltr">VCS - Version control system</text><text x="0" y="88.66666666666667" font-family="Helvetica, Segoe UI Emoji" font-size="20px" fill="#000000" text-anchor="start" style="white-space: pre;" direction="ltr"></text><text x="0" y="111.83333333333334" font-family="Helvetica, Segoe UI Emoji" font-size="20px" fill="#000000" text-anchor="start" style="white-space: pre;" direction="ltr">0. allows us to have a backup </text><text x="0" y="135" font-family="Helvetica, Segoe UI Emoji" font-size="20px" fill="#000000" text-anchor="start" style="white-space: pre;" direction="ltr">1. collaborate with multiple people</text><text x="0" y="158.16666666666669" font-family="Helvetica, Segoe UI Emoji" font-size="20px" fill="#000000" text-anchor="start" style="white-space: pre;" direction="ltr"></text><text x="0" y="181.33333333333334" font-family="Helvetica, Segoe UI Emoji" font-size="20px" fill="#000000" text-anchor="start" style="white-space: pre;" direction="ltr"></text><text x="0" y="204.5" font-family="Helvetica, Segoe UI Emoji" font-size="20px" fill="#000000" text-anchor="start" style="white-space: pre;" direction="ltr"></text><text x="0" y="227.66666666666669" font-family="Helvetica, Segoe UI Emoji" font-size="20px" fill="#000000" text-anchor="start" style="white-space: pre;" direction="ltr"> 1. init a new repo - git init</text><text x="0" y="250.83333333333334" font-family="Helvetica, Segoe UI Emoji" font-size="20px" fill="#000000" text-anchor="start" style="white-space: pre;" direction="ltr"></text><text x="0" y="274" font-family="Helvetica, Segoe UI Emoji" font-size="20px" fill="#000000" text-anchor="start" style="white-space: pre;" direction="ltr"></text></g><g stroke-linecap="round" transform="translate(91.77731350642682 1999.3807489672058) rotate(0 90.26160689317595 72.13821717238625)"><path d="M32 0 M32 0 C66.61 0.93, 96.78 -1.42, 148.52 0 M32 0 C77.16 -0.05, 124.97 0.6, 148.52 0 M148.52 0 C170.31 -1.27, 178.79 10.32, 180.52 32 M148.52 0 C169.82 0.02, 182.23 12.51, 180.52 32 M180.52 32 C181.49 57.37, 181.37 82.2, 180.52 112.28 M180.52 32 C180.89 59.21, 181.37 85.93, 180.52 112.28 M180.52 112.28 C180.05 135.11, 168.72 145.91, 148.52 144.28 M180.52 112.28 C180.57 134.8, 168.77 142.43, 148.52 144.28 M148.52 144.28 C118.08 143.43, 92.83 142.94, 32 144.28 M148.52 144.28 C114.44 142.77, 78.55 143.95, 32 144.28 M32 144.28 C9.36 144.4, -1.01 135.54, 0 112.28 M32 144.28 C10.48 143.95, 0.58 134.63, 0 112.28 M0 112.28 C1.1 92.04, 1.35 71.53, 0 32 M0 112.28 C-0.92 93.98, -0.83 76.81, 0 32 M0 32 C0.15 9.92, 9.31 -1.42, 32 0 M0 32 C-2 10.01, 9.18 -0.35, 32 0" stroke="#000000" stroke-width="1" fill="none"></path></g><g transform="translate(105.03892039960283 2060.018966139592) rotate(0 77 11.5)"><text x="77" y="18" font-family="Helvetica, Segoe UI Emoji" font-size="20px" fill="#000000" text-anchor="middle" style="white-space: pre;" direction="ltr">Mentor's account</text></g><g transform="translate(130.33396996127988 2036.9329667026582) rotate(0 52 11.5)"><text x="0" y="18" font-family="Helvetica, Segoe UI Emoji" font-size="20px" fill="#000000" text-anchor="start" style="white-space: pre;" direction="ltr">batch Repo</text></g><g stroke-linecap="round"><g transform="translate(292.2007746827146 2069.0314114929647) rotate(0 73.67837114050496 -0.09483629546139127)"><path d="M-0.17 0.3 C24.48 0.2, 124.38 -0.64, 149.07 -0.68 M-1.72 -0.59 C22.72 -0.53, 123.62 0.17, 148.4 0.49" stroke="#000000" stroke-width="1" fill="none"></path></g><g transform="translate(292.2007746827146 2069.0314114929647) rotate(0 73.67837114050496 -0.09483629546139127)"><path d="M120.62 11.37 C130.2 5.69, 142.62 3.36, 147.68 1.5 M119.54 9.65 C125.42 7.59, 131.76 6.26, 148.03 -0.18" stroke="#000000" stroke-width="1" fill="none"></path></g><g transform="translate(292.2007746827146 2069.0314114929647) rotate(0 73.67837114050496 -0.09483629546139127)"><path d="M120.81 -9.15 C130.3 -6.69, 142.65 -0.89, 147.68 1.5 M119.73 -10.87 C125.4 -8.55, 131.71 -5.49, 148.03 -0.18" stroke="#000000" stroke-width="1" fill="none"></path></g></g><mask></mask><g stroke-linecap="round" transform="translate(451.4023742360371 1997.248563143221) rotate(0 93.45984496134997 66.80780683616149)"><path d="M32 0 M32 0 C61.49 2.3, 93.72 1.68, 154.92 0 M32 0 C71.33 1.7, 110.46 1.47, 154.92 0 M154.92 0 C177.13 -0.48, 187.97 10.35, 186.92 32 M154.92 0 C177.56 -2.01, 187.37 9.79, 186.92 32 M186.92 32 C185.74 54.42, 186.24 78.1, 186.92 101.62 M186.92 32 C187.41 57.81, 186.47 85.03, 186.92 101.62 M186.92 101.62 C186.62 123.66, 177.44 131.68, 154.92 133.62 M186.92 101.62 C187.68 124.82, 174.76 133.2, 154.92 133.62 M154.92 133.62 C117.33 134.27, 80.4 134.68, 32 133.62 M154.92 133.62 C123.95 134.75, 92.62 134.49, 32 133.62 M32 133.62 C11.4 135.33, 0.66 122.08, 0 101.62 M32 133.62 C11.05 134.44, -0.59 120.78, 0 101.62 M0 101.62 C-2.25 76.83, -0.44 50.17, 0 32 M0 101.62 C-0.62 83.9, 0.84 65.64, 0 32 M0 32 C-1.4 9.04, 11.07 -0.32, 32 0 M0 32 C1.57 8.77, 10.85 -1.63, 32 0" stroke="#000000" stroke-width="1" fill="none"></path></g><g stroke-linecap="round"><g transform="translate(171.37814039495697 2163.5573493663073) rotate(0 -0.6048341286577852 75.31660057796876)"><path d="M-0.44 -0.57 C-0.97 24.73, -2.48 125.88, -2.74 151.2 M1.53 1.75 C1.36 26.74, 0.36 124.75, -0.35 149.36" stroke="#000000" stroke-width="1" fill="none"></path></g><g transform="translate(171.37814039495697 2163.5573493663073) rotate(0 -0.6048341286577852 75.31660057796876)"><path d="M-11.04 119.96 C-6.07 130.73, -2.55 141.31, -1.14 148.57 M-10.52 120.72 C-7.41 128.16, -3.74 137.61, -0.37 148.62" stroke="#000000" stroke-width="1" fill="none"></path></g><g transform="translate(171.37814039495697 2163.5573493663073) rotate(0 -0.6048341286577852 75.31660057796876)"><path d="M9.47 120.34 C7.53 130.9, 4.15 141.36, -1.14 148.57 M10 121.09 C7.26 128.48, 5.09 137.82, -0.37 148.62" stroke="#000000" stroke-width="1" fill="none"></path></g></g><mask></mask><g transform="translate(186.30327849163825 2227.0509353613356) rotate(0 38.5 11.5)"><text x="0" y="18" font-family="Helvetica, Segoe UI Emoji" font-size="20px" fill="#000000" text-anchor="start" style="white-space: pre;" direction="ltr">git clone</text></g><g transform="translate(328.44755412429436 2035.378263687926) rotate(0 38.5 11.5)"><text x="0" y="18" font-family="Helvetica, Segoe UI Emoji" font-size="20px" fill="#000000" text-anchor="start" style="white-space: pre;" direction="ltr">git clone</text></g></svg>