<svg version="1.1" xmlns="http://www.w3.org/2000/svg" viewBox="0 0 733 939.7393716725637" width="733" height="939.7393716725637" filter="invert(93%) hue-rotate(180deg)">
  <!-- svg-source:excalidraw -->
  
  <defs>
    <style class="style-fonts">
      @font-face {
        font-family: "Virgil";
        src: url("https://excalidraw.com/Virgil.woff2");
      }
      @font-face {
        font-family: "Cascadia";
        src: url("https://excalidraw.com/Cascadia.woff2");
      }
    </style>
  </defs>
  <rect x="0" y="0" width="733" height="939.7393716725637" fill="#ffffff"></rect><g stroke-linecap="round"><g transform="translate(409.6551200212082 11.580778086185546) rotate(0 -1.2734767414215185 60.6200339166337)"><path d="M0.32 -0.35 C-0.13 20.05, -2.65 100.96, -2.86 121.45 M-0.97 -1.58 C-1.03 19.08, -0.51 102.45, -0.54 122.82" stroke="#000000" stroke-width="1" fill="none"></path></g></g><mask></mask><g transform="translate(231.63502201621554 17.93228543656005) rotate(0 16.5 9)"><text x="0" y="14" font-family="Helvetica, Segoe UI Emoji" font-size="16px" fill="#000000" text-anchor="start" style="white-space: pre;" direction="ltr">map</text></g><g transform="translate(494.2146665735793 13.360979066235359) rotate(0 16 9)"><text x="0" y="14" font-family="Helvetica, Segoe UI Emoji" font-size="16px" fill="#000000" text-anchor="start" style="white-space: pre;" direction="ltr">filter</text></g><g transform="translate(169.50601867795774 52.64620454753367) rotate(0 102.99999999999994 27.5)"><text x="0" y="14.333333333333332" font-family="Helvetica, Segoe UI Emoji" font-size="16px" fill="#000000" text-anchor="start" style="white-space: pre;" direction="ltr">apply the cb fn to every</text><text x="0" y="32.666666666666664" font-family="Helvetica, Segoe UI Emoji" font-size="16px" fill="#000000" text-anchor="start" style="white-space: pre;" direction="ltr">element and result is pushed</text><text x="0" y="51" font-family="Helvetica, Segoe UI Emoji" font-size="16px" fill="#000000" text-anchor="start" style="white-space: pre;" direction="ltr">to new array</text></g><g transform="translate(429.4462254114826 56.94956684411591) rotate(0 103 27.5)"><text x="0" y="14.333333333333332" font-family="Helvetica, Segoe UI Emoji" font-size="16px" fill="#000000" text-anchor="start" style="white-space: pre;" direction="ltr">apply the cb fn to every</text><text x="0" y="32.666666666666664" font-family="Helvetica, Segoe UI Emoji" font-size="16px" fill="#000000" text-anchor="start" style="white-space: pre;" direction="ltr">element and result is pushed</text><text x="0" y="51" font-family="Helvetica, Segoe UI Emoji" font-size="16px" fill="#000000" text-anchor="start" style="white-space: pre;" direction="ltr">to new array if its truthy</text></g><g stroke-linecap="round" transform="translate(401.11017704793744 291.695399580673) rotate(0 82.60131460883201 17.08993348303602)"><path d="M8.54 0 M8.54 0 C60.97 -0.74, 109.43 -1.37, 156.66 0 M8.54 0 C62.85 -0.09, 115.98 -1.17, 156.66 0 M156.66 0 C163.81 -1.42, 164.78 1.73, 165.2 8.54 M156.66 0 C163.83 0.64, 164.41 4.46, 165.2 8.54 M165.2 8.54 C165.77 12.92, 163.45 16.83, 165.2 25.63 M165.2 8.54 C164.4 11.92, 164.83 15.93, 165.2 25.63 M165.2 25.63 C165.15 29.34, 161.58 32.36, 156.66 34.18 M165.2 25.63 C165.46 30.75, 160.87 32.21, 156.66 34.18 M156.66 34.18 C123.79 33.63, 95.1 32.34, 8.54 34.18 M156.66 34.18 C105.81 33.97, 55.93 34, 8.54 34.18 M8.54 34.18 C1.49 35.6, -0.13 29.44, 0 25.63 M8.54 34.18 C2.49 35.87, 0.44 33.57, 0 25.63 M0 25.63 C1.56 19, -1.54 13.3, 0 8.54 M0 25.63 C0.13 20.8, -0.21 15.85, 0 8.54 M0 8.54 C1.51 3.56, 1.81 -0.1, 8.54 0 M0 8.54 C-1.76 0.83, 0.84 2.13, 8.54 0" stroke="#000000" stroke-width="1" fill="none"></path></g><g transform="translate(424.78682835163227 304.9896934696135) rotate(0 32 9)"><text x="0" y="14" font-family="Helvetica, Segoe UI Emoji" font-size="16px" fill="#000000" text-anchor="start" style="white-space: pre;" direction="ltr">999, 2, 3</text></g><g transform="translate(423.71869689811797 336.6772763472445) rotate(0 23 9)"><text x="0" y="14" font-family="Helvetica, Segoe UI Emoji" font-size="16px" fill="#000000" text-anchor="start" style="white-space: pre;" direction="ltr">0x400</text></g><g stroke-linecap="round" transform="translate(429.62425637497336 490.39670346596495) rotate(0 82.60131460883201 17.08993348303602)"><path d="M8.54 0 M8.54 0 C58.56 -0.29, 113.28 1.86, 156.66 0 M8.54 0 C61.41 1.94, 113.96 0.64, 156.66 0 M156.66 0 C164.34 -0.92, 165.21 1.89, 165.2 8.54 M156.66 0 C164.24 -1.42, 163.88 5.03, 165.2 8.54 M165.2 8.54 C165.81 12.39, 163.64 17.04, 165.2 25.63 M165.2 8.54 C165.89 11.63, 165.96 15.64, 165.2 25.63 M165.2 25.63 C163.86 31.08, 163.85 35, 156.66 34.18 M165.2 25.63 C165.99 30.27, 162.11 33.57, 156.66 34.18 M156.66 34.18 C99.94 33.75, 43.35 34.08, 8.54 34.18 M156.66 34.18 C102.55 34.54, 47.24 34.23, 8.54 34.18 M8.54 34.18 C1.09 35.2, 1.62 31.4, 0 25.63 M8.54 34.18 C4.61 35.63, -1.48 29.34, 0 25.63 M0 25.63 C-0.55 21.16, -1.34 15.51, 0 8.54 M0 25.63 C0.48 20.97, -0.8 15.98, 0 8.54 M0 8.54 C1.26 4.05, 1.64 0.88, 8.54 0 M0 8.54 C-0.36 1.65, 4.46 -0.79, 8.54 0" stroke="#000000" stroke-width="1" fill="none"></path></g><g transform="translate(452.2327762251539 535.3785802325365) rotate(0 23 9)"><text x="0" y="14" font-family="Helvetica, Segoe UI Emoji" font-size="16px" fill="#000000" text-anchor="start" style="white-space: pre;" direction="ltr">0x400</text></g><g transform="translate(447.21737156574613 498.809075172549) rotate(0 73 9)"><text x="0" y="14" font-family="Helvetica, Segoe UI Emoji" font-size="16px" fill="#000000" text-anchor="start" style="white-space: pre;" direction="ltr">0x100, 0x200 0x300</text></g><g stroke-linecap="round" transform="translate(418.26179028695174 597.9517497691545) rotate(0 82.60131460883201 17.08993348303602)"><path d="M8.54 0 M8.54 0 C48.69 -3.2, 86.7 -2.52, 156.66 0 M8.54 0 C47.23 1.93, 83.85 2.03, 156.66 0 M156.66 0 C162.02 -0.81, 165.04 1.32, 165.2 8.54 M156.66 0 C164 -0.01, 163.82 5.05, 165.2 8.54 M165.2 8.54 C165.95 14.9, 166.24 19.9, 165.2 25.63 M165.2 8.54 C165.72 13.4, 164.85 16.43, 165.2 25.63 M165.2 25.63 C166.47 32.09, 162.41 32.22, 156.66 34.18 M165.2 25.63 C165.49 32.99, 161.5 33.82, 156.66 34.18 M156.66 34.18 C125.5 32.01, 94.41 32.79, 8.54 34.18 M156.66 34.18 C104.5 34.03, 49.69 33.8, 8.54 34.18 M8.54 34.18 C0.92 34.71, 0.86 33.15, 0 25.63 M8.54 34.18 C2.65 32.9, -1.31 29.68, 0 25.63 M0 25.63 C-0.83 18.41, 1.13 10.78, 0 8.54 M0 25.63 C-0.34 21, 0.28 16.28, 0 8.54 M0 8.54 C0.89 4.35, 1.44 -1.84, 8.54 0 M0 8.54 C2.09 1.94, 0.99 -0.99, 8.54 0" stroke="#000000" stroke-width="1" fill="none"></path></g><g transform="translate(440.87031013713226 642.933626535726) rotate(0 23 9)"><text x="0" y="14" font-family="Helvetica, Segoe UI Emoji" font-size="16px" fill="#000000" text-anchor="start" style="white-space: pre;" direction="ltr">0x800</text></g><g transform="translate(435.8549054777245 606.3641214757386) rotate(0 73 9)"><text x="0" y="14" font-family="Helvetica, Segoe UI Emoji" font-size="16px" fill="#000000" text-anchor="start" style="white-space: pre;" direction="ltr">0x100, 0x200 0x300</text></g><g stroke-linecap="round" transform="translate(409.03564143338167 690.5530643779866) rotate(0 82.60131460883201 17.08993348303602)"><path d="M8.54 0 M8.54 0 C45.59 -1.66, 85.45 0.93, 156.66 0 M8.54 0 C48.32 0.43, 87.45 -0.97, 156.66 0 M156.66 0 C163.73 1.65, 165.44 2.69, 165.2 8.54 M156.66 0 C160.16 -2.11, 164.29 2.11, 165.2 8.54 M165.2 8.54 C165.57 13.58, 166.13 17.17, 165.2 25.63 M165.2 8.54 C165.39 13.96, 165.05 20.14, 165.2 25.63 M165.2 25.63 C166.84 30.4, 163.22 34.8, 156.66 34.18 M165.2 25.63 C164.2 31.68, 164.6 34.41, 156.66 34.18 M156.66 34.18 C120.28 34.67, 82.72 32.55, 8.54 34.18 M156.66 34.18 C123.7 32.97, 89.72 33.8, 8.54 34.18 M8.54 34.18 C3.28 33.45, 0.35 31.31, 0 25.63 M8.54 34.18 C3.07 35.93, 0.17 30.05, 0 25.63 M0 25.63 C0.93 22.35, 0.12 18.31, 0 8.54 M0 25.63 C-0.7 19.63, 0.25 13.09, 0 8.54 M0 8.54 C0.3 3.29, 2.29 -0.22, 8.54 0 M0 8.54 C-2.26 1.13, 0.99 0.15, 8.54 0" stroke="#000000" stroke-width="1" fill="none"></path></g><g transform="translate(431.6441612835622 735.5349411445582) rotate(0 23 9)"><text x="0" y="14" font-family="Helvetica, Segoe UI Emoji" font-size="16px" fill="#000000" text-anchor="start" style="white-space: pre;" direction="ltr">0x800</text></g><g transform="translate(426.62875662415445 698.9654360845707) rotate(0 73 9)"><text x="0" y="14" font-family="Helvetica, Segoe UI Emoji" font-size="16px" fill="#000000" text-anchor="start" style="white-space: pre;" direction="ltr">0x123, 0x200 0x300</text></g><g transform="translate(30.1162493435952 183.40196109946146) rotate(0 55.5 9)"><text x="0" y="14" font-family="Helvetica, Segoe UI Emoji" font-size="16px" fill="#000000" text-anchor="start" style="white-space: pre;" direction="ltr">references in js</text></g><g transform="translate(160.42698281421872 322.7917032701125) rotate(0 11 9)"><text x="0" y="14" font-family="Helvetica, Segoe UI Emoji" font-size="16px" fill="#000000" text-anchor="start" style="white-space: pre;" direction="ltr">arr</text></g><g transform="translate(182.5323277475892 521.4930071554045) rotate(0 11 9)"><text x="0" y="14" font-family="Helvetica, Segoe UI Emoji" font-size="16px" fill="#000000" text-anchor="start" style="white-space: pre;" direction="ltr">arr</text></g><g stroke-linecap="round"><g transform="translate(196.74307194175253 331.57190425016233) rotate(0 106.27828080938957 8.830712513852632)"><path d="M-0.4 1.03 C34.88 3.5, 175.48 13.25, 210.67 15.87 M1.59 0.52 C37.34 3.67, 177.67 14.8, 212.96 17.14" stroke="#000000" stroke-width="1" fill="none"></path></g><g transform="translate(196.74307194175253 331.57190425016233) rotate(0 106.27828080938957 8.830712513852632)"><path d="M185.8 23.94 C189.4 22.45, 197.04 23.42, 214.02 16.85 M184.17 24.6 C194.96 23.13, 204.75 20.57, 212.81 17.83" stroke="#000000" stroke-width="1" fill="none"></path></g><g transform="translate(196.74307194175253 331.57190425016233) rotate(0 106.27828080938957 8.830712513852632)"><path d="M187.31 3.47 C190.76 6.39, 198.08 11.78, 214.02 16.85 M185.69 4.13 C195.86 10.09, 205.11 14.96, 212.81 17.83" stroke="#000000" stroke-width="1" fill="none"></path></g></g><mask></mask><g stroke-linecap="round"><g transform="translate(218.848416875123 530.2355003812963) rotate(0 108.95704475595659 8.154345504020966)"><path d="M0.54 0.71 C37.09 3.13, 182.38 12.6, 218.54 15.33 M-0.63 0.03 C35.88 2.48, 181.74 13.76, 217.94 16.27" stroke="#000000" stroke-width="1" fill="none"></path></g><g transform="translate(218.848416875123 530.2355003812963) rotate(0 108.95704475595659 8.154345504020966)"><path d="M190.25 25.51 C193.98 21.73, 203.81 18.54, 216.41 18.26 M189.89 23.82 C195.83 23.45, 202.82 20.54, 217.29 16.61" stroke="#000000" stroke-width="1" fill="none"></path></g><g transform="translate(218.848416875123 530.2355003812963) rotate(0 108.95704475595659 8.154345504020966)"><path d="M191.76 5.04 C195.27 6.14, 204.75 7.81, 216.41 18.26 M191.4 3.35 C196.95 8.18, 203.56 10.47, 217.29 16.61" stroke="#000000" stroke-width="1" fill="none"></path></g></g><mask></mask><g transform="translate(26.02180882044945 377.5328834066481) rotate(0 34 9)"><text x="0" y="14" font-family="Helvetica, Segoe UI Emoji" font-size="16px" fill="#000000" text-anchor="start" style="white-space: pre;" direction="ltr">arr2 = arr</text></g><g transform="translate(48.127153753819925 576.2341872919401) rotate(0 45 9)"><text x="0" y="14" font-family="Helvetica, Segoe UI Emoji" font-size="16px" fill="#000000" text-anchor="start" style="white-space: pre;" direction="ltr">arr2 = [...arr]</text></g><g transform="translate(170.21808820449314 419.36760643782145) rotate(0 15 9)"><text x="0" y="14" font-family="Helvetica, Segoe UI Emoji" font-size="16px" fill="#000000" text-anchor="start" style="white-space: pre;" direction="ltr">arr2</text></g><g transform="translate(192.32343313786362 618.0689103231134) rotate(0 15 9)"><text x="0" y="14" font-family="Helvetica, Segoe UI Emoji" font-size="16px" fill="#000000" text-anchor="start" style="white-space: pre;" direction="ltr">arr2</text></g><g stroke-linecap="round"><g transform="translate(180.36522835803555 405.00519467722233) rotate(0 -1.8325495825665143 -33.37904448183804)"><path d="M-0.11 -0.49 C-0.65 -11.21, -2.45 -53.54, -2.94 -64.37 M-1.62 -1.8 C-2.29 -12.87, -3.24 -55.82, -3.56 -66.27" stroke="#000000" stroke-width="1" fill="none"></path></g><g transform="translate(180.36522835803555 405.00519467722233) rotate(0 -1.8325495825665143 -33.37904448183804)"><path d="M6.62 -37.32 C4.6 -46.6, -0.78 -57.04, -4.19 -67.47 M8.18 -37.85 C3.04 -50, -0.52 -59.03, -3.27 -66.38" stroke="#000000" stroke-width="1" fill="none"></path></g><g transform="translate(180.36522835803555 405.00519467722233) rotate(0 -1.8325495825665143 -33.37904448183804)"><path d="M-13.89 -36.78 C-9.25 -46.22, -7.95 -56.84, -4.19 -67.47 M-12.33 -37.31 C-9.55 -49.74, -5.17 -58.98, -3.27 -66.38" stroke="#000000" stroke-width="1" fill="none"></path></g></g><mask></mask><g stroke-linecap="round"><g transform="translate(163.27531524778306 380.7944776467698) rotate(0 14.019235495629857 3.8464055886938695)"><path d="M0.27 0.07 C5.06 1.25, 24.53 6.09, 29.08 7.6 M-1.04 -0.94 C3.6 0.31, 23.27 7.3, 28.45 8.63" stroke="#000000" stroke-width="1" fill="none"></path></g></g><mask></mask><g stroke-linecap="round"><g transform="translate(189.62226802155283 375.0978127796411) rotate(0 -11.027465845957295 11.020429135498034)"><path d="M0.09 0.62 C-3.59 4.06, -17.81 17.56, -21.25 20.87 M-1.32 -0.1 C-5.23 3.48, -18.87 18.58, -22.15 22.14" stroke="#000000" stroke-width="1" fill="none"></path></g></g><mask></mask><g stroke-linecap="round"><g transform="translate(213.12094268918088 431.35222894212575) rotate(0 98.8448741115713 -37.57338952852706)"><path d="M-0.78 0.42 C31.77 -11.92, 163.07 -61.31, 196.07 -73.92 M1.01 -0.4 C33.9 -13.08, 165.84 -63.29, 198.47 -75.57" stroke="#000000" stroke-width="1" fill="none"></path></g><g transform="translate(213.12094268918088 431.35222894212575) rotate(0 98.8448741115713 -37.57338952852706)"><path d="M176.45 -56.97 C185.45 -61.96, 191.54 -69.46, 198.01 -76.49 M175.31 -56.55 C182.37 -62.31, 189.83 -68.73, 199.17 -75.01" stroke="#000000" stroke-width="1" fill="none"></path></g><g transform="translate(213.12094268918088 431.35222894212575) rotate(0 98.8448741115713 -37.57338952852706)"><path d="M169.18 -76.16 C180.83 -74.15, 189.56 -74.71, 198.01 -76.49 M168.04 -75.74 C177.64 -75.19, 187.51 -75.23, 199.17 -75.01" stroke="#000000" stroke-width="1" fill="none"></path></g></g><mask></mask><g stroke-linecap="round" transform="translate(489.40810219647574 423.91983009025216) rotate(0 17.089940273963748 14)"><path d="M7 0 M7 0 C10.92 0.11, 15.18 -1.29, 27.18 0 M7 0 C13.86 -0.57, 19.03 0.32, 27.18 0 M27.18 0 C33.74 -1.98, 35.24 1.5, 34.18 7 M27.18 0 C30 -0.17, 36.12 0.86, 34.18 7 M34.18 7 C33.56 9.74, 35.47 14.28, 34.18 21 M34.18 7 C34.59 10.05, 34.66 14.38, 34.18 21 M34.18 21 C34.35 24.97, 31.94 26.14, 27.18 28 M34.18 21 C36.1 27.46, 32.38 30.28, 27.18 28 M27.18 28 C23.77 29.1, 20.11 26.1, 7 28 M27.18 28 C19.21 28.75, 13.91 28.4, 7 28 M7 28 C2.65 26.87, 1.91 26.46, 0 21 M7 28 C1.9 30.15, 0.34 25.49, 0 21 M0 21 C0.09 14.77, -0.83 11.56, 0 7 M0 21 C-0.55 16.34, 0.26 11.23, 0 7 M0 7 C1.35 1.54, 4.08 0.22, 7 0 M0 7 C-0.48 4.2, 0.47 0.14, 7 0" stroke="#000000" stroke-width="1" fill="none"></path></g><g transform="translate(494.4980424704395 428.91983009025216) rotate(0 12 9)"><text x="12" y="14" font-family="Helvetica, Segoe UI Emoji" font-size="16px" fill="#000000" text-anchor="middle" style="white-space: pre;" direction="ltr">0,1</text></g><g stroke-linecap="round" transform="translate(548.5416601113382 423.9507209001995) rotate(0 17.089940273963748 14)"><path d="M7 0 M7 0 C12.41 -0.97, 15.43 -1.81, 27.18 0 M7 0 C14.88 -0.5, 22.29 0.01, 27.18 0 M27.18 0 C31.43 1.63, 32.56 2.45, 34.18 7 M27.18 0 C29.8 -0.48, 35.03 3.65, 34.18 7 M34.18 7 C33.89 10.75, 33.9 15.67, 34.18 21 M34.18 7 C34.43 9.33, 34.62 12.76, 34.18 21 M34.18 21 C35.42 27.26, 32.07 29.58, 27.18 28 M34.18 21 C32.74 24.89, 33.23 30.07, 27.18 28 M27.18 28 C19.34 26.98, 13.42 28.54, 7 28 M27.18 28 C21.06 27.46, 15.13 28.86, 7 28 M7 28 C4.29 26.11, -1.05 25.32, 0 21 M7 28 C1.56 27.94, -0.42 27.26, 0 21 M0 21 C-0.79 16.92, 0.9 14.11, 0 7 M0 21 C-0.41 16.4, 0.06 13.03, 0 7 M0 7 C0.12 3.13, 2.97 -1.88, 7 0 M0 7 C-0.55 0.69, 3.39 -0.54, 7 0" stroke="#000000" stroke-width="1" fill="none"></path></g><g transform="translate(553.6316003853019 428.9507209001995) rotate(0 12 9)"><text x="12" y="14" font-family="Helvetica, Segoe UI Emoji" font-size="16px" fill="#000000" text-anchor="middle" style="white-space: pre;" direction="ltr">2,3</text></g><g stroke-linecap="round" transform="translate(615.5080371455133 428.2540560330708) rotate(0 17.089940273963748 14)"><path d="M7 0 M7 0 C13.69 0.9, 20.61 -0.91, 27.18 0 M7 0 C15.62 -0.77, 22.68 -0.85, 27.18 0 M27.18 0 C31.43 0.74, 35.32 2.36, 34.18 7 M27.18 0 C30.96 -0.45, 33.79 1.56, 34.18 7 M34.18 7 C34.17 10.29, 34.72 13.96, 34.18 21 M34.18 7 C34.76 12.17, 34.75 16.75, 34.18 21 M34.18 21 C33.5 26.87, 33.65 28.73, 27.18 28 M34.18 21 C31.88 23.6, 30.65 27.03, 27.18 28 M27.18 28 C21.85 28.96, 15.21 26.72, 7 28 M27.18 28 C20.22 27.67, 14.99 27.86, 7 28 M7 28 C2.28 27.63, 1.39 25.19, 0 21 M7 28 C1.24 26.46, -1.41 25.32, 0 21 M0 21 C0.29 16.75, -0.83 9.89, 0 7 M0 21 C0.24 16.83, -0.69 12.05, 0 7 M0 7 C-1.43 3.26, 1.86 0.42, 7 0 M0 7 C-0.3 2.26, 1.61 0.76, 7 0" stroke="#000000" stroke-width="1" fill="none"></path></g><g transform="translate(620.597977419477 433.2540560330708) rotate(0 12 9)"><text x="12" y="14" font-family="Helvetica, Segoe UI Emoji" font-size="16px" fill="#000000" text-anchor="middle" style="white-space: pre;" direction="ltr">4,5</text></g><g transform="translate(482.9993678028113 456.08425165135077) rotate(0 23 9)"><text x="0" y="14" font-family="Helvetica, Segoe UI Emoji" font-size="16px" fill="#000000" text-anchor="start" style="white-space: pre;" direction="ltr">0x100</text></g><g transform="translate(549.2537296378734 456.8272119878334) rotate(0 23 9)"><text x="0" y="14" font-family="Helvetica, Segoe UI Emoji" font-size="16px" fill="#000000" text-anchor="start" style="white-space: pre;" direction="ltr">0x200</text></g><g transform="translate(614.083898092442 463.97890671797995) rotate(0 23 9)"><text x="0" y="14" font-family="Helvetica, Segoe UI Emoji" font-size="16px" fill="#000000" text-anchor="start" style="white-space: pre;" direction="ltr">0x300</text></g><g stroke-linecap="round"><g transform="translate(228.0746200561158 635.6314314651686) rotate(0 91.3518086409124 -7.235549405743541)"><path d="M0.27 -0.96 C30.74 -3.45, 153.11 -13.44, 183.74 -15.62 M-1.04 1.15 C29.25 -1.16, 152.36 -11.69, 183.18 -14.56" stroke="#000000" stroke-width="1" fill="none"></path></g><g transform="translate(228.0746200561158 635.6314314651686) rotate(0 91.3518086409124 -7.235549405743541)"><path d="M154.41 -0.62 C164.85 -4.91, 177.72 -12.08, 183.67 -14.86 M155.63 -2.35 C166.09 -6.6, 176.68 -12.26, 183.22 -14.46" stroke="#000000" stroke-width="1" fill="none"></path></g><g transform="translate(228.0746200561158 635.6314314651686) rotate(0 91.3518086409124 -7.235549405743541)"><path d="M152.6 -21.06 C163.61 -17.62, 177.17 -17.05, 183.67 -14.86 M153.82 -22.79 C164.89 -19.3, 176.17 -17.21, 183.22 -14.46" stroke="#000000" stroke-width="1" fill="none"></path></g></g><mask></mask><g transform="translate(676.8632436647636 668.0171294316183) rotate(0 12 9)"><text x="0" y="14" font-family="Helvetica, Segoe UI Emoji" font-size="16px" fill="#000000" text-anchor="start" style="white-space: pre;" direction="ltr">a,b</text></g><g stroke-linecap="round" transform="translate(673.8368802677096 664.5139545148086) rotate(0 14.95373169435743 12.46140686034937)"><path d="M6.23 0 M6.23 0 C12.38 0.38, 18.62 0.23, 23.68 0 M6.23 0 C9.05 0.01, 13.61 0.94, 23.68 0 M23.68 0 C26.89 -0.47, 27.97 3.96, 29.91 6.23 M23.68 0 C29.66 -1.47, 30.33 0.84, 29.91 6.23 M29.91 6.23 C30.34 9.78, 29.04 13.93, 29.91 18.69 M29.91 6.23 C29.78 9.88, 29.89 13.94, 29.91 18.69 M29.91 18.69 C28.51 24.79, 27.57 24.9, 23.68 24.92 M29.91 18.69 C30.35 22.47, 26.51 24.01, 23.68 24.92 M23.68 24.92 C17.71 24.39, 11.52 23.39, 6.23 24.92 M23.68 24.92 C18.14 25.59, 13.44 24.51, 6.23 24.92 M6.23 24.92 C1.25 26.4, -1.1 22.17, 0 18.69 M6.23 24.92 C2.74 26.67, -0.37 21.68, 0 18.69 M0 18.69 C0.12 13.82, 1 9.87, 0 6.23 M0 18.69 C-0.37 14.61, -0.03 9.52, 0 6.23 M0 6.23 C1.53 2.29, 0.29 -0.25, 6.23 0 M0 6.23 C2.2 3.98, 3.06 -1.11, 6.23 0" stroke="#000000" stroke-width="1" fill="none"></path></g><g transform="translate(668.4962773275599 698.8145846555126) rotate(0 23 9)"><text x="0" y="14" font-family="Helvetica, Segoe UI Emoji" font-size="16px" fill="#000000" text-anchor="start" style="white-space: pre;" direction="ltr">0x123</text></g><g transform="translate(162.74122235731454 702.019006179768) rotate(0 49 9)"><text x="0" y="14" font-family="Helvetica, Segoe UI Emoji" font-size="16px" fill="#000000" text-anchor="start" style="white-space: pre;" direction="ltr">arr2[0] = [a,b]</text></g><g stroke-linecap="round"><g transform="translate(270.0873740507785 715.9788409953662) rotate(0 64.26240375943883 -5.296686696511188)"><path d="M-0.96 -0.41 C20.2 -1.79, 105.67 -6.93, 127.26 -8.5 M0.74 -1.67 C22.24 -3.36, 108.27 -9, 129.49 -10.18" stroke="#000000" stroke-width="1" fill="none"></path></g><g transform="translate(270.0873740507785 715.9788409953662) rotate(0 64.26240375943883 -5.296686696511188)"><path d="M101.3 0.26 C112.31 -1.21, 119.01 -6.21, 128.62 -9.78 M102.44 1.17 C113.13 -2.57, 122.47 -7.39, 128.77 -9.96" stroke="#000000" stroke-width="1" fill="none"></path></g><g transform="translate(270.0873740507785 715.9788409953662) rotate(0 64.26240375943883 -5.296686696511188)"><path d="M100.03 -20.22 C111.41 -15.04, 118.53 -13.4, 128.62 -9.78 M101.18 -19.31 C112.49 -15.11, 122.32 -11.98, 128.77 -9.96" stroke="#000000" stroke-width="1" fill="none"></path></g></g><mask></mask><g transform="translate(10 855.7393716725637) rotate(0 356.5 37)"><text x="0" y="14.5" font-family="Helvetica, Segoe UI Emoji" font-size="16px" fill="#000000" text-anchor="start" style="white-space: pre;" direction="ltr">arrow fn binding depends on where its declared rather than how its invoked, unless wrapped within a</text><text x="0" y="33" font-family="Helvetica, Segoe UI Emoji" font-size="16px" fill="#000000" text-anchor="start" style="white-space: pre;" direction="ltr">method or function it will assume global scope.</text><text x="0" y="51.5" font-family="Helvetica, Segoe UI Emoji" font-size="16px" fill="#000000" text-anchor="start" style="white-space: pre;" direction="ltr"></text><text x="0" y="70" font-family="Helvetica, Segoe UI Emoji" font-size="16px" fill="#000000" text-anchor="start" style="white-space: pre;" direction="ltr"></text></g><g transform="translate(18.901004900249745 824.3633293991825) rotate(0 53 9)"><text x="0" y="14" font-family="Helvetica, Segoe UI Emoji" font-size="16px" fill="#000000" text-anchor="start" style="white-space: pre;" direction="ltr">Very Important</text></g></svg>