<svg version="1.1" xmlns="http://www.w3.org/2000/svg" viewBox="0 0 645.3386799339893 1074.115808278597" width="645.3386799339893" height="1074.115808278597" filter="invert(93%) hue-rotate(180deg)">
  <!-- svg-source:excalidraw -->
  
  <defs>
    <style class="style-fonts">
      @font-face {
        font-family: "Virgil";
        src: url("https://excalidraw.com/Virgil.woff2");
      }
      @font-face {
        font-family: "Cascadia";
        src: url("https://excalidraw.com/Cascadia.woff2");
      }
    </style>
  </defs>
  <rect x="0" y="0" width="645.3386799339893" height="1074.115808278597" fill="#ffffff"></rect><g transform="translate(243.33867993398928 10) rotate(0 196 162.5)"><text x="0" y="18.214285714285715" font-family="Helvetica, Segoe UI Emoji" font-size="20px" fill="#000000" text-anchor="start" style="white-space: pre;" direction="ltr">HTML - Hyper text markup language</text><text x="0" y="41.42857142857143" font-family="Helvetica, Segoe UI Emoji" font-size="20px" fill="#000000" text-anchor="start" style="white-space: pre;" direction="ltr"></text><text x="0" y="64.64285714285714" font-family="Helvetica, Segoe UI Emoji" font-size="20px" fill="#000000" text-anchor="start" style="white-space: pre;" direction="ltr"></text><text x="0" y="87.85714285714286" font-family="Helvetica, Segoe UI Emoji" font-size="20px" fill="#000000" text-anchor="start" style="white-space: pre;" direction="ltr">Tags - self-closing, normal</text><text x="0" y="111.07142857142858" font-family="Helvetica, Segoe UI Emoji" font-size="20px" fill="#000000" text-anchor="start" style="white-space: pre;" direction="ltr"></text><text x="0" y="134.28571428571428" font-family="Helvetica, Segoe UI Emoji" font-size="20px" fill="#000000" text-anchor="start" style="white-space: pre;" direction="ltr"> attributes - properties for modifying the tags</text><text x="0" y="157.5" font-family="Helvetica, Segoe UI Emoji" font-size="20px" fill="#000000" text-anchor="start" style="white-space: pre;" direction="ltr"></text><text x="0" y="180.71428571428572" font-family="Helvetica, Segoe UI Emoji" font-size="20px" fill="#000000" text-anchor="start" style="white-space: pre;" direction="ltr"></text><text x="0" y="203.92857142857144" font-family="Helvetica, Segoe UI Emoji" font-size="20px" fill="#000000" text-anchor="start" style="white-space: pre;" direction="ltr">&lt;html &gt;</text><text x="0" y="227.14285714285717" font-family="Helvetica, Segoe UI Emoji" font-size="20px" fill="#000000" text-anchor="start" style="white-space: pre;" direction="ltr">    </text><text x="0" y="250.35714285714286" font-family="Helvetica, Segoe UI Emoji" font-size="20px" fill="#000000" text-anchor="start" style="white-space: pre;" direction="ltr">&lt;/html&gt;</text><text x="0" y="273.57142857142856" font-family="Helvetica, Segoe UI Emoji" font-size="20px" fill="#000000" text-anchor="start" style="white-space: pre;" direction="ltr"></text><text x="0" y="296.7857142857143" font-family="Helvetica, Segoe UI Emoji" font-size="20px" fill="#000000" text-anchor="start" style="white-space: pre;" direction="ltr"></text><text x="0" y="320" font-family="Helvetica, Segoe UI Emoji" font-size="20px" fill="#000000" text-anchor="start" style="white-space: pre;" direction="ltr"></text></g><g transform="translate(71.07761843590697 419.15340254662624) rotate(0 144.5 11.5)"><text x="0" y="18" font-family="Helvetica, Segoe UI Emoji" font-size="20px" fill="#000000" text-anchor="start" style="white-space: pre;" direction="ltr">types of element - block or inline</text></g><g stroke-linecap="round" transform="translate(160.27311886115592 555.5501770481515) rotate(0 65.38637221339559 34.114620729463695)"><path d="M17.06 0 M17.06 0 C36.68 0.14, 54.07 2.09, 113.72 0 M17.06 0 C48.18 0.59, 77.44 -0.01, 113.72 0 M113.72 0 C126.36 0.52, 131.97 3.93, 130.77 17.06 M113.72 0 C125.74 -1.78, 128.87 7.41, 130.77 17.06 M130.77 17.06 C128.6 29.15, 132.55 37.42, 130.77 51.17 M130.77 17.06 C131.97 28.98, 131.46 41.72, 130.77 51.17 M130.77 51.17 C131 62.58, 123.66 68.63, 113.72 68.23 M130.77 51.17 C132.22 64.8, 124.2 70.21, 113.72 68.23 M113.72 68.23 C89.82 67.68, 64.42 67.41, 17.06 68.23 M113.72 68.23 C81.24 68.7, 48.98 68.89, 17.06 68.23 M17.06 68.23 C4.2 69.6, -0.45 60.69, 0 51.17 M17.06 68.23 C4.32 69.06, -0.62 60.81, 0 51.17 M0 51.17 C-1.47 40.35, 1.56 28.39, 0 17.06 M0 51.17 C-0.19 39.99, 1 26.66, 0 17.06 M0 17.06 C-1.13 4, 5.21 0.23, 17.06 0 M0 17.06 C0.04 5.31, 5.72 -2.07, 17.06 0" stroke="#000000" stroke-width="1" fill="none"></path></g><g stroke-linecap="round" transform="translate(172.35541482417443 572.607500968817) rotate(0 47.61833775931359 17.05732392066625)"><path d="M8.53 0 M8.53 0 C34.98 -1.58, 62.11 1.54, 86.71 0 M8.53 0 C39.87 -0.09, 68.5 -0.05, 86.71 0 M86.71 0 C92.98 -0.76, 97.05 1.13, 95.24 8.53 M86.71 0 C91.85 -1.81, 96.19 3.5, 95.24 8.53 M95.24 8.53 C95.17 13.35, 94.81 20.19, 95.24 25.59 M95.24 8.53 C95.26 11.59, 94.83 15.95, 95.24 25.59 M95.24 25.59 C96.51 32.69, 92.52 34.82, 86.71 34.11 M95.24 25.59 C94.96 30.83, 94.02 32.16, 86.71 34.11 M86.71 34.11 C60.02 35.66, 32.76 34.02, 8.53 34.11 M86.71 34.11 C69.09 33.66, 52.41 33.75, 8.53 34.11 M8.53 34.11 C1.73 35.85, 0.99 29.67, 0 25.59 M8.53 34.11 C1.18 36.39, -1.47 31.36, 0 25.59 M0 25.59 C-0.38 23.32, -0.09 18.69, 0 8.53 M0 25.59 C0.06 20.03, -0.68 13.47, 0 8.53 M0 8.53 C1.16 1.73, 3.45 -0.01, 8.53 0 M0 8.53 C2.09 1.46, 4.67 -1.6, 8.53 0" stroke="#000000" stroke-width="1" fill="none"></path></g><g transform="translate(186.56984238744008 579.0657126333645) rotate(0 34 11.5)"><text x="0" y="18" font-family="Helvetica, Segoe UI Emoji" font-size="20px" fill="#000000" text-anchor="start" style="white-space: pre;" direction="ltr">content</text></g><g transform="translate(163.82677997571022 519.5427972121897) rotate(0 24.5 11.5)"><text x="0" y="18" font-family="Helvetica, Segoe UI Emoji" font-size="20px" fill="#000000" text-anchor="start" style="white-space: pre;" direction="ltr">block</text></g><g stroke-linecap="round" transform="translate(340.79635975937686 574.7396325690643) rotate(0 44.420086135205 16.5)"><path d="M8.25 0 M8.25 0 C21.75 -0.88, 39.47 1.64, 80.59 0 M8.25 0 C27.5 0.35, 45.5 -0.15, 80.59 0 M80.59 0 C87.7 -0.04, 87.9 3.18, 88.84 8.25 M80.59 0 C85.28 1.69, 87.71 0.57, 88.84 8.25 M88.84 8.25 C90.2 12.15, 89.15 17.72, 88.84 24.75 M88.84 8.25 C88.78 13.21, 88.69 16.36, 88.84 24.75 M88.84 24.75 C90.27 30.82, 86.84 31.62, 80.59 33 M88.84 24.75 C89.24 30.04, 86.75 34.06, 80.59 33 M80.59 33 C56.18 31.32, 28.92 31.77, 8.25 33 M80.59 33 C59.2 33.4, 40.47 33.2, 8.25 33 M8.25 33 C1.28 34.16, 1.08 30.2, 0 24.75 M8.25 33 C3.08 33.82, -0.11 28.17, 0 24.75 M0 24.75 C0.71 22.92, 0.84 17.8, 0 8.25 M0 24.75 C0.32 19.19, -0.74 14.02, 0 8.25 M0 8.25 C1.22 1.85, 1.07 -1.8, 8.25 0 M0 8.25 C0.68 4.02, 1.52 0.89, 8.25 0" stroke="#000000" stroke-width="1" fill="none"></path></g><g transform="translate(362.71644589458185 579.7396325690643) rotate(0 22.5 11.5)"><text x="22.5" y="18" font-family="Helvetica, Segoe UI Emoji" font-size="20px" fill="#000000" text-anchor="middle" style="white-space: pre;" direction="ltr">span</text></g><g transform="translate(358.03137486933144 520.4311989348939) rotate(0 24.5 11.5)"><text x="0" y="18" font-family="Helvetica, Segoe UI Emoji" font-size="20px" fill="#000000" text-anchor="start" style="white-space: pre;" direction="ltr">inline</text></g><g transform="translate(222.99431301830816 522.6522032416547) rotate(0 21.5 11.5)"><text x="0" y="18" font-family="Helvetica, Segoe UI Emoji" font-size="20px" fill="#000000" text-anchor="start" style="white-space: pre;" direction="ltr">div,p</text></g><g transform="translate(421.10789718132264 520.8753997962467) rotate(0 44.50000000000006 11.5)"><text x="0" y="18" font-family="Helvetica, Segoe UI Emoji" font-size="20px" fill="#000000" text-anchor="start" style="white-space: pre;" direction="ltr">span, img</text></g><g stroke-linecap="round" transform="translate(10 732.2088921421023) rotate(0 198.29127535230282 165.9534580682473)"><path d="M32 0 M32 0 C115.51 0.82, 201.35 2.62, 364.58 0 M32 0 C109.11 -0.19, 187.6 0.23, 364.58 0 M364.58 0 C384.89 -1.05, 396.01 10.33, 396.58 32 M364.58 0 C387.85 1.57, 394.47 10.18, 396.58 32 M396.58 32 C396.8 127.15, 396.39 218.41, 396.58 299.91 M396.58 32 C397.01 129.23, 397.32 226.41, 396.58 299.91 M396.58 299.91 C396.48 322.71, 387.44 333.76, 364.58 331.91 M396.58 299.91 C395.82 320.48, 388.2 334, 364.58 331.91 M364.58 331.91 C287.55 333.88, 211.7 333.16, 32 331.91 M364.58 331.91 C277.11 332.9, 191.18 333.17, 32 331.91 M32 331.91 C12.39 331.92, -1.04 320.55, 0 299.91 M32 331.91 C8.94 330.67, 1.71 320, 0 299.91 M0 299.91 C1.13 244.62, -1.1 186.03, 0 32 M0 299.91 C-0.6 206.93, -0.03 115.95, 0 32 M0 32 C-1.75 11.83, 11.1 -0.69, 32 0 M0 32 C1.78 12.26, 10.02 -0.74, 32 0" stroke="#000000" stroke-width="1" fill="none"></path></g><g stroke-linecap="round" transform="translate(32.03237899018302 759.2163126458677) rotate(0 179.101779163586 20.255555210873126)"><path d="M10.13 0 M10.13 0 C100.82 0.49, 188.32 1.25, 348.08 0 M10.13 0 C85.11 -2.16, 161.28 -1.73, 348.08 0 M348.08 0 C356.02 -0.64, 356.27 4.19, 358.2 10.13 M348.08 0 C356.19 -2.01, 359.54 3.88, 358.2 10.13 M358.2 10.13 C357.8 14.86, 360.27 21.99, 358.2 30.38 M358.2 10.13 C359.13 16.6, 358.25 23.64, 358.2 30.38 M358.2 30.38 C358.3 35.34, 354.71 39.84, 348.08 40.51 M358.2 30.38 C357.86 35.51, 354.92 40.78, 348.08 40.51 M348.08 40.51 C256.01 41.52, 162.93 39.46, 10.13 40.51 M348.08 40.51 C269.38 38.64, 190.02 38.4, 10.13 40.51 M10.13 40.51 C3.08 41.66, -1.15 37.76, 0 30.38 M10.13 40.51 C2.77 40.39, -0.3 35.88, 0 30.38 M0 30.38 C0.87 25.76, -0.58 19.33, 0 10.13 M0 30.38 C-1.05 23.86, 0.59 15.18, 0 10.13 M0 10.13 C-0.33 2.46, 4.25 -0.24, 10.13 0 M0 10.13 C2.13 3.52, 1.3 0.12, 10.13 0" stroke="#000000" stroke-width="1" fill="none"></path></g><g stroke-linecap="round" transform="translate(26.39647613634827 1016.5473468243154) rotate(0 179.101779163586 20.255555210873126)"><path d="M10.13 0 M10.13 0 C100.36 -2.75, 189.74 -2.35, 348.08 0 M10.13 0 C91.55 -0.14, 173.37 -0.85, 348.08 0 M348.08 0 C353.91 0.74, 357 3.18, 358.2 10.13 M348.08 0 C353.97 0.26, 359.38 3.22, 358.2 10.13 M358.2 10.13 C360.08 17.38, 357.17 19.1, 358.2 30.38 M358.2 10.13 C358.88 16.35, 358.91 22.04, 358.2 30.38 M358.2 30.38 C359.21 39, 356.58 39.03, 348.08 40.51 M358.2 30.38 C358.58 38.76, 353.17 40.27, 348.08 40.51 M348.08 40.51 C219.69 40.01, 88.32 40.88, 10.13 40.51 M348.08 40.51 C254.92 40.95, 160.55 42.2, 10.13 40.51 M10.13 40.51 C4.11 38.54, 1.85 38.23, 0 30.38 M10.13 40.51 C4.11 39.83, 0.45 38.71, 0 30.38 M0 30.38 C-0.04 22.29, 0.96 17.5, 0 10.13 M0 30.38 C0.91 21.63, -0.45 14.55, 0 10.13 M0 10.13 C-0.95 3.71, 3.15 -1.65, 10.13 0 M0 10.13 C-0.56 1.09, 2.56 -1.6, 10.13 0" stroke="#000000" stroke-width="1" fill="none"></path></g><g transform="translate(151.25587390995202 764.0753713864906) rotate(0 58 23)"><text x="0" y="19" font-family="Helvetica, Segoe UI Emoji" font-size="20px" fill="#000000" text-anchor="start" style="white-space: pre;" direction="ltr">Header / nav</text><text x="0" y="42" font-family="Helvetica, Segoe UI Emoji" font-size="20px" fill="#000000" text-anchor="start" style="white-space: pre;" direction="ltr"></text></g><g transform="translate(114.83140327908382 1027.9306830296086) rotate(0 26.5 11.5)"><text x="0" y="18" font-family="Helvetica, Segoe UI Emoji" font-size="20px" fill="#000000" text-anchor="start" style="white-space: pre;" direction="ltr">footer</text></g><g stroke-linecap="round" transform="translate(105.23667551862718 815.3632988095796) rotate(0 140.01211692054005 92.3938062730956)"><path d="M32 0 M32 0 C77.1 0.43, 123.66 -1.3, 248.02 0 M32 0 C90.98 1.13, 151.34 1.5, 248.02 0 M248.02 0 C267.65 0.41, 279.73 9.5, 280.02 32 M248.02 0 C267.29 1.51, 279.23 10.91, 280.02 32 M280.02 32 C278.01 59.15, 279.77 83.79, 280.02 152.79 M280.02 32 C279.03 62.55, 279.53 93, 280.02 152.79 M280.02 152.79 C281.2 175.13, 269 183.37, 248.02 184.79 M280.02 152.79 C282.29 175.16, 270.02 183.41, 248.02 184.79 M248.02 184.79 C173.14 182.77, 99.86 183.75, 32 184.79 M248.02 184.79 C171.37 185.81, 94.24 186.05, 32 184.79 M32 184.79 C9.43 183.04, 0.42 172.62, 0 152.79 M32 184.79 C9.9 185.57, -1.64 172.23, 0 152.79 M0 152.79 C-0.36 106.46, -0.4 63.14, 0 32 M0 152.79 C-0.3 118.24, -0.07 85.76, 0 32 M0 32 C1.95 9.95, 10.78 0.91, 32 0 M0 32 C0.95 11.7, 12.45 -0.27, 32 0" stroke="#000000" stroke-width="1" fill="none"></path></g><g transform="translate(201.1840615706701 825.5527543304934) rotate(0 22.5 11.5)"><text x="0" y="18" font-family="Helvetica, Segoe UI Emoji" font-size="20px" fill="#000000" text-anchor="start" style="white-space: pre;" direction="ltr">Main</text></g><g stroke-linecap="round" transform="translate(27.057323920666363 830.9991745515458) rotate(0 29.4949344825892 78.17935159796093)"><path d="M14.75 0 M14.75 0 C22.68 2.16, 26.05 0.33, 44.24 0 M14.75 0 C25.72 -0.25, 34.74 -0.77, 44.24 0 M44.24 0 C53.97 1.9, 59.67 3.53, 58.99 14.75 M44.24 0 C53.29 1.85, 58.98 6.43, 58.99 14.75 M58.99 14.75 C57.47 48.81, 60.39 78.17, 58.99 141.61 M58.99 14.75 C58.93 56.11, 59.63 96.15, 58.99 141.61 M58.99 141.61 C58.57 151, 55.32 157.95, 44.24 156.36 M58.99 141.61 C57.17 151.4, 56.01 156.44, 44.24 156.36 M44.24 156.36 C34.48 156.59, 23.75 157.38, 14.75 156.36 M44.24 156.36 C34.88 156.82, 25.09 156.83, 14.75 156.36 M14.75 156.36 C5.35 155.41, 1.39 151.84, 0 141.61 M14.75 156.36 C5.67 154.2, -1.2 152.41, 0 141.61 M0 141.61 C2.06 103.7, 1.07 69.38, 0 14.75 M0 141.61 C-1.3 107.05, 0.37 71.49, 0 14.75 M0 14.75 C-1.89 5.95, 4.41 -0.66, 14.75 0 M0 14.75 C0.41 3.55, 4.14 -0.54, 14.75 0" stroke="#000000" stroke-width="1" fill="none"></path></g><g transform="translate(29.011791443493962 865.1754765854698) rotate(0 25 11.5)"><text x="0" y="18" font-family="Helvetica, Segoe UI Emoji" font-size="20px" fill="#000000" text-anchor="start" style="white-space: pre;" direction="ltr">aside</text></g><g stroke-linecap="round" transform="translate(140.06203389337554 863.6923471023092) rotate(0 59.34522423188628 47.61833775931359)"><path d="M23.81 0 M23.81 0 C38.42 -1.02, 50.87 -1.34, 94.88 0 M23.81 0 C48.35 -0.34, 75.62 -0.21, 94.88 0 M94.88 0 C108.92 -1.68, 119.16 7.79, 118.69 23.81 M94.88 0 C112.22 1.54, 120.63 5.81, 118.69 23.81 M118.69 23.81 C120.42 40.27, 119.47 58.94, 118.69 71.43 M118.69 23.81 C118.29 38.63, 117.88 52.63, 118.69 71.43 M118.69 71.43 C120.57 85.78, 109.27 95.73, 94.88 95.24 M118.69 71.43 C120.17 86.33, 108.98 95.31, 94.88 95.24 M94.88 95.24 C74.97 94.05, 50.42 95.73, 23.81 95.24 M94.88 95.24 C80.01 94.48, 64.72 94.95, 23.81 95.24 M23.81 95.24 C7.15 96.3, -0.4 88.72, 0 71.43 M23.81 95.24 C6.94 96.23, 1.13 86.69, 0 71.43 M0 71.43 C0.49 54.98, 0.07 37.7, 0 23.81 M0 71.43 C-1.02 54.4, 0.4 35.2, 0 23.81 M0 23.81 C0.5 7.61, 7.43 1.16, 23.81 0 M0 23.81 C1.48 8.7, 7.59 1.13, 23.81 0" stroke="#000000" stroke-width="1" fill="none"></path></g><g transform="translate(169.023908364034 879.5675953380241) rotate(0 32.5 11.5)"><text x="0" y="18" font-family="Helvetica, Segoe UI Emoji" font-size="20px" fill="#000000" text-anchor="start" style="white-space: pre;" direction="ltr">section</text></g><g stroke-linecap="round" transform="translate(164.2265715956746 914.1535541071544) rotate(0 36.24677944157975 16.5)"><path d="M8.25 0 M8.25 0 C27.58 -0.52, 43.4 0.18, 64.24 0 M8.25 0 C27.2 -0.39, 47.61 0.49, 64.24 0 M64.24 0 C70.93 1.57, 74.37 4.46, 72.49 8.25 M64.24 0 C69.32 1.85, 72.35 1.22, 72.49 8.25 M72.49 8.25 C73.58 11.68, 71.18 17.24, 72.49 24.75 M72.49 8.25 C72.58 12.85, 72.22 17.1, 72.49 24.75 M72.49 24.75 C71.03 28.51, 69.9 31.84, 64.24 33 M72.49 24.75 C74.65 28.23, 69.87 32.44, 64.24 33 M64.24 33 C47.16 34.96, 32.35 34.59, 8.25 33 M64.24 33 C51.29 33.32, 39.23 33.49, 8.25 33 M8.25 33 C3.02 33.5, -0.22 28.33, 0 24.75 M8.25 33 C3.27 31.19, 2.18 32.51, 0 24.75 M0 24.75 C0.19 17.27, 0.99 13.97, 0 8.25 M0 24.75 C0.54 18.61, 0.55 12.69, 0 8.25 M0 8.25 C0.02 4.42, 0.83 0.76, 8.25 0 M0 8.25 C-1.05 3.53, 0.59 -1.13, 8.25 0" stroke="#000000" stroke-width="1" fill="none"></path></g><g transform="translate(177.97335103725436 921.6535541071544) rotate(0 22.5 9)"><text x="22.5" y="14" font-family="Helvetica, Segoe UI Emoji" font-size="16px" fill="#000000" text-anchor="middle" style="white-space: pre;" direction="ltr">article</text></g></svg>