<svg version="1.1" xmlns="http://www.w3.org/2000/svg" viewBox="0 0 1314.620361328125 1315.7417057990656" width="1314.620361328125" height="1315.7417057990656" filter="invert(93%) hue-rotate(180deg)">
  <!-- svg-source:excalidraw -->
  
  <defs>
    <style class="style-fonts">
      @font-face {
        font-family: "Virgil";
        src: url("https://excalidraw.com/Virgil.woff2");
      }
      @font-face {
        font-family: "Cascadia";
        src: url("https://excalidraw.com/Cascadia.woff2");
      }
    </style>
  </defs>
  <rect x="0" y="0" width="1314.620361328125" height="1315.7417057990656" fill="#ffffff"></rect><g transform="translate(254.4000244140625 123.39173021312808) rotate(0 22.2412109375 11.5)"><text x="0" y="0" font-family="Helvetica, Segoe UI Emoji" font-size="20px" fill="#000000" text-anchor="start" style="white-space: pre;" direction="ltr" dominant-baseline="text-before-edge">data </text></g><g stroke-linecap="round"><g transform="translate(320.0000305175781 134.59172716137027) rotate(0 75.1187895566784 -0.06552211139592146)"><path d="M0.69 -0.76 C25.47 -0.93, 123.51 -1.42, 148.51 -1.59 M-0.4 1.46 C24.75 1.54, 125.5 0.28, 150.64 -0.05" stroke="#000000" stroke-width="1" fill="none"></path></g><g transform="translate(320.0000305175781 134.59172716137027) rotate(0 75.1187895566784 -0.06552211139592146)"><path d="M121.32 8.74 C130.67 9.16, 138.39 5.97, 149.32 -1.81 M121.82 10.28 C128.98 8.94, 134.47 6.11, 150.85 0.72" stroke="#000000" stroke-width="1" fill="none"></path></g><g transform="translate(320.0000305175781 134.59172716137027) rotate(0 75.1187895566784 -0.06552211139592146)"><path d="M121.06 -11.78 C130.39 -5.49, 138.18 -2.83, 149.32 -1.81 M121.56 -10.23 C128.92 -7.09, 134.47 -5.42, 150.85 0.72" stroke="#000000" stroke-width="1" fill="none"></path></g></g><mask></mask><g transform="translate(350.0000305175781 103.1917332648859) rotate(0 32.79296875 11.5)"><text x="0" y="0" font-family="Helvetica, Segoe UI Emoji" font-size="20px" fill="#000000" text-anchor="start" style="white-space: pre;" direction="ltr" dominant-baseline="text-before-edge">encrypt</text></g><g transform="translate(360.0000305175781 151.5917576789484) rotate(0 32.79296875 11.5)"><text x="0" y="0" font-family="Helvetica, Segoe UI Emoji" font-size="20px" fill="#000000" text-anchor="start" style="white-space: pre;" direction="ltr" dominant-baseline="text-before-edge">decrypt</text></g><g transform="translate(487.5999755859375 124.99173631664371) rotate(0 65.0390625 11.5)"><text x="0" y="0" font-family="Helvetica, Segoe UI Emoji" font-size="20px" fill="#000000" text-anchor="start" style="white-space: pre;" direction="ltr" dominant-baseline="text-before-edge">encryptedData</text></g><g stroke-linecap="round"><g transform="translate(471.20001220703125 151.39173021312808) rotate(0 -77.61707490507513 -0.48386371098445125)"><path d="M-0.33 0.81 C-26.35 0.37, -130.42 -1.35, -156.54 -1.77 M1.7 0.19 C-24.35 -0.14, -130.39 -0.22, -156.93 -0.33" stroke="#000000" stroke-width="1" fill="none"></path></g><g transform="translate(471.20001220703125 151.39173021312808) rotate(0 -77.61707490507513 -0.48386371098445125)"><path d="M-127.37 -8.75 C-136.42 -7.02, -143.83 -6.14, -157.84 0.58 M-128.66 -9.71 C-140.32 -7.2, -151.14 -2.1, -157.46 -0.21" stroke="#000000" stroke-width="1" fill="none"></path></g><g transform="translate(471.20001220703125 151.39173021312808) rotate(0 -77.61707490507513 -0.48386371098445125)"><path d="M-127.42 11.77 C-136.61 8.06, -144 3.49, -157.84 0.58 M-128.71 10.81 C-140.16 5.44, -150.96 2.65, -157.46 -0.21" stroke="#000000" stroke-width="1" fill="none"></path></g></g><mask></mask><g transform="translate(374.1500244140625 56.24172105785465) rotate(0 47.24609375 11.5)"><text x="0" y="0" font-family="Helvetica, Segoe UI Emoji" font-size="20px" fill="#000000" text-anchor="start" style="white-space: pre;" direction="ltr" dominant-baseline="text-before-edge">Encryption</text></g><g stroke-linecap="round" transform="translate(210.95004272460938 20.041739368401522) rotate(0 225.59999084472656 104.79999542236328)"><path d="M32 0 M32 0 C122.12 1.72, 212.67 -0.05, 419.2 0 M32 0 C171.82 2.39, 311.31 2.77, 419.2 0 M419.2 0 C441.09 1.9, 450.29 10.96, 451.2 32 M419.2 0 C440.84 -1.42, 453.02 12.95, 451.2 32 M451.2 32 C449.42 70.25, 452.38 111.78, 451.2 177.6 M451.2 32 C452.4 77.71, 451.77 124.07, 451.2 177.6 M451.2 177.6 C451.01 197.01, 438.75 211.33, 419.2 209.6 M451.2 177.6 C450.92 197.19, 442.83 207.83, 419.2 209.6 M419.2 209.6 C322.83 208.28, 227.86 208.32, 32 209.6 M419.2 209.6 C334.47 210.56, 249.4 211.33, 32 209.6 M32 209.6 C10.66 209.31, 1.22 200.5, 0 177.6 M32 209.6 C10.67 211.26, -0.22 196.78, 0 177.6 M0 177.6 C-1.55 136.05, -1.19 89.17, 0 32 M0 177.6 C0.64 134.21, 0.72 90.54, 0 32 M0 32 C-0.63 12.32, 12.07 -1.14, 32 0 M0 32 C-0.8 10.67, 8.65 1.9, 32 0" stroke="#000000" stroke-width="1" fill="none"></path></g><g transform="translate(729.2000122070312 125.39173021312808) rotate(0 22.2412109375 11.5)"><text x="0" y="0" font-family="Helvetica, Segoe UI Emoji" font-size="20px" fill="#000000" text-anchor="start" style="white-space: pre;" direction="ltr" dominant-baseline="text-before-edge">data </text></g><g stroke-linecap="round"><g transform="translate(794.8000183105469 136.59172716137027) rotate(0 74.3451483597513 -1.2945290760849275)"><path d="M0.61 -0.37 C25.4 -0.47, 124.25 -0.29, 149.22 -0.61 M-0.53 -1.61 C24.02 -2.03, 122.96 -2.26, 148.07 -2.21" stroke="#000000" stroke-width="1" fill="none"></path></g><g transform="translate(794.8000183105469 136.59172716137027) rotate(0 74.3451483597513 -1.2945290760849275)"><path d="M119.27 7.44 C131.18 5.81, 138.04 0.2, 148.07 -3.97 M120.27 8.56 C130.87 3.06, 141.44 0.99, 147.25 -1.69" stroke="#000000" stroke-width="1" fill="none"></path></g><g transform="translate(794.8000183105469 136.59172716137027) rotate(0 74.3451483597513 -1.2945290760849275)"><path d="M119.25 -13.08 C131.17 -7.69, 138.03 -6.29, 148.07 -3.97 M120.26 -11.96 C130.93 -9.61, 141.51 -3.83, 147.25 -1.69" stroke="#000000" stroke-width="1" fill="none"></path></g></g><mask></mask><g transform="translate(824.8000183105469 105.1917332648859) rotate(0 21.6845703125 11.5)"><text x="0" y="0" font-family="Helvetica, Segoe UI Emoji" font-size="20px" fill="#000000" text-anchor="start" style="white-space: pre;" direction="ltr" dominant-baseline="text-before-edge">hash</text></g><g transform="translate(962.3999633789062 126.99173631664371) rotate(0 53.9306640625 11.5)"><text x="0" y="0" font-family="Helvetica, Segoe UI Emoji" font-size="20px" fill="#000000" text-anchor="start" style="white-space: pre;" direction="ltr" dominant-baseline="text-before-edge">hashedData</text></g><g stroke-linecap="round"><g transform="translate(946 153.39173021312808) rotate(0 -79.17364364602611 -0.012185646952730167)"><path d="M0.84 -0.68 C-25.43 -1.11, -131.44 -1.61, -158.02 -1.6 M-0.18 1.58 C-26.61 1.26, -133.16 0.61, -159.19 -0.06" stroke="#000000" stroke-width="1" fill="none"></path></g><g transform="translate(946 153.39173021312808) rotate(0 -79.17364364602611 -0.012185646952730167)"><path d="M-131.99 -10.61 C-138.37 -8.83, -144.33 -3.73, -158.5 0.71 M-130.82 -9.03 C-141.54 -6.23, -151.09 -4.04, -159.72 -0.39" stroke="#000000" stroke-width="1" fill="none"></path></g><g transform="translate(946 153.39173021312808) rotate(0 -79.17364364602611 -0.012185646952730167)"><path d="M-132.28 9.91 C-138.76 6.18, -144.64 5.78, -158.5 0.71 M-131.12 11.48 C-141.78 7.13, -151.23 2.16, -159.72 -0.39" stroke="#000000" stroke-width="1" fill="none"></path></g></g><mask></mask><g transform="translate(848.9500122070312 58.24172105785465) rotate(0 36.689453125 11.5)"><text x="0" y="0" font-family="Helvetica, Segoe UI Emoji" font-size="20px" fill="#000000" text-anchor="start" style="white-space: pre;" direction="ltr" dominant-baseline="text-before-edge">Hashing</text></g><g stroke-linecap="round" transform="translate(685.7500305175781 22.041739368401522) rotate(0 225.59999084472656 104.79999542236328)"><path d="M32 0 M32 0 C175.27 -0.24, 319.52 1.21, 419.2 0 M32 0 C161.64 -1.69, 291.01 -0.6, 419.2 0 M419.2 0 C438.88 1.05, 450.22 9.22, 451.2 32 M419.2 0 C439.3 -0.76, 449.38 12.47, 451.2 32 M451.2 32 C450.77 86.38, 451.69 142.03, 451.2 177.6 M451.2 32 C452.47 85.6, 453 140.77, 451.2 177.6 M451.2 177.6 C451.31 199.14, 442.52 208.96, 419.2 209.6 M451.2 177.6 C453.06 198.44, 438.66 210.2, 419.2 209.6 M419.2 209.6 C324.66 211.83, 230.94 212.04, 32 209.6 M419.2 209.6 C280.97 208.06, 143.9 207.32, 32 209.6 M32 209.6 C12.63 210.21, 1.91 198.96, 0 177.6 M32 209.6 C8.81 210.59, 1.83 200.66, 0 177.6 M0 177.6 C1.54 145.19, 0.48 113.54, 0 32 M0 177.6 C0.68 147.11, 0.68 115.06, 0 32 M0 32 C0.53 11.93, 12.58 -0.67, 32 0 M0 32 C-1.38 11.62, 8.38 -2.26, 32 0" stroke="#000000" stroke-width="1" fill="none"></path></g><g stroke-linecap="round"><g transform="translate(845.9500732421875 135.24170579906558) rotate(0 21.347639688616596 24.75830813922903)"><path d="M0.72 -1.14 C7.79 7.31, 36.25 41.01, 43.06 49.56 M-0.36 0.88 C6.55 9.56, 35.06 42.25, 42.46 50.65" stroke="#000000" stroke-width="1" fill="none"></path></g></g><mask></mask><g stroke-linecap="round"><g transform="translate(671.2000122070312 9.99173631664371) rotate(0 0.7109198246760116 360.61033410970117)"><path d="M-0.31 0.69 C-0.32 120.87, 0.51 600, 0.59 720.06 M1.73 0.01 C1.55 120.42, 0.32 600.8, -0.04 721.21" stroke="#000000" stroke-width="1" fill="none"></path></g></g><mask></mask><g transform="translate(254.4000244140625 260.3917302131281) rotate(0 82.28515625 23)"><text x="0" y="0" font-family="Helvetica, Segoe UI Emoji" font-size="20px" fill="#000000" text-anchor="start" style="white-space: pre;" direction="ltr" dominant-baseline="text-before-edge">base64 - encoding</text><text x="0" y="23" font-family="Helvetica, Segoe UI Emoji" font-size="20px" fill="#000000" text-anchor="start" style="white-space: pre;" direction="ltr" dominant-baseline="text-before-edge">custom encryption</text></g><g transform="translate(694.4000244140625 269.3917302131281) rotate(0 40.576171875 23)"><text x="0" y="0" font-family="Helvetica, Segoe UI Emoji" font-size="20px" fill="#000000" text-anchor="start" style="white-space: pre;" direction="ltr" dominant-baseline="text-before-edge">MD-5 </text><text x="0" y="23" font-family="Helvetica, Segoe UI Emoji" font-size="20px" fill="#000000" text-anchor="start" style="white-space: pre;" direction="ltr" dominant-baseline="text-before-edge">SHA-256</text></g><g transform="translate(696.0000610351562 333.79172410961246) rotate(0 197.87109375 46)"><text x="0" y="0" font-family="Helvetica, Segoe UI Emoji" font-size="20px" fill="#000000" text-anchor="start" style="white-space: pre;" direction="ltr" dominant-baseline="text-before-edge">passwords are always stored in hashed form</text><text x="0" y="23" font-family="Helvetica, Segoe UI Emoji" font-size="20px" fill="#000000" text-anchor="start" style="white-space: pre;" direction="ltr" dominant-baseline="text-before-edge"></text><text x="0" y="46" font-family="Helvetica, Segoe UI Emoji" font-size="20px" fill="#000000" text-anchor="start" style="white-space: pre;" direction="ltr" dominant-baseline="text-before-edge">data + salt</text><text x="0" y="69" font-family="Helvetica, Segoe UI Emoji" font-size="20px" fill="#000000" text-anchor="start" style="white-space: pre;" direction="ltr" dominant-baseline="text-before-edge">        (random data)</text></g><g stroke-linecap="round"><g transform="translate(811.2000122070312 397.99176683422183) rotate(0 38.52837053621181 0.7714753512293555)"><path d="M0.85 -1.07 C13.91 -0.65, 64.6 2.28, 77.21 2.61 M-0.16 0.99 C12.88 1.07, 63.85 0.87, 76.48 1.02" stroke="#000000" stroke-width="1" fill="none"></path></g><g transform="translate(811.2000122070312 397.99176683422183) rotate(0 38.52837053621181 0.7714753512293555)"><path d="M46.48 11.88 C55.7 8.48, 58.65 5.57, 76.48 1.54 M48.15 11.47 C56.26 8.83, 64.54 5.66, 77.41 0.35" stroke="#000000" stroke-width="1" fill="none"></path></g><g transform="translate(811.2000122070312 397.99176683422183) rotate(0 38.52837053621181 0.7714753512293555)"><path d="M46.54 -8.64 C55.77 -7.85, 58.71 -6.57, 76.48 1.54 M48.21 -9.05 C56.26 -6.05, 64.53 -3.57, 77.41 0.35" stroke="#000000" stroke-width="1" fill="none"></path></g></g><mask></mask><g transform="translate(901.5999755859375 384.39179124828433) rotate(0 47.8076171875 11.5)"><text x="0" y="0" font-family="Helvetica, Segoe UI Emoji" font-size="20px" fill="#000000" text-anchor="start" style="white-space: pre;" direction="ltr" dominant-baseline="text-before-edge">saltedData</text></g><g stroke-linecap="round"><g transform="translate(1008.050048828125 397.19171800609683) rotate(0 63.67473900521179 -0.6018871529165608)"><path d="M0.56 -1.11 C21.92 -1.61, 106.66 -2.22, 127.96 -2.11 M-0.61 0.92 C20.67 0.5, 105.94 -0.33, 127.41 -0.84" stroke="#000000" stroke-width="1" fill="none"></path></g><g transform="translate(1008.050048828125 397.19171800609683) rotate(0 63.67473900521179 -0.6018871529165608)"><path d="M97.53 11.13 C106.43 8.62, 117.21 3.3, 126.88 -1.53 M98.84 9.55 C105.26 7.8, 111.16 4.76, 127.29 -1.28" stroke="#000000" stroke-width="1" fill="none"></path></g><g transform="translate(1008.050048828125 397.19171800609683) rotate(0 63.67473900521179 -0.6018871529165608)"><path d="M97.21 -9.39 C106.35 -6.06, 117.21 -5.55, 126.88 -1.53 M98.51 -10.97 C105.07 -8.26, 111.04 -6.84, 127.29 -1.28" stroke="#000000" stroke-width="1" fill="none"></path></g></g><mask></mask><g transform="translate(1030.4500732421875 365.99176683422183) rotate(0 21.6845703125 11.5)"><text x="0" y="0" font-family="Helvetica, Segoe UI Emoji" font-size="20px" fill="#000000" text-anchor="start" style="white-space: pre;" direction="ltr" dominant-baseline="text-before-edge">hash</text></g><g transform="translate(1140.050048828125 383.59174242015933) rotate(0 82.28515625 11.5)"><text x="0" y="0" font-family="Helvetica, Segoe UI Emoji" font-size="20px" fill="#000000" text-anchor="start" style="white-space: pre;" direction="ltr" dominant-baseline="text-before-edge">hashedSaltedData</text></g><g transform="translate(701.449951171875 437.79172410961246) rotate(0 63.642578125 11.5)"><text x="0" y="0" font-family="Helvetica, Segoe UI Emoji" font-size="20px" fill="#000000" text-anchor="start" style="white-space: pre;" direction="ltr" dominant-baseline="text-before-edge">qwerty123   -&gt;</text></g><g transform="translate(851.6499633789062 434.79172410961246) rotate(0 165.1513671875 11.5)"><text x="0" y="0" font-family="Helvetica, Segoe UI Emoji" font-size="20px" fill="#000000" text-anchor="start" style="white-space: pre;" direction="ltr" dominant-baseline="text-before-edge">3fc0a7acf087f549ac2b266baf94b8b1</text></g><g transform="translate(1195.2499389648438 435.1916874885187) rotate(0 45.576171875 11.5)"><text x="0" y="0" font-family="Helvetica, Segoe UI Emoji" font-size="20px" fill="#000000" text-anchor="start" style="white-space: pre;" direction="ltr" dominant-baseline="text-before-edge">md5 Hash</text></g><g transform="translate(708.6500244140625 470.7917393684015) rotate(0 262.646484375 149.5)"><text x="0" y="0" font-family="Helvetica, Segoe UI Emoji" font-size="20px" fill="#000000" text-anchor="start" style="white-space: pre;" direction="ltr" dominant-baseline="text-before-edge">to perform integrity check</text><text x="0" y="23" font-family="Helvetica, Segoe UI Emoji" font-size="20px" fill="#000000" text-anchor="start" style="white-space: pre;" direction="ltr" dominant-baseline="text-before-edge">checksum - </text><text x="0" y="46" font-family="Helvetica, Segoe UI Emoji" font-size="20px" fill="#000000" text-anchor="start" style="white-space: pre;" direction="ltr" dominant-baseline="text-before-edge"></text><text x="0" y="69" font-family="Helvetica, Segoe UI Emoji" font-size="20px" fill="#000000" text-anchor="start" style="white-space: pre;" direction="ltr" dominant-baseline="text-before-edge">luhn checksum for credit card number validation</text><text x="0" y="92" font-family="Helvetica, Segoe UI Emoji" font-size="20px" fill="#000000" text-anchor="start" style="white-space: pre;" direction="ltr" dominant-baseline="text-before-edge"></text><text x="0" y="115" font-family="Helvetica, Segoe UI Emoji" font-size="20px" fill="#000000" text-anchor="start" style="white-space: pre;" direction="ltr" dominant-baseline="text-before-edge">fot 15 digits only</text><text x="0" y="138" font-family="Helvetica, Segoe UI Emoji" font-size="20px" fill="#000000" text-anchor="start" style="white-space: pre;" direction="ltr" dominant-baseline="text-before-edge">for every odd place number-&gt; multiply by 2 and mod 9</text><text x="0" y="161" font-family="Helvetica, Segoe UI Emoji" font-size="20px" fill="#000000" text-anchor="start" style="white-space: pre;" direction="ltr" dominant-baseline="text-before-edge">even places -&gt; leave as it is</text><text x="0" y="184" font-family="Helvetica, Segoe UI Emoji" font-size="20px" fill="#000000" text-anchor="start" style="white-space: pre;" direction="ltr" dominant-baseline="text-before-edge">checksum =  add all the numbers got and take sum mod 10</text><text x="0" y="207" font-family="Helvetica, Segoe UI Emoji" font-size="20px" fill="#000000" text-anchor="start" style="white-space: pre;" direction="ltr" dominant-baseline="text-before-edge">checksum === 16th digit</text><text x="0" y="230" font-family="Helvetica, Segoe UI Emoji" font-size="20px" fill="#000000" text-anchor="start" style="white-space: pre;" direction="ltr" dominant-baseline="text-before-edge"></text><text x="0" y="253" font-family="Helvetica, Segoe UI Emoji" font-size="20px" fill="#000000" text-anchor="start" style="white-space: pre;" direction="ltr" dominant-baseline="text-before-edge"></text><text x="0" y="276" font-family="Helvetica, Segoe UI Emoji" font-size="20px" fill="#000000" text-anchor="start" style="white-space: pre;" direction="ltr" dominant-baseline="text-before-edge"></text></g><g transform="translate(224.6500244140625 335.1417302131281) rotate(0 211.767578125 23)"><text x="0" y="0" font-family="Helvetica, Segoe UI Emoji" font-size="20px" fill="#000000" text-anchor="start" style="white-space: pre;" direction="ltr" dominant-baseline="text-before-edge">userData stored in form of local/session storage</text><text x="0" y="23" font-family="Helvetica, Segoe UI Emoji" font-size="20px" fill="#000000" text-anchor="start" style="white-space: pre;" direction="ltr" dominant-baseline="text-before-edge">cookies</text></g><g transform="translate(224.1500244140625 400.8917302131281) rotate(0 104.4677734375 11.5)"><text x="0" y="0" font-family="Helvetica, Segoe UI Emoji" font-size="20px" fill="#000000" text-anchor="start" style="white-space: pre;" direction="ltr" dominant-baseline="text-before-edge">JSON web token - JWT</text></g><g transform="translate(227.95001220703125 452.1417302131281) rotate(0 158.9599609375 23)"><text x="0" y="0" font-family="Helvetica, Segoe UI Emoji" font-size="20px" fill="#000000" text-anchor="start" style="white-space: pre;" direction="ltr" dominant-baseline="text-before-edge">JWT used for Session management</text><text x="0" y="23" font-family="Helvetica, Segoe UI Emoji" font-size="20px" fill="#000000" text-anchor="start" style="white-space: pre;" direction="ltr" dominant-baseline="text-before-edge"></text></g><g transform="translate(229.3499755859375 514.4417408942804) rotate(0 45.0146484375 11.5)"><text x="0" y="0" font-family="Helvetica, Segoe UI Emoji" font-size="20px" fill="#000000" text-anchor="start" style="white-space: pre;" direction="ltr" dominant-baseline="text-before-edge">UserData </text></g><g stroke-linecap="round"><g transform="translate(328.14996337890625 525.2417592048273) rotate(0 106.27773308753967 -1.4326307606045248)"><path d="M-0.56 -1.07 C34.83 -1.64, 177.6 -1.71, 213.12 -2.23 M1.35 0.98 C36.55 0.6, 177.28 -3.11, 212.33 -3.84" stroke="#000000" stroke-width="1" fill="none"></path></g><g transform="translate(328.14996337890625 525.2417592048273) rotate(0 106.27773308753967 -1.4326307606045248)"><path d="M182.6 7.61 C196.04 2.83, 202.86 -0.8, 213.06 -4.88 M184.29 7.22 C192.72 3.53, 200.15 0.6, 212.47 -4.49" stroke="#000000" stroke-width="1" fill="none"></path></g><g transform="translate(328.14996337890625 525.2417592048273) rotate(0 106.27773308753967 -1.4326307606045248)"><path d="M182.11 -12.9 C195.92 -10.25, 202.92 -6.44, 213.06 -4.88 M183.8 -13.29 C192.36 -11.31, 199.92 -8.58, 212.47 -4.49" stroke="#000000" stroke-width="1" fill="none"></path></g></g><mask></mask><g transform="translate(561.1499633789062 508.2417286872492) rotate(0 20.546875 11.5)"><text x="0" y="0" font-family="Helvetica, Segoe UI Emoji" font-size="20px" fill="#000000" text-anchor="start" style="white-space: pre;" direction="ltr" dominant-baseline="text-before-edge">JWT</text></g><g transform="translate(340.3499755859375 500.44174089428043) rotate(0 76.1767578125 11.5)"><text x="0" y="0" font-family="Helvetica, Segoe UI Emoji" font-size="20px" fill="#000000" text-anchor="start" style="white-space: pre;" direction="ltr" dominant-baseline="text-before-edge">base64 encoding</text></g><g stroke-linecap="round"><g transform="translate(560.1499633789062 545.2417592048273) rotate(0 -119.3779428958893 3.6709082454024156)"><path d="M0.82 0.61 C-39.21 1.75, -199.62 6.27, -239.57 7.46 M-0.21 -0.12 C-39.94 0.59, -197.53 4.5, -237.48 5.48" stroke="#000000" stroke-width="1" fill="none"></path></g><g transform="translate(560.1499633789062 545.2417592048273) rotate(0 -119.3779428958893 3.6709082454024156)"><path d="M-208.53 -7.42 C-218.78 -2.26, -227.98 1.61, -239.45 4.38 M-210.1 -4.89 C-219.1 -0.77, -227.75 1.32, -237.43 6.08" stroke="#000000" stroke-width="1" fill="none"></path></g><g transform="translate(560.1499633789062 545.2417592048273) rotate(0 -119.3779428958893 3.6709082454024156)"><path d="M-208.03 13.09 C-218.55 11.11, -227.93 7.84, -239.45 4.38 M-209.6 15.63 C-218.87 12.75, -227.7 7.83, -237.43 6.08" stroke="#000000" stroke-width="1" fill="none"></path></g></g><mask></mask><g transform="translate(362.3499755859375 567.4417408942804) rotate(0 90.0537109375 11.5)"><text x="0" y="0" font-family="Helvetica, Segoe UI Emoji" font-size="20px" fill="#000000" text-anchor="start" style="white-space: pre;" direction="ltr" dominant-baseline="text-before-edge">decode (valid token)</text></g><g transform="translate(216.1500244140625 644.8917302131281) rotate(0 118.955078125 11.5)"><text x="0" y="0" font-family="Helvetica, Segoe UI Emoji" font-size="20px" fill="#000000" text-anchor="start" style="white-space: pre;" direction="ltr" dominant-baseline="text-before-edge">For authorisation purposes</text></g><g stroke-linecap="round" transform="translate(379.75 1060.9417180060968) rotate(0 131.60000610351562 122.39999389648438)"><path d="M32 0 M32 0 C104.35 -2.2, 176.01 -1.03, 231.2 0 M32 0 C85.28 -0.33, 139.44 -0.29, 231.2 0 M231.2 0 C253.36 0.51, 261.76 12.61, 263.2 32 M231.2 0 C253.22 0.38, 263.05 9.34, 263.2 32 M263.2 32 C262.43 78.86, 262.91 125.56, 263.2 212.8 M263.2 32 C261.39 89.91, 262.12 149.46, 263.2 212.8 M263.2 212.8 C265 233.72, 252.1 246.38, 231.2 244.8 M263.2 212.8 C263.51 233.26, 252.68 245.39, 231.2 244.8 M231.2 244.8 C161.71 242.32, 89.54 243.69, 32 244.8 M231.2 244.8 C181.92 244.46, 131.48 245.22, 32 244.8 M32 244.8 C11.65 243.28, -1.34 234.4, 0 212.8 M32 244.8 C12.59 245.62, 1.7 234.69, 0 212.8 M0 212.8 C1.33 163.48, 1.67 116.24, 0 32 M0 212.8 C-0.33 146.86, 0.07 83.17, 0 32 M0 32 C-0.66 9.28, 8.72 -1.81, 32 0 M0 32 C0.3 10.26, 11.42 0.48, 32 0" stroke="#000000" stroke-width="1" fill="none"></path></g><g transform="translate(411.75 1091.9417180060968) rotate(0 111.875 103.5)"><text x="0" y="0" font-family="Helvetica, Segoe UI Emoji" font-size="20px" fill="#000000" text-anchor="start" style="white-space: pre;" direction="ltr" dominant-baseline="text-before-edge">controller</text><text x="0" y="23" font-family="Helvetica, Segoe UI Emoji" font-size="20px" fill="#000000" text-anchor="start" style="white-space: pre;" direction="ltr" dominant-baseline="text-before-edge"></text><text x="0" y="46" font-family="Helvetica, Segoe UI Emoji" font-size="20px" fill="#000000" text-anchor="start" style="white-space: pre;" direction="ltr" dominant-baseline="text-before-edge">ResetPassword (PATCH)</text><text x="0" y="69" font-family="Helvetica, Segoe UI Emoji" font-size="20px" fill="#000000" text-anchor="start" style="white-space: pre;" direction="ltr" dominant-baseline="text-before-edge"></text><text x="0" y="92" font-family="Helvetica, Segoe UI Emoji" font-size="20px" fill="#000000" text-anchor="start" style="white-space: pre;" direction="ltr" dominant-baseline="text-before-edge">get secret from db</text><text x="0" y="115" font-family="Helvetica, Segoe UI Emoji" font-size="20px" fill="#000000" text-anchor="start" style="white-space: pre;" direction="ltr" dominant-baseline="text-before-edge">if(otpValid){</text><text x="0" y="138" font-family="Helvetica, Segoe UI Emoji" font-size="20px" fill="#000000" text-anchor="start" style="white-space: pre;" direction="ltr" dominant-baseline="text-before-edge">     update the </text><text x="0" y="161" font-family="Helvetica, Segoe UI Emoji" font-size="20px" fill="#000000" text-anchor="start" style="white-space: pre;" direction="ltr" dominant-baseline="text-before-edge">    userPassword  in db</text><text x="0" y="184" font-family="Helvetica, Segoe UI Emoji" font-size="20px" fill="#000000" text-anchor="start" style="white-space: pre;" direction="ltr" dominant-baseline="text-before-edge">}</text></g><g stroke-linecap="round" transform="translate(921.75 810.1417302131281) rotate(0 120.39999389648438 118.79998779296875)"><path d="M32 0 M32 0 C92.8 0.98, 152.41 -1.41, 208.8 0 M32 0 C101.41 -1.26, 171.89 -0.96, 208.8 0 M208.8 0 C228.58 -0.21, 242.19 12.24, 240.8 32 M208.8 0 C230.02 1.99, 242.69 8.91, 240.8 32 M240.8 32 C239.81 89.71, 240.96 147.06, 240.8 205.6 M240.8 32 C242.65 86.85, 240.87 143.05, 240.8 205.6 M240.8 205.6 C240.97 225.16, 230.01 237.33, 208.8 237.6 M240.8 205.6 C240.07 226.95, 229.07 238.21, 208.8 237.6 M208.8 237.6 C141.75 239.19, 73.31 237.05, 32 237.6 M208.8 237.6 C165.17 238.16, 119.98 236.94, 32 237.6 M32 237.6 C9.12 237.37, -1.34 227.06, 0 205.6 M32 237.6 C9.66 236.93, 1.19 225.01, 0 205.6 M0 205.6 C-0.84 156.08, -1.37 106.08, 0 32 M0 205.6 C1.04 141.02, 0.05 76.12, 0 32 M0 32 C0.2 11.8, 10.07 0.73, 32 0 M0 32 C-0.47 9.69, 9.16 0.4, 32 0" stroke="#000000" stroke-width="1" fill="none"></path></g><g transform="translate(948.5499877929688 841.9417180060968) rotate(0 37.2412109375 11.5)"><text x="0" y="0" font-family="Helvetica, Segoe UI Emoji" font-size="20px" fill="#000000" text-anchor="start" style="white-space: pre;" direction="ltr" dominant-baseline="text-before-edge">totp utils</text></g><g stroke-linecap="round" transform="translate(389.75 794.1417302131281) rotate(0 125.20001220703125 122.39999389648438)"><path d="M32 0 M32 0 C100.27 1.78, 173.8 -1.16, 218.4 0 M32 0 C85.88 0.87, 140.15 1.6, 218.4 0 M218.4 0 C239.67 0.49, 252.2 11.67, 250.4 32 M218.4 0 C239 0.51, 251.34 9.22, 250.4 32 M250.4 32 C247.51 87.92, 248.45 141.08, 250.4 212.8 M250.4 32 C249.57 102.51, 250.15 173.67, 250.4 212.8 M250.4 212.8 C251.89 236.03, 239.25 246.76, 218.4 244.8 M250.4 212.8 C249.98 234.04, 241.22 245.34, 218.4 244.8 M218.4 244.8 C146.06 244.79, 73.31 246.06, 32 244.8 M218.4 244.8 C155.59 243.79, 92.21 243.11, 32 244.8 M32 244.8 C11.63 246.58, 0.27 233.52, 0 212.8 M32 244.8 C10.47 242.64, -1.92 233.45, 0 212.8 M0 212.8 C-0.41 157.31, -0.38 101.37, 0 32 M0 212.8 C-0.53 145.46, 0.24 78.04, 0 32 M0 32 C1.06 10.49, 10.71 -0.29, 32 0 M0 32 C1.35 10.89, 8.82 -0.61, 32 0" stroke="#000000" stroke-width="1" fill="none"></path></g><g transform="translate(421.75 825.1417302131281) rotate(0 96.3232421875 34.5)"><text x="0" y="0" font-family="Helvetica, Segoe UI Emoji" font-size="20px" fill="#000000" text-anchor="start" style="white-space: pre;" direction="ltr" dominant-baseline="text-before-edge">controller</text><text x="0" y="23" font-family="Helvetica, Segoe UI Emoji" font-size="20px" fill="#000000" text-anchor="start" style="white-space: pre;" direction="ltr" dominant-baseline="text-before-edge"></text><text x="0" y="46" font-family="Helvetica, Segoe UI Emoji" font-size="20px" fill="#000000" text-anchor="start" style="white-space: pre;" direction="ltr" dominant-baseline="text-before-edge">generateQR (PATCH)</text></g><g stroke-linecap="round"><g transform="translate(622.2511596679688 884.2819873208432) rotate(0 145.7080918241386 -8.000475757726235)"><path d="M1.17 0.98 C49.38 -1.79, 240.62 -13.99, 288.9 -16.98 M0.33 0.44 C48.93 -2.07, 242.72 -12.69, 291.09 -15.35" stroke="#000000" stroke-width="1" fill="none"></path></g><g transform="translate(622.2511596679688 884.2819873208432) rotate(0 145.7080918241386 -8.000475757726235)"><path d="M265.13 -5.23 C271.36 -5.52, 278.93 -11.54, 291.48 -15.98 M263.46 -4.44 C274.15 -7.45, 282.62 -12.53, 291.87 -14.5" stroke="#000000" stroke-width="1" fill="none"></path></g><g transform="translate(622.2511596679688 884.2819873208432) rotate(0 145.7080918241386 -8.000475757726235)"><path d="M264 -25.72 C270.48 -20.42, 278.36 -20.84, 291.48 -15.98 M262.33 -24.93 C273.33 -20.78, 282.19 -18.7, 291.87 -14.5" stroke="#000000" stroke-width="1" fill="none"></path></g></g><mask></mask><g stroke-linecap="round"><g transform="translate(904.9500122070312 898.1417302131281) rotate(0 -125.37814279023098 12.921031821328597)"><path d="M1.17 1.18 C-40.49 5.54, -209.04 21.39, -250.78 25.09 M0.33 0.75 C-41.45 4.89, -210.29 19.6, -251.93 23.54" stroke="#000000" stroke-width="1" fill="none"></path></g><g transform="translate(904.9500122070312 898.1417302131281) rotate(0 -125.37814279023098 12.921031821328597)"><path d="M-222.81 10.15 C-229.39 15.85, -238.54 15.03, -251.04 22.01 M-225.56 10.34 C-234.81 15.02, -244.27 19.53, -252.12 23.3" stroke="#000000" stroke-width="1" fill="none"></path></g><g transform="translate(904.9500122070312 898.1417302131281) rotate(0 -125.37814279023098 12.921031821328597)"><path d="M-220.96 30.58 C-227.79 31.55, -237.37 25.99, -251.04 22.01 M-223.71 30.78 C-233.55 28.08, -243.69 25.22, -252.12 23.3" stroke="#000000" stroke-width="1" fill="none"></path></g></g><mask></mask><g transform="translate(425.75 923.1417302131281) rotate(0 87.2705078125 46)"><text x="0" y="0" font-family="Helvetica, Segoe UI Emoji" font-size="20px" fill="#000000" text-anchor="start" style="white-space: pre;" direction="ltr" dominant-baseline="text-before-edge">*update the secret,</text><text x="0" y="23" font-family="Helvetica, Segoe UI Emoji" font-size="20px" fill="#000000" text-anchor="start" style="white-space: pre;" direction="ltr" dominant-baseline="text-before-edge">in the db</text><text x="0" y="46" font-family="Helvetica, Segoe UI Emoji" font-size="20px" fill="#000000" text-anchor="start" style="white-space: pre;" direction="ltr" dominant-baseline="text-before-edge">send img response </text><text x="0" y="69" font-family="Helvetica, Segoe UI Emoji" font-size="20px" fill="#000000" text-anchor="start" style="white-space: pre;" direction="ltr" dominant-baseline="text-before-edge">to user</text></g><g stroke-linecap="round"><g transform="translate(660.9500122070312 1109.0851854812804) rotate(0 125.80770570587833 -59.869888575407685)"><path d="M0.23 -0.44 C42.31 -19.89, 210.61 -98.15, 252.72 -117.77 M-1.1 -1.71 C40.86 -21.39, 209.86 -99.57, 252.15 -119.3" stroke="#000000" stroke-width="1" fill="none"></path></g><g transform="translate(660.9500122070312 1109.0851854812804) rotate(0 125.80770570587833 -59.869888575407685)"><path d="M230.17 -96.92 C239.76 -103.43, 245.97 -113.45, 250.54 -120.6 M230.08 -98.14 C236.84 -104.01, 243.03 -109.68, 252.11 -119.67" stroke="#000000" stroke-width="1" fill="none"></path></g><g transform="translate(660.9500122070312 1109.0851854812804) rotate(0 125.80770570587833 -59.869888575407685)"><path d="M221.53 -115.54 C233.73 -116.09, 242.71 -120.14, 250.54 -120.6 M221.44 -116.75 C230.79 -117, 239.56 -117.12, 252.11 -119.67" stroke="#000000" stroke-width="1" fill="none"></path></g></g><mask></mask><g transform="translate(709.75 1053.141730213128) rotate(0 63.9111328125 23)"><text x="0" y="0" font-family="Helvetica, Segoe UI Emoji" font-size="20px" fill="#000000" text-anchor="start" style="white-space: pre;" direction="ltr" dominant-baseline="text-before-edge">otp</text><text x="0" y="23" font-family="Helvetica, Segoe UI Emoji" font-size="20px" fill="#000000" text-anchor="start" style="white-space: pre;" direction="ltr" dominant-baseline="text-before-edge">secret from db</text></g><g stroke-linecap="round" transform="translate(177.75 1099.941748523675) rotate(0 74.80000305175781 87.60002136230469)"><path d="M32 0 M32 0 C58.82 -0.72, 83.29 0.26, 117.6 0 M32 0 C51.76 -0.32, 70.56 0.7, 117.6 0 M117.6 0 C138.66 -0.33, 147.77 10.39, 149.6 32 M117.6 0 C138.74 -0.39, 149.51 11.15, 149.6 32 M149.6 32 C149.65 62.89, 148.96 93.57, 149.6 143.2 M149.6 32 C148.49 72.12, 149.25 110.09, 149.6 143.2 M149.6 143.2 C150.44 162.74, 138.22 174.66, 117.6 175.2 M149.6 143.2 C150.01 162.91, 137.21 176.64, 117.6 175.2 M117.6 175.2 C82.97 173.48, 51.03 175.37, 32 175.2 M117.6 175.2 C92.53 175.95, 68.38 175.72, 32 175.2 M32 175.2 C11.83 173.65, -0.26 164.44, 0 143.2 M32 175.2 C10.77 176.86, -0.09 166.28, 0 143.2 M0 143.2 C-2.24 116.72, -1.51 92.48, 0 32 M0 143.2 C-0.93 118.02, 0.37 94.96, 0 32 M0 32 C0.39 9.73, 11.15 -1.55, 32 0 M0 32 C1.44 11.14, 10.26 0.14, 32 0" stroke="#000000" stroke-width="1" fill="none"></path></g><g transform="translate(203.35000610351562 1149.5417546271906) rotate(0 55.5810546875 57.5)"><text x="0" y="0" font-family="Helvetica, Segoe UI Emoji" font-size="20px" fill="#000000" text-anchor="start" style="white-space: pre;" direction="ltr" dominant-baseline="text-before-edge">{</text><text x="0" y="23" font-family="Helvetica, Segoe UI Emoji" font-size="20px" fill="#000000" text-anchor="start" style="white-space: pre;" direction="ltr" dominant-baseline="text-before-edge">    otp,</text><text x="0" y="46" font-family="Helvetica, Segoe UI Emoji" font-size="20px" fill="#000000" text-anchor="start" style="white-space: pre;" direction="ltr" dominant-baseline="text-before-edge">    username</text><text x="0" y="69" font-family="Helvetica, Segoe UI Emoji" font-size="20px" fill="#000000" text-anchor="start" style="white-space: pre;" direction="ltr" dominant-baseline="text-before-edge">    password</text><text x="0" y="92" font-family="Helvetica, Segoe UI Emoji" font-size="20px" fill="#000000" text-anchor="start" style="white-space: pre;" direction="ltr" dominant-baseline="text-before-edge">}</text></g><g transform="translate(206.14999389648438 1074.3417729377375) rotate(0 35.029296875 11.5)"><text x="0" y="0" font-family="Helvetica, Segoe UI Emoji" font-size="20px" fill="#000000" text-anchor="start" style="white-space: pre;" direction="ltr" dominant-baseline="text-before-edge">payload</text></g><g stroke-linecap="round" transform="translate(204.54998779296875 829.9417332648859) rotate(0 74.80000305175781 87.60002136230469)"><path d="M32 0 M32 0 C63.43 2.55, 91.95 0.31, 117.6 0 M32 0 C54.56 -0.67, 78.48 0.01, 117.6 0 M117.6 0 C140.37 -1.88, 149.68 11.12, 149.6 32 M117.6 0 C137.67 0.37, 147.37 9.98, 149.6 32 M149.6 32 C149 66.51, 149.41 99.2, 149.6 143.2 M149.6 32 C149.89 60.79, 149.7 89.14, 149.6 143.2 M149.6 143.2 C149.47 165.47, 140.42 173.24, 117.6 175.2 M149.6 143.2 C150.73 164.04, 138.14 173.44, 117.6 175.2 M117.6 175.2 C94.35 173.22, 68.38 173.13, 32 175.2 M117.6 175.2 C92.39 174.68, 67.69 175.65, 32 175.2 M32 175.2 C12.27 177.07, -1.59 164.91, 0 143.2 M32 175.2 C9.63 177.45, 1.53 163.15, 0 143.2 M0 143.2 C-0.65 103.91, 0.67 62.97, 0 32 M0 143.2 C0.4 109.73, 0.95 76.38, 0 32 M0 32 C-0.97 10.8, 8.71 -0.08, 32 0 M0 32 C-0.98 12.03, 11.56 -0.73, 32 0" stroke="#000000" stroke-width="1" fill="none"></path></g><g transform="translate(230.14999389648438 879.5417393684015) rotate(0 55.5810546875 34.5)"><text x="0" y="0" font-family="Helvetica, Segoe UI Emoji" font-size="20px" fill="#000000" text-anchor="start" style="white-space: pre;" direction="ltr" dominant-baseline="text-before-edge">{</text><text x="0" y="23" font-family="Helvetica, Segoe UI Emoji" font-size="20px" fill="#000000" text-anchor="start" style="white-space: pre;" direction="ltr" dominant-baseline="text-before-edge">    username</text><text x="0" y="46" font-family="Helvetica, Segoe UI Emoji" font-size="20px" fill="#000000" text-anchor="start" style="white-space: pre;" direction="ltr" dominant-baseline="text-before-edge">}</text></g><g transform="translate(232.94998168945312 804.3417576789484) rotate(0 35.029296875 11.5)"><text x="0" y="0" font-family="Helvetica, Segoe UI Emoji" font-size="20px" fill="#000000" text-anchor="start" style="white-space: pre;" direction="ltr" dominant-baseline="text-before-edge">payload</text></g><g transform="translate(973 906.8917302131281) rotate(0 78.3837890625 11.5)"><text x="0" y="0" font-family="Helvetica, Segoe UI Emoji" font-size="20px" fill="#000000" text-anchor="start" style="white-space: pre;" direction="ltr" dominant-baseline="text-before-edge">generateQRCode</text></g><g transform="translate(970.199951171875 952.8917302131281) rotate(0 44.4482421875 11.5)"><text x="0" y="0" font-family="Helvetica, Segoe UI Emoji" font-size="20px" fill="#000000" text-anchor="start" style="white-space: pre;" direction="ltr" dominant-baseline="text-before-edge">verifyOTP</text></g><g transform="translate(10 816.8917302131281) rotate(0 27.79296875 11.5)"><text x="0" y="0" font-family="Helvetica, Segoe UI Emoji" font-size="20px" fill="#000000" text-anchor="start" style="white-space: pre;" direction="ltr" dominant-baseline="text-before-edge">routes</text></g></svg>