<svg version="1.1" xmlns="http://www.w3.org/2000/svg" viewBox="0 0 637.6695261284985 980.0611613462424" width="637.6695261284985" height="980.0611613462424" filter="invert(93%) hue-rotate(180deg)">
  <!-- svg-source:excalidraw -->
  
  <defs>
    <style class="style-fonts">
      @font-face {
        font-family: "Virgil";
        src: url("https://excalidraw.com/Virgil.woff2");
      }
      @font-face {
        font-family: "Cascadia";
        src: url("https://excalidraw.com/Cascadia.woff2");
      }
    </style>
  </defs>
  <rect x="0" y="0" width="637.6695261284985" height="980.0611613462424" fill="#ffffff"></rect><g stroke-linecap="round" transform="translate(378.3213794545102 119.43178327449004) rotate(0 124.67407333699418 23.449667844532996)"><path d="M11.72 0 M11.72 0 C89.88 -1.63, 165.1 1.45, 237.62 0 M11.72 0 C101.61 1.78, 190.27 1.74, 237.62 0 M237.62 0 C246.7 0.17, 247.91 5.06, 249.35 11.72 M237.62 0 C247.59 -0.53, 248.26 4.7, 249.35 11.72 M249.35 11.72 C249.51 18.41, 248.65 28.69, 249.35 35.17 M249.35 11.72 C249.86 19.98, 249.16 29.65, 249.35 35.17 M249.35 35.17 C251.33 44.23, 244.23 48.42, 237.62 46.9 M249.35 35.17 C249.48 41.05, 245.13 48.12, 237.62 46.9 M237.62 46.9 C147.53 49.91, 61.27 48.49, 11.72 46.9 M237.62 46.9 C190.05 45.88, 142.7 46.05, 11.72 46.9 M11.72 46.9 C2.79 48.13, -1.44 43.61, 0 35.17 M11.72 46.9 C3.89 48.7, -0.01 42.32, 0 35.17 M0 35.17 C-1.31 27.52, 1.53 21.06, 0 11.72 M0 35.17 C0.6 29.38, 0.55 24.92, 0 11.72 M0 11.72 C-1.95 3.9, 5.01 1.36, 11.72 0 M0 11.72 C1.04 5.31, 4.55 0.72, 11.72 0" stroke="#000000" stroke-width="1" fill="none"></path></g><g transform="translate(498.5462340415045 133.28145111902268) rotate(0 4.44921875 9.599999999999909)"><text x="4.44921875" y="0" font-family="Helvetica, Segoe UI Emoji" font-size="16px" fill="#000000" text-anchor="middle" style="white-space: pre;" direction="ltr">3</text></g><g stroke-linecap="round" transform="translate(370.33123589373577 301.6525432256458) rotate(0 124.67407333699418 23.449667844532996)"><path d="M11.72 0 M11.72 0 C79.16 -0.93, 147.26 0.65, 237.62 0 M11.72 0 C99.03 0.42, 184.61 -0.57, 237.62 0 M237.62 0 C247.01 0.31, 249.92 5.29, 249.35 11.72 M237.62 0 C245.11 0.33, 250.87 4.07, 249.35 11.72 M249.35 11.72 C249.59 18.5, 249.28 27.05, 249.35 35.17 M249.35 11.72 C248.43 17.32, 248.71 23.18, 249.35 35.17 M249.35 35.17 C249.67 42.73, 246.24 46.11, 237.62 46.9 M249.35 35.17 C251.09 44.95, 247.03 46.03, 237.62 46.9 M237.62 46.9 C154.84 46.55, 75.8 45.47, 11.72 46.9 M237.62 46.9 C151.05 48.3, 64.87 47.78, 11.72 46.9 M11.72 46.9 C2.6 45.42, -1.21 42.39, 0 35.17 M11.72 46.9 C2.37 45.58, -0.43 44.23, 0 35.17 M0 35.17 C1.44 26.05, -1.21 20.87, 0 11.72 M0 35.17 C0.13 27.39, -0.43 19.77, 0 11.72 M0 11.72 C0.65 3.45, 1.98 0.52, 11.72 0 M0 11.72 C0.22 2.89, 2.2 0.96, 11.72 0" stroke="#000000" stroke-width="1" fill="none"></path></g><g transform="translate(490.55609048073006 315.5022110701784) rotate(0 4.44921875 9.599999999999909)"><text x="4.44921875" y="0" font-family="Helvetica, Segoe UI Emoji" font-size="16px" fill="#000000" text-anchor="middle" style="white-space: pre;" direction="ltr">3</text></g><g stroke-linecap="round" transform="translate(320.4678767785749 443.98214875634676) rotate(0 124.67407333699418 23.449667844532996)"><path d="M11.72 0 M11.72 0 C99.98 1.99, 185.18 1.74, 237.62 0 M11.72 0 C57.62 0.59, 104.32 1.57, 237.62 0 M237.62 0 C247.12 -0.69, 247.78 5.76, 249.35 11.72 M237.62 0 C245.08 0.65, 251.24 4.37, 249.35 11.72 M249.35 11.72 C248.36 21.89, 251.04 26.66, 249.35 35.17 M249.35 11.72 C249.62 20.16, 248.73 27.94, 249.35 35.17 M249.35 35.17 C250.51 44.33, 246.11 47.09, 237.62 46.9 M249.35 35.17 C248 40.99, 244.4 48.9, 237.62 46.9 M237.62 46.9 C160.69 46.04, 82.85 45.91, 11.72 46.9 M237.62 46.9 C176.2 44.59, 113.69 44.78, 11.72 46.9 M11.72 46.9 C1.98 48.76, -1.25 42.71, 0 35.17 M11.72 46.9 C3.01 46.52, -2.28 41.1, 0 35.17 M0 35.17 C0.26 28.31, 0.2 23.12, 0 11.72 M0 35.17 C0.59 28.43, -0.57 21.94, 0 11.72 M0 11.72 C1.23 5.45, 2.14 -1.36, 11.72 0 M0 11.72 C-1.02 3.44, 3.09 -1.49, 11.72 0" stroke="#000000" stroke-width="1" fill="none"></path></g><g transform="translate(440.6927313655692 457.8318166008794) rotate(0 4.44921875 9.599999999999909)"><text x="4.44921875" y="0" font-family="Helvetica, Segoe UI Emoji" font-size="16px" fill="#000000" text-anchor="middle" style="white-space: pre;" direction="ltr">3</text></g><g transform="translate(424.8298634919322 131.156617196757) rotate(0 4.44921875 9.599999999999909)"><text x="0" y="0" font-family="Helvetica, Segoe UI Emoji" font-size="16px" fill="#000000" text-anchor="start" style="white-space: pre;" direction="ltr">1</text></g><g transform="translate(418.41504829228757 313.90250663326424) rotate(0 4.44921875 9.599999999999909)"><text x="0" y="0" font-family="Helvetica, Segoe UI Emoji" font-size="16px" fill="#000000" text-anchor="start" style="white-space: pre;" direction="ltr">1</text></g><g transform="translate(368.5516891771267 456.2321121639652) rotate(0 4.44921875 9.599999999999909)"><text x="0" y="0" font-family="Helvetica, Segoe UI Emoji" font-size="16px" fill="#000000" text-anchor="start" style="white-space: pre;" direction="ltr">1</text></g><g transform="translate(466.8438517133875 135.06489517084538) rotate(0 4.44921875 9.599999999999909)"><text x="0" y="0" font-family="Helvetica, Segoe UI Emoji" font-size="16px" fill="#000000" text-anchor="start" style="white-space: pre;" direction="ltr">2</text></g><g transform="translate(460.42903651374286 317.8107846073526) rotate(0 4.44921875 9.599999999999909)"><text x="0" y="0" font-family="Helvetica, Segoe UI Emoji" font-size="16px" fill="#000000" text-anchor="start" style="white-space: pre;" direction="ltr">2</text></g><g transform="translate(410.565677398582 460.1403901380536) rotate(0 4.44921875 9.599999999999909)"><text x="0" y="0" font-family="Helvetica, Segoe UI Emoji" font-size="16px" fill="#000000" text-anchor="start" style="white-space: pre;" direction="ltr">2</text></g><g transform="translate(534.0662209405984 137.4098559917402) rotate(0 4.44921875 9.599999999999909)"><text x="0" y="0" font-family="Helvetica, Segoe UI Emoji" font-size="16px" fill="#000000" text-anchor="start" style="white-space: pre;" direction="ltr">4</text></g><g transform="translate(527.6514057409538 320.1557454282474) rotate(0 4.44921875 9.599999999999909)"><text x="0" y="0" font-family="Helvetica, Segoe UI Emoji" font-size="16px" fill="#000000" text-anchor="start" style="white-space: pre;" direction="ltr">4</text></g><g transform="translate(477.78804662579296 462.4853509589484) rotate(0 4.44921875 9.599999999999909)"><text x="0" y="0" font-family="Helvetica, Segoe UI Emoji" font-size="16px" fill="#000000" text-anchor="start" style="white-space: pre;" direction="ltr">4</text></g><g transform="translate(577.4481303072205 138.3869254852625) rotate(0 4.44921875 9.599999999999909)"><text x="0" y="0" font-family="Helvetica, Segoe UI Emoji" font-size="16px" fill="#000000" text-anchor="start" style="white-space: pre;" direction="ltr">5</text></g><g transform="translate(571.0333151075758 321.13281492176975) rotate(0 4.44921875 9.599999999999909)"><text x="0" y="0" font-family="Helvetica, Segoe UI Emoji" font-size="16px" fill="#000000" text-anchor="start" style="white-space: pre;" direction="ltr">5</text></g><g transform="translate(521.169955992415 463.4624204524707) rotate(0 4.44921875 9.599999999999909)"><text x="0" y="0" font-family="Helvetica, Segoe UI Emoji" font-size="16px" fill="#000000" text-anchor="start" style="white-space: pre;" direction="ltr">5</text></g><g transform="translate(16.414815199644636 150.6980070672007) rotate(0 85.58984375 9.599999999999909)"><text x="0" y="0" font-family="Helvetica, Segoe UI Emoji" font-size="16px" fill="#000000" text-anchor="start" style="white-space: pre;" direction="ltr">const [first,second] = arr</text></g><g transform="translate(10 333.44389650370795) rotate(0 77.578125 9.599999999999909)"><text x="0" y="0" font-family="Helvetica, Segoe UI Emoji" font-size="16px" fill="#000000" text-anchor="start" style="white-space: pre;" direction="ltr">const [first,,third] = arr</text></g><g transform="translate(548.9176891692539 95.98211542995705) rotate(0 9.77734375 9.599999999999909)"><text x="0" y="0" font-family="Helvetica, Segoe UI Emoji" font-size="16px" fill="#000000" text-anchor="start" style="white-space: pre;" direction="ltr">arr</text></g><g transform="translate(542.5028739696093 278.7280048664643) rotate(0 9.77734375 9.599999999999909)"><text x="0" y="0" font-family="Helvetica, Segoe UI Emoji" font-size="16px" fill="#000000" text-anchor="start" style="white-space: pre;" direction="ltr">arr</text></g><g transform="translate(71.91238032238334 168.6760946933482) rotate(0 178.21746965489388 26.967116530323437)" stroke="none"><path fill="#000000" d="M 1.75,0.52 Q 1.75,0.52 1.01,2.75 0.27,4.98 -0.26,7.63 -0.80,10.29 -1.28,13.22 -1.75,16.15 -2.42,19.90 -3.08,23.64 -3.83,26.84 -4.58,30.03 -5.12,32.70 -5.66,35.37 -6.12,37.43 -6.57,39.48 -6.90,40.89 -7.23,42.30 -7.26,43.84 -7.29,45.37 -7.16,46.63 -7.03,47.88 -7.78,47.04 -8.52,46.19 -7.38,46.05 -6.23,45.90 -4.67,45.48 -3.12,45.06 -1.63,44.92 -0.14,44.78 1.14,44.03 2.43,43.28 3.59,43.10 4.76,42.91 6.37,42.89 7.99,42.87 9.56,43.16 11.12,43.46 12.40,43.59 13.69,43.73 15.17,44.05 16.66,44.38 17.72,44.48 18.78,44.58 20.73,44.63 22.68,44.68 24.02,44.72 25.36,44.76 26.61,44.78 27.86,44.80 29.51,44.87 31.17,44.95 33.87,45.60 36.58,46.24 38.56,46.77 40.53,47.29 42.28,47.73 44.03,48.16 45.13,48.26 46.24,48.35 47.33,48.36 48.42,48.38 50.00,48.42 51.57,48.47 53.71,48.82 55.85,49.17 58.29,49.60 60.73,50.03 63.48,50.24 66.24,50.44 69.71,50.78 73.19,51.12 75.75,51.28 78.31,51.44 80.52,51.52 82.72,51.60 85.01,51.64 87.29,51.69 89.83,51.71 92.38,51.74 95.93,51.75 99.48,51.77 102.79,51.78 106.10,51.79 109.30,51.79 112.51,51.80 115.44,51.81 118.38,51.81 122.36,52.04 126.34,52.27 129.79,52.37 133.25,52.46 136.74,52.51 140.23,52.55 143.73,52.57 147.24,52.58 150.75,52.59 154.26,52.60 158.41,52.38 162.57,52.16 166.58,51.84 170.59,51.53 174.54,51.17 178.49,50.81 182.68,50.65 186.87,50.50 192.68,50.21 198.48,49.92 203.89,49.79 209.30,49.67 214.29,49.62 219.29,49.57 223.69,49.77 228.10,49.97 232.41,50.06 236.72,50.14 242.59,50.18 248.47,50.22 253.44,50.23 258.41,50.25 263.00,50.25 267.58,50.26 271.77,50.26 275.97,50.27 279.28,50.04 282.59,49.82 284.40,49.46 286.20,49.10 287.47,48.85 288.75,48.59 290.60,47.82 292.46,47.04 294.12,46.64 295.78,46.23 297.23,46.00 298.69,45.78 300.24,45.68 301.78,45.58 303.11,45.51 304.43,45.44 306.12,45.45 307.82,45.45 309.28,45.24 310.74,45.03 312.65,44.97 314.56,44.90 316.37,44.70 318.18,44.49 320.65,44.47 323.13,44.44 325.74,44.46 328.35,44.49 330.13,44.44 331.90,44.39 333.34,44.31 334.77,44.23 336.46,43.88 338.15,43.52 339.23,42.93 340.30,42.34 341.70,42.13 343.11,41.91 344.53,41.82 345.96,41.73 347.18,41.67 348.39,41.61 349.58,41.61 350.77,41.62 352.17,41.66 353.58,41.69 355.09,41.95 356.61,42.21 356.43,40.81 356.25,39.40 356.63,37.07 357.02,34.73 357.44,33.14 357.86,31.54 358.39,29.57 358.93,27.59 359.38,25.80 359.84,24.00 360.26,22.34 360.68,20.67 361.08,19.07 361.49,17.46 362.17,15.75 362.85,14.04 363.05,12.43 363.24,10.81 363.18,9.59 363.11,8.37 363.03,7.21 362.94,6.04 362.88,6.54 362.83,7.03 362.87,6.67 362.92,6.31 363.05,5.98 363.17,5.64 363.38,5.35 363.58,5.05 363.85,4.81 364.12,4.58 364.44,4.41 364.76,4.24 365.10,4.16 365.45,4.07 365.81,4.07 366.17,4.07 366.52,4.16 366.87,4.24 367.19,4.41 367.50,4.58 367.77,4.82 368.04,5.06 368.25,5.35 368.45,5.65 368.58,5.98 368.70,6.32 368.75,6.68 368.79,7.03 368.71,7.51 368.63,7.98 368.41,8.41 368.18,8.83 367.83,9.16 367.48,9.50 367.04,9.70 366.61,9.90 366.13,9.95 365.65,10.00 365.18,9.90 364.71,9.80 364.29,9.55 363.88,9.30 363.57,8.93 363.26,8.57 363.08,8.12 362.90,7.67 362.87,7.19 362.85,6.71 362.98,6.24 363.11,5.78 363.38,5.38 363.65,4.98 364.03,4.69 364.41,4.40 364.87,4.24 365.33,4.09 365.81,4.09 366.29,4.09 366.75,4.24 367.21,4.40 367.59,4.69 367.97,4.98 368.24,5.38 368.51,5.78 368.64,6.24 368.77,6.71 368.75,7.19 368.72,7.67 368.54,8.12 368.36,8.57 368.05,8.93 367.74,9.30 367.33,9.55 366.91,9.80 366.44,9.90 365.97,10.00 365.49,9.95 365.01,9.90 364.57,9.70 364.14,9.50 363.79,9.16 363.44,8.83 363.21,8.41 362.99,7.98 362.91,7.50 362.83,7.03 362.83,7.03 362.83,7.03 362.87,6.67 362.92,6.32 363.05,5.98 363.17,5.64 363.38,5.35 363.58,5.05 363.85,4.81 364.12,4.58 364.44,4.41 364.76,4.24 365.10,4.16 365.45,4.07 365.81,4.07 366.17,4.07 366.52,4.16 366.87,4.24 367.19,4.41 367.50,4.58 367.77,4.82 368.04,5.06 368.25,5.35 368.45,5.65 368.58,5.98 368.70,6.32 368.75,6.68 368.79,7.03 368.76,6.15 368.73,5.27 368.64,6.46 368.56,7.65 368.41,9.01 368.26,10.37 367.97,11.75 367.68,13.12 367.32,14.38 366.96,15.63 366.40,17.08 365.85,18.53 365.48,20.12 365.11,21.71 364.75,23.35 364.40,24.99 364.09,26.73 363.79,28.47 363.58,30.58 363.38,32.68 362.91,35.36 362.43,38.03 362.11,40.00 361.79,41.98 361.54,43.70 361.29,45.43 360.64,46.28 359.98,47.12 358.81,47.55 357.64,47.98 355.60,47.70 353.57,47.41 352.17,47.44 350.77,47.48 348.91,47.46 347.05,47.44 345.81,47.38 344.56,47.32 343.30,47.01 342.05,46.70 340.64,47.25 339.23,47.81 338.07,47.99 336.91,48.18 335.85,48.10 334.79,48.02 333.37,47.96 331.94,47.89 330.18,47.89 328.41,47.88 325.86,48.00 323.30,48.12 321.02,48.32 318.74,48.52 316.77,48.85 314.79,49.18 313.08,49.31 311.37,49.44 309.61,49.68 307.85,49.93 306.19,49.97 304.53,50.00 303.26,49.99 301.98,49.97 300.59,50.01 299.19,50.04 297.95,50.13 296.71,50.22 295.19,50.56 293.68,50.89 292.54,51.16 291.40,51.44 290.25,51.65 289.11,51.86 287.89,51.87 286.67,51.88 284.72,52.16 282.77,52.44 279.37,52.67 275.97,52.89 271.77,52.89 267.58,52.89 262.99,52.88 258.40,52.87 253.43,52.86 248.45,52.84 242.56,52.81 236.67,52.77 232.32,52.68 227.98,52.60 223.65,52.40 219.32,52.19 214.34,52.25 209.36,52.30 203.98,52.42 198.61,52.54 192.79,52.83 186.97,53.12 182.85,53.28 178.73,53.43 174.77,53.79 170.80,54.15 166.75,54.47 162.71,54.79 158.48,55.01 154.26,55.24 150.74,55.23 147.22,55.22 143.71,55.21 140.20,55.19 136.69,55.15 133.18,55.11 129.68,55.02 126.19,54.92 122.28,54.70 118.38,54.48 115.44,54.49 112.51,54.49 109.30,54.50 106.10,54.50 102.79,54.51 99.48,54.52 95.92,54.52 92.37,54.53 89.81,54.54 87.26,54.54 84.96,54.54 82.65,54.54 80.41,54.52 78.17,54.50 75.55,54.42 72.93,54.33 69.50,54.11 66.07,53.88 63.15,53.81 60.24,53.74 57.80,53.52 55.37,53.29 53.42,53.17 51.48,53.05 49.81,53.03 48.14,53.01 46.87,52.88 45.61,52.75 44.34,52.50 43.08,52.26 41.36,51.89 39.64,51.52 37.69,51.21 35.74,50.90 33.45,50.65 31.15,50.40 29.49,50.47 27.84,50.55 26.58,50.55 25.32,50.56 23.94,50.59 22.57,50.61 20.40,50.52 18.24,50.44 16.86,50.31 15.47,50.19 14.38,49.99 13.28,49.78 11.67,49.73 10.05,49.67 8.11,49.53 6.17,49.38 4.99,49.44 3.81,49.49 2.73,49.91 1.66,50.32 0.33,50.46 -1.00,50.60 -2.28,50.63 -3.57,50.67 -5.36,50.92 -7.15,51.17 -8.36,51.16 -9.57,51.14 -10.49,50.27 -11.41,49.41 -11.43,47.71 -11.45,46.02 -11.18,44.77 -10.91,43.52 -10.60,42.43 -10.29,41.34 -9.79,40.11 -9.28,38.89 -8.84,36.86 -8.39,34.83 -7.87,32.12 -7.35,29.40 -6.66,26.28 -5.96,23.15 -5.36,19.43 -4.75,15.71 -4.34,12.71 -3.93,9.70 -3.45,6.85 -2.97,4.00 -2.36,1.74 -1.75,-0.52 -1.67,-0.73 -1.58,-0.93 -1.44,-1.10 -1.31,-1.28 -1.13,-1.42 -0.96,-1.56 -0.76,-1.65 -0.56,-1.74 -0.34,-1.79 -0.13,-1.83 0.09,-1.82 0.31,-1.81 0.52,-1.74 0.73,-1.68 0.92,-1.57 1.11,-1.45 1.27,-1.30 1.43,-1.14 1.55,-0.95 1.66,-0.77 1.73,-0.56 1.80,-0.35 1.81,-0.12 1.83,0.09 1.79,0.30 1.75,0.52 1.75,0.52 L 1.75,0.52 Z"></path></g><g transform="translate(65.4975651227387 351.42198412985545) rotate(0 178.21746965489388 26.967116530323437)" stroke="none"><path fill="#000000" d="M 1.75,0.52 Q 1.75,0.52 1.01,2.75 0.27,4.98 -0.26,7.63 -0.80,10.29 -1.28,13.22 -1.75,16.15 -2.42,19.90 -3.08,23.64 -3.83,26.84 -4.58,30.03 -5.12,32.70 -5.66,35.37 -6.12,37.43 -6.57,39.48 -6.90,40.89 -7.23,42.30 -7.26,43.84 -7.29,45.37 -7.16,46.63 -7.03,47.88 -7.78,47.04 -8.52,46.19 -7.38,46.05 -6.23,45.90 -4.67,45.48 -3.12,45.06 -1.63,44.92 -0.14,44.78 1.14,44.03 2.43,43.28 3.59,43.10 4.76,42.91 6.37,42.89 7.99,42.87 9.56,43.16 11.12,43.46 12.40,43.59 13.69,43.73 15.17,44.05 16.66,44.38 17.72,44.48 18.78,44.58 20.73,44.63 22.68,44.68 24.02,44.72 25.36,44.76 26.61,44.78 27.86,44.80 29.51,44.87 31.17,44.95 33.87,45.60 36.58,46.24 38.56,46.77 40.53,47.29 42.28,47.73 44.03,48.16 45.13,48.26 46.24,48.35 47.33,48.36 48.42,48.38 50.00,48.42 51.57,48.47 53.71,48.82 55.85,49.17 58.29,49.60 60.73,50.03 63.48,50.24 66.24,50.44 69.71,50.78 73.19,51.12 75.75,51.28 78.31,51.44 80.52,51.52 82.72,51.60 85.01,51.64 87.29,51.69 89.83,51.71 92.38,51.74 95.93,51.75 99.48,51.77 102.79,51.78 106.10,51.79 109.30,51.79 112.51,51.80 115.44,51.81 118.38,51.81 122.36,52.04 126.34,52.27 129.79,52.37 133.25,52.46 136.74,52.51 140.23,52.55 143.73,52.57 147.24,52.58 150.75,52.59 154.26,52.60 158.41,52.38 162.57,52.16 166.58,51.84 170.59,51.53 174.54,51.17 178.49,50.81 182.68,50.65 186.87,50.50 192.68,50.21 198.48,49.92 203.89,49.79 209.30,49.67 214.29,49.62 219.29,49.57 223.69,49.77 228.10,49.97 232.41,50.06 236.72,50.14 242.59,50.18 248.47,50.22 253.44,50.23 258.41,50.25 263.00,50.25 267.58,50.26 271.77,50.26 275.97,50.27 279.28,50.04 282.59,49.82 284.40,49.46 286.20,49.10 287.47,48.85 288.75,48.59 290.60,47.82 292.46,47.04 294.12,46.64 295.78,46.23 297.23,46.00 298.69,45.78 300.24,45.68 301.78,45.58 303.11,45.51 304.43,45.44 306.12,45.45 307.82,45.45 309.28,45.24 310.74,45.03 312.65,44.97 314.56,44.90 316.37,44.70 318.18,44.49 320.65,44.47 323.13,44.44 325.74,44.46 328.35,44.49 330.13,44.44 331.90,44.39 333.34,44.31 334.77,44.23 336.46,43.88 338.15,43.52 339.23,42.93 340.30,42.34 341.70,42.13 343.11,41.91 344.53,41.82 345.96,41.73 347.18,41.67 348.39,41.61 349.58,41.61 350.77,41.62 352.17,41.66 353.58,41.69 355.09,41.95 356.61,42.21 356.43,40.81 356.25,39.40 356.63,37.07 357.02,34.73 357.44,33.14 357.86,31.54 358.39,29.57 358.93,27.59 359.38,25.80 359.84,24.00 360.26,22.34 360.68,20.67 361.08,19.07 361.49,17.46 362.17,15.75 362.85,14.04 363.05,12.43 363.24,10.81 363.18,9.59 363.11,8.37 363.03,7.21 362.94,6.04 362.88,6.54 362.83,7.03 362.87,6.67 362.92,6.31 363.05,5.98 363.17,5.64 363.38,5.35 363.58,5.05 363.85,4.81 364.12,4.58 364.44,4.41 364.76,4.24 365.10,4.16 365.45,4.07 365.81,4.07 366.17,4.07 366.52,4.16 366.87,4.24 367.19,4.41 367.50,4.58 367.77,4.82 368.04,5.06 368.25,5.35 368.45,5.65 368.58,5.98 368.70,6.32 368.75,6.68 368.79,7.03 368.71,7.51 368.63,7.98 368.41,8.41 368.18,8.83 367.83,9.16 367.48,9.50 367.04,9.70 366.61,9.90 366.13,9.95 365.65,10.00 365.18,9.90 364.71,9.80 364.29,9.55 363.88,9.30 363.57,8.93 363.26,8.57 363.08,8.12 362.90,7.67 362.87,7.19 362.85,6.71 362.98,6.24 363.11,5.78 363.38,5.38 363.65,4.98 364.03,4.69 364.41,4.40 364.87,4.24 365.33,4.09 365.81,4.09 366.29,4.09 366.75,4.24 367.21,4.40 367.59,4.69 367.97,4.98 368.24,5.38 368.51,5.78 368.64,6.24 368.77,6.71 368.75,7.19 368.72,7.67 368.54,8.12 368.36,8.57 368.05,8.93 367.74,9.30 367.33,9.55 366.91,9.80 366.44,9.90 365.97,10.00 365.49,9.95 365.01,9.90 364.57,9.70 364.14,9.50 363.79,9.16 363.44,8.83 363.21,8.41 362.99,7.98 362.91,7.50 362.83,7.03 362.83,7.03 362.83,7.03 362.87,6.67 362.92,6.32 363.05,5.98 363.17,5.64 363.38,5.35 363.58,5.05 363.85,4.81 364.12,4.58 364.44,4.41 364.76,4.24 365.10,4.16 365.45,4.07 365.81,4.07 366.17,4.07 366.52,4.16 366.87,4.24 367.19,4.41 367.50,4.58 367.77,4.82 368.04,5.06 368.25,5.35 368.45,5.65 368.58,5.98 368.70,6.32 368.75,6.68 368.79,7.03 368.76,6.15 368.73,5.27 368.64,6.46 368.56,7.65 368.41,9.01 368.26,10.37 367.97,11.75 367.68,13.12 367.32,14.38 366.96,15.63 366.40,17.08 365.85,18.53 365.48,20.12 365.11,21.71 364.75,23.35 364.40,24.99 364.09,26.73 363.79,28.47 363.58,30.58 363.38,32.68 362.91,35.36 362.43,38.03 362.11,40.00 361.79,41.98 361.54,43.70 361.29,45.43 360.64,46.28 359.98,47.12 358.81,47.55 357.64,47.98 355.60,47.70 353.57,47.41 352.17,47.44 350.77,47.48 348.91,47.46 347.05,47.44 345.81,47.38 344.56,47.32 343.30,47.01 342.05,46.70 340.64,47.25 339.23,47.81 338.07,47.99 336.91,48.18 335.85,48.10 334.79,48.02 333.37,47.96 331.94,47.89 330.18,47.89 328.41,47.88 325.86,48.00 323.30,48.12 321.02,48.32 318.74,48.52 316.77,48.85 314.79,49.18 313.08,49.31 311.37,49.44 309.61,49.68 307.85,49.93 306.19,49.97 304.53,50.00 303.26,49.99 301.98,49.97 300.59,50.01 299.19,50.04 297.95,50.13 296.71,50.22 295.19,50.56 293.68,50.89 292.54,51.16 291.40,51.44 290.25,51.65 289.11,51.86 287.89,51.87 286.67,51.88 284.72,52.16 282.77,52.44 279.37,52.67 275.97,52.89 271.77,52.89 267.58,52.89 262.99,52.88 258.40,52.87 253.43,52.86 248.45,52.84 242.56,52.81 236.67,52.77 232.32,52.68 227.98,52.60 223.65,52.40 219.32,52.19 214.34,52.25 209.36,52.30 203.98,52.42 198.61,52.54 192.79,52.83 186.97,53.12 182.85,53.28 178.73,53.43 174.77,53.79 170.80,54.15 166.75,54.47 162.71,54.79 158.48,55.01 154.26,55.24 150.74,55.23 147.22,55.22 143.71,55.21 140.20,55.19 136.69,55.15 133.18,55.11 129.68,55.02 126.19,54.92 122.28,54.70 118.38,54.48 115.44,54.49 112.51,54.49 109.30,54.50 106.10,54.50 102.79,54.51 99.48,54.52 95.92,54.52 92.37,54.53 89.81,54.54 87.26,54.54 84.96,54.54 82.65,54.54 80.41,54.52 78.17,54.50 75.55,54.42 72.93,54.33 69.50,54.11 66.07,53.88 63.15,53.81 60.24,53.74 57.80,53.52 55.37,53.29 53.42,53.17 51.48,53.05 49.81,53.03 48.14,53.01 46.87,52.88 45.61,52.75 44.34,52.50 43.08,52.26 41.36,51.89 39.64,51.52 37.69,51.21 35.74,50.90 33.45,50.65 31.15,50.40 29.49,50.47 27.84,50.55 26.58,50.55 25.32,50.56 23.94,50.59 22.57,50.61 20.40,50.52 18.24,50.44 16.86,50.31 15.47,50.19 14.38,49.99 13.28,49.78 11.67,49.73 10.05,49.67 8.11,49.53 6.17,49.38 4.99,49.44 3.81,49.49 2.73,49.91 1.66,50.32 0.33,50.46 -1.00,50.60 -2.28,50.63 -3.57,50.67 -5.36,50.92 -7.15,51.17 -8.36,51.16 -9.57,51.14 -10.49,50.27 -11.41,49.41 -11.43,47.71 -11.45,46.02 -11.18,44.77 -10.91,43.52 -10.60,42.43 -10.29,41.34 -9.79,40.11 -9.28,38.89 -8.84,36.86 -8.39,34.83 -7.87,32.12 -7.35,29.40 -6.66,26.28 -5.96,23.15 -5.36,19.43 -4.75,15.71 -4.34,12.71 -3.93,9.70 -3.45,6.85 -2.97,4.00 -2.36,1.74 -1.75,-0.52 -1.67,-0.73 -1.58,-0.93 -1.44,-1.10 -1.31,-1.28 -1.13,-1.42 -0.96,-1.56 -0.76,-1.65 -0.56,-1.74 -0.34,-1.79 -0.13,-1.83 0.09,-1.82 0.31,-1.81 0.52,-1.74 0.73,-1.68 0.92,-1.57 1.11,-1.45 1.27,-1.30 1.43,-1.14 1.55,-0.95 1.66,-0.77 1.73,-0.56 1.80,-0.35 1.81,-0.12 1.83,0.09 1.79,0.30 1.75,0.52 1.75,0.52 L 1.75,0.52 Z"></path></g><g transform="translate(408.0242562762321 183.52754801310675) rotate(0 25.794658483222292 2.3449682753425805)" stroke="none"><path fill="#000000" d="M 0,-2.01 Q 0,-2.01 1.57,-2.03 3.14,-2.06 5.05,-2.20 6.96,-2.35 9.96,-3.01 12.96,-3.68 15.91,-4.19 18.86,-4.69 21.40,-5.32 23.93,-5.95 25.93,-6.45 27.93,-6.95 29.27,-7.29 30.61,-7.62 32.15,-7.97 33.69,-8.31 35.18,-6.80 36.66,-5.28 37.42,-4.20 38.18,-3.11 39.13,-2.01 40.08,-0.91 41.18,0.55 42.29,2.02 43.37,3.25 44.46,4.48 45.53,5.36 46.60,6.24 47.90,7.54 49.21,8.84 50.56,8.96 51.91,9.08 52.32,9.20 52.73,9.32 53.08,9.57 53.44,9.82 53.69,10.16 53.95,10.51 54.08,10.92 54.21,11.32 54.21,11.75 54.20,12.18 54.06,12.59 53.91,12.99 53.65,13.33 53.39,13.67 53.03,13.91 52.67,14.14 52.25,14.25 51.84,14.36 51.41,14.34 50.98,14.31 50.58,14.14 50.19,13.98 49.86,13.70 49.54,13.41 49.32,13.04 49.10,12.67 49.02,12.25 48.93,11.83 48.98,11.40 49.03,10.98 49.22,10.59 49.41,10.20 49.71,9.89 50.00,9.58 50.39,9.39 50.77,9.19 51.19,9.13 51.62,9.06 52.04,9.14 52.47,9.21 52.84,9.42 53.22,9.63 53.51,9.94 53.80,10.26 53.98,10.65 54.15,11.04 54.19,11.47 54.23,11.90 54.14,12.32 54.04,12.74 53.81,13.10 53.59,13.47 53.25,13.74 52.92,14.01 52.52,14.17 52.12,14.32 51.69,14.34 51.26,14.36 51.26,14.36 51.26,14.36 49.64,13.83 48.02,13.31 46.63,12.43 45.24,11.56 44.50,10.57 43.75,9.58 42.50,8.48 41.25,7.38 40.04,6.06 38.83,4.75 37.72,3.41 36.60,2.06 35.49,0.76 34.37,-0.52 32.79,-2.38 31.20,-4.23 29.95,-4.12 28.69,-4.02 26.71,-3.49 24.72,-2.96 22.10,-2.22 19.48,-1.48 16.64,-0.88 13.81,-0.28 10.60,0.58 7.39,1.45 5.27,1.75 3.14,2.06 1.57,2.03 0,2.01 -0.24,1.98 -0.48,1.95 -0.70,1.86 -0.93,1.78 -1.13,1.64 -1.33,1.50 -1.49,1.32 -1.65,1.14 -1.76,0.92 -1.87,0.71 -1.93,0.47 -1.99,0.24 -1.99,-0.00 -1.99,-0.24 -1.93,-0.47 -1.87,-0.71 -1.76,-0.92 -1.65,-1.14 -1.49,-1.32 -1.33,-1.50 -1.13,-1.64 -0.93,-1.78 -0.70,-1.86 -0.48,-1.95 -0.24,-1.98 0.00,-2.01 0.00,-2.01 L 0,-2.01 Z"></path></g><g transform="translate(401.6094410765875 366.273437449614) rotate(0 25.794658483222292 2.3449682753425805)" stroke="none"><path fill="#000000" d="M 0,-2.01 Q 0,-2.01 1.57,-2.03 3.14,-2.06 5.05,-2.20 6.96,-2.35 9.96,-3.01 12.96,-3.68 15.91,-4.19 18.86,-4.69 21.40,-5.32 23.93,-5.95 25.93,-6.45 27.93,-6.95 29.27,-7.29 30.61,-7.62 32.15,-7.97 33.69,-8.31 35.18,-6.80 36.66,-5.28 37.42,-4.20 38.18,-3.11 39.13,-2.01 40.08,-0.91 41.18,0.55 42.29,2.02 43.37,3.25 44.46,4.48 45.53,5.36 46.60,6.24 47.90,7.54 49.21,8.84 50.56,8.96 51.91,9.08 52.32,9.20 52.73,9.32 53.08,9.57 53.44,9.82 53.69,10.16 53.95,10.51 54.08,10.92 54.21,11.32 54.21,11.75 54.20,12.18 54.06,12.59 53.91,12.99 53.65,13.33 53.39,13.67 53.03,13.91 52.67,14.14 52.25,14.25 51.84,14.36 51.41,14.34 50.98,14.31 50.58,14.14 50.19,13.98 49.86,13.70 49.54,13.41 49.32,13.04 49.10,12.67 49.02,12.25 48.93,11.83 48.98,11.40 49.03,10.98 49.22,10.59 49.41,10.20 49.71,9.89 50.00,9.58 50.39,9.39 50.77,9.19 51.19,9.13 51.62,9.06 52.04,9.14 52.47,9.21 52.84,9.42 53.22,9.63 53.51,9.94 53.80,10.26 53.98,10.65 54.15,11.04 54.19,11.47 54.23,11.90 54.14,12.32 54.04,12.74 53.81,13.10 53.59,13.47 53.25,13.74 52.92,14.01 52.52,14.17 52.12,14.32 51.69,14.34 51.26,14.36 51.26,14.36 51.26,14.36 49.64,13.83 48.02,13.31 46.63,12.43 45.24,11.56 44.50,10.57 43.75,9.58 42.50,8.48 41.25,7.38 40.04,6.06 38.83,4.75 37.72,3.41 36.60,2.06 35.49,0.76 34.37,-0.52 32.79,-2.38 31.20,-4.23 29.95,-4.12 28.69,-4.02 26.71,-3.49 24.72,-2.96 22.10,-2.22 19.48,-1.48 16.64,-0.88 13.81,-0.28 10.60,0.58 7.39,1.45 5.27,1.75 3.14,2.06 1.57,2.03 0,2.01 -0.24,1.98 -0.48,1.95 -0.70,1.86 -0.93,1.78 -1.13,1.64 -1.33,1.50 -1.49,1.32 -1.65,1.14 -1.76,0.92 -1.87,0.71 -1.93,0.47 -1.99,0.24 -1.99,-0.00 -1.99,-0.24 -1.93,-0.47 -1.87,-0.71 -1.76,-0.92 -1.65,-1.14 -1.49,-1.32 -1.33,-1.50 -1.13,-1.64 -0.93,-1.78 -0.70,-1.86 -0.48,-1.95 -0.24,-1.98 0.00,-2.01 0.00,-2.01 L 0,-2.01 Z"></path></g><g transform="translate(120.37500334684978 153.8246264646923) rotate(0 177.43584089609124 -25.012977543278794)" stroke="none"><path fill="#000000" d="M -2.20,0.36 Q -2.20,0.36 -2.46,-0.98 -2.71,-2.33 -2.61,-4.09 -2.50,-5.84 -2.36,-7.74 -2.21,-9.64 -1.85,-12.34 -1.49,-15.04 -1.33,-17.01 -1.18,-18.99 -0.94,-20.64 -0.71,-22.29 -0.71,-24.20 -0.72,-26.11 -0.81,-27.71 -0.91,-29.31 -0.97,-30.41 -1.04,-31.51 -0.77,-32.58 -0.50,-33.65 -0.55,-34.81 -0.59,-35.97 -0.26,-37.01 0.05,-38.06 0.90,-39.31 1.75,-40.57 4.42,-41.24 7.08,-41.91 9.34,-41.76 11.60,-41.62 14.24,-41.69 16.88,-41.77 21.26,-41.75 25.64,-41.73 29.73,-41.68 33.82,-41.63 38.03,-41.58 42.24,-41.53 47.40,-41.48 52.56,-41.44 57.22,-41.41 61.89,-41.37 66.34,-41.34 70.79,-41.32 75.16,-41.30 79.52,-41.28 83.85,-41.26 88.18,-41.25 94.04,-41.46 99.89,-41.68 105.30,-41.99 110.71,-42.30 116.16,-42.66 121.60,-43.01 126.61,-43.38 131.62,-43.76 137.55,-44.36 143.49,-44.97 148.46,-45.67 153.44,-46.38 157.60,-46.90 161.75,-47.43 165.58,-47.65 169.41,-47.88 173.02,-48.20 176.64,-48.52 180.69,-48.65 184.74,-48.79 187.98,-49.07 191.23,-49.35 194.68,-49.47 198.13,-49.59 201.39,-49.65 204.65,-49.70 208.48,-49.94 212.30,-50.19 215.30,-50.29 218.31,-50.40 220.94,-50.44 223.57,-50.49 226.03,-50.51 228.50,-50.52 230.90,-50.53 233.29,-50.54 235.88,-50.54 238.48,-50.55 240.93,-50.55 243.38,-50.55 245.99,-50.55 248.61,-50.55 251.51,-50.55 254.42,-50.55 257.91,-50.55 261.39,-50.55 264.22,-50.55 267.05,-50.55 269.37,-50.55 271.70,-50.55 274.26,-50.55 276.82,-50.55 279.04,-50.55 281.25,-50.55 284.21,-50.55 287.17,-50.55 289.62,-50.32 292.06,-50.10 294.17,-50.00 296.27,-49.91 298.29,-49.89 300.30,-49.87 303.01,-49.62 305.72,-49.37 307.94,-49.27 310.17,-49.16 312.01,-49.17 313.85,-49.19 315.53,-49.24 317.21,-49.29 318.38,-49.39 319.54,-49.48 320.93,-49.55 322.32,-49.62 323.59,-49.68 324.86,-49.75 326.11,-50.05 327.36,-50.34 328.56,-50.55 329.77,-50.76 331.97,-51.20 334.18,-51.64 336.28,-51.96 338.39,-52.27 339.85,-52.51 341.32,-52.75 342.97,-52.82 344.63,-52.89 345.78,-52.90 346.92,-52.90 348.48,-52.95 350.04,-53.00 351.28,-53.04 352.52,-53.09 354.05,-52.98 355.58,-52.88 356.67,-52.18 357.76,-51.49 358.22,-50.19 358.67,-48.89 358.47,-47.58 358.26,-46.28 357.91,-44.28 357.56,-42.29 357.10,-40.48 356.63,-38.67 355.28,-39.00 353.92,-39.33 353.72,-38.99 353.52,-38.65 353.25,-38.38 352.97,-38.10 352.64,-37.89 352.30,-37.69 351.93,-37.57 351.56,-37.45 351.17,-37.43 350.78,-37.40 350.39,-37.47 350.01,-37.54 349.65,-37.70 349.29,-37.86 348.99,-38.10 348.68,-38.34 348.43,-38.64 348.19,-38.95 348.03,-39.30 347.87,-39.66 347.79,-40.04 347.72,-40.43 347.74,-40.82 347.77,-41.21 347.88,-41.58 347.99,-41.96 348.07,-40.50 348.14,-39.04 347.96,-39.53 347.77,-40.03 347.76,-40.55 347.74,-41.08 347.90,-41.58 348.05,-42.08 348.36,-42.51 348.66,-42.93 349.09,-43.24 349.51,-43.55 350.02,-43.70 350.52,-43.85 351.04,-43.84 351.57,-43.83 352.06,-43.65 352.55,-43.47 352.96,-43.14 353.37,-42.81 353.65,-42.37 353.94,-41.93 354.06,-41.42 354.19,-40.91 354.15,-40.38 354.11,-39.86 353.90,-39.38 353.69,-38.90 353.34,-38.51 352.99,-38.11 352.54,-37.86 352.08,-37.60 351.56,-37.50 351.05,-37.40 350.53,-37.47 350.01,-37.54 349.54,-37.77 349.07,-38.01 348.70,-38.38 348.33,-38.75 348.09,-39.22 347.86,-39.69 347.79,-40.21 347.72,-40.73 347.81,-41.24 347.91,-41.76 348.17,-42.21 348.43,-42.67 348.82,-43.02 349.21,-43.37 349.69,-43.58 350.17,-43.79 350.70,-43.83 351.22,-43.87 351.73,-43.75 352.24,-43.62 352.68,-43.34 353.12,-43.06 353.52,-41.19 353.92,-39.33 353.72,-38.99 353.52,-38.65 353.25,-38.38 352.97,-38.10 352.64,-37.89 352.31,-37.69 351.93,-37.57 351.56,-37.45 351.17,-37.43 350.78,-37.40 350.39,-37.47 350.01,-37.54 349.65,-37.70 349.30,-37.86 348.99,-38.10 348.68,-38.34 348.43,-38.64 348.19,-38.95 348.03,-39.30 347.87,-39.66 347.79,-40.04 347.72,-40.43 347.74,-40.82 347.77,-41.21 347.88,-41.58 347.99,-41.96 349.55,-41.79 351.10,-41.63 351.23,-42.69 351.37,-43.76 351.95,-45.36 352.52,-46.95 351.28,-47.00 350.04,-47.04 348.49,-47.09 346.94,-47.13 345.80,-47.13 344.67,-47.13 343.22,-47.14 341.76,-47.16 340.57,-47.10 339.38,-47.05 337.91,-46.78 336.43,-46.51 334.60,-46.45 332.77,-46.39 330.82,-46.15 328.88,-45.91 326.86,-45.76 324.85,-45.61 323.58,-45.68 322.32,-45.75 320.92,-45.82 319.52,-45.89 318.35,-46.01 317.18,-46.12 315.48,-46.21 313.79,-46.30 311.92,-46.39 310.05,-46.49 307.76,-46.59 305.47,-46.69 302.86,-46.93 300.25,-47.16 298.20,-47.22 296.15,-47.29 293.98,-47.38 291.82,-47.48 289.49,-47.70 287.17,-47.93 284.21,-47.93 281.25,-47.93 279.04,-47.93 276.82,-47.93 274.26,-47.93 271.70,-47.93 269.37,-47.93 267.05,-47.93 264.22,-47.93 261.39,-47.93 257.91,-47.93 254.42,-47.93 251.51,-47.93 248.61,-47.92 245.99,-47.92 243.38,-47.92 240.93,-47.92 238.48,-47.92 235.89,-47.92 233.30,-47.91 230.91,-47.91 228.52,-47.90 226.06,-47.88 223.61,-47.86 221.00,-47.82 218.40,-47.77 215.43,-47.67 212.46,-47.56 208.58,-47.32 204.70,-47.07 201.46,-47.02 198.22,-46.97 194.84,-46.85 191.46,-46.73 188.14,-46.44 184.83,-46.16 180.85,-46.03 176.87,-45.89 173.22,-45.57 169.57,-45.25 165.83,-45.03 162.09,-44.81 157.95,-44.28 153.81,-43.75 148.78,-43.04 143.76,-42.33 137.79,-41.71 131.82,-41.10 126.80,-40.71 121.78,-40.33 116.33,-39.96 110.87,-39.60 105.44,-39.27 100.00,-38.94 94.09,-38.70 88.18,-38.47 83.85,-38.45 79.52,-38.44 75.16,-38.42 70.80,-38.40 66.34,-38.37 61.89,-38.34 57.22,-38.30 52.56,-38.25 47.41,-38.19 42.25,-38.13 38.05,-38.04 33.86,-37.95 29.80,-37.81 25.74,-37.67 21.52,-37.45 17.30,-37.22 14.51,-36.80 11.73,-36.38 9.69,-36.12 7.65,-35.86 6.45,-35.77 5.26,-35.68 5.19,-34.59 5.11,-33.51 4.61,-31.96 4.11,-30.41 3.99,-29.01 3.88,-27.62 3.66,-25.78 3.45,-23.95 3.24,-22.79 3.04,-21.63 2.73,-20.22 2.43,-18.80 2.37,-16.74 2.32,-14.68 2.19,-12.10 2.05,-9.52 2.08,-7.48 2.11,-5.43 1.96,-4.24 1.81,-3.05 2.01,-1.71 2.20,-0.36 2.22,-0.09 2.23,0.17 2.17,0.43 2.12,0.70 2.01,0.94 1.89,1.18 1.72,1.39 1.55,1.60 1.34,1.77 1.12,1.93 0.87,2.04 0.63,2.14 0.36,2.19 0.09,2.23 -0.17,2.21 -0.43,2.19 -0.69,2.11 -0.95,2.02 -1.18,1.88 -1.40,1.73 -1.59,1.54 -1.78,1.35 -1.92,1.11 -2.05,0.88 -2.13,0.62 -2.20,0.36 -2.20,0.36 L -2.20,0.36 Z"></path></g><g transform="translate(472.9016945003432 110.83356874971469) rotate(0 -0.7816436676999956 8.98904381307375)" stroke="none"><path fill="#000000" d="M 2.59,0.43 Q 2.59,0.43 2.36,1.78 2.13,3.12 2.06,5.09 1.99,7.05 1.75,8.87 1.50,10.68 1.51,12.11 1.51,13.53 1.54,15.75 1.57,17.97 1.49,18.48 1.41,18.98 1.17,19.43 0.93,19.87 0.56,20.22 0.19,20.57 -0.26,20.79 -0.72,21.00 -1.22,21.05 -1.73,21.11 -2.23,21.00 -2.72,20.89 -3.16,20.63 -3.59,20.37 -3.92,19.98 -4.25,19.59 -4.44,19.12 -4.62,18.65 -4.65,18.14 -4.68,17.63 -4.54,17.14 -4.41,16.65 -4.12,16.23 -3.84,15.81 -3.43,15.51 -3.03,15.20 -2.55,15.04 -2.06,14.87 -1.56,14.87 -1.05,14.87 -0.57,15.04 -0.09,15.20 0.31,15.51 0.71,15.81 1.00,16.24 1.28,16.66 1.42,17.15 1.55,17.64 1.53,18.14 1.50,18.65 1.31,19.12 1.12,19.59 0.79,19.98 0.46,20.37 0.03,20.63 -0.40,20.89 -0.89,21.00 -1.39,21.11 -1.89,21.05 -2.40,21.00 -2.86,20.78 -3.32,20.57 -3.69,20.22 -4.06,19.87 -4.30,19.42 -4.53,18.97 -4.62,18.47 -4.70,17.97 -4.70,17.97 -4.70,17.97 -4.68,16.10 -4.66,14.24 -4.56,12.90 -4.46,11.56 -4.20,10.27 -3.94,8.99 -3.69,7.92 -3.44,6.85 -3.37,5.67 -3.31,4.49 -3.17,3.37 -3.03,2.26 -2.81,0.91 -2.59,-0.43 -2.50,-0.73 -2.42,-1.04 -2.26,-1.31 -2.10,-1.59 -1.87,-1.81 -1.65,-2.04 -1.38,-2.21 -1.12,-2.38 -0.81,-2.48 -0.51,-2.58 -0.19,-2.60 0.11,-2.63 0.43,-2.58 0.74,-2.52 1.03,-2.40 1.32,-2.27 1.58,-2.08 1.83,-1.89 2.03,-1.64 2.23,-1.39 2.36,-1.11 2.50,-0.82 2.56,-0.51 2.62,-0.20 2.61,0.11 2.59,0.43 2.59,0.43 L 2.59,0.43 Z"></path></g><g transform="translate(458.8318699393876 124.90337840177381) rotate(0 15.633111896355445 1.9541389870437342)" stroke="none"><path fill="#000000" d="M 0.87,-2.32 Q 0.87,-2.32 2.64,-1.55 4.41,-0.78 6.06,0.31 7.70,1.41 8.99,2.27 10.28,3.12 11.39,3.97 12.50,4.81 13.46,5.38 14.42,5.95 15.51,5.42 16.59,4.89 18.38,4.12 20.17,3.36 21.32,2.39 22.48,1.43 23.44,0.25 24.40,-0.93 25.38,-2.07 26.35,-3.21 26.50,-4.32 26.65,-5.43 26.86,-5.68 27.08,-5.93 27.35,-6.12 27.62,-6.31 27.92,-6.43 28.23,-6.55 28.56,-6.59 28.88,-6.64 29.21,-6.60 29.54,-6.57 29.85,-6.45 30.16,-6.34 30.43,-6.15 30.70,-5.97 30.93,-5.73 31.15,-5.48 31.30,-5.19 31.46,-4.90 31.54,-4.58 31.63,-4.27 31.63,-3.94 31.63,-3.61 31.56,-3.29 31.48,-2.96 31.33,-2.67 31.18,-2.38 30.05,-1.77 28.92,-1.17 28.48,-1.24 28.05,-1.31 27.66,-1.52 27.27,-1.72 26.96,-2.04 26.66,-2.37 26.47,-2.77 26.28,-3.17 26.24,-3.61 26.19,-4.05 26.28,-4.48 26.38,-4.91 26.60,-5.29 26.83,-5.67 27.17,-5.96 27.50,-6.24 27.91,-6.41 28.32,-6.57 28.77,-6.60 29.21,-6.62 29.63,-6.50 30.06,-6.39 30.43,-6.14 30.79,-5.89 31.06,-5.54 31.33,-5.19 31.47,-4.77 31.61,-4.35 31.61,-3.91 31.61,-3.47 31.47,-3.05 31.33,-2.63 31.07,-2.27 30.80,-1.92 30.43,-1.67 30.07,-1.42 29.64,-1.31 29.22,-1.19 28.77,-1.21 28.33,-1.23 27.92,-1.40 27.51,-1.56 27.17,-1.84 26.84,-2.13 26.61,-2.51 26.38,-2.89 26.28,-3.32 26.19,-3.75 26.23,-4.19 26.28,-4.63 26.47,-5.03 26.65,-5.43 26.96,-5.76 27.26,-6.08 27.65,-6.28 28.04,-6.49 27.34,-5.96 26.65,-5.43 26.86,-5.68 27.08,-5.93 27.35,-6.12 27.62,-6.31 27.92,-6.43 28.23,-6.55 28.56,-6.59 28.88,-6.64 29.21,-6.60 29.54,-6.57 29.85,-6.45 30.16,-6.34 30.43,-6.15 30.70,-5.97 30.93,-5.73 31.15,-5.48 31.30,-5.19 31.46,-4.90 31.54,-4.58 31.63,-4.27 31.63,-3.94 31.63,-3.61 31.56,-3.29 31.48,-2.96 31.33,-2.67 31.18,-2.38 31.48,-2.10 31.77,-1.82 31.06,-0.83 30.36,0.15 29.52,1.16 28.68,2.18 27.48,3.95 26.29,5.72 24.22,7.20 22.16,8.68 20.33,9.37 18.51,10.07 17.49,10.39 16.48,10.71 14.36,10.62 12.23,10.52 10.90,9.46 9.56,8.40 8.68,7.62 7.79,6.84 6.51,5.98 5.23,5.12 4.00,4.30 2.77,3.48 0.95,2.90 -0.87,2.32 -1.13,2.18 -1.40,2.04 -1.62,1.84 -1.85,1.65 -2.02,1.40 -2.19,1.16 -2.29,0.88 -2.40,0.60 -2.44,0.30 -2.48,0.00 -2.44,-0.28 -2.41,-0.58 -2.30,-0.86 -2.20,-1.14 -2.03,-1.39 -1.86,-1.63 -1.63,-1.83 -1.41,-2.03 -1.15,-2.17 -0.88,-2.31 -0.59,-2.38 -0.30,-2.46 -0.00,-2.46 0.29,-2.46 0.58,-2.39 0.87,-2.32 0.87,-2.32 L 0.87,-2.32 Z"></path></g><g transform="translate(204.01215795591065 10) rotate(0 67.58203125 9.599999999999909)"><text x="0" y="0" font-family="Helvetica, Segoe UI Emoji" font-size="16px" fill="#000000" text-anchor="start" style="white-space: pre;" direction="ltr">Array destructuring</text></g><g transform="translate(96.92533550231656 339.51668669036644) rotate(0 200.49465708897992 -37.910299330441376)" stroke="none"><path fill="#000000" d="M -2.14,-0.47 Q -2.14,-0.47 -1.59,-2.47 -1.04,-4.47 -0.86,-6.12 -0.68,-7.77 -0.65,-9.14 -0.62,-10.52 -0.62,-11.99 -0.61,-13.46 -0.58,-15.20 -0.54,-16.95 -0.54,-18.59 -0.54,-20.23 -0.55,-21.83 -0.56,-23.43 -0.57,-25.01 -0.58,-26.58 -0.62,-27.93 -0.66,-29.28 -0.44,-30.92 -0.22,-32.56 -0.19,-34.64 -0.16,-36.72 0.08,-38.26 0.34,-39.81 0.41,-41.67 0.48,-43.54 0.95,-44.57 1.42,-45.59 2.78,-46.52 4.13,-47.45 6.07,-47.84 8.00,-48.24 10.24,-48.65 12.48,-49.06 15.28,-49.64 18.08,-50.21 21.07,-50.86 24.07,-51.51 27.44,-52.00 30.82,-52.48 33.33,-52.88 35.85,-53.28 38.04,-53.66 40.24,-54.03 42.29,-54.41 44.35,-54.79 46.59,-55.17 48.83,-55.54 51.83,-55.92 54.83,-56.30 57.20,-56.68 59.56,-57.06 61.52,-57.27 63.48,-57.48 65.29,-57.98 67.10,-58.49 69.56,-58.93 72.01,-59.37 74.15,-59.76 76.29,-60.16 78.56,-60.55 80.84,-60.94 83.21,-61.11 85.59,-61.28 87.65,-61.57 89.71,-61.86 92.64,-62.21 95.58,-62.55 98.43,-62.70 101.29,-62.85 104.48,-63.14 107.68,-63.42 111.29,-63.77 114.90,-64.11 119.40,-64.26 123.90,-64.41 127.83,-64.47 131.75,-64.53 135.22,-64.56 138.69,-64.59 141.96,-64.60 145.24,-64.61 148.61,-64.84 151.98,-65.06 156.60,-65.16 161.23,-65.26 164.99,-65.30 168.74,-65.34 171.92,-65.36 175.09,-65.38 177.78,-65.39 180.48,-65.39 183.65,-65.40 186.82,-65.40 189.69,-65.62 192.56,-65.85 195.62,-65.95 198.69,-66.04 201.57,-66.08 204.44,-66.13 206.96,-66.36 209.47,-66.60 212.81,-66.93 216.14,-67.26 219.17,-67.40 222.19,-67.54 225.05,-67.60 227.91,-67.66 230.42,-67.91 232.93,-68.16 236.26,-68.49 239.59,-68.82 242.62,-68.96 245.64,-69.10 248.68,-69.39 251.72,-69.67 254.86,-69.79 257.99,-69.91 260.62,-70.19 263.24,-70.46 266.17,-70.80 269.09,-71.14 271.72,-71.29 274.36,-71.44 276.77,-71.72 279.18,-72.01 281.84,-72.13 284.50,-72.26 288.52,-72.53 292.54,-72.81 295.84,-72.93 299.15,-73.05 301.86,-73.32 304.56,-73.59 306.82,-73.93 309.08,-74.26 310.91,-74.68 312.74,-75.09 315.43,-75.24 318.12,-75.40 320.30,-75.68 322.48,-75.96 324.60,-76.09 326.71,-76.22 328.74,-76.30 330.76,-76.37 332.97,-76.38 335.19,-76.39 337.02,-76.45 338.86,-76.51 340.43,-76.80 342.01,-77.08 343.91,-77.21 345.81,-77.34 347.74,-77.38 349.67,-77.43 351.84,-77.40 354.01,-77.37 355.60,-77.44 357.20,-77.52 358.55,-77.60 359.90,-77.69 362.71,-77.76 365.52,-77.83 366.95,-77.88 368.38,-77.92 370.11,-77.91 371.85,-77.90 373.93,-77.80 376.02,-77.71 378.25,-77.64 380.49,-77.56 382.56,-77.51 384.63,-77.47 385.96,-77.56 387.29,-77.65 388.64,-77.80 389.99,-77.96 391.42,-78.09 392.85,-78.22 394.17,-78.32 395.48,-78.42 397.20,-78.31 398.93,-78.19 400.56,-77.33 402.20,-76.46 403.10,-74.74 404.01,-73.03 404.07,-71.24 404.12,-69.46 404.11,-68.36 404.10,-67.27 404.12,-65.51 404.13,-63.75 403.86,-62.40 403.60,-61.04 403.49,-59.27 403.37,-57.50 403.37,-55.91 403.37,-54.31 403.33,-53.08 403.30,-51.85 403.28,-50.65 403.26,-49.45 403.27,-47.63 403.29,-45.82 403.32,-44.43 403.35,-43.05 403.40,-41.75 403.45,-40.46 403.50,-39.28 403.54,-38.09 403.57,-35.46 403.60,-32.82 403.51,-32.28 403.43,-31.74 403.17,-31.25 402.91,-30.77 402.51,-30.39 402.11,-30.01 401.61,-29.78 401.11,-29.55 400.57,-29.49 400.02,-29.43 399.48,-29.55 398.94,-29.67 398.47,-29.95 398.00,-30.23 397.64,-30.65 397.29,-31.07 397.08,-31.58 396.88,-32.09 396.85,-32.64 396.82,-33.19 396.97,-33.72 397.12,-34.25 397.43,-34.71 397.73,-35.16 398.17,-35.50 398.61,-35.83 399.13,-36.01 399.65,-36.18 400.20,-36.18 400.75,-36.18 401.27,-36.00 401.80,-35.83 402.23,-35.50 402.67,-35.16 402.98,-34.71 403.29,-34.25 403.44,-33.72 403.58,-33.19 403.55,-32.64 403.52,-32.09 403.32,-31.58 403.12,-31.07 402.76,-30.65 402.40,-30.23 401.93,-29.95 401.46,-29.66 400.92,-29.55 400.39,-29.43 399.84,-29.49 399.29,-29.55 398.79,-29.78 398.29,-30.01 397.89,-30.39 397.49,-30.77 397.24,-31.25 396.98,-31.74 396.89,-32.28 396.80,-32.83 396.80,-32.83 396.80,-32.82 396.84,-35.46 396.87,-38.09 396.91,-39.28 396.95,-40.46 397.00,-41.75 397.05,-43.05 397.08,-44.43 397.12,-45.82 397.13,-47.64 397.15,-49.46 397.13,-50.66 397.11,-51.86 397.10,-53.94 397.09,-56.02 397.17,-57.88 397.25,-59.75 397.54,-61.76 397.83,-63.78 397.84,-65.51 397.85,-67.25 397.84,-68.32 397.82,-69.40 397.96,-70.90 398.10,-72.40 396.79,-72.81 395.48,-73.21 394.17,-73.31 392.85,-73.41 391.42,-73.54 389.99,-73.67 388.64,-73.83 387.29,-73.98 385.96,-74.07 384.63,-74.16 382.56,-74.12 380.49,-74.07 378.25,-74.00 376.02,-73.92 373.93,-73.83 371.85,-73.74 370.12,-73.72 368.38,-73.71 366.95,-73.75 365.52,-73.80 362.71,-73.87 359.91,-73.93 358.56,-74.01 357.21,-74.09 355.62,-74.15 354.03,-74.21 351.89,-74.15 349.74,-74.08 347.86,-74.04 345.99,-74.01 344.21,-73.94 342.44,-73.87 340.66,-73.70 338.88,-73.53 337.05,-73.57 335.21,-73.61 333.03,-73.58 330.84,-73.54 328.86,-73.51 326.88,-73.48 324.85,-73.36 322.83,-73.25 320.56,-72.95 318.29,-72.64 315.79,-72.48 313.29,-72.32 311.38,-72.00 309.47,-71.67 307.14,-71.32 304.82,-70.98 302.03,-70.70 299.25,-70.42 295.98,-70.30 292.72,-70.19 288.67,-69.91 284.62,-69.63 282.05,-69.52 279.48,-69.40 276.99,-69.11 274.50,-68.82 271.95,-68.68 269.39,-68.53 266.45,-68.19 263.51,-67.85 260.81,-67.57 258.10,-67.29 255.03,-67.17 251.96,-67.05 248.86,-66.77 245.77,-66.48 242.81,-66.34 239.85,-66.20 236.52,-65.87 233.18,-65.54 230.58,-65.29 227.97,-65.04 225.14,-64.98 222.31,-64.92 219.36,-64.78 216.40,-64.64 213.06,-64.32 209.72,-63.99 207.10,-63.74 204.48,-63.50 201.63,-63.46 198.78,-63.42 195.77,-63.32 192.76,-63.23 189.79,-63.00 186.82,-62.77 183.65,-62.77 180.49,-62.77 177.79,-62.76 175.10,-62.75 171.94,-62.73 168.77,-62.72 165.03,-62.67 161.28,-62.63 156.72,-62.54 152.15,-62.44 148.70,-62.21 145.24,-61.98 141.98,-61.96 138.71,-61.95 135.25,-61.93 131.80,-61.90 127.89,-61.84 123.99,-61.77 119.57,-61.63 115.15,-61.48 111.53,-61.13 107.91,-60.78 104.67,-60.49 101.43,-60.20 98.66,-60.05 95.89,-59.90 92.99,-59.55 90.09,-59.19 87.94,-58.88 85.79,-58.58 83.55,-58.41 81.31,-58.24 79.07,-57.83 76.82,-57.42 74.68,-56.99 72.54,-56.56 70.20,-56.10 67.86,-55.65 65.80,-55.11 63.74,-54.58 61.87,-54.46 60.01,-54.33 57.60,-53.93 55.20,-53.52 52.27,-53.11 49.33,-52.71 47.13,-52.29 44.92,-51.88 42.87,-51.45 40.81,-51.03 38.62,-50.57 36.42,-50.11 33.90,-49.59 31.38,-49.08 28.18,-48.48 24.99,-47.88 22.05,-47.03 19.10,-46.18 16.39,-45.35 13.68,-44.52 11.42,-43.74 9.15,-42.96 7.33,-42.08 5.50,-41.20 5.35,-40.08 5.19,-38.96 4.96,-37.75 4.73,-36.53 4.64,-35.34 4.56,-34.15 4.40,-33.01 4.24,-31.87 4.01,-30.57 3.79,-29.27 3.75,-27.92 3.70,-26.58 3.69,-25.00 3.68,-23.42 3.66,-21.82 3.65,-20.22 3.64,-18.57 3.63,-16.91 3.63,-15.14 3.64,-13.36 3.57,-11.82 3.51,-10.28 3.38,-8.81 3.24,-7.34 3.04,-5.48 2.84,-3.61 2.49,-1.56 2.14,0.47 2.05,0.72 1.96,0.97 1.81,1.19 1.67,1.41 1.48,1.59 1.28,1.77 1.05,1.90 0.82,2.03 0.56,2.10 0.31,2.16 0.04,2.17 -0.21,2.18 -0.47,2.12 -0.73,2.06 -0.96,1.94 -1.20,1.83 -1.40,1.66 -1.60,1.49 -1.76,1.27 -1.91,1.06 -2.01,0.81 -2.11,0.57 -2.15,0.31 -2.19,0.05 -2.16,-0.21 -2.14,-0.47 -2.14,-0.47 L -2.14,-0.47 Z"></path></g><g transform="translate(483.0632410872099 301.9972241026726) rotate(0 16.80557739790538 9.379873101371686)" stroke="none"><path fill="#000000" d="M 2.07,-1.38 Q 2.07,-1.38 2.95,-0.01 3.82,1.35 4.51,2.73 5.21,4.11 5.89,5.85 6.56,7.58 7.11,9.00 7.66,10.42 7.98,11.61 8.30,12.80 8.85,14.26 9.39,15.72 10.04,16.66 10.69,17.59 11.23,16.63 11.76,15.67 12.94,15.12 14.11,14.58 15.21,13.96 16.30,13.35 17.79,12.63 19.28,11.91 20.50,11.22 21.72,10.52 22.92,9.78 24.11,9.05 25.19,8.18 26.26,7.31 27.35,5.92 28.44,4.53 29.28,3.56 30.12,2.59 31.02,1.38 31.91,0.17 32.25,0.03 32.58,-0.10 32.94,-0.16 33.30,-0.22 33.66,-0.19 34.02,-0.16 34.37,-0.05 34.71,0.06 35.02,0.25 35.33,0.45 35.58,0.71 35.83,0.97 36.01,1.29 36.19,1.60 36.29,1.95 36.39,2.30 36.41,2.66 36.42,3.03 36.35,3.38 36.28,3.74 36.12,4.07 35.96,4.39 35.73,4.68 35.50,4.96 35.21,5.17 34.92,5.39 33.45,5.40 31.99,5.41 31.04,6.07 30.10,6.73 29.62,6.85 29.13,6.96 28.64,6.92 28.14,6.87 27.69,6.67 27.24,6.47 26.87,6.13 26.51,5.80 26.27,5.36 26.03,4.93 25.94,4.44 25.85,3.95 25.92,3.46 26.00,2.97 26.22,2.53 26.45,2.09 26.80,1.74 27.15,1.39 27.60,1.18 28.05,0.96 28.54,0.90 29.03,0.84 29.52,0.94 30.00,1.04 30.43,1.29 30.86,1.53 31.19,1.91 31.52,2.28 31.71,2.74 31.90,3.20 31.93,3.69 31.97,4.18 31.84,4.66 31.72,5.14 31.45,5.56 31.18,5.98 30.79,6.28 30.40,6.59 29.93,6.75 29.46,6.92 28.97,6.93 28.47,6.94 28.00,6.79 27.52,6.64 27.12,6.34 26.73,6.05 26.44,5.64 26.16,5.24 26.01,4.76 25.87,4.28 25.89,3.79 25.91,3.29 26.09,2.83 26.26,2.37 26.58,1.98 26.89,1.60 27.31,1.34 27.74,1.07 27.73,1.07 27.73,1.07 29.82,0.62 31.91,0.17 32.25,0.03 32.58,-0.10 32.94,-0.16 33.30,-0.22 33.66,-0.19 34.02,-0.16 34.37,-0.05 34.71,0.06 35.02,0.25 35.33,0.45 35.58,0.71 35.83,0.97 36.01,1.29 36.19,1.60 36.29,1.95 36.39,2.30 36.41,2.66 36.42,3.03 36.35,3.38 36.28,3.74 36.12,4.07 35.96,4.39 35.73,4.68 35.50,4.96 35.21,5.17 34.92,5.39 34.96,5.28 35.00,5.16 34.21,6.24 33.41,7.32 32.42,8.28 31.43,9.24 30.53,10.26 29.62,11.28 28.31,12.42 27.01,13.56 25.77,14.37 24.54,15.19 23.23,16.02 21.92,16.86 20.61,17.63 19.30,18.40 18.05,19.19 16.79,19.97 14.91,20.91 13.03,21.85 11.94,22.15 10.85,22.46 9.25,22.17 7.65,21.89 6.31,20.36 4.96,18.83 4.57,17.39 4.17,15.95 3.73,14.01 3.28,12.08 2.78,10.74 2.28,9.41 1.54,7.83 0.80,6.26 0.28,5.15 -0.22,4.04 -1.15,2.71 -2.07,1.38 -2.21,1.11 -2.34,0.84 -2.41,0.55 -2.48,0.26 -2.47,-0.04 -2.47,-0.34 -2.39,-0.63 -2.32,-0.92 -2.17,-1.18 -2.03,-1.45 -1.82,-1.67 -1.62,-1.89 -1.37,-2.06 -1.12,-2.23 -0.84,-2.33 -0.55,-2.43 -0.25,-2.46 0.04,-2.49 0.33,-2.45 0.63,-2.41 0.91,-2.30 1.19,-2.19 1.44,-2.01 1.68,-1.84 1.88,-1.61 2.07,-1.38 2.07,-1.38 L 2.07,-1.38 Z"></path></g><g transform="translate(15.962855159832202 472.9232873263818) rotate(0 82.47265625 9.599999999999909)"><text x="0" y="0" font-family="Helvetica, Segoe UI Emoji" font-size="16px" fill="#000000" text-anchor="start" style="white-space: pre;" direction="ltr">const [  ,  ,  , num] = arr</text></g><g transform="translate(68.91395837063487 486.4817099700995) rotate(0 151.23382630723938 20.217014442455365)" stroke="none"><path fill="#000000" d="M 2.56,0 Q 2.56,0 2.60,0.90 2.64,1.81 2.71,3.23 2.79,4.65 3.06,5.86 3.34,7.08 3.71,9.20 4.09,11.33 4.32,12.59 4.55,13.85 4.64,15.47 4.73,17.09 4.87,18.53 5.01,19.98 5.24,21.16 5.46,22.33 5.69,23.79 5.92,25.25 6.05,26.57 6.18,27.90 6.37,29.08 6.55,30.26 6.76,31.70 6.97,33.14 7.22,34.31 7.47,35.47 7.63,36.56 7.79,37.65 7.92,39.45 8.06,41.25 8.12,42.94 8.18,44.62 8.19,44.77 8.21,44.92 8.16,45.27 8.12,45.63 8.00,45.96 7.87,46.30 7.67,46.59 7.47,46.89 7.20,47.13 6.94,47.36 6.62,47.53 6.31,47.70 5.96,47.79 5.62,47.87 5.26,47.87 4.90,47.88 4.55,47.79 4.21,47.71 3.89,47.54 3.57,47.38 3.30,47.14 3.04,46.91 2.83,46.62 2.63,46.32 2.50,45.99 2.37,45.66 2.33,45.30 2.28,44.95 3.61,43.44 4.95,41.93 5.87,41.23 6.79,40.53 8.93,39.93 11.08,39.33 13.60,39.02 16.13,38.72 18.85,38.52 21.57,38.31 24.59,38.27 27.60,38.23 30.80,38.09 34.00,37.96 37.51,37.93 41.02,37.89 45.79,37.60 50.55,37.30 54.58,37.18 58.61,37.07 61.96,36.88 65.30,36.69 69.02,36.61 72.74,36.54 75.80,36.36 78.85,36.19 81.54,36.11 84.23,36.04 86.89,36.01 89.54,35.98 92.18,35.97 94.82,35.96 98.17,35.81 101.53,35.66 104.77,35.44 108.00,35.23 111.19,34.99 114.38,34.74 117.54,34.49 120.71,34.24 124.91,33.83 129.12,33.42 133.01,32.95 136.89,32.47 141.23,31.67 145.57,30.87 150.27,29.78 154.97,28.69 159.87,27.77 164.78,26.84 169.60,26.15 174.42,25.45 180.10,24.85 185.78,24.25 190.14,23.70 194.49,23.14 197.99,22.61 201.49,22.07 204.01,21.55 206.53,21.02 207.85,20.55 209.16,20.07 210.77,19.29 212.38,18.52 213.94,17.83 215.50,17.15 217.04,16.82 218.58,16.50 220.09,16.23 221.61,15.96 223.74,15.93 225.88,15.90 230.43,16.11 234.98,16.32 239.94,16.74 244.90,17.17 250.19,17.83 255.49,18.49 260.46,19.25 265.43,20.00 269.79,20.63 274.15,21.27 277.50,21.70 280.85,22.12 283.35,22.47 285.84,22.81 287.04,22.83 288.24,22.84 289.24,21.95 290.23,21.06 291.18,20.17 292.14,19.28 293.12,18.39 294.11,17.51 294.93,16.82 295.76,16.13 297.00,15.17 298.24,14.22 299.51,13.76 300.78,13.31 300.01,11.85 299.23,10.39 299.28,8.17 299.32,5.96 299.19,4.22 299.06,2.48 298.76,0.31 298.45,-1.86 298.90,-2.37 299.34,-2.87 299.35,-3.25 299.37,-3.63 299.47,-3.99 299.57,-4.35 299.76,-4.68 299.95,-5.01 300.21,-5.28 300.47,-5.56 300.78,-5.76 301.10,-5.97 301.46,-6.09 301.82,-6.21 302.19,-6.24 302.57,-6.28 302.94,-6.22 303.31,-6.16 303.66,-6.01 304.01,-5.87 304.31,-5.64 304.62,-5.42 304.86,-5.13 305.10,-4.84 305.26,-4.50 305.43,-4.16 305.51,-3.79 305.58,-3.42 305.58,-3.46 305.57,-3.50 305.55,-3.00 305.53,-2.49 305.34,-2.02 305.16,-1.55 304.83,-1.16 304.50,-0.77 304.07,-0.51 303.64,-0.24 303.14,-0.13 302.65,-0.02 302.15,-0.07 301.64,-0.12 301.18,-0.33 300.72,-0.54 300.35,-0.89 299.98,-1.24 299.74,-1.68 299.50,-2.13 299.41,-2.63 299.33,-3.13 299.41,-3.63 299.49,-4.13 299.72,-4.58 299.96,-5.03 300.32,-5.38 300.69,-5.73 301.15,-5.94 301.61,-6.16 302.11,-6.22 302.62,-6.27 303.11,-6.17 303.61,-6.06 304.04,-5.80 304.48,-5.54 304.81,-5.16 305.14,-4.78 305.33,-4.31 305.52,-3.84 305.55,-3.33 305.58,-2.82 305.45,-2.33 305.31,-1.85 305.03,-1.42 304.75,-1.00 304.35,-0.69 303.94,-0.39 303.47,-0.22 302.99,-0.06 302.48,-0.05 301.97,-0.05 301.49,-0.21 301.01,-0.37 300.60,-0.67 300.20,-0.98 299.91,-1.40 299.63,-1.82 299.48,-2.34 299.34,-2.87 299.35,-3.25 299.37,-3.63 299.47,-3.99 299.57,-4.35 299.76,-4.68 299.95,-5.01 300.21,-5.28 300.46,-5.56 300.78,-5.76 301.10,-5.97 301.46,-6.09 301.81,-6.21 302.19,-6.24 302.57,-6.28 302.94,-6.22 303.31,-6.16 303.66,-6.01 304.01,-5.87 304.31,-5.64 304.62,-5.42 304.86,-5.13 305.10,-4.84 305.26,-4.50 305.43,-4.16 305.51,-3.79 305.58,-3.42 305.18,-2.05 304.78,-0.67 305.02,0.43 305.26,1.55 305.43,3.76 305.61,5.96 305.64,8.19 305.68,10.42 305.67,12.44 305.67,14.47 305.42,15.71 305.18,16.96 303.63,18.06 302.08,19.15 301.05,19.61 300.02,20.07 298.97,20.77 297.92,21.47 296.80,22.17 295.68,22.87 294.53,23.55 293.38,24.24 292.05,24.93 290.73,25.62 289.32,25.86 287.91,26.10 286.69,25.84 285.48,25.59 282.99,25.28 280.51,24.97 277.13,24.59 273.75,24.20 269.37,23.63 264.99,23.06 260.05,22.39 255.12,21.73 249.89,21.19 244.66,20.66 239.78,20.39 234.89,20.13 230.50,20.13 226.11,20.13 224.26,20.32 222.40,20.52 220.92,20.77 219.44,21.03 218.18,21.23 216.93,21.44 215.29,21.83 213.64,22.22 211.81,22.63 209.97,23.04 208.52,23.32 207.06,23.60 204.48,24.13 201.89,24.67 198.36,25.21 194.82,25.75 190.44,26.31 186.06,26.86 180.43,27.46 174.79,28.05 170.03,28.74 165.27,29.43 160.41,30.34 155.56,31.25 150.81,32.36 146.05,33.46 141.63,34.28 137.21,35.09 133.29,35.57 129.37,36.05 125.15,36.46 120.92,36.87 117.75,37.13 114.58,37.38 111.38,37.63 108.18,37.87 104.92,38.09 101.65,38.31 98.24,38.48 94.83,38.64 92.20,38.66 89.58,38.67 86.94,38.71 84.31,38.75 81.67,38.84 79.02,38.93 75.92,39.13 72.81,39.34 69.15,39.44 65.48,39.55 62.10,39.78 58.72,40.02 54.75,40.19 50.77,40.36 45.94,40.75 41.11,41.13 37.67,41.28 34.22,41.42 31.00,41.71 27.78,42.00 24.94,42.24 22.09,42.47 19.54,42.93 16.99,43.39 14.93,43.94 12.87,44.48 10.72,45.47 8.58,46.47 7.67,47.02 6.75,47.58 7.48,46.25 8.21,44.92 8.16,45.27 8.12,45.63 8.00,45.96 7.87,46.30 7.67,46.59 7.47,46.89 7.20,47.13 6.94,47.36 6.62,47.53 6.31,47.70 5.96,47.79 5.62,47.87 5.26,47.87 4.90,47.88 4.55,47.79 4.21,47.71 3.89,47.54 3.57,47.38 3.31,47.14 3.04,46.91 2.83,46.62 2.63,46.32 2.50,45.99 2.37,45.66 2.33,45.30 2.28,44.95 2.32,44.10 2.35,43.25 2.38,41.53 2.40,39.82 2.34,38.18 2.28,36.54 2.03,35.26 1.78,33.99 1.52,32.53 1.26,31.08 1.05,29.72 0.85,28.37 0.76,27.26 0.68,26.16 0.41,24.74 0.14,23.33 -0.10,22.00 -0.34,20.67 -0.59,19.08 -0.84,17.49 -0.96,16.22 -1.08,14.95 -1.35,13.68 -1.61,12.40 -1.86,11.17 -2.10,9.94 -2.29,8.77 -2.48,7.60 -2.63,6.14 -2.79,4.69 -2.71,3.25 -2.64,1.81 -2.60,0.90 -2.56,0 -2.52,-0.30 -2.48,-0.61 -2.37,-0.90 -2.26,-1.19 -2.09,-1.44 -1.91,-1.69 -1.68,-1.90 -1.45,-2.10 -1.18,-2.25 -0.90,-2.39 -0.60,-2.46 -0.30,-2.54 0.00,-2.54 0.30,-2.54 0.60,-2.46 0.90,-2.39 1.18,-2.25 1.45,-2.10 1.68,-1.90 1.91,-1.69 2.09,-1.44 2.26,-1.19 2.37,-0.90 2.48,-0.61 2.52,-0.30 2.56,0.00 2.56,0.00 L 2.56,0 Z"></path></g><g transform="translate(358.77878377965976 490.682625663062) rotate(0 12.865381932308878 -5.251174663665552)" stroke="none"><path fill="#000000" d="M -1.72,-1.72 Q -1.72,-1.72 -0.66,-2.78 0.39,-3.83 1.79,-5.21 3.19,-6.59 4.00,-7.65 4.81,-8.72 5.76,-10.02 6.71,-11.32 8.48,-11.77 10.26,-12.22 11.38,-11.49 12.49,-10.75 14.33,-9.90 16.17,-9.05 17.26,-8.73 18.35,-8.40 19.45,-8.11 20.56,-7.81 21.89,-7.44 23.22,-7.07 25.09,-6.41 26.96,-5.75 27.34,-5.48 27.73,-5.22 28.00,-4.84 28.28,-4.47 28.43,-4.03 28.57,-3.58 28.57,-3.12 28.56,-2.65 28.41,-2.21 28.26,-1.77 27.97,-1.40 27.68,-1.04 27.30,-0.78 26.91,-0.52 26.46,-0.40 26.01,-0.28 25.54,-0.31 25.08,-0.34 24.65,-0.52 24.22,-0.69 23.86,-1.00 23.51,-1.30 23.28,-1.71 23.04,-2.11 22.95,-2.56 22.85,-3.02 22.91,-3.48 22.96,-3.94 23.16,-4.36 23.36,-4.79 23.68,-5.12 24.01,-5.46 24.42,-5.67 24.83,-5.88 25.30,-5.95 25.76,-6.02 26.21,-5.94 26.67,-5.86 27.08,-5.64 27.49,-5.42 27.81,-5.08 28.12,-4.74 28.32,-4.31 28.51,-3.89 28.55,-3.42 28.60,-2.96 28.49,-2.51 28.39,-2.05 28.14,-1.66 27.90,-1.26 27.54,-0.96 27.18,-0.66 26.75,-0.50 26.32,-0.33 25.85,-0.31 25.38,-0.29 24.94,-0.42 24.49,-0.55 24.49,-0.55 24.49,-0.55 21.80,-1.55 19.12,-2.56 17.94,-2.89 16.77,-3.23 15.34,-3.67 13.91,-4.11 12.61,-4.70 11.32,-5.29 9.65,-6.85 7.99,-8.41 9.01,-8.04 10.03,-7.66 9.18,-6.78 8.33,-5.89 7.39,-4.77 6.45,-3.65 5.14,-2.02 3.83,-0.39 2.78,0.66 1.72,1.72 1.49,1.91 1.26,2.09 0.99,2.21 0.72,2.33 0.43,2.38 0.14,2.43 -0.14,2.42 -0.44,2.40 -0.72,2.31 -1.00,2.22 -1.25,2.07 -1.50,1.92 -1.71,1.71 -1.92,1.50 -2.07,1.25 -2.22,1.00 -2.31,0.72 -2.40,0.44 -2.42,0.14 -2.43,-0.14 -2.38,-0.43 -2.33,-0.72 -2.21,-0.99 -2.09,-1.26 -1.91,-1.49 -1.72,-1.72 -1.72,-1.72 L -1.72,-1.72 Z"></path></g><g transform="translate(83.61724342257003 482.80586366756324) rotate(0 166.9873603140569 -24.680514909735393)" stroke="none"><path fill="#343a40" d="M -2.15,0 Q -2.15,0 -2.17,-1.50 -2.19,-3.01 -2.22,-4.41 -2.25,-5.81 -2.30,-7.00 -2.34,-8.20 -2.36,-9.62 -2.37,-11.03 -2.35,-12.69 -2.32,-14.35 -2.19,-16.86 -2.05,-19.38 -1.95,-21.51 -1.85,-23.63 -1.90,-25.14 -1.95,-26.65 -2.03,-27.74 -2.11,-28.84 -1.58,-30.52 -1.05,-32.20 0.27,-32.72 1.61,-33.24 3.75,-33.18 5.90,-33.12 8.13,-33.02 10.36,-32.93 12.97,-32.84 15.57,-32.76 18.30,-32.85 21.02,-32.94 23.88,-32.96 26.75,-32.98 30.20,-33.12 33.65,-33.26 36.46,-33.46 39.27,-33.66 41.63,-34.03 43.98,-34.41 46.35,-34.86 48.71,-35.32 52.18,-35.81 55.64,-36.31 58.63,-36.67 61.61,-37.03 64.12,-37.18 66.63,-37.34 68.60,-37.44 70.57,-37.54 72.32,-37.63 74.07,-37.73 76.74,-37.86 79.41,-37.99 82.17,-38.33 84.93,-38.68 87.95,-38.97 90.98,-39.27 94.08,-39.54 97.18,-39.81 101.22,-40.07 105.27,-40.33 108.64,-40.59 112.00,-40.85 115.40,-41.11 118.80,-41.37 122.36,-41.63 125.92,-41.89 129.85,-42.15 133.78,-42.41 139.24,-42.68 144.69,-42.94 149.59,-43.05 154.49,-43.16 158.83,-43.21 163.18,-43.25 167.29,-43.27 171.40,-43.29 176.63,-43.30 181.85,-43.31 186.48,-43.31 191.11,-43.31 195.50,-43.32 199.88,-43.32 204.01,-43.32 208.14,-43.32 212.16,-43.32 216.18,-43.32 220.91,-43.32 225.63,-43.32 229.61,-43.32 233.58,-43.32 237.08,-43.32 240.58,-43.32 243.57,-43.32 246.57,-43.32 249.93,-43.47 253.29,-43.62 255.34,-43.70 257.39,-43.79 259.74,-43.96 262.09,-44.13 264.33,-44.20 266.58,-44.28 268.54,-44.48 270.50,-44.69 273.32,-44.91 276.14,-45.13 278.88,-45.22 281.61,-45.31 284.09,-45.50 286.57,-45.68 288.95,-46.06 291.32,-46.43 293.73,-46.74 296.13,-47.06 297.37,-47.45 298.61,-47.84 300.39,-48.56 302.16,-49.28 303.89,-49.95 305.62,-50.63 306.84,-50.95 308.07,-51.26 309.48,-51.43 310.88,-51.59 312.24,-51.67 313.59,-51.74 314.92,-51.78 316.25,-51.82 317.99,-51.64 319.72,-51.46 320.96,-51.43 322.21,-51.39 323.49,-51.23 324.77,-51.07 325.90,-51.03 327.04,-50.98 328.30,-50.81 329.56,-50.64 330.84,-50.62 332.13,-50.60 333.51,-50.27 334.90,-49.94 335.83,-48.49 336.76,-47.05 336.64,-45.95 336.52,-44.86 336.05,-43.41 335.59,-41.96 335.39,-40.80 335.19,-39.64 334.96,-38.60 334.72,-37.56 334.49,-36.26 334.26,-34.96 334.25,-33.81 334.24,-32.66 334.04,-31.32 333.84,-29.99 333.81,-28.63 333.77,-27.28 333.79,-27.02 333.81,-26.76 333.97,-26.37 334.12,-25.97 334.18,-25.55 334.24,-25.13 334.20,-24.71 334.15,-24.29 334.01,-23.89 333.87,-23.49 333.63,-23.14 333.40,-22.79 333.09,-22.50 332.78,-22.21 332.40,-22.01 332.03,-21.80 331.62,-21.70 331.21,-21.59 330.79,-21.58 330.36,-21.57 329.95,-21.67 329.54,-21.76 329.16,-21.95 328.78,-22.14 328.46,-22.42 328.13,-22.69 327.89,-23.04 327.64,-23.38 327.73,-25.13 327.83,-26.88 327.34,-27.27 326.85,-27.67 326.83,-28.24 326.81,-28.81 326.97,-29.35 327.14,-29.90 327.47,-30.36 327.80,-30.82 328.26,-31.16 328.72,-31.49 329.26,-31.66 329.80,-31.83 330.37,-31.82 330.94,-31.81 331.47,-31.61 332.01,-31.42 332.45,-31.07 332.90,-30.71 333.21,-30.24 333.51,-29.76 333.65,-29.21 333.79,-28.66 333.75,-28.09 333.71,-27.52 333.49,-27.00 333.27,-26.47 332.89,-26.05 332.51,-25.62 332.02,-25.34 331.52,-25.06 330.97,-24.95 330.41,-24.84 329.84,-24.91 329.28,-24.99 328.77,-25.24 328.26,-25.49 327.86,-25.89 327.45,-26.29 327.20,-26.79 326.94,-27.30 326.86,-27.86 326.78,-28.43 326.88,-28.99 326.99,-29.55 327.27,-30.04 327.54,-30.54 327.96,-30.92 328.39,-31.30 328.91,-31.53 329.43,-31.76 329.99,-31.81 330.56,-31.86 331.11,-31.72 331.67,-31.59 332.15,-31.28 332.63,-30.98 332.99,-30.54 333.34,-30.10 333.54,-29.56 333.74,-29.03 333.74,-29.03 333.74,-29.03 333.74,-26.22 333.73,-23.41 333.77,-25.09 333.81,-26.76 333.97,-26.37 334.12,-25.98 334.18,-25.56 334.24,-25.14 334.20,-24.71 334.16,-24.29 334.01,-23.89 333.87,-23.49 333.63,-23.14 333.40,-22.79 333.09,-22.50 332.78,-22.21 332.40,-22.01 332.03,-21.80 331.62,-21.70 331.21,-21.59 330.79,-21.58 330.36,-21.57 329.95,-21.67 329.54,-21.76 329.16,-21.95 328.78,-22.14 328.46,-22.41 328.13,-22.69 327.89,-23.03 327.64,-23.38 327.58,-23.67 327.51,-23.95 327.19,-25.71 326.86,-27.48 326.92,-28.60 326.98,-29.71 327.19,-30.91 327.41,-32.10 327.50,-33.53 327.58,-34.95 327.83,-36.09 328.08,-37.24 328.31,-38.71 328.53,-40.18 328.83,-41.24 329.13,-42.30 329.50,-43.42 329.86,-44.54 330.30,-45.59 330.74,-46.65 331.69,-45.82 332.63,-44.99 331.54,-45.10 330.44,-45.21 328.58,-45.53 326.72,-45.85 324.35,-46.15 321.97,-46.45 320.63,-46.54 319.30,-46.62 317.81,-46.73 316.33,-46.83 315.05,-46.83 313.77,-46.83 312.54,-46.81 311.31,-46.79 310.19,-46.73 309.07,-46.68 306.96,-46.30 304.86,-45.93 303.14,-45.53 301.43,-45.13 300.35,-44.96 299.27,-44.78 297.87,-44.60 296.48,-44.43 294.11,-44.11 291.73,-43.80 289.26,-43.40 286.78,-43.01 284.24,-42.81 281.71,-42.61 279.03,-42.51 276.36,-42.41 273.56,-42.17 270.75,-41.93 268.71,-41.77 266.67,-41.61 264.48,-41.53 262.29,-41.45 259.88,-41.27 257.47,-41.08 255.44,-41.04 253.40,-40.99 249.99,-40.84 246.57,-40.69 243.57,-40.69 240.58,-40.69 237.08,-40.69 233.58,-40.69 229.61,-40.69 225.63,-40.69 220.91,-40.69 216.18,-40.69 212.16,-40.69 208.14,-40.69 204.01,-40.69 199.88,-40.69 195.50,-40.69 191.12,-40.68 186.48,-40.68 181.85,-40.68 176.63,-40.67 171.42,-40.66 167.31,-40.64 163.21,-40.62 158.88,-40.57 154.55,-40.52 149.68,-40.41 144.82,-40.30 139.39,-40.03 133.96,-39.77 130.04,-39.50 126.11,-39.24 122.56,-38.97 119.01,-38.71 115.61,-38.44 112.22,-38.17 108.83,-37.89 105.45,-37.62 101.44,-37.34 97.43,-37.07 94.35,-36.77 91.27,-36.48 88.28,-36.16 85.30,-35.83 82.44,-35.43 79.59,-35.04 76.85,-34.84 74.12,-34.64 72.39,-34.68 70.67,-34.72 68.73,-34.69 66.80,-34.66 64.37,-34.50 61.94,-34.35 58.99,-33.98 56.04,-33.61 52.64,-33.10 49.25,-32.60 46.85,-32.11 44.45,-31.62 41.98,-31.20 39.51,-30.77 36.65,-30.52 33.80,-30.26 30.31,-30.05 26.82,-29.83 24.01,-29.72 21.20,-29.61 18.40,-29.39 15.59,-29.16 12.99,-29.07 10.40,-28.97 8.20,-28.83 6.00,-28.69 4.06,-28.76 2.11,-28.84 2.03,-27.74 1.95,-26.65 1.90,-25.14 1.85,-23.63 1.95,-21.51 2.05,-19.38 2.19,-16.86 2.32,-14.35 2.35,-12.69 2.37,-11.03 2.36,-9.62 2.34,-8.20 2.30,-7.00 2.25,-5.81 2.22,-4.41 2.19,-3.01 2.17,-1.50 2.15,0 2.12,0.25 2.09,0.51 2.00,0.75 1.91,1.00 1.76,1.21 1.61,1.43 1.42,1.60 1.22,1.77 0.99,1.89 0.76,2.01 0.51,2.08 0.26,2.14 -0.00,2.14 -0.26,2.14 -0.51,2.08 -0.76,2.01 -0.99,1.89 -1.22,1.77 -1.42,1.60 -1.61,1.43 -1.76,1.21 -1.91,1.00 -2.00,0.75 -2.09,0.51 -2.12,0.25 -2.15,-0.00 -2.15,-0.00 L -2.15,0 Z"></path></g><g transform="translate(397.6374843034414 455.49977144181594) rotate(0 14.440730325080267 2.6255773160114586)" stroke="none"><path fill="#343a40" d="M 0,-2.25 Q 0,-2.25 1.66,-2.23 3.32,-2.22 5.32,-2.00 7.32,-1.78 9.81,-0.97 12.31,-0.17 14.27,0.64 16.23,1.45 17.65,2.23 19.08,3.01 20.73,3.72 22.37,4.42 22.76,2.55 23.15,0.68 23.92,-0.24 24.69,-1.17 25.29,-0.59 25.90,-0.02 25.62,-0.38 25.34,-0.74 25.19,-1.17 25.03,-1.61 25.03,-2.06 25.02,-2.52 25.17,-2.96 25.31,-3.40 25.58,-3.76 25.85,-4.13 26.23,-4.39 26.61,-4.66 27.05,-4.78 27.49,-4.91 27.95,-4.89 28.41,-4.87 28.83,-4.71 29.26,-4.54 29.61,-4.25 29.97,-3.95 30.21,-3.56 30.45,-3.17 30.55,-2.73 30.66,-2.28 30.61,-1.82 30.57,-1.37 30.38,-0.95 30.19,-0.53 29.88,-0.19 29.57,0.13 29.16,0.35 28.76,0.57 28.31,0.65 27.86,0.73 27.40,0.66 26.95,0.59 26.54,0.38 26.14,0.17 25.82,-0.15 25.50,-0.48 25.30,-0.89 25.10,-1.31 25.05,-1.76 24.99,-2.22 25.09,-2.67 25.18,-3.12 25.41,-3.51 25.65,-3.91 25.99,-4.21 26.34,-4.51 26.76,-4.68 27.19,-4.86 27.64,-4.89 28.10,-4.92 28.55,-4.80 28.99,-4.68 29.37,-4.43 29.75,-4.17 29.75,-4.17 29.75,-4.17 29.34,-0.84 28.92,2.48 27.82,3.80 26.72,5.11 26.12,6.08 25.53,7.04 24.42,8.02 23.31,8.99 22.14,8.93 20.98,8.87 20.07,8.16 19.17,7.45 18.13,6.86 17.10,6.27 16.01,5.52 14.93,4.76 13.10,4.10 11.27,3.44 9.12,2.91 6.97,2.38 5.14,2.30 3.32,2.22 1.66,2.23 0,2.25 -0.26,2.22 -0.53,2.18 -0.79,2.09 -1.04,1.99 -1.27,1.84 -1.49,1.68 -1.67,1.48 -1.85,1.28 -1.98,1.04 -2.10,0.79 -2.17,0.53 -2.23,0.27 -2.23,-0.00 -2.23,-0.27 -2.17,-0.53 -2.10,-0.79 -1.98,-1.04 -1.85,-1.28 -1.67,-1.48 -1.49,-1.68 -1.27,-1.84 -1.04,-1.99 -0.79,-2.09 -0.53,-2.18 -0.26,-2.22 0.00,-2.25 0.00,-2.25 L 0,-2.25 Z"></path></g><g transform="translate(97.27028953544391 489.1072973019318) rotate(0 176.70204546082311 33.870060555329474)" stroke="none"><path fill="#000000" d="M 2.49,0.83 Q 2.49,0.83 2.22,1.74 1.95,2.65 2.12,4.38 2.30,6.10 2.32,8.32 2.34,10.54 2.34,11.73 2.34,12.93 2.39,14.39 2.45,15.84 2.51,17.13 2.58,18.43 2.83,20.08 3.09,21.73 3.66,23.19 4.23,24.64 4.78,25.93 5.33,27.22 5.79,28.62 6.26,30.03 6.37,31.52 6.49,33.02 6.78,34.70 7.07,36.38 7.28,38.06 7.49,39.73 7.57,41.14 7.66,42.56 7.66,44.22 7.66,45.87 7.83,47.57 8.00,49.26 8.15,50.59 8.31,51.93 8.66,53.37 9.02,54.82 9.33,56.76 9.64,58.70 9.67,59.95 9.71,61.20 9.57,62.40 9.43,63.60 9.40,64.83 9.38,66.07 11.92,65.49 14.47,64.92 18.35,65.26 22.24,65.60 26.41,65.81 30.58,66.02 35.07,66.16 39.56,66.30 44.07,66.54 48.57,66.79 52.78,67.22 56.99,67.66 61.78,68.16 66.58,68.66 70.27,69.04 73.96,69.42 77.01,69.59 80.05,69.76 83.00,69.84 85.95,69.91 88.72,69.95 91.48,69.99 94.77,70.01 98.06,70.03 100.85,70.20 103.64,70.36 106.45,70.43 109.26,70.50 112.15,70.68 115.05,70.87 119.10,70.94 123.16,71.02 126.70,71.06 130.24,71.09 133.71,71.11 137.18,71.12 140.58,70.98 143.99,70.83 147.25,70.62 150.51,70.41 154.62,70.17 158.73,69.93 162.01,69.83 165.28,69.72 168.15,69.53 171.02,69.34 173.75,69.10 176.47,68.87 179.14,68.62 181.81,68.37 185.66,67.96 189.50,67.56 192.99,67.38 196.47,67.20 199.74,66.98 203.01,66.76 207.12,66.51 211.24,66.26 214.79,66.01 218.34,65.75 221.66,65.49 224.98,65.23 228.20,64.97 231.43,64.71 234.61,64.45 237.79,64.19 241.85,63.78 245.90,63.36 249.30,63.04 252.69,62.71 255.95,62.42 259.20,62.13 262.25,61.86 265.29,61.58 268.40,61.31 271.50,61.05 275.40,60.78 279.30,60.51 282.76,60.25 286.22,59.99 289.19,59.73 292.16,59.46 295.09,59.20 298.02,58.94 301.38,58.68 304.75,58.41 307.68,58.15 310.61,57.89 313.05,57.63 315.50,57.37 317.58,57.10 319.67,56.84 321.12,56.48 322.57,56.12 323.58,55.75 324.60,55.39 325.79,54.75 326.98,54.11 329.30,53.42 331.62,52.72 332.88,52.55 334.14,52.38 336.09,52.00 338.04,51.63 340.08,51.19 342.11,50.75 343.82,50.22 345.54,49.70 347.25,48.94 348.96,48.18 350.53,47.44 352.10,46.70 351.65,47.70 351.20,48.70 350.64,47.33 350.09,45.95 349.80,43.99 349.52,42.03 349.47,40.48 349.41,38.94 349.30,37.55 349.19,36.16 348.95,34.41 348.72,32.66 348.50,30.76 348.28,28.86 348.24,26.74 348.21,24.61 348.25,22.51 348.30,20.41 348.68,17.90 349.06,15.38 349.32,13.58 349.59,11.78 349.80,10.37 350.01,8.97 350.21,7.86 350.41,6.76 350.61,5.71 350.81,4.65 351.02,3.48 351.24,2.31 351.46,0.55 351.69,-1.21 352.16,-1.57 352.64,-1.94 352.20,-2.05 351.76,-2.16 351.38,-2.40 351.00,-2.65 350.72,-3.00 350.44,-3.35 350.28,-3.78 350.13,-4.20 350.12,-4.65 350.11,-5.11 350.24,-5.54 350.37,-5.97 350.64,-6.34 350.90,-6.70 351.27,-6.97 351.64,-7.23 352.07,-7.36 352.50,-7.49 352.96,-7.48 353.41,-7.46 353.83,-7.31 354.26,-7.15 354.61,-6.87 354.96,-6.58 355.20,-6.20 355.44,-5.82 355.55,-5.38 355.66,-4.94 355.62,-4.49 355.58,-4.04 355.40,-3.62 355.23,-3.21 354.92,-2.87 354.62,-2.54 354.22,-2.32 353.83,-2.09 353.39,-2.01 352.94,-1.93 352.49,-1.99 352.05,-2.05 351.64,-2.25 351.24,-2.46 350.92,-2.78 350.60,-3.10 350.40,-3.50 350.20,-3.91 350.14,-4.36 350.08,-4.80 350.17,-5.25 350.25,-5.69 350.48,-6.09 350.70,-6.48 351.04,-6.78 351.38,-7.08 351.79,-7.26 352.21,-7.44 352.66,-7.47 353.11,-7.51 353.11,-7.51 353.11,-7.51 355.01,-4.22 356.92,-0.94 356.56,0.11 356.20,1.18 356.02,2.25 355.83,3.32 355.52,4.54 355.21,5.77 354.56,7.75 353.91,9.73 353.58,11.04 353.26,12.34 352.99,14.07 352.72,15.81 352.54,18.06 352.37,20.31 352.52,22.31 352.68,24.32 352.91,26.17 353.14,28.03 353.55,29.81 353.95,31.58 354.48,33.51 355.01,35.44 355.26,37.01 355.52,38.59 355.62,39.78 355.73,40.97 355.97,42.67 356.20,44.38 356.57,45.49 356.93,46.60 356.97,47.71 357.02,48.81 356.55,49.83 356.08,50.85 354.57,51.74 353.06,52.64 351.15,53.36 349.24,54.07 347.23,54.79 345.23,55.51 344.14,55.75 343.05,56.00 341.81,56.22 340.58,56.44 338.67,56.63 336.77,56.83 334.66,57.05 332.55,57.27 330.58,57.62 328.60,57.98 327.01,58.39 325.42,58.80 324.26,58.96 323.09,59.13 321.55,59.29 320.00,59.45 317.89,59.72 315.78,59.98 313.31,60.24 310.84,60.50 307.90,60.77 304.95,61.03 301.60,61.29 298.25,61.55 295.32,61.82 292.39,62.08 289.40,62.34 286.42,62.61 282.95,62.87 279.48,63.14 275.60,63.40 271.73,63.66 268.63,63.93 265.52,64.20 262.48,64.47 259.44,64.75 256.19,65.03 252.94,65.32 249.55,65.65 246.17,65.98 242.09,66.39 238.00,66.81 234.82,67.07 231.64,67.33 228.41,67.59 225.18,67.85 221.86,68.11 218.53,68.37 214.96,68.63 211.40,68.89 207.29,69.13 203.19,69.38 199.90,69.60 196.61,69.83 193.19,70.00 189.78,70.17 185.92,70.58 182.06,70.99 179.38,71.24 176.70,71.49 173.95,71.73 171.20,71.96 168.28,72.16 165.36,72.35 162.12,72.45 158.89,72.56 154.78,72.80 150.68,73.04 147.39,73.25 144.10,73.47 140.63,73.61 137.17,73.76 133.69,73.75 130.22,73.74 126.66,73.71 123.11,73.67 118.99,73.60 114.88,73.53 112.04,73.35 109.20,73.18 106.35,73.11 103.49,73.05 100.77,72.90 98.05,72.76 94.75,72.75 91.46,72.75 88.68,72.74 85.90,72.72 82.91,72.68 79.92,72.63 76.80,72.50 73.68,72.38 69.98,72.06 66.28,71.75 61.49,71.33 56.70,70.92 52.57,70.61 48.45,70.30 43.99,70.22 39.54,70.14 35.02,70.22 30.51,70.30 26.28,70.38 22.04,70.46 18.24,70.49 14.44,70.52 12.47,70.68 10.50,70.83 9.43,70.81 8.36,70.79 6.64,70.43 4.93,70.07 4.24,69.07 3.55,68.07 3.47,66.38 3.39,64.69 3.61,63.02 3.84,61.36 3.80,60.27 3.76,59.18 3.53,57.39 3.30,55.61 3.06,54.08 2.82,52.56 2.68,51.40 2.55,50.24 2.05,48.21 1.55,46.18 1.40,44.76 1.25,43.33 0.93,41.03 0.61,38.73 0.40,37.37 0.19,36.00 -0.03,34.03 -0.26,32.05 -0.55,30.80 -0.84,29.54 -1.33,28.33 -1.81,27.12 -2.32,25.64 -2.83,24.16 -3.07,22.73 -3.31,21.31 -3.47,19.87 -3.63,18.43 -3.56,17.14 -3.50,15.85 -3.45,14.40 -3.40,12.95 -3.40,11.76 -3.41,10.57 -3.44,8.50 -3.47,6.43 -3.53,4.76 -3.59,3.10 -3.37,2.03 -3.16,0.96 -2.82,0.06 -2.49,-0.83 -2.35,-1.11 -2.22,-1.40 -2.02,-1.64 -1.82,-1.89 -1.56,-2.08 -1.31,-2.27 -1.02,-2.39 -0.73,-2.52 -0.41,-2.57 -0.10,-2.62 0.20,-2.60 0.52,-2.57 0.82,-2.47 1.12,-2.37 1.39,-2.20 1.66,-2.03 1.88,-1.80 2.10,-1.57 2.25,-1.30 2.41,-1.03 2.50,-0.72 2.59,-0.42 2.60,-0.10 2.61,0.21 2.55,0.52 2.49,0.83 2.49,0.83 L 2.49,0.83 Z"></path></g><g transform="translate(436.49618482722326 490.15751620935134) rotate(0 13.127936659163765 -4.726045178313598)" stroke="none"><path fill="#000000" d="M -2.29,-1.14 Q -2.29,-1.14 -1.87,-2.07 -1.44,-3.00 -0.50,-4.23 0.44,-5.46 1.59,-6.41 2.75,-7.36 3.76,-8.12 4.77,-8.89 5.91,-9.60 7.05,-10.31 8.05,-10.82 9.06,-11.33 10.57,-11.76 12.07,-12.19 13.93,-11.69 15.80,-11.20 17.26,-10.46 18.72,-9.72 19.99,-8.92 21.27,-8.11 22.57,-7.11 23.88,-6.11 25.01,-5.26 26.14,-4.40 27.13,-2.58 28.11,-0.75 26.21,-1.45 24.31,-2.15 24.54,-1.91 24.77,-1.68 24.94,-1.39 25.11,-1.10 25.21,-0.78 25.30,-0.46 25.32,-0.13 25.34,0.19 25.27,0.52 25.21,0.85 25.07,1.15 24.93,1.45 24.72,1.71 24.51,1.98 24.24,2.18 23.98,2.38 23.67,2.51 23.37,2.65 23.04,2.70 22.71,2.76 22.38,2.74 22.04,2.71 21.73,2.61 21.41,2.50 21.13,2.33 20.84,2.15 21.47,2.44 22.09,2.72 21.67,2.57 21.25,2.42 20.89,2.15 20.54,1.87 20.29,1.50 20.05,1.12 19.93,0.69 19.82,0.26 19.85,-0.18 19.88,-0.63 20.05,-1.04 20.22,-1.45 20.52,-1.79 20.81,-2.13 21.20,-2.35 21.59,-2.58 22.02,-2.67 22.46,-2.76 22.91,-2.71 23.35,-2.65 23.76,-2.46 24.16,-2.26 24.48,-1.95 24.80,-1.64 25.00,-1.24 25.21,-0.84 25.28,-0.40 25.34,0.03 25.26,0.47 25.19,0.91 24.97,1.31 24.76,1.70 24.43,2.00 24.10,2.31 23.69,2.49 23.28,2.67 22.83,2.71 22.39,2.76 21.95,2.65 21.52,2.55 21.14,2.32 20.76,2.08 20.47,1.73 20.18,1.39 20.02,0.97 19.86,0.55 19.85,0.11 19.83,-0.33 19.95,-0.76 20.08,-1.19 20.34,-1.56 20.59,-1.93 20.95,-2.19 21.31,-2.46 21.74,-2.59 22.16,-2.73 23.24,-2.44 24.31,-2.15 24.54,-1.91 24.77,-1.68 24.94,-1.39 25.11,-1.10 25.21,-0.78 25.30,-0.46 25.32,-0.13 25.34,0.19 25.27,0.52 25.21,0.85 25.07,1.15 24.93,1.45 24.72,1.71 24.51,1.97 24.24,2.18 23.98,2.38 23.67,2.51 23.37,2.65 23.04,2.70 22.71,2.76 22.38,2.74 22.04,2.71 21.73,2.61 21.41,2.51 21.13,2.33 20.84,2.15 21.93,0.98 23.01,-0.17 21.88,-1.00 20.74,-1.82 19.55,-2.64 18.36,-3.46 17.33,-4.10 16.29,-4.74 14.23,-5.62 12.18,-6.50 11.01,-6.09 9.85,-5.68 8.93,-5.14 8.01,-4.60 7.01,-3.85 6.01,-3.10 4.63,-1.86 3.25,-0.62 2.77,0.26 2.29,1.14 2.12,1.40 1.95,1.66 1.72,1.87 1.50,2.08 1.22,2.23 0.95,2.38 0.65,2.46 0.35,2.54 0.05,2.55 -0.25,2.55 -0.56,2.48 -0.86,2.41 -1.14,2.28 -1.41,2.14 -1.65,1.94 -1.88,1.74 -2.07,1.48 -2.25,1.23 -2.36,0.95 -2.48,0.66 -2.52,0.35 -2.56,0.05 -2.53,-0.25 -2.50,-0.56 -2.40,-0.85 -2.29,-1.14 -2.29,-1.14 L -2.29,-1.14 Z"></path></g><g transform="translate(128.25222806372722 471.2532954328126) rotate(0 177.489709641388 -24.15540545602562)" stroke="none"><path fill="#d9480f" d="M -2.32,-0.29 Q -2.32,-0.29 -2.21,-1.50 -2.09,-2.71 -2.07,-4.94 -2.05,-7.16 -2.05,-8.42 -2.06,-9.68 -2.16,-11.15 -2.26,-12.63 -2.57,-14.06 -2.87,-15.49 -3.16,-17.11 -3.45,-18.74 -3.75,-19.98 -4.05,-21.22 -4.17,-22.99 -4.30,-24.76 -4.36,-26.24 -4.42,-27.72 -4.48,-28.80 -4.55,-29.88 -4.66,-31.49 -4.76,-33.10 -4.06,-34.94 -3.37,-36.77 -1.77,-37.31 -0.16,-37.84 1.25,-37.88 2.68,-37.92 4.32,-37.88 5.97,-37.83 7.78,-37.88 9.59,-37.92 11.36,-37.94 13.13,-37.97 14.78,-37.98 16.44,-37.98 18.21,-37.96 19.97,-37.93 21.63,-37.92 23.28,-37.91 25.27,-37.96 27.26,-38.01 30.41,-38.13 33.56,-38.26 36.29,-38.28 39.02,-38.30 41.33,-38.44 43.65,-38.58 45.59,-38.67 47.52,-38.77 49.02,-39.02 50.51,-39.27 52.30,-39.38 54.08,-39.49 56.45,-39.61 58.82,-39.72 60.87,-39.91 62.92,-40.10 64.68,-40.38 66.44,-40.66 68.25,-40.93 70.06,-41.21 71.64,-41.39 73.22,-41.57 74.51,-41.69 75.79,-41.82 78.13,-42.19 80.48,-42.55 81.66,-42.76 82.85,-42.98 84.55,-43.05 86.26,-43.13 87.43,-43.34 88.61,-43.54 89.84,-43.67 91.08,-43.80 92.39,-43.98 93.71,-44.16 94.83,-44.41 95.95,-44.65 97.35,-44.79 98.75,-44.92 99.95,-45.11 101.16,-45.31 102.24,-45.55 103.32,-45.79 104.38,-45.95 105.44,-46.10 107.51,-46.43 109.58,-46.75 110.66,-46.93 111.75,-47.10 113.16,-47.30 114.57,-47.51 115.71,-47.64 116.86,-47.76 118.75,-48.09 120.65,-48.41 121.90,-48.45 123.15,-48.48 124.44,-48.61 125.72,-48.73 127.79,-48.68 129.87,-48.62 131.36,-48.76 132.85,-48.90 134.35,-48.99 135.86,-49.07 137.72,-49.04 139.58,-49.01 141.42,-48.96 143.26,-48.92 145.25,-48.85 147.24,-48.77 149.44,-48.68 151.65,-48.58 154.09,-48.51 156.54,-48.44 159.09,-48.38 161.64,-48.33 164.84,-48.29 168.03,-48.25 171.05,-48.22 174.07,-48.20 176.86,-48.17 179.66,-48.15 182.81,-48.14 185.96,-48.12 188.65,-48.11 191.35,-48.10 193.66,-48.24 195.97,-48.39 197.90,-48.49 199.82,-48.60 201.48,-48.84 203.14,-49.08 204.82,-49.22 206.50,-49.36 208.36,-49.54 210.22,-49.72 211.97,-49.84 213.73,-49.96 215.23,-50.05 216.73,-50.15 218.74,-50.12 220.74,-50.09 222.80,-50.05 224.86,-50.01 226.79,-50.00 228.72,-50.00 230.59,-50.01 232.47,-50.01 234.33,-50.02 236.18,-50.03 237.88,-50.07 239.57,-50.11 242.00,-49.89 244.44,-49.67 246.78,-49.56 249.11,-49.45 251.32,-49.39 253.52,-49.32 256.27,-49.29 259.01,-49.25 261.35,-49.37 263.68,-49.50 265.92,-49.55 268.16,-49.60 270.48,-49.62 272.79,-49.63 275.58,-49.64 278.38,-49.64 280.32,-49.68 282.26,-49.72 285.72,-49.41 289.17,-49.09 292.42,-48.80 295.67,-48.51 299.16,-48.23 302.65,-47.96 306.82,-47.84 310.99,-47.72 314.28,-47.67 317.56,-47.61 320.02,-47.59 322.47,-47.57 324.12,-47.65 325.76,-47.73 327.10,-48.04 328.44,-48.35 330.13,-48.89 331.81,-49.43 332.99,-49.59 334.18,-49.75 335.62,-49.85 337.07,-49.95 338.47,-50.02 339.87,-50.09 340.98,-50.15 342.09,-50.21 343.15,-50.26 344.22,-50.31 345.49,-50.37 346.76,-50.43 347.84,-50.46 348.93,-50.49 350.04,-50.33 351.15,-50.17 352.11,-49.65 353.07,-49.14 353.77,-47.55 354.48,-45.97 354.54,-44.00 354.60,-42.02 354.36,-40.35 354.13,-38.67 354.02,-37.36 353.91,-36.05 353.87,-34.89 353.83,-33.73 353.65,-32.43 353.46,-31.14 353.53,-29.62 353.60,-28.09 353.73,-26.63 353.85,-25.16 353.86,-23.07 353.87,-20.97 353.89,-19.39 353.92,-17.82 354.47,-16.52 355.02,-15.21 355.50,-14.22 355.98,-13.23 354.77,-13.34 353.57,-13.45 353.72,-14.10 353.87,-14.76 354.13,-15.25 354.40,-15.73 354.80,-16.10 355.20,-16.47 355.70,-16.70 356.20,-16.93 356.75,-16.98 357.29,-17.03 357.83,-16.91 358.36,-16.79 358.83,-16.50 359.30,-16.21 359.65,-15.79 360.00,-15.37 360.20,-14.86 360.39,-14.34 360.42,-13.80 360.44,-13.25 360.29,-12.72 360.14,-12.19 359.83,-11.74 359.51,-11.29 359.07,-10.96 358.63,-10.64 358.11,-10.47 357.59,-10.30 357.04,-10.30 356.49,-10.31 355.97,-10.49 355.46,-10.67 355.02,-11.00 354.59,-11.34 354.29,-11.80 353.98,-12.26 353.84,-12.79 353.70,-13.32 353.73,-13.86 353.77,-14.41 353.98,-14.92 354.19,-15.43 354.55,-15.84 354.91,-16.26 355.38,-16.53 355.85,-16.81 356.39,-16.92 356.93,-17.04 357.47,-16.97 358.02,-16.91 358.51,-16.67 359.01,-16.44 359.40,-16.05 359.80,-15.67 360.05,-15.19 360.30,-14.70 360.38,-14.16 360.47,-13.61 360.37,-13.07 360.28,-12.53 360.28,-12.53 360.28,-12.53 358.77,-10.18 357.26,-7.83 355.92,-7.46 354.58,-7.09 353.26,-7.42 351.95,-7.76 351.00,-9.09 350.05,-10.43 349.51,-11.69 348.96,-12.96 348.47,-14.31 347.97,-15.67 347.80,-16.73 347.63,-17.79 347.65,-19.37 347.67,-20.94 347.65,-22.94 347.63,-24.94 347.61,-26.15 347.58,-27.36 347.46,-28.65 347.33,-29.93 347.56,-31.90 347.79,-33.86 347.80,-35.09 347.81,-36.32 347.83,-37.80 347.84,-39.27 347.90,-40.60 347.95,-41.93 348.44,-42.97 348.93,-44.02 347.84,-44.05 346.76,-44.08 345.49,-44.14 344.22,-44.20 343.15,-44.25 342.09,-44.30 340.98,-44.36 339.87,-44.42 338.48,-44.49 337.09,-44.56 335.70,-44.64 334.31,-44.72 333.04,-44.82 331.76,-44.92 330.58,-44.79 329.39,-44.66 327.57,-44.69 325.75,-44.71 324.10,-44.81 322.45,-44.91 319.99,-44.92 317.52,-44.94 314.22,-44.99 310.92,-45.03 306.68,-45.14 302.44,-45.25 298.94,-45.51 295.44,-45.78 292.18,-46.04 288.92,-46.31 285.60,-46.59 282.27,-46.87 280.33,-46.91 278.39,-46.94 275.60,-46.92 272.82,-46.90 270.53,-46.86 268.24,-46.83 266.05,-46.75 263.85,-46.68 261.43,-46.51 259.00,-46.35 256.24,-46.33 253.48,-46.32 251.26,-46.31 249.03,-46.30 246.63,-46.32 244.23,-46.34 241.90,-46.42 239.57,-46.50 237.88,-46.54 236.18,-46.58 234.33,-46.58 232.47,-46.59 230.60,-46.60 228.72,-46.60 226.79,-46.59 224.87,-46.59 222.82,-46.53 220.77,-46.48 218.79,-46.42 216.82,-46.36 215.35,-46.39 213.89,-46.42 212.22,-46.39 210.54,-46.35 208.60,-46.16 206.65,-45.97 205.06,-45.96 203.47,-45.96 201.69,-45.84 199.92,-45.72 198.03,-45.70 196.15,-45.68 193.75,-45.52 191.35,-45.36 188.65,-45.35 185.96,-45.34 182.81,-45.32 179.66,-45.31 176.86,-45.29 174.07,-45.26 171.05,-45.24 168.03,-45.21 164.84,-45.17 161.64,-45.13 159.09,-45.08 156.54,-45.02 154.10,-44.95 151.65,-44.87 149.45,-44.77 147.25,-44.67 145.27,-44.59 143.29,-44.50 141.48,-44.43 139.66,-44.36 137.89,-44.26 136.12,-44.16 134.76,-44.09 133.41,-44.02 131.73,-43.80 130.05,-43.59 128.21,-43.39 126.37,-43.19 124.85,-42.98 123.32,-42.77 121.41,-42.71 119.50,-42.64 117.47,-42.38 115.45,-42.12 114.03,-41.87 112.61,-41.61 110.43,-41.37 108.25,-41.14 106.30,-40.91 104.35,-40.68 103.13,-40.46 101.91,-40.23 100.53,-40.04 99.15,-39.85 98.02,-39.79 96.89,-39.73 95.62,-39.51 94.35,-39.30 92.88,-39.11 91.41,-38.93 90.34,-38.90 89.28,-38.87 87.88,-38.71 86.48,-38.55 84.99,-38.47 83.49,-38.40 82.12,-38.24 80.74,-38.09 79.59,-38.08 78.45,-38.07 77.19,-37.96 75.94,-37.85 74.71,-37.89 73.49,-37.92 72.01,-37.88 70.54,-37.84 68.72,-37.60 66.90,-37.37 65.08,-37.15 63.27,-36.93 61.17,-36.66 59.08,-36.39 56.66,-36.13 54.24,-35.88 52.58,-35.84 50.92,-35.79 49.29,-35.67 47.66,-35.55 45.78,-35.48 43.91,-35.42 41.52,-35.17 39.13,-34.93 36.47,-34.77 33.81,-34.61 30.68,-34.30 27.56,-33.99 25.43,-33.73 23.29,-33.48 21.65,-33.46 20.00,-33.44 18.26,-33.39 16.53,-33.34 14.92,-33.29 13.31,-33.24 11.66,-33.13 10.00,-33.02 8.02,-32.74 6.04,-32.46 4.45,-32.38 2.87,-32.30 1.73,-33.20 0.59,-34.11 0.54,-32.94 0.49,-31.77 0.43,-29.83 0.37,-27.89 0.41,-26.50 0.45,-25.12 0.57,-23.69 0.68,-22.26 0.95,-20.95 1.21,-19.64 1.53,-18.11 1.85,-16.57 2.27,-14.83 2.69,-13.09 2.88,-11.36 3.07,-9.64 3.05,-8.34 3.02,-7.05 2.97,-5.77 2.92,-4.50 2.81,-3.31 2.70,-2.11 2.51,-0.91 2.32,0.29 2.25,0.56 2.18,0.83 2.05,1.08 1.92,1.33 1.73,1.54 1.54,1.76 1.31,1.92 1.08,2.07 0.81,2.17 0.55,2.27 0.27,2.31 -0.00,2.34 -0.28,2.30 -0.56,2.27 -0.83,2.17 -1.09,2.07 -1.32,1.91 -1.56,1.74 -1.74,1.53 -1.93,1.32 -2.06,1.07 -2.19,0.82 -2.26,0.54 -2.32,0.27 -2.32,-0.00 -2.32,-0.29 -2.32,-0.29 L -2.32,-0.29 Z"></path></g><g transform="translate(463.80227705297057 454.97464195646444) rotate(0 17.328872383768044 3.6758362867149117)" stroke="none"><path fill="#d9480f" d="M 1.55,-2.07 Q 1.55,-2.07 2.75,-1.15 3.94,-0.22 4.99,0.65 6.03,1.54 6.95,2.36 7.86,3.19 9.56,4.45 11.25,5.70 12.54,6.63 13.83,7.55 15.11,7.74 16.39,7.93 17.79,7.87 19.20,7.82 20.61,7.78 22.02,7.73 22.99,7.20 23.95,6.66 25.52,4.51 27.09,2.36 28.38,0.81 29.67,-0.74 31.27,-3.27 32.86,-5.81 33.25,-6.04 33.63,-6.27 34.08,-6.36 34.52,-6.46 34.96,-6.40 35.41,-6.35 35.82,-6.16 36.23,-5.97 36.56,-5.66 36.88,-5.35 37.09,-4.95 37.30,-4.55 37.37,-4.10 37.44,-3.66 37.37,-3.21 37.29,-2.77 37.08,-2.37 36.86,-1.97 36.53,-1.66 36.21,-1.35 35.79,-1.17 35.38,-0.98 34.94,-0.93 34.49,-0.89 34.05,-0.99 33.61,-1.09 33.22,-1.32 32.84,-1.56 32.55,-1.90 32.26,-2.25 32.09,-2.67 31.93,-3.09 31.90,-3.54 31.88,-3.99 32.01,-4.42 32.13,-4.86 32.38,-5.23 32.64,-5.60 33.00,-5.87 33.36,-6.14 33.79,-6.28 34.22,-6.42 34.67,-6.42 35.12,-6.42 35.55,-6.27 35.97,-6.13 36.33,-5.85 36.69,-5.58 36.94,-5.20 37.19,-4.83 37.31,-4.39 37.43,-3.96 37.40,-3.51 37.37,-3.06 37.20,-2.64 37.03,-2.22 36.74,-1.88 36.45,-1.54 36.45,-1.54 36.45,-1.54 35.32,0.42 34.19,2.39 33.22,4.09 32.25,5.78 31.45,7.16 30.66,8.54 29.93,9.71 29.21,10.88 28.49,11.73 27.77,12.58 25.98,13.45 24.20,14.33 22.74,14.31 21.28,14.28 19.72,14.23 18.16,14.18 16.80,14.10 15.44,14.02 14.31,13.84 13.17,13.65 11.91,12.94 10.64,12.23 9.31,11.11 7.98,9.99 7.02,9.24 6.05,8.49 5.17,7.75 4.28,7.01 3.47,6.22 2.65,5.43 1.77,4.64 0.88,3.85 -0.33,2.96 -1.55,2.07 -1.78,1.86 -2.01,1.64 -2.17,1.38 -2.34,1.11 -2.44,0.81 -2.54,0.52 -2.57,0.20 -2.59,-0.10 -2.54,-0.41 -2.49,-0.72 -2.37,-1.00 -2.25,-1.29 -2.06,-1.54 -1.87,-1.79 -1.63,-1.99 -1.39,-2.19 -1.10,-2.32 -0.82,-2.46 -0.51,-2.52 -0.21,-2.58 0.10,-2.57 0.41,-2.56 0.71,-2.47 1.01,-2.39 1.28,-2.23 1.55,-2.07 1.55,-2.07 L 1.55,-2.07 Z"></path></g><g transform="translate(25.624579224385343 621.1086843845087) rotate(0 72.91796875 28.800000000000182)"><text x="0" y="-38.39999999999999" font-family="Helvetica, Segoe UI Emoji" font-size="16px" fill="#000000" text-anchor="start" style="white-space: pre;" direction="ltr">Object Destructuring</text><text x="0" y="-19.199999999999996" font-family="Helvetica, Segoe UI Emoji" font-size="16px" fill="#000000" text-anchor="start" style="white-space: pre;" direction="ltr"></text><text x="0" y="0" font-family="Helvetica, Segoe UI Emoji" font-size="16px" fill="#000000" text-anchor="start" style="white-space: pre;" direction="ltr"></text></g><g transform="translate(29.562960222134507 688.0611613462443) rotate(0 53.14453125 9.599999999999909)"><text x="0" y="0" font-family="Helvetica, Segoe UI Emoji" font-size="16px" fill="#000000" text-anchor="start" style="white-space: pre;" direction="ltr">const emp3 = {</text></g><g transform="translate(29.562960222134507 717.2611613462441) rotate(0 45.2578125 9.599999999999909)"><text x="0" y="0" font-family="Helvetica, Segoe UI Emoji" font-size="16px" fill="#000000" text-anchor="start" style="white-space: pre;" direction="ltr">name: "abc",</text></g><g transform="translate(29.562960222134507 746.4611613462439) rotate(0 22.6875 9.599999999999909)"><text x="0" y="0" font-family="Helvetica, Segoe UI Emoji" font-size="16px" fill="#000000" text-anchor="start" style="white-space: pre;" direction="ltr">dept: {</text></g><g transform="translate(29.562960222134507 775.6611613462437) rotate(0 51.04296875 9.599999999999909)"><text x="0" y="0" font-family="Helvetica, Segoe UI Emoji" font-size="16px" fill="#000000" text-anchor="start" style="white-space: pre;" direction="ltr">name: "Engg",</text></g><g transform="translate(29.562960222134507 804.8611613462435) rotate(0 24.01953125 9.599999999999909)"><text x="0" y="0" font-family="Helvetica, Segoe UI Emoji" font-size="16px" fill="#000000" text-anchor="start" style="white-space: pre;" direction="ltr">id: 101</text></g><g transform="translate(29.562960222134507 834.0611613462434) rotate(0 2.671875 9.599999999999909)"><text x="0" y="0" font-family="Helvetica, Segoe UI Emoji" font-size="16px" fill="#000000" text-anchor="start" style="white-space: pre;" direction="ltr">}</text></g><g transform="translate(29.562960222134507 863.2611613462432) rotate(0 4.89453125 9.599999999999909)"><text x="0" y="0" font-family="Helvetica, Segoe UI Emoji" font-size="16px" fill="#000000" text-anchor="start" style="white-space: pre;" direction="ltr">};</text></g><g transform="translate(29.562960222134507 921.6611613462428) rotate(0 99.38671875 9.599999999999909)"><text x="0" y="0" font-family="Helvetica, Segoe UI Emoji" font-size="16px" fill="#000000" text-anchor="start" style="white-space: pre;" direction="ltr">// const name = emp3.name</text></g><g transform="translate(29.562960222134507 950.8611613462426) rotate(0 75.82421875 9.599999999999909)"><text x="0" y="0" font-family="Helvetica, Segoe UI Emoji" font-size="16px" fill="#000000" text-anchor="start" style="white-space: pre;" direction="ltr">const { name } = emp</text></g></svg>