<svg version="1.1" xmlns="http://www.w3.org/2000/svg" viewBox="0 0 1113.6703186035156 779.7917393684015" width="1113.6703186035156" height="779.7917393684015" filter="invert(93%) hue-rotate(180deg)">
  <!-- svg-source:excalidraw -->
  
  <defs>
    <style class="style-fonts">
      @font-face {
        font-family: "Virgil";
        src: url("https://excalidraw.com/Virgil.woff2");
      }
      @font-face {
        font-family: "Cascadia";
        src: url("https://excalidraw.com/Cascadia.woff2");
      }
    </style>
  </defs>
  <rect x="0" y="0" width="1113.6703186035156" height="779.7917393684015" fill="#ffffff"></rect><g transform="translate(53.449981689453125 123.39173021312808) rotate(0 22.2412109375 11.5)"><text x="0" y="0" font-family="Helvetica, Segoe UI Emoji" font-size="20px" fill="#000000" text-anchor="start" style="white-space: pre;" direction="ltr" dominant-baseline="text-before-edge">data </text></g><g stroke-linecap="round"><g transform="translate(119.04998779296875 134.59172716137027) rotate(0 75.1187895566784 -0.06552211139592146)"><path d="M0.69 -0.76 C25.47 -0.93, 123.51 -1.42, 148.51 -1.59 M-0.4 1.46 C24.75 1.54, 125.5 0.28, 150.64 -0.05" stroke="#000000" stroke-width="1" fill="none"></path></g><g transform="translate(119.04998779296875 134.59172716137027) rotate(0 75.1187895566784 -0.06552211139592146)"><path d="M121.32 8.74 C130.67 9.16, 138.39 5.97, 149.32 -1.81 M121.82 10.28 C128.98 8.94, 134.47 6.11, 150.85 0.72" stroke="#000000" stroke-width="1" fill="none"></path></g><g transform="translate(119.04998779296875 134.59172716137027) rotate(0 75.1187895566784 -0.06552211139592146)"><path d="M121.06 -11.78 C130.39 -5.49, 138.18 -2.83, 149.32 -1.81 M121.56 -10.23 C128.92 -7.09, 134.47 -5.42, 150.85 0.72" stroke="#000000" stroke-width="1" fill="none"></path></g></g><mask></mask><g transform="translate(149.04998779296875 103.1917332648859) rotate(0 32.79296875 11.5)"><text x="0" y="0" font-family="Helvetica, Segoe UI Emoji" font-size="20px" fill="#000000" text-anchor="start" style="white-space: pre;" direction="ltr" dominant-baseline="text-before-edge">encrypt</text></g><g transform="translate(159.04998779296875 151.5917576789484) rotate(0 32.79296875 11.5)"><text x="0" y="0" font-family="Helvetica, Segoe UI Emoji" font-size="20px" fill="#000000" text-anchor="start" style="white-space: pre;" direction="ltr" dominant-baseline="text-before-edge">decrypt</text></g><g transform="translate(286.6499328613281 124.99173631664371) rotate(0 65.0390625 11.5)"><text x="0" y="0" font-family="Helvetica, Segoe UI Emoji" font-size="20px" fill="#000000" text-anchor="start" style="white-space: pre;" direction="ltr" dominant-baseline="text-before-edge">encryptedData</text></g><g stroke-linecap="round"><g transform="translate(270.2499694824219 151.39173021312808) rotate(0 -77.61707490507513 -0.48386371098445125)"><path d="M-0.33 0.81 C-26.35 0.37, -130.42 -1.35, -156.54 -1.77 M1.7 0.19 C-24.35 -0.14, -130.39 -0.22, -156.93 -0.33" stroke="#000000" stroke-width="1" fill="none"></path></g><g transform="translate(270.2499694824219 151.39173021312808) rotate(0 -77.61707490507513 -0.48386371098445125)"><path d="M-127.37 -8.75 C-136.42 -7.02, -143.83 -6.14, -157.84 0.58 M-128.66 -9.71 C-140.32 -7.2, -151.14 -2.1, -157.46 -0.21" stroke="#000000" stroke-width="1" fill="none"></path></g><g transform="translate(270.2499694824219 151.39173021312808) rotate(0 -77.61707490507513 -0.48386371098445125)"><path d="M-127.42 11.77 C-136.61 8.06, -144 3.49, -157.84 0.58 M-128.71 10.81 C-140.16 5.44, -150.96 2.65, -157.46 -0.21" stroke="#000000" stroke-width="1" fill="none"></path></g></g><mask></mask><g transform="translate(173.19998168945312 56.24172105785465) rotate(0 47.24609375 11.5)"><text x="0" y="0" font-family="Helvetica, Segoe UI Emoji" font-size="20px" fill="#000000" text-anchor="start" style="white-space: pre;" direction="ltr" dominant-baseline="text-before-edge">Encryption</text></g><g stroke-linecap="round" transform="translate(10 20.041739368401522) rotate(0 225.59999084472656 104.79999542236328)"><path d="M32 0 M32 0 C122.12 1.72, 212.67 -0.05, 419.2 0 M32 0 C171.82 2.39, 311.31 2.77, 419.2 0 M419.2 0 C441.09 1.9, 450.29 10.96, 451.2 32 M419.2 0 C440.84 -1.42, 453.02 12.95, 451.2 32 M451.2 32 C449.42 70.25, 452.38 111.78, 451.2 177.6 M451.2 32 C452.4 77.71, 451.77 124.07, 451.2 177.6 M451.2 177.6 C451.01 197.01, 438.75 211.33, 419.2 209.6 M451.2 177.6 C450.92 197.19, 442.83 207.83, 419.2 209.6 M419.2 209.6 C322.83 208.28, 227.86 208.32, 32 209.6 M419.2 209.6 C334.47 210.56, 249.4 211.33, 32 209.6 M32 209.6 C10.66 209.31, 1.22 200.5, 0 177.6 M32 209.6 C10.67 211.26, -0.22 196.78, 0 177.6 M0 177.6 C-1.55 136.05, -1.19 89.17, 0 32 M0 177.6 C0.64 134.21, 0.72 90.54, 0 32 M0 32 C-0.63 12.32, 12.07 -1.14, 32 0 M0 32 C-0.8 10.67, 8.65 1.9, 32 0" stroke="#000000" stroke-width="1" fill="none"></path></g><g transform="translate(528.2499694824219 125.39173021312808) rotate(0 22.2412109375 11.5)"><text x="0" y="0" font-family="Helvetica, Segoe UI Emoji" font-size="20px" fill="#000000" text-anchor="start" style="white-space: pre;" direction="ltr" dominant-baseline="text-before-edge">data </text></g><g stroke-linecap="round"><g transform="translate(593.8499755859375 136.59172716137027) rotate(0 74.3451483597513 -1.2945290760849275)"><path d="M0.61 -0.37 C25.4 -0.47, 124.25 -0.29, 149.22 -0.61 M-0.53 -1.61 C24.02 -2.03, 122.96 -2.26, 148.07 -2.21" stroke="#000000" stroke-width="1" fill="none"></path></g><g transform="translate(593.8499755859375 136.59172716137027) rotate(0 74.3451483597513 -1.2945290760849275)"><path d="M119.27 7.44 C131.18 5.81, 138.04 0.2, 148.07 -3.97 M120.27 8.56 C130.87 3.06, 141.44 0.99, 147.25 -1.69" stroke="#000000" stroke-width="1" fill="none"></path></g><g transform="translate(593.8499755859375 136.59172716137027) rotate(0 74.3451483597513 -1.2945290760849275)"><path d="M119.25 -13.08 C131.17 -7.69, 138.03 -6.29, 148.07 -3.97 M120.26 -11.96 C130.93 -9.61, 141.51 -3.83, 147.25 -1.69" stroke="#000000" stroke-width="1" fill="none"></path></g></g><mask></mask><g transform="translate(623.8499755859375 105.1917332648859) rotate(0 21.6845703125 11.5)"><text x="0" y="0" font-family="Helvetica, Segoe UI Emoji" font-size="20px" fill="#000000" text-anchor="start" style="white-space: pre;" direction="ltr" dominant-baseline="text-before-edge">hash</text></g><g transform="translate(761.4499206542969 126.99173631664371) rotate(0 53.9306640625 11.5)"><text x="0" y="0" font-family="Helvetica, Segoe UI Emoji" font-size="20px" fill="#000000" text-anchor="start" style="white-space: pre;" direction="ltr" dominant-baseline="text-before-edge">hashedData</text></g><g stroke-linecap="round"><g transform="translate(745.0499572753906 153.39173021312808) rotate(0 -79.17364364602611 -0.012185646952730167)"><path d="M0.84 -0.68 C-25.43 -1.11, -131.44 -1.61, -158.02 -1.6 M-0.18 1.58 C-26.61 1.26, -133.16 0.61, -159.19 -0.06" stroke="#000000" stroke-width="1" fill="none"></path></g><g transform="translate(745.0499572753906 153.39173021312808) rotate(0 -79.17364364602611 -0.012185646952730167)"><path d="M-131.99 -10.61 C-138.37 -8.83, -144.33 -3.73, -158.5 0.71 M-130.82 -9.03 C-141.54 -6.23, -151.09 -4.04, -159.72 -0.39" stroke="#000000" stroke-width="1" fill="none"></path></g><g transform="translate(745.0499572753906 153.39173021312808) rotate(0 -79.17364364602611 -0.012185646952730167)"><path d="M-132.28 9.91 C-138.76 6.18, -144.64 5.78, -158.5 0.71 M-131.12 11.48 C-141.78 7.13, -151.23 2.16, -159.72 -0.39" stroke="#000000" stroke-width="1" fill="none"></path></g></g><mask></mask><g transform="translate(647.9999694824219 58.24172105785465) rotate(0 36.689453125 11.5)"><text x="0" y="0" font-family="Helvetica, Segoe UI Emoji" font-size="20px" fill="#000000" text-anchor="start" style="white-space: pre;" direction="ltr" dominant-baseline="text-before-edge">Hashing</text></g><g stroke-linecap="round" transform="translate(484.79998779296875 22.041739368401522) rotate(0 225.59999084472656 104.79999542236328)"><path d="M32 0 M32 0 C175.27 -0.24, 319.52 1.21, 419.2 0 M32 0 C161.64 -1.69, 291.01 -0.6, 419.2 0 M419.2 0 C438.88 1.05, 450.22 9.22, 451.2 32 M419.2 0 C439.3 -0.76, 449.38 12.47, 451.2 32 M451.2 32 C450.77 86.38, 451.69 142.03, 451.2 177.6 M451.2 32 C452.47 85.6, 453 140.77, 451.2 177.6 M451.2 177.6 C451.31 199.14, 442.52 208.96, 419.2 209.6 M451.2 177.6 C453.06 198.44, 438.66 210.2, 419.2 209.6 M419.2 209.6 C324.66 211.83, 230.94 212.04, 32 209.6 M419.2 209.6 C280.97 208.06, 143.9 207.32, 32 209.6 M32 209.6 C12.63 210.21, 1.91 198.96, 0 177.6 M32 209.6 C8.81 210.59, 1.83 200.66, 0 177.6 M0 177.6 C1.54 145.19, 0.48 113.54, 0 32 M0 177.6 C0.68 147.11, 0.68 115.06, 0 32 M0 32 C0.53 11.93, 12.58 -0.67, 32 0 M0 32 C-1.38 11.62, 8.38 -2.26, 32 0" stroke="#000000" stroke-width="1" fill="none"></path></g><g stroke-linecap="round"><g transform="translate(645.0000305175781 135.24170579906558) rotate(0 21.347639688616596 24.75830813922903)"><path d="M0.72 -1.14 C7.79 7.31, 36.25 41.01, 43.06 49.56 M-0.36 0.88 C6.55 9.56, 35.06 42.25, 42.46 50.65" stroke="#000000" stroke-width="1" fill="none"></path></g></g><mask></mask><g stroke-linecap="round"><g transform="translate(470.2499694824219 9.99173631664371) rotate(0 0.7109198246760116 360.61033410970117)"><path d="M-0.31 0.69 C-0.32 120.87, 0.51 600, 0.59 720.06 M1.73 0.01 C1.55 120.42, 0.32 600.8, -0.04 721.21" stroke="#000000" stroke-width="1" fill="none"></path></g></g><mask></mask><g transform="translate(53.449981689453125 260.3917302131281) rotate(0 82.28515625 23)"><text x="0" y="0" font-family="Helvetica, Segoe UI Emoji" font-size="20px" fill="#000000" text-anchor="start" style="white-space: pre;" direction="ltr" dominant-baseline="text-before-edge">base64 - encoding</text><text x="0" y="23" font-family="Helvetica, Segoe UI Emoji" font-size="20px" fill="#000000" text-anchor="start" style="white-space: pre;" direction="ltr" dominant-baseline="text-before-edge">custom encryption</text></g><g transform="translate(493.4499816894531 269.3917302131281) rotate(0 40.576171875 23)"><text x="0" y="0" font-family="Helvetica, Segoe UI Emoji" font-size="20px" fill="#000000" text-anchor="start" style="white-space: pre;" direction="ltr" dominant-baseline="text-before-edge">MD-5 </text><text x="0" y="23" font-family="Helvetica, Segoe UI Emoji" font-size="20px" fill="#000000" text-anchor="start" style="white-space: pre;" direction="ltr" dominant-baseline="text-before-edge">SHA-256</text></g><g transform="translate(497.4499816894531 335.3917302131281) rotate(0 197.87109375 46)"><text x="0" y="0" font-family="Helvetica, Segoe UI Emoji" font-size="20px" fill="#000000" text-anchor="start" style="white-space: pre;" direction="ltr" dominant-baseline="text-before-edge">passwords are always stored in hashed form</text><text x="0" y="23" font-family="Helvetica, Segoe UI Emoji" font-size="20px" fill="#000000" text-anchor="start" style="white-space: pre;" direction="ltr" dominant-baseline="text-before-edge"></text><text x="0" y="46" font-family="Helvetica, Segoe UI Emoji" font-size="20px" fill="#000000" text-anchor="start" style="white-space: pre;" direction="ltr" dominant-baseline="text-before-edge">data + salt</text><text x="0" y="69" font-family="Helvetica, Segoe UI Emoji" font-size="20px" fill="#000000" text-anchor="start" style="white-space: pre;" direction="ltr" dominant-baseline="text-before-edge">        (random data)</text></g><g stroke-linecap="round"><g transform="translate(610.2499694824219 397.99176683422183) rotate(0 38.52837053621181 0.7714753512293555)"><path d="M0.85 -1.07 C13.91 -0.65, 64.6 2.28, 77.21 2.61 M-0.16 0.99 C12.88 1.07, 63.85 0.87, 76.48 1.02" stroke="#000000" stroke-width="1" fill="none"></path></g><g transform="translate(610.2499694824219 397.99176683422183) rotate(0 38.52837053621181 0.7714753512293555)"><path d="M46.48 11.88 C55.7 8.48, 58.65 5.57, 76.48 1.54 M48.15 11.47 C56.26 8.83, 64.54 5.66, 77.41 0.35" stroke="#000000" stroke-width="1" fill="none"></path></g><g transform="translate(610.2499694824219 397.99176683422183) rotate(0 38.52837053621181 0.7714753512293555)"><path d="M46.54 -8.64 C55.77 -7.85, 58.71 -6.57, 76.48 1.54 M48.21 -9.05 C56.26 -6.05, 64.53 -3.57, 77.41 0.35" stroke="#000000" stroke-width="1" fill="none"></path></g></g><mask></mask><g transform="translate(700.6499328613281 384.39179124828433) rotate(0 47.8076171875 11.5)"><text x="0" y="0" font-family="Helvetica, Segoe UI Emoji" font-size="20px" fill="#000000" text-anchor="start" style="white-space: pre;" direction="ltr" dominant-baseline="text-before-edge">saltedData</text></g><g stroke-linecap="round"><g transform="translate(807.1000061035156 397.19171800609683) rotate(0 63.67473900521179 -0.6018871529165608)"><path d="M0.56 -1.11 C21.92 -1.61, 106.66 -2.22, 127.96 -2.11 M-0.61 0.92 C20.67 0.5, 105.94 -0.33, 127.41 -0.84" stroke="#000000" stroke-width="1" fill="none"></path></g><g transform="translate(807.1000061035156 397.19171800609683) rotate(0 63.67473900521179 -0.6018871529165608)"><path d="M97.53 11.13 C106.43 8.62, 117.21 3.3, 126.88 -1.53 M98.84 9.55 C105.26 7.8, 111.16 4.76, 127.29 -1.28" stroke="#000000" stroke-width="1" fill="none"></path></g><g transform="translate(807.1000061035156 397.19171800609683) rotate(0 63.67473900521179 -0.6018871529165608)"><path d="M97.21 -9.39 C106.35 -6.06, 117.21 -5.55, 126.88 -1.53 M98.51 -10.97 C105.07 -8.26, 111.04 -6.84, 127.29 -1.28" stroke="#000000" stroke-width="1" fill="none"></path></g></g><mask></mask><g transform="translate(829.5000305175781 365.99176683422183) rotate(0 21.6845703125 11.5)"><text x="0" y="0" font-family="Helvetica, Segoe UI Emoji" font-size="20px" fill="#000000" text-anchor="start" style="white-space: pre;" direction="ltr" dominant-baseline="text-before-edge">hash</text></g><g transform="translate(939.1000061035156 383.59174242015933) rotate(0 82.28515625 11.5)"><text x="0" y="0" font-family="Helvetica, Segoe UI Emoji" font-size="20px" fill="#000000" text-anchor="start" style="white-space: pre;" direction="ltr" dominant-baseline="text-before-edge">hashedSaltedData</text></g><g transform="translate(500.4999084472656 437.79172410961246) rotate(0 63.642578125 11.5)"><text x="0" y="0" font-family="Helvetica, Segoe UI Emoji" font-size="20px" fill="#000000" text-anchor="start" style="white-space: pre;" direction="ltr" dominant-baseline="text-before-edge">qwerty123   -&gt;</text></g><g transform="translate(650.6999206542969 434.79172410961246) rotate(0 165.1513671875 11.5)"><text x="0" y="0" font-family="Helvetica, Segoe UI Emoji" font-size="20px" fill="#000000" text-anchor="start" style="white-space: pre;" direction="ltr" dominant-baseline="text-before-edge">3fc0a7acf087f549ac2b266baf94b8b1</text></g><g transform="translate(994.2998962402344 435.1916874885187) rotate(0 45.576171875 11.5)"><text x="0" y="0" font-family="Helvetica, Segoe UI Emoji" font-size="20px" fill="#000000" text-anchor="start" style="white-space: pre;" direction="ltr" dominant-baseline="text-before-edge">md5 Hash</text></g><g transform="translate(507.6999816894531 470.7917393684015) rotate(0 262.646484375 149.5)"><text x="0" y="0" font-family="Helvetica, Segoe UI Emoji" font-size="20px" fill="#000000" text-anchor="start" style="white-space: pre;" direction="ltr" dominant-baseline="text-before-edge">to perform integrity check</text><text x="0" y="23" font-family="Helvetica, Segoe UI Emoji" font-size="20px" fill="#000000" text-anchor="start" style="white-space: pre;" direction="ltr" dominant-baseline="text-before-edge">checksum - </text><text x="0" y="46" font-family="Helvetica, Segoe UI Emoji" font-size="20px" fill="#000000" text-anchor="start" style="white-space: pre;" direction="ltr" dominant-baseline="text-before-edge"></text><text x="0" y="69" font-family="Helvetica, Segoe UI Emoji" font-size="20px" fill="#000000" text-anchor="start" style="white-space: pre;" direction="ltr" dominant-baseline="text-before-edge">luhn checksum for credit card number validation</text><text x="0" y="92" font-family="Helvetica, Segoe UI Emoji" font-size="20px" fill="#000000" text-anchor="start" style="white-space: pre;" direction="ltr" dominant-baseline="text-before-edge"></text><text x="0" y="115" font-family="Helvetica, Segoe UI Emoji" font-size="20px" fill="#000000" text-anchor="start" style="white-space: pre;" direction="ltr" dominant-baseline="text-before-edge">fot 15 digits only</text><text x="0" y="138" font-family="Helvetica, Segoe UI Emoji" font-size="20px" fill="#000000" text-anchor="start" style="white-space: pre;" direction="ltr" dominant-baseline="text-before-edge">for every odd place number-&gt; multiply by 2 and mod 9</text><text x="0" y="161" font-family="Helvetica, Segoe UI Emoji" font-size="20px" fill="#000000" text-anchor="start" style="white-space: pre;" direction="ltr" dominant-baseline="text-before-edge">even places -&gt; leave as it is</text><text x="0" y="184" font-family="Helvetica, Segoe UI Emoji" font-size="20px" fill="#000000" text-anchor="start" style="white-space: pre;" direction="ltr" dominant-baseline="text-before-edge">checksum =  add all the numbers got and take sum mod 10</text><text x="0" y="207" font-family="Helvetica, Segoe UI Emoji" font-size="20px" fill="#000000" text-anchor="start" style="white-space: pre;" direction="ltr" dominant-baseline="text-before-edge">checksum === 16th digit</text><text x="0" y="230" font-family="Helvetica, Segoe UI Emoji" font-size="20px" fill="#000000" text-anchor="start" style="white-space: pre;" direction="ltr" dominant-baseline="text-before-edge"></text><text x="0" y="253" font-family="Helvetica, Segoe UI Emoji" font-size="20px" fill="#000000" text-anchor="start" style="white-space: pre;" direction="ltr" dominant-baseline="text-before-edge"></text><text x="0" y="276" font-family="Helvetica, Segoe UI Emoji" font-size="20px" fill="#000000" text-anchor="start" style="white-space: pre;" direction="ltr" dominant-baseline="text-before-edge"></text></g><g transform="translate(23.699981689453125 335.1417302131281) rotate(0 211.767578125 23)"><text x="0" y="0" font-family="Helvetica, Segoe UI Emoji" font-size="20px" fill="#000000" text-anchor="start" style="white-space: pre;" direction="ltr" dominant-baseline="text-before-edge">userData stored in form of local/session storage</text><text x="0" y="23" font-family="Helvetica, Segoe UI Emoji" font-size="20px" fill="#000000" text-anchor="start" style="white-space: pre;" direction="ltr" dominant-baseline="text-before-edge">cookies</text></g></svg>