<svg version="1.1" xmlns="http://www.w3.org/2000/svg" viewBox="0 0 1195.501742892795 619.2221747504354" width="1195.501742892795" height="619.2221747504354" filter="invert(93%) hue-rotate(180deg)">
  <!-- svg-source:excalidraw -->
  
  <defs>
    <style class="style-fonts">
      @font-face {
        font-family: "Virgil";
        src: url("https://excalidraw.com/Virgil.woff2");
      }
      @font-face {
        font-family: "Cascadia";
        src: url("https://excalidraw.com/Cascadia.woff2");
      }
    </style>
  </defs>
  <rect x="0" y="0" width="1195.501742892795" height="619.2221747504354" fill="#ffffff"></rect><g stroke-linecap="round" transform="translate(24.66668023003507 86.277737087672) rotate(0 120.56912017844002 115.18288950733813)"><path d="M32 0 M32 0 C88.06 -0.38, 146.35 0.73, 209.14 0 M32 0 C90.78 -1.07, 148.33 -0.88, 209.14 0 M209.14 0 C230.15 0.94, 241.3 10.74, 241.14 32 M209.14 0 C230.27 -0.51, 243.17 9.82, 241.14 32 M241.14 32 C241.89 96.54, 240.33 159.05, 241.14 198.37 M241.14 32 C240.78 90.77, 240.57 150.89, 241.14 198.37 M241.14 198.37 C239.63 220.9, 230.96 231.67, 209.14 230.37 M241.14 198.37 C239.1 219.96, 231.53 231.03, 209.14 230.37 M209.14 230.37 C172.39 232.41, 135.55 233.85, 32 230.37 M209.14 230.37 C166.92 231.27, 124.1 232.52, 32 230.37 M32 230.37 C8.88 230.46, -1.91 221.31, 0 198.37 M32 230.37 C12.25 232.18, -0.71 220.15, 0 198.37 M0 198.37 C-1.65 133.89, -1.61 72.89, 0 32 M0 198.37 C-0.66 151.77, -0.28 105.26, 0 32 M0 32 C0.46 9.97, 10.2 1.81, 32 0 M0 32 C-2.13 9.8, 10.2 -1.33, 32 0" stroke="#000000" stroke-width="1" fill="none"></path></g><g transform="translate(397.3333401150178 10) rotate(0 194.54589843749997 96)"><text x="0" y="0" font-family="Helvetica, Segoe UI Emoji" font-size="20px" fill="#000000" text-anchor="start" style="white-space: pre;" direction="ltr" dominant-baseline="text-before-edge">No-sql, key value </text><text x="0" y="24" font-family="Helvetica, Segoe UI Emoji" font-size="20px" fill="#000000" text-anchor="start" style="white-space: pre;" direction="ltr" dominant-baseline="text-before-edge"></text><text x="0" y="48" font-family="Helvetica, Segoe UI Emoji" font-size="20px" fill="#000000" text-anchor="start" style="white-space: pre;" direction="ltr" dominant-baseline="text-before-edge"></text><text x="0" y="72" font-family="Helvetica, Segoe UI Emoji" font-size="20px" fill="#000000" text-anchor="start" style="white-space: pre;" direction="ltr" dominant-baseline="text-before-edge"></text><text x="0" y="96" font-family="Helvetica, Segoe UI Emoji" font-size="20px" fill="#000000" text-anchor="start" style="white-space: pre;" direction="ltr" dominant-baseline="text-before-edge">sql - sql, postgre SQL - relational databases</text><text x="0" y="120" font-family="Helvetica, Segoe UI Emoji" font-size="20px" fill="#000000" text-anchor="start" style="white-space: pre;" direction="ltr" dominant-baseline="text-before-edge">'data is stored in the form of tables</text><text x="0" y="144" font-family="Helvetica, Segoe UI Emoji" font-size="20px" fill="#000000" text-anchor="start" style="white-space: pre;" direction="ltr" dominant-baseline="text-before-edge"></text><text x="0" y="168" font-family="Helvetica, Segoe UI Emoji" font-size="20px" fill="#000000" text-anchor="start" style="white-space: pre;" direction="ltr" dominant-baseline="text-before-edge">SQL/ Relational DB</text></g><g stroke-linecap="round"><g transform="translate(808.2222154405385 138.6666531032988) rotate(0 4.123907481457877 215.92585341488984)"><path d="M-1.04 0.41 C0.17 72.47, 5.75 360.39, 7.07 432.27 M0.61 -0.42 C2.21 71.27, 7.86 358.08, 9.29 430.29" stroke="#000000" stroke-width="1" fill="none"></path></g></g><mask></mask><g transform="translate(362.88889567057333 222.22222222222172) rotate(0 186.18652343750003 24)"><text x="0" y="0" font-family="Helvetica, Segoe UI Emoji" font-size="20px" fill="#000000" text-anchor="start" style="white-space: pre;" direction="ltr" dominant-baseline="text-before-edge">1. data is stored in tabular format</text><text x="0" y="24" font-family="Helvetica, Segoe UI Emoji" font-size="20px" fill="#000000" text-anchor="start" style="white-space: pre;" direction="ltr" dominant-baseline="text-before-edge">    columns - data-fields, row - data entries</text></g><g transform="translate(857.1111043294275 174.88888210720415) rotate(0 152.841796875 12)"><text x="0" y="0" font-family="Helvetica, Segoe UI Emoji" font-size="20px" fill="#000000" text-anchor="start" style="white-space: pre;" direction="ltr" dominant-baseline="text-before-edge">no-SQL/ key-value DB - MongoDB</text></g><g transform="translate(829.55556233724 226.66666666666606) rotate(0 78.916015625 24)"><text x="0" y="0" font-family="Helvetica, Segoe UI Emoji" font-size="20px" fill="#000000" text-anchor="start" style="white-space: pre;" direction="ltr" dominant-baseline="text-before-edge">collection - tables</text><text x="0" y="24" font-family="Helvetica, Segoe UI Emoji" font-size="20px" fill="#000000" text-anchor="start" style="white-space: pre;" direction="ltr" dominant-baseline="text-before-edge">documents - rows</text></g><g transform="translate(365.11111789279516 311.1111111111095) rotate(0 124.51660156249997 12)"><text x="0" y="0" font-family="Helvetica, Segoe UI Emoji" font-size="20px" fill="#000000" text-anchor="start" style="white-space: pre;" direction="ltr" dominant-baseline="text-before-edge">2. they have a fixed schema</text></g><g transform="translate(841.7777845594619 282.2222222222208) rotate(0 105.048828125 36)"><text x="0" y="0" font-family="Helvetica, Segoe UI Emoji" font-size="20px" fill="#000000" text-anchor="start" style="white-space: pre;" direction="ltr" dominant-baseline="text-before-edge">JSON</text><text x="0" y="24" font-family="Helvetica, Segoe UI Emoji" font-size="20px" fill="#000000" text-anchor="start" style="white-space: pre;" direction="ltr" dominant-baseline="text-before-edge"></text><text x="0" y="48" font-family="Helvetica, Segoe UI Emoji" font-size="20px" fill="#000000" text-anchor="start" style="white-space: pre;" direction="ltr" dominant-baseline="text-before-edge">its flexible/ unstructured</text></g><g transform="translate(59.780846664707695 117.30047600934722) rotate(0 58.54119110107422 43.19999999999982)"><text x="0" y="0" font-family="Helvetica, Segoe UI Emoji" font-size="18.64471028359279px" fill="#000000" text-anchor="start" style="white-space: pre;" direction="ltr" dominant-baseline="text-before-edge">student_id</text><text x="0" y="21.599999999999998" font-family="Helvetica, Segoe UI Emoji" font-size="18.64471028359279px" fill="#000000" text-anchor="start" style="white-space: pre;" direction="ltr" dominant-baseline="text-before-edge">Course_id</text><text x="0" y="43.199999999999996" font-family="Helvetica, Segoe UI Emoji" font-size="18.64471028359279px" fill="#000000" text-anchor="start" style="white-space: pre;" direction="ltr" dominant-baseline="text-before-edge">Course_name</text><text x="0" y="64.8" font-family="Helvetica, Segoe UI Emoji" font-size="18.64471028359279px" fill="#000000" text-anchor="start" style="white-space: pre;" direction="ltr" dominant-baseline="text-before-edge">Instructor</text></g><g transform="translate(362.888895670573 388.33333333333485) rotate(0 210.11230468749997 36)"><text x="0" y="0" font-family="Helvetica, Segoe UI Emoji" font-size="20px" fill="#000000" text-anchor="start" style="white-space: pre;" direction="ltr" dominant-baseline="text-before-edge">3. Normalisation, joins</text><text x="0" y="24" font-family="Helvetica, Segoe UI Emoji" font-size="20px" fill="#000000" text-anchor="start" style="white-space: pre;" direction="ltr" dominant-baseline="text-before-edge">    for transactions data needs to be Normalised</text><text x="0" y="48" font-family="Helvetica, Segoe UI Emoji" font-size="20px" fill="#000000" text-anchor="start" style="white-space: pre;" direction="ltr" dominant-baseline="text-before-edge">    for reading data- we need to perform joins</text></g><g transform="translate(34.22529110915215 497.07824022375735) rotate(0 43.00939178466797 32.40000000000009)"><text x="0" y="0" font-family="Helvetica, Segoe UI Emoji" font-size="18.64471028359279px" fill="#000000" text-anchor="start" style="white-space: pre;" direction="ltr" dominant-baseline="text-before-edge">student_id</text><text x="0" y="21.599999999999998" font-family="Helvetica, Segoe UI Emoji" font-size="18.64471028359279px" fill="#000000" text-anchor="start" style="white-space: pre;" direction="ltr" dominant-baseline="text-before-edge">Course_id</text><text x="0" y="43.199999999999996" font-family="Helvetica, Segoe UI Emoji" font-size="18.64471028359279px" fill="#000000" text-anchor="start" style="white-space: pre;" direction="ltr" dominant-baseline="text-before-edge"></text></g><g stroke-linecap="round" transform="translate(10 474.7777981228319) rotate(0 75.11111789279514 56.88885158962648)"><path d="M28.44 0 M28.44 0 C61.03 0.02, 91.79 0.7, 121.78 0 M28.44 0 C50.26 1.19, 70.97 0.81, 121.78 0 M121.78 0 C142.48 -0.4, 149.61 9.5, 150.22 28.44 M121.78 0 C140.87 1.07, 150.23 11.09, 150.22 28.44 M150.22 28.44 C150.6 42.12, 147.72 54.36, 150.22 85.33 M150.22 28.44 C149.44 44.07, 149.94 61.56, 150.22 85.33 M150.22 85.33 C150.36 103.1, 142.02 112.25, 121.78 113.78 M150.22 85.33 C149.4 106.41, 139.35 115.06, 121.78 113.78 M121.78 113.78 C99.64 115.74, 76.53 115.13, 28.44 113.78 M121.78 113.78 C92.87 115.19, 63.89 114.84, 28.44 113.78 M28.44 113.78 C7.93 112.82, 1.7 104.83, 0 85.33 M28.44 113.78 C8.01 115, -0.33 106.49, 0 85.33 M0 85.33 C1.44 71.79, -1.38 59.17, 0 28.44 M0 85.33 C-0.04 74.13, -0.83 61.47, 0 28.44 M0 28.44 C-1.02 10.81, 10.91 -0.81, 28.44 0 M0 28.44 C-0.78 10.47, 8.91 -1.58, 28.44 0" stroke="#000000" stroke-width="1" fill="none"></path></g><g stroke-linecap="round" transform="translate(228.66668701171875 474.7777303059911) rotate(0 71.99998643663196 59.555562337239735)"><path d="M29.78 0 M29.78 0 C54.05 0.27, 77.92 0.46, 114.22 0 M29.78 0 C52.26 0.85, 75.74 1.26, 114.22 0 M114.22 0 C133.14 -1.86, 142.78 11.56, 144 29.78 M114.22 0 C133.16 0.74, 145.77 8.08, 144 29.78 M144 29.78 C145.84 45.3, 144.47 63.54, 144 89.33 M144 29.78 C144.41 52.23, 144.08 74.05, 144 89.33 M144 89.33 C144.31 108.62, 133.63 117.82, 114.22 119.11 M144 89.33 C141.99 108.72, 135.38 119.84, 114.22 119.11 M114.22 119.11 C82.23 119.96, 50.65 119.94, 29.78 119.11 M114.22 119.11 C83.47 119.55, 51.39 118.64, 29.78 119.11 M29.78 119.11 C10.67 118.88, -0.23 110.49, 0 89.33 M29.78 119.11 C9.08 117.47, -0.69 109.77, 0 89.33 M0 89.33 C-1.61 75.04, 1.22 60.69, 0 29.78 M0 89.33 C0.88 73.5, 0.52 55.69, 0 29.78 M0 29.78 C0.79 11.27, 9.12 -1.61, 29.78 0 M0 29.78 C-1.56 11.06, 10.72 1.8, 29.78 0" stroke="#000000" stroke-width="1" fill="none"></path></g><g transform="translate(247.77777777777783 489.22217475043544) rotate(0 58.359375 60)"><text x="0" y="0" font-family="Helvetica, Segoe UI Emoji" font-size="20px" fill="#000000" text-anchor="start" style="white-space: pre;" direction="ltr" dominant-baseline="text-before-edge"></text><text x="0" y="24" font-family="Helvetica, Segoe UI Emoji" font-size="20px" fill="#000000" text-anchor="start" style="white-space: pre;" direction="ltr" dominant-baseline="text-before-edge">course-name</text><text x="0" y="48" font-family="Helvetica, Segoe UI Emoji" font-size="20px" fill="#000000" text-anchor="start" style="white-space: pre;" direction="ltr" dominant-baseline="text-before-edge">course_id</text><text x="0" y="72" font-family="Helvetica, Segoe UI Emoji" font-size="20px" fill="#000000" text-anchor="start" style="white-space: pre;" direction="ltr" dominant-baseline="text-before-edge">instructor</text><text x="0" y="96" font-family="Helvetica, Segoe UI Emoji" font-size="20px" fill="#000000" text-anchor="start" style="white-space: pre;" direction="ltr" dominant-baseline="text-before-edge"></text></g><g stroke-linecap="round"><g transform="translate(117.55557590060766 520.1111178927968) rotate(0 51.09033784714839 11.802996581982825)"><path d="M1.05 0.04 C17.7 4.02, 83.28 19.25, 99.71 23.37 M0.15 -0.98 C17.19 3.19, 85.04 20.62, 102.03 24.58" stroke="#000000" stroke-width="1" fill="none"></path></g><g transform="translate(117.55557590060766 520.1111178927968) rotate(0 51.09033784714839 11.802996581982825)"><path d="M72.28 26.56 C79.72 25.24, 90.59 27.43, 103.46 23.14 M72.09 28.55 C81.58 26.84, 90.29 25.55, 102.04 23.94" stroke="#000000" stroke-width="1" fill="none"></path></g><g transform="translate(117.55557590060766 520.1111178927968) rotate(0 51.09033784714839 11.802996581982825)"><path d="M77.2 6.64 C83.15 11.06, 92.61 18.96, 103.46 23.14 M77.01 8.63 C85.05 13.18, 92.22 18.13, 102.04 23.94" stroke="#000000" stroke-width="1" fill="none"></path></g></g><mask></mask><g transform="translate(262.0000203450521 450.3333197699676) rotate(0 30.0146484375 12)"><text x="0" y="0" font-family="Helvetica, Segoe UI Emoji" font-size="20px" fill="#000000" text-anchor="start" style="white-space: pre;" direction="ltr" dominant-baseline="text-before-edge">course</text></g><g transform="translate(42.000020345052064 438.99995591905554) rotate(0 32.802734375 12)"><text x="0" y="0" font-family="Helvetica, Segoe UI Emoji" font-size="20px" fill="#000000" text-anchor="start" style="white-space: pre;" direction="ltr" dominant-baseline="text-before-edge">student</text></g><g transform="translate(836.2222290039065 403.8888888888905) rotate(0 136.19140625 24)"><text x="0" y="0" font-family="Helvetica, Segoe UI Emoji" font-size="20px" fill="#000000" text-anchor="start" style="white-space: pre;" direction="ltr" dominant-baseline="text-before-edge">no need for normalisation/joins</text><text x="0" y="24" font-family="Helvetica, Segoe UI Emoji" font-size="20px" fill="#000000" text-anchor="start" style="white-space: pre;" direction="ltr" dominant-baseline="text-before-edge">all the data is present as is</text></g><g transform="translate(388.66668701171886 500.3333197699676) rotate(0 199.53125000000003 24)"><text x="0" y="0" font-family="Helvetica, Segoe UI Emoji" font-size="20px" fill="#000000" text-anchor="start" style="white-space: pre;" direction="ltr" dominant-baseline="text-before-edge">4. usecases - banks, financial services, stock</text><text x="0" y="24" font-family="Helvetica, Segoe UI Emoji" font-size="20px" fill="#000000" text-anchor="start" style="white-space: pre;" direction="ltr" dominant-baseline="text-before-edge">market </text></g><g transform="translate(838.4444512261286 505.0000000000018) rotate(0 85.6005859375 24)"><text x="0" y="0" font-family="Helvetica, Segoe UI Emoji" font-size="20px" fill="#000000" text-anchor="start" style="white-space: pre;" direction="ltr" dominant-baseline="text-before-edge">high availablity, </text><text x="0" y="24" font-family="Helvetica, Segoe UI Emoji" font-size="20px" fill="#000000" text-anchor="start" style="white-space: pre;" direction="ltr" dominant-baseline="text-before-edge">social media apps, </text></g><g stroke-linecap="round"><g transform="translate(140.44447157118054 329.5000203450554) rotate(0 1.3943691541182233 66.87726984301389)"><path d="M-0.1 -1.14 C0.75 21.24, 3.58 112.5, 4.4 134.89 M-1.61 0.88 C-0.87 22.86, 2.46 110.93, 3.43 133.12" stroke="#000000" stroke-width="1" fill="none"></path></g><g transform="translate(140.44447157118054 329.5000203450554) rotate(0 1.3943691541182233 66.87726984301389)"><path d="M-9.86 105.29 C-3.93 112.72, -3.93 117.82, 3.85 132.4 M-8.72 105.88 C-2.75 115.89, 1.63 126.49, 2.48 133.67" stroke="#000000" stroke-width="1" fill="none"></path></g><g transform="translate(140.44447157118054 329.5000203450554) rotate(0 1.3943691541182233 66.87726984301389)"><path d="M10.65 104.47 C11.59 112.08, 6.61 117.38, 3.85 132.4 M11.78 105.06 C9.83 115.37, 6.29 126.29, 2.48 133.67" stroke="#000000" stroke-width="1" fill="none"></path></g></g><mask></mask><g transform="translate(153.55556911892364 331.72224256727804) rotate(0 82.2802734375 36)"><text x="0" y="0" font-family="Helvetica, Segoe UI Emoji" font-size="20px" fill="#000000" text-anchor="start" style="white-space: pre;" direction="ltr" dominant-baseline="text-before-edge">normalisation</text><text x="0" y="24" font-family="Helvetica, Segoe UI Emoji" font-size="20px" fill="#000000" text-anchor="start" style="white-space: pre;" direction="ltr" dominant-baseline="text-before-edge">breaking the table </text><text x="0" y="48" font-family="Helvetica, Segoe UI Emoji" font-size="20px" fill="#000000" text-anchor="start" style="white-space: pre;" direction="ltr" dominant-baseline="text-before-edge">into diff tables</text></g><g transform="translate(927.6111178927949 11.388888888891415) rotate(0 128.94531249999994 24)"><text x="0" y="0" font-family="Helvetica, Segoe UI Emoji" font-size="20px" fill="#000000" text-anchor="start" style="white-space: pre;" direction="ltr" dominant-baseline="text-before-edge">cap - consistency availability </text><text x="0" y="24" font-family="Helvetica, Segoe UI Emoji" font-size="20px" fill="#000000" text-anchor="start" style="white-space: pre;" direction="ltr" dominant-baseline="text-before-edge">    partition tolerance</text></g></svg>